<svg width="62" height="20" viewBox="0 0 62 20" fill="#DADADA" xmlns="http://www.w3.org/2000/svg">
    <g id="Frame 154">
        <path id="Vector"
            d="M61.7022 4.33538H41.2906V0.403886C41.2909 0.350967 41.2808 0.298505 41.2608 0.249518C41.2408 0.200531 41.2113 0.155987 41.174 0.118449C41.1367 0.0809106 41.0923 0.0511204 41.0435 0.0307921C40.9946 0.0104637 40.9422 -1.07338e-06 40.8893 0H21.6536C21.6007 -1.07338e-06 21.5483 0.0104637 21.4994 0.0307921C21.4506 0.0511204 21.4062 0.0809106 21.3689 0.118449C21.3316 0.155987 21.3021 0.200531 21.2821 0.249518C21.2621 0.298505 21.2519 0.350967 21.2523 0.403886V4.33538H6.62292C6.40052 4.33538 6.12956 4.51432 6.01709 4.73926L0.646432 15.2607C0.531402 15.4857 0.618314 15.6621 0.843263 15.6621H21.2497V19.5987C21.2497 19.8185 21.4286 20 21.651 20H40.8867C41.1091 20 41.2881 19.8211 41.2881 19.5987V15.6621H55.9174C56.1398 15.6621 56.4108 15.4831 56.5258 15.2607L61.8939 4.73926C62.0089 4.51687 61.922 4.33538 61.6996 4.33538M55.3244 6.88139L52.1444 13.1109H38.7702V17.477H23.7804V13.1109H7.22874L10.4113 6.88139H23.7855V2.51789H38.7753V6.88139H55.3244Z" />
    </g>
</svg>