<svg width="60" height="60" viewBox="0 0 60 60" fill="none" xmlns="http://www.w3.org/2000/svg">
<g clip-path="url(#clip0_753_3733)">
<path d="M29.9337 0.000224164C13.4112 0.0639391 -0.0973021 13.6511 3.44642e-05 30.1055C0.0991407 46.5865 13.5457 59.9896 29.9903 60.0002C46.4827 60.0091 60.0284 46.4555 60 29.9728C59.97 13.4635 46.4012 -0.0634908 29.9337 0.000224164ZM29.0435 58.6923C12.4821 57.9932 0.736253 44.2573 1.32735 29.0064C1.968 12.4512 15.788 0.722327 31.0327 1.32762C47.4419 1.9807 59.2284 15.6422 58.6763 30.9179C58.0763 47.482 44.3112 59.179 29.0435 58.6923Z" fill="#00B543"/>
<path d="M45.0759 38.7154C40.5311 31.0484 35.9705 23.392 31.3956 15.7444C30.5037 14.2524 29.5232 14.2241 28.6419 15.6948C24.0317 23.3813 19.4445 31.082 14.8732 38.7915C14.0113 40.2428 14.5228 41.087 16.2607 41.149C17.5845 41.1967 18.9118 41.1897 20.2373 41.1543C21.1965 41.1295 21.6531 41.333 20.9718 42.3135C20.8267 42.5224 20.7081 42.7507 20.5984 42.979C20.3665 43.4569 19.8869 43.894 20.4674 44.4745C21.0001 45.009 21.4886 44.6975 22.0018 44.4905C24.2211 43.5967 26.4616 42.7525 28.6508 41.7914C29.6188 41.3667 30.4364 41.3861 31.3939 41.8109C33.6255 42.8002 35.9032 43.6834 38.1632 44.6108C38.664 44.8161 39.0976 44.8745 39.5436 44.4108C40.0462 43.8887 39.7223 43.4905 39.4817 43.0498C39.1932 42.5206 38.9047 41.9914 38.4481 41.156C40.432 41.156 42.0549 41.1897 43.676 41.1472C45.5077 41.0976 45.9979 40.264 45.0794 38.7136L45.0759 38.7154ZM31.8239 40.6038C30.5621 40.0074 29.4896 40.0074 28.2225 40.6003C26.3076 41.4958 24.2989 42.1896 21.9664 43.1135C24.5927 38.4251 26.9783 34.1633 29.3693 29.9033C29.6524 29.3989 29.9055 28.5564 30.5267 29.6697C32.9548 34.0182 35.3811 38.3667 38.0535 43.156C35.6944 42.2038 33.7123 41.5012 31.8222 40.6056L31.8239 40.6038ZM38.3101 39.8428C37.5172 39.8499 37.3296 39.2234 37.0376 38.7048C35.0183 35.1067 33.0044 31.505 30.9851 27.9069C30.7161 27.4272 30.4276 26.9582 30.1533 26.4928C29.5374 26.6485 29.4525 27.1565 29.2419 27.5317C27.1412 31.259 25.0298 34.9792 22.9858 38.7384C22.5327 39.572 22.0106 39.903 21.0709 39.864C19.402 39.795 17.7278 39.8446 16.0837 39.8446C15.8908 39.1844 16.289 38.8552 16.5102 38.4836C20.7364 31.3935 24.9927 24.3247 29.1888 17.2169C29.8595 16.0807 30.1462 16.0966 30.8099 17.2205C34.9812 24.2822 39.2091 31.3121 43.4158 38.3526C43.6459 38.7366 43.8441 39.1419 44.2193 39.8357C42.0637 39.8357 40.1878 39.8251 38.3101 39.841V39.8428Z" fill="#00B543"/>
</g>
<defs>
<clipPath id="clip0_753_3733">
<rect width="60" height="60" fill="white"/>
</clipPath>
</defs>
</svg>
