<svg width="13" height="13" viewBox="0 0 13 13" fill="none" xmlns="http://www.w3.org/2000/svg">
<mask id="mask0_1331_2781" style="mask-type:alpha" maskUnits="userSpaceOnUse" x="0" y="0" width="13" height="13">
<rect width="13" height="13" fill="#D9D9D9"/>
</mask>
<g mask="url(#mask0_1331_2781)">
<path d="M2.16683 11.3752C1.86891 11.3752 1.61397 11.2692 1.402 11.0572C1.18966 10.8449 1.0835 10.5897 1.0835 10.2918V4.3335C1.0835 4.03558 1.18966 3.78063 1.402 3.56866C1.61397 3.35633 1.86891 3.25016 2.16683 3.25016H4.3335V2.16683C4.3335 1.86891 4.43966 1.61379 4.652 1.40145C4.86397 1.18948 5.11891 1.0835 5.41683 1.0835H7.5835C7.88141 1.0835 8.13654 1.18948 8.34887 1.40145C8.56084 1.61379 8.66683 1.86891 8.66683 2.16683V3.25016H10.8335C11.1314 3.25016 11.3865 3.35633 11.5989 3.56866C11.8108 3.78063 11.9168 4.03558 11.9168 4.3335V10.2918C11.9168 10.5897 11.8108 10.8449 11.5989 11.0572C11.3865 11.2692 11.1314 11.3752 10.8335 11.3752H2.16683ZM2.16683 10.2918H10.8335V4.3335H2.16683V10.2918ZM5.41683 3.25016H7.5835V2.16683H5.41683V3.25016Z" fill="#00B543"/>
</g>
</svg>
