<svg width="59" height="22" viewBox="0 0 59 22" fill="none" xmlns="http://www.w3.org/2000/svg">
<path d="M17.7537 1.03675C17.7233 0.934962 17.6972 0.838423 17.6658 0.743633C17.5454 0.378766 17.8263 -0.0199341 18.2316 0.000773785C18.9158 0.0354814 19.5765 0.150104 20.1894 0.463639C20.3997 0.571262 20.5991 0.587303 20.8269 0.559595C21.7757 0.443806 22.7251 0.331808 23.6765 0.23906C25.2855 0.0824387 26.9005 0.0614392 28.5153 0.0736889C29.5352 0.0815637 30.5519 0.169937 31.5567 0.352225C32.3344 0.493388 33.1111 0.647093 33.8792 0.832881C34.1934 0.909005 34.4888 1.07438 34.7842 1.21671C37.6951 2.61843 40.5428 4.14469 43.4029 5.64615C43.4885 5.69107 43.5926 5.71207 43.6901 5.72053C44.5995 5.79957 45.5112 5.85673 46.4185 5.95327C47.2292 6.0396 48.0391 6.14635 48.8431 6.2811C51.1235 6.66259 53.3685 7.1835 55.4878 8.14394C56.4207 8.56684 57.2979 9.08454 58.0529 9.79269C58.2449 9.97294 58.3062 10.1789 58.2635 10.4358C58.2113 10.7514 58.1739 11.0696 58.1385 11.3878C58.1332 11.4359 58.1611 11.5007 58.195 11.5383C58.3085 11.6643 58.4304 11.7827 58.5511 11.9017C58.6825 12.0312 58.7432 12.1861 58.7426 12.3718C58.7405 13.4023 58.7371 14.433 58.7434 15.4634C58.7463 15.9613 58.5232 16.3276 58.1295 16.6018C57.664 16.9258 57.1316 17.086 56.5873 17.2044C56.3586 17.2542 56.121 17.2825 55.8871 17.2849C54.9441 17.2936 54.001 17.2904 53.058 17.286C52.9454 17.2854 52.9016 17.3193 52.8767 17.4316C52.6747 18.3442 52.2769 19.1594 51.6591 19.8626C50.9143 20.7101 49.9983 21.2867 48.9049 21.5469C47.2835 21.9328 45.7895 21.6233 44.442 20.6349C43.496 19.941 42.8745 19.0109 42.5182 17.8979C42.4401 17.6544 42.3954 17.4004 42.3304 17.1291H42.1265C34.4616 17.1291 26.7966 17.1291 19.1317 17.1303C18.9277 17.1303 18.7368 17.1131 18.5897 16.946C18.4426 16.7788 18.4202 16.5872 18.4908 16.3883C18.5613 16.1897 18.7142 16.0756 18.9228 16.0476C19.0038 16.0369 19.087 16.0418 19.1692 16.0418C26.8001 16.0418 34.4311 16.0418 42.0623 16.0418H42.2567C42.3328 15.6402 42.3806 15.254 42.4808 14.8822C42.7373 13.9287 43.2262 13.106 43.9388 12.4238C44.8424 11.5587 45.9253 11.0675 47.1619 10.9555C48.4749 10.8365 49.6794 11.1749 50.7588 11.9425C51.602 12.5422 52.2061 13.3335 52.6022 14.2883C52.6318 14.3598 52.6622 14.3968 52.7464 14.3966C54.3664 14.3939 55.9863 14.3942 57.6063 14.3936C57.6205 14.3936 57.635 14.3898 57.664 14.3858C57.6669 14.3467 57.6727 14.3053 57.6727 14.2636C57.6733 13.7336 57.6762 13.204 57.6693 12.674C57.6684 12.6075 57.6289 12.5276 57.5825 12.4777C57.4371 12.3223 57.23 12.2036 57.1394 12.0236C57.0312 11.8086 56.8597 11.7696 56.6772 11.708C55.8906 11.4423 55.0993 11.1895 54.3208 10.9025C54.0483 10.8018 53.7997 10.6277 53.5533 10.4664C53.0029 10.1059 52.4612 9.73203 51.9151 9.36483C51.7967 9.2852 51.6945 9.19741 51.7352 9.03437C51.7691 8.89875 51.9093 8.80221 52.0883 8.813C52.5125 8.83867 52.9376 8.86317 53.3592 8.91334C53.9047 8.97808 54.4473 9.06675 55.0247 9.15016C54.9577 9.11662 54.9165 9.09387 54.8736 9.07462C53.8034 8.59309 52.6875 8.25039 51.5524 7.96661C50.1561 7.61749 48.7439 7.34974 47.3157 7.17621C46.3141 7.05429 45.3095 6.95746 44.3059 6.85421C43.9646 6.81921 43.6214 6.80492 43.2804 6.76846C43.1786 6.75767 43.0753 6.71567 42.9827 6.66842C39.9195 5.10775 36.8568 3.54649 33.7965 1.98027C33.4492 1.80236 33.0699 1.75365 32.7006 1.67141C31.8472 1.48124 30.984 1.34241 30.1109 1.28641C29.335 1.23654 28.557 1.16975 27.7809 1.17996C26.5343 1.19658 25.2881 1.26016 24.0427 1.32462C23.4694 1.35437 22.8986 1.43195 22.3273 1.49378C22.2861 1.49816 22.2182 1.55124 22.2167 1.58362C22.2074 1.83036 22.2115 2.0774 22.2115 2.33172C22.3142 2.33172 22.4094 2.33697 22.5034 2.33085C23.0144 2.29731 23.5248 2.24889 24.0363 2.22848C24.9155 2.19319 25.795 2.15702 26.6748 2.1541C27.4962 2.15148 28.318 2.19085 29.1394 2.21302C29.3277 2.21827 29.516 2.22993 29.7046 2.23664C30.3787 2.26114 31.0327 2.41514 31.6873 2.55776C33.5238 2.95763 35.2992 3.54912 37.0118 4.32435C38.5885 5.03804 40.0808 5.90369 41.4925 6.90817C41.7446 7.08754 41.809 7.30016 41.7255 7.59386C41.7127 7.63878 41.7211 7.70003 41.7414 7.74319C42.0603 8.41751 42.2196 9.13179 42.1932 9.87319C42.1772 10.3162 42.0925 10.759 42.0116 11.1965C41.7945 12.3701 41.4951 13.5239 41.1538 14.6672C41.0874 14.8895 41.0224 14.9367 40.7737 14.9367C32.7267 14.9367 24.6799 14.9367 16.6329 14.9367H16.4228C16.4588 15.1552 16.4944 15.3622 16.5272 15.5699C16.6511 16.3568 16.5742 17.1297 16.3465 17.8874C16.0781 18.7796 15.6028 19.5484 14.9334 20.1933C14.2045 20.895 13.3468 21.3629 12.3614 21.5825C11.441 21.7878 10.5276 21.7429 9.62777 21.4591C8.67865 21.1596 7.87055 20.6352 7.21479 19.8844C6.52275 19.0923 6.08722 18.1741 5.93488 17.1271C5.90558 16.9261 5.89078 16.7223 5.87917 16.5193C5.87424 16.435 5.84493 16.4078 5.76369 16.3883C4.55777 16.1022 3.35099 15.8196 2.14943 15.5168C1.66805 15.3955 1.19451 15.2377 0.725609 15.0732C0.605772 15.0312 0.490287 14.9183 0.418618 14.8078C0.175172 14.4321 0.0329926 14.0107 0.00223551 13.5656C-0.0122726 13.3582 0.0469204 13.1427 0.0907348 12.9348C0.192872 12.4515 0.314449 11.9726 0.412814 11.4884C0.499573 11.0611 0.581108 10.6318 0.637109 10.1996C0.694561 9.75565 0.865176 9.38028 1.20873 9.09562C1.34714 8.98071 1.35062 8.82817 1.37122 8.6768C1.51166 7.63907 1.92514 6.72296 2.58729 5.91886C2.7196 5.75844 2.87629 5.61845 3.00918 5.45832C3.05503 5.40291 3.07969 5.31629 3.08317 5.2425C3.0884 5.13196 3.06489 5.02054 3.05561 4.90913C3.02775 4.57634 3.27526 4.26952 3.60314 4.30072C4.36133 4.37335 5.04844 4.10356 5.74976 3.89998C8.65602 3.05592 11.5887 2.31685 14.546 1.6787C15.583 1.45499 16.6271 1.26396 17.6681 1.05804C17.6911 1.05338 17.7137 1.04667 17.7537 1.03675ZM5.41665 5.1305C5.49848 5.18621 5.54142 5.21654 5.58582 5.24512C6.13103 5.59628 6.67683 5.94598 7.22117 6.29831C7.45214 6.44793 7.47042 6.63284 7.25599 6.7985C6.70845 7.2217 6.15947 7.64315 5.60033 8.0506C5.05917 8.44493 4.46144 8.7328 3.8048 8.86521C3.36376 8.95417 2.93258 9.06821 2.51097 9.2222C2.46832 9.23766 2.41551 9.25895 2.39462 9.29395C2.33165 9.39953 2.28175 9.51328 2.22574 9.62644C2.36966 9.64453 2.52403 9.64161 2.66447 9.68478C3.74851 10.0173 4.83053 10.3571 5.91167 10.6995C6.08199 10.7534 6.15511 10.9197 6.09795 11.0713C6.04195 11.2204 5.9079 11.2755 5.72713 11.2186C5.26693 11.0734 4.8108 10.9135 4.34654 10.7823C3.53728 10.5533 2.76603 10.178 1.90599 10.1374C1.78934 10.1319 1.74146 10.1476 1.72231 10.2658C1.655 10.6817 1.59029 11.0987 1.50527 11.5112C1.39965 12.0233 1.2685 12.5299 1.16143 13.0418C1.10978 13.2885 1.00968 13.5385 1.12081 13.7949C1.18755 13.9486 1.2154 14.1142 1.43186 14.1699C2.49734 14.4426 3.55643 14.7398 4.62132 15.0143C5.05859 15.1269 5.50515 15.2039 5.95548 15.299C5.97318 15.2362 5.98798 15.191 5.99872 15.145C6.30136 13.852 6.96525 12.7869 8.03275 12.0032C9.47485 10.9445 11.0806 10.656 12.7865 11.1711C14.385 11.6535 15.5085 12.7143 16.1767 14.2528C16.2275 14.3694 16.2841 14.3977 16.399 14.3977C24.4359 14.3954 32.4725 14.3954 40.5094 14.3992C40.6434 14.3992 40.6887 14.3511 40.7232 14.2312C41.0755 13.01 41.3706 11.776 41.5894 10.5233C41.7408 9.6559 41.641 8.82205 41.2798 8.02085C41.2583 7.97331 41.1971 7.91527 41.1507 7.91177C40.6736 7.87561 40.196 7.8479 39.7181 7.82457C39.6697 7.82223 39.6035 7.84965 39.5716 7.88611C39.3093 8.18448 38.9469 8.26964 38.5877 8.29735C38.1118 8.3341 37.631 8.30843 37.1522 8.30581C36.7535 8.30376 36.5675 8.12498 36.542 7.72832C36.5406 7.70469 36.5359 7.68136 36.5298 7.63761C31.8275 7.36345 27.1271 7.08929 22.4201 6.81455C22.4201 6.89942 22.4146 6.96183 22.421 7.02308C22.4648 7.4527 22.5031 7.88319 22.558 8.31164C22.6621 9.1245 22.7631 9.93823 22.8902 10.7476C23.0013 11.456 23.1493 12.1583 23.2735 12.8648C23.2883 12.9493 23.2813 13.0584 23.2381 13.1261C23.2007 13.1847 23.0945 13.2337 23.0234 13.2282C22.8835 13.2174 22.7686 13.1421 22.7387 12.9832C22.6331 12.4211 22.515 11.8609 22.4224 11.2965C22.1828 9.83615 21.9895 8.36939 21.87 6.89359C21.863 6.80813 21.8372 6.77546 21.7513 6.7708C20.9069 6.72413 20.0631 6.66142 19.2182 6.62847C18.2653 6.59143 17.3202 6.4876 16.3833 6.32018C15.003 6.07373 13.6091 5.90077 12.2488 5.54495C11.9691 5.47174 11.681 5.43149 11.398 5.36966C11.103 5.3052 10.9083 5.01558 10.9686 4.74113C11.0362 4.43431 11.3159 4.24385 11.6183 4.30247C11.8786 4.35293 12.1385 4.40601 12.3979 4.46172C12.5157 4.4871 12.6164 4.48914 12.7142 4.39231C12.8201 4.28731 12.9437 4.19923 13.0656 4.11202C13.1904 4.02277 13.3122 3.90552 13.4533 3.86673C14.0112 3.71303 14.5721 3.56487 15.1394 3.4517C16.3595 3.20846 17.582 2.97513 18.8079 2.76426C19.5066 2.64409 20.214 2.57526 20.9177 2.48455C21.1649 2.45276 21.4121 2.42389 21.6712 2.39239V1.56145C16.1593 2.31306 10.7849 3.60161 5.41781 5.1305H5.41665ZM47.5159 11.9845C46.4655 12.0023 45.4517 12.4071 44.6248 13.2427C43.6507 14.2268 43.2685 15.4249 43.4087 16.7978C43.6008 18.6822 45.2376 20.5579 47.63 20.5643C50.0113 20.5707 51.9078 18.6746 51.9069 16.2979C51.9061 13.8401 49.9585 12.002 47.5159 11.9845ZM11.2332 11.9848C8.89076 11.9775 6.95074 13.8949 6.95567 16.2556C6.96089 18.6775 8.86697 20.557 11.2103 20.5652C13.601 20.5733 15.4919 18.6673 15.4934 16.2912C15.4948 13.8278 13.52 12.0011 11.2332 11.9848ZM37.5732 5.8894C37.555 5.85819 37.5524 5.84711 37.5454 5.84273C37.5126 5.82232 37.4792 5.80248 37.445 5.7844C36.1047 5.07158 34.7137 4.4836 33.2577 4.05398C31.761 3.61241 30.2467 3.27437 28.6763 3.27175C27.3857 3.26941 26.095 3.25308 24.8047 3.27729C23.9841 3.29275 23.1647 3.37149 22.3447 3.41991C22.2611 3.42487 22.226 3.45374 22.2298 3.54416C22.2486 4.0149 22.2597 4.48622 22.2785 4.95696C22.2878 5.19379 22.3078 5.43033 22.3235 5.67532C27.0656 5.9664 31.7935 6.25631 36.5269 6.5468C36.5327 6.49897 36.5397 6.47535 36.5379 6.45201C36.5153 6.11339 36.8127 5.8684 37.1351 5.88794C37.2741 5.8964 37.4139 5.8894 37.5732 5.8894ZM21.6741 3.48495C19.1367 3.7349 16.6398 4.16394 14.1775 4.79538C14.322 4.83184 14.4642 4.85517 14.6069 4.87705C15.4647 5.00829 16.3224 5.14071 17.1804 5.26962C17.6336 5.33758 18.0857 5.42508 18.5415 5.4592C19.5049 5.53124 20.4705 5.57441 21.435 5.62778C21.5438 5.6339 21.6532 5.62865 21.7661 5.62865C21.7353 4.91613 21.7052 4.21439 21.6738 3.48524L21.6741 3.48495ZM53.0223 16.1935H53.1868C54.0814 16.1935 54.976 16.1894 55.8703 16.1949C56.432 16.1984 56.9401 16.0091 57.4351 15.7738C57.5248 15.7312 57.6414 15.6425 57.6545 15.5606C57.6864 15.3596 57.6649 15.1499 57.6649 14.944H52.8442C52.9031 15.3567 52.9611 15.7633 53.0223 16.1935ZM2.49153 8.66542C2.50546 8.66542 2.52026 8.66863 2.53303 8.66484C2.80055 8.58697 3.06837 8.51055 3.33416 8.42772C3.37537 8.41489 3.41715 8.37785 3.44152 8.34051C3.78943 7.80415 4.1353 7.26604 4.47827 6.72646C4.49655 6.69759 4.50467 6.63722 4.48727 6.61388C4.34218 6.4173 4.19014 6.22598 4.04042 6.03348C3.11915 6.76438 2.54202 7.95231 2.49153 8.66513V8.66542ZM54.9023 9.68186C55.0352 9.97002 55.1524 10.2118 55.1173 10.4895C55.1034 10.6 55.1594 10.6391 55.2563 10.6685C55.74 10.817 56.2214 10.9722 56.7036 11.1247C56.8205 11.1617 56.9378 11.1973 57.0678 11.2373C57.104 10.9888 57.14 10.7601 57.1684 10.5306C57.1722 10.5014 57.1441 10.4597 57.1191 10.4367C56.9665 10.2938 56.8026 10.1721 56.5904 10.1255C56.4262 10.0893 56.2672 10.0295 56.1041 9.98694C55.7188 9.88661 55.3323 9.79065 54.9023 9.68186Z" fill="#00B543"/>
</svg>
