<svg width="150" height="20" viewBox="0 0 150 20" fill="#DADADA" xmlns="http://www.w3.org/2000/svg">
    <g id="Vrstva_1" clip-path="url(#clip0_4233_1759)">
        <path id="Vector"
            d="M137.505 0L120.268 20H111.873L118.055 12.8346H126.155C126.197 12.8358 126.238 12.8285 126.277 12.813C126.316 12.7976 126.351 12.7744 126.381 12.7449C126.41 12.7154 126.433 12.6802 126.449 12.6414C126.464 12.6026 126.472 12.5611 126.47 12.5193V11.6194C126.475 11.5769 126.47 11.5339 126.456 11.4936C126.441 11.4533 126.418 11.4167 126.388 11.3864C126.358 11.3562 126.321 11.3331 126.281 11.3189C126.241 11.3046 126.198 11.2996 126.155 11.3041H119.371L120.907 9.52135H125.158C125.2 9.52337 125.242 9.51662 125.281 9.50153C125.32 9.48644 125.356 9.46333 125.386 9.43368C125.416 9.40404 125.439 9.3685 125.455 9.32932C125.47 9.29013 125.477 9.24816 125.476 9.20607V8.47234C125.476 8.4307 125.468 8.38946 125.452 8.35102C125.436 8.31258 125.412 8.2777 125.382 8.24839C125.353 8.21907 125.318 8.19592 125.279 8.18024C125.241 8.16457 125.199 8.15668 125.158 8.15706H122.097L123.633 6.37146H125.9C125.941 6.37184 125.983 6.36394 126.021 6.34823C126.06 6.33252 126.094 6.30932 126.124 6.27996C126.153 6.25061 126.176 6.2157 126.192 6.17728C126.208 6.13885 126.216 6.09769 126.215 6.05618V5.16767C126.21 5.08582 126.175 5.00872 126.117 4.95072C126.059 4.89272 125.982 4.85778 125.9 4.85239H124.943L129.119 0.00572915L137.505 0Z" />
        <path id="Vector_2" d="M140.872 0L123.635 20H132.035L149.092 0.203497V0H140.872Z" />
        <path id="Vector_3"
            d="M20.5619 6.08789C18.9674 5.2447 17.1862 4.81689 15.3827 4.84398H0.79975C0.727105 4.84473 0.655324 4.85979 0.588497 4.88828C0.52167 4.91677 0.461107 4.95815 0.410272 5.01005C0.359437 5.06195 0.319323 5.12336 0.292221 5.19076C0.265119 5.25816 0.251561 5.33024 0.252318 5.40289V12.2816C0.249635 12.3555 0.261769 12.4291 0.288005 12.4982C0.314241 12.5672 0.354046 12.6304 0.405072 12.6838C0.456099 12.7372 0.517312 12.7799 0.585099 12.8093C0.652885 12.8387 0.725871 12.8542 0.79975 12.8549H15.3627C17.1713 12.8863 18.9589 12.4636 20.5619 11.6253C21.8889 10.8772 22.6226 9.90561 22.6226 8.87093C22.6226 7.83625 21.8889 6.84169 20.5619 6.08789ZM13.2962 11.3043H5.82125C5.66489 11.2976 5.51736 11.23 5.41023 11.1159C5.3031 11.0018 5.24488 10.8503 5.24802 10.6938V6.985C5.24414 6.82832 5.30211 6.67642 5.40939 6.56216C5.51667 6.44791 5.66463 6.38049 5.82125 6.37451H13.2962C15.549 6.37451 17.3088 7.47225 17.3088 8.84514C17.3088 10.218 15.549 11.3043 13.2962 11.3043Z" />
        <path id="Vector_4"
            d="M73.602 6.08766C72.2233 5.31093 70.3861 4.87814 68.4257 4.87814L53.8427 4.84375C53.7701 4.8445 53.6983 4.85955 53.6315 4.88804C53.5646 4.91654 53.5041 4.95792 53.4532 5.00982C53.4024 5.06172 53.3623 5.12312 53.3352 5.19053C53.3081 5.25793 53.2945 5.33001 53.2953 5.40265V12.2814C53.2926 12.3552 53.3047 12.4289 53.331 12.4979C53.3572 12.567 53.397 12.6301 53.448 12.6835C53.4991 12.737 53.5603 12.7796 53.6281 12.809C53.6959 12.8384 53.7688 12.8539 53.8427 12.8546L68.4286 12.8346C70.3861 12.8346 72.2233 12.4047 73.602 11.6251C74.9347 10.877 75.6656 9.90538 75.6656 8.8707C75.6656 7.83602 74.9347 6.84146 73.602 6.08766ZM66.342 11.2897H58.8671C58.7079 11.286 58.5568 11.2193 58.4467 11.1044C58.3365 10.9894 58.2764 10.8355 58.2795 10.6764V6.98477C58.278 6.9061 58.292 6.82791 58.3207 6.75465C58.3494 6.68139 58.3923 6.61449 58.4468 6.5578C58.5014 6.50111 58.5666 6.45572 58.6387 6.42424C58.7108 6.39275 58.7884 6.37576 58.8671 6.37427L66.342 6.39434C68.5948 6.39434 70.3546 7.46915 70.3546 8.84203C70.3546 10.2149 68.5948 11.2897 66.342 11.2897Z" />
        <path id="Vector_5"
            d="M40.8772 4.71504C39.917 4.68638 38.8996 4.65771 37.9595 4.65771C37.0194 4.65771 35.999 4.68638 35.0388 4.71504C29.9199 4.86408 25.9102 6.68695 25.9102 8.86522C25.9102 9.9257 26.8388 10.9317 28.5241 11.697C30.2094 12.4622 32.5367 12.9352 35.0388 13.0154H35.0962C35.9216 13.0412 36.77 13.0699 37.9623 13.0699C39.1546 13.0699 39.9973 13.0412 40.8285 13.0154H40.8858C43.3908 12.9352 45.7067 12.468 47.4006 11.697C49.0945 10.926 50.0116 9.9257 50.0116 8.86522C50.003 6.68695 45.9961 4.86408 40.8772 4.71504ZM39.553 11.5107H39.5244C39.0486 11.525 38.5986 11.5393 37.9537 11.5393C37.3088 11.5393 36.856 11.525 36.3831 11.5107H36.3544C33.302 11.4075 31.0836 10.2954 31.0836 8.86236C31.0836 7.42929 33.302 6.30575 36.3544 6.21403C36.876 6.21403 37.4292 6.18251 37.9537 6.18251C38.4782 6.18251 39.0285 6.1997 39.5502 6.21403C42.5998 6.30575 44.8153 7.42069 44.8153 8.86236C44.8153 10.304 42.6112 11.4104 39.553 11.5107Z" />
        <path id="Vector_6"
            d="M87.276 12.846H87.041C81.5953 12.8202 78.7148 11.4387 78.7148 8.83335C78.7148 6.73533 82.3749 4.98124 87.0467 4.83507C87.3334 4.83507 87.6658 4.82074 88.0642 4.82074H88.9843H89.7151H101.512C101.552 4.81757 101.591 4.82264 101.629 4.83561C101.666 4.84859 101.701 4.86919 101.73 4.89613C101.759 4.92307 101.782 4.95575 101.798 4.99211C101.814 5.02847 101.822 5.06771 101.822 5.10736V6.05318C101.825 6.09376 101.82 6.13463 101.805 6.17265C101.79 6.21067 101.767 6.24482 101.737 6.2725C101.707 6.30018 101.672 6.32064 101.633 6.3323C101.594 6.34397 101.552 6.34653 101.512 6.3398H89.8154C89.3683 6.3398 88.904 6.3398 88.4311 6.36846C87.3506 6.41145 83.8309 6.74393 83.8309 8.81616C83.8309 10.2779 85.7226 11.1635 88.4311 11.2696C88.8467 11.2839 89.2393 11.3011 89.804 11.3011H96.1697C96.5022 11.3011 96.7716 11.2237 96.7716 10.8712V9.99128C96.7716 9.63874 96.5022 9.51836 96.1697 9.51836H89.7495C89.7123 9.51977 89.6752 9.51319 89.6407 9.49905C89.6062 9.4849 89.5751 9.46353 89.5496 9.43637C89.5241 9.40921 89.5046 9.37689 89.4927 9.3416C89.4807 9.3063 89.4764 9.26884 89.4801 9.23174V8.42063C89.48 8.3815 89.488 8.34277 89.5034 8.30682C89.5189 8.27088 89.5416 8.23848 89.57 8.21163C89.5985 8.18478 89.6322 8.16404 89.6689 8.15069C89.7057 8.13734 89.7449 8.13166 89.7839 8.13401H101.266C101.413 8.13477 101.553 8.19369 101.657 8.29788C101.761 8.40208 101.819 8.54307 101.819 8.69005V12.2727C101.815 12.4184 101.755 12.5569 101.652 12.6602C101.55 12.7634 101.411 12.8237 101.266 12.8288H88.8008H87.276V12.846Z" />
        <path id="Vector_7"
            d="M110.67 7.01636V7.54086C110.67 7.95932 111.011 8.14562 111.424 8.14562H122.086L120.908 9.50417H111.398C110.98 9.50417 110.642 9.7306 110.642 10.1491V10.6965C110.642 11.1121 110.98 11.2898 111.398 11.2898H119.372L118.056 12.8174H106.119C105.976 12.8167 105.84 12.7597 105.739 12.6588C105.638 12.5579 105.581 12.4213 105.58 12.2786V5.38839C105.58 5.24521 105.637 5.10786 105.738 5.00635C105.839 4.90485 105.976 4.84744 106.119 4.84668H124.932L123.623 6.36574H111.424C111.011 6.37433 110.67 6.60077 110.67 7.01636Z" />
    </g>
    <defs>
        <clipPath id="clip0_4233_1759">
            <rect width="148.839" height="20" transform="translate(0.251953)" />
        </clipPath>
    </defs>
</svg>