<svg width="31" height="30" viewBox="0 0 31 30" fill="none" xmlns="http://www.w3.org/2000/svg">
<path d="M15.2128 20H16.1228V19C16.7085 18.9167 17.2053 18.6771 17.6132 18.2812C18.0211 17.8854 18.225 17.375 18.225 16.75C18.225 16.2083 18.0159 15.7552 17.5975 15.3906C17.1791 15.026 16.698 14.7292 16.1541 14.5V12.1875C16.3633 12.25 16.5359 12.3542 16.6719 12.5C16.8078 12.6458 16.9072 12.8229 16.9699 13.0312L18.0995 12.5625C17.9531 12.125 17.7021 11.776 17.3465 11.5156C16.9909 11.2552 16.5934 11.0833 16.1541 11V10H15.2128V10.9687C14.6271 11.0312 14.1303 11.2448 13.7224 11.6094C13.3145 11.974 13.1105 12.4583 13.1105 13.0625C13.1105 13.625 13.3249 14.0937 13.7537 14.4687C14.1826 14.8437 14.6689 15.1458 15.2128 15.375V17.8437C14.8781 17.7396 14.5957 17.5625 14.3656 17.3125C14.1355 17.0625 13.9786 16.7708 13.8949 16.4375L12.7967 16.9062C12.9641 17.4896 13.2569 17.9687 13.6753 18.3437C14.0937 18.7187 14.6062 18.9479 15.2128 19.0312V20ZM16.1541 17.8125V15.75C16.3842 15.8542 16.5882 15.9792 16.766 16.125C16.9438 16.2708 17.0327 16.4896 17.0327 16.7812C17.0327 17.1146 16.949 17.349 16.7817 17.4844C16.6143 17.6198 16.4052 17.7292 16.1541 17.8125ZM15.2128 14.0937C14.9827 13.9896 14.7735 13.8646 14.5853 13.7188C14.397 13.5729 14.3029 13.3542 14.3029 13.0625C14.3029 12.7708 14.397 12.5573 14.5853 12.4219C14.7735 12.2865 14.9827 12.1979 15.2128 12.1562V14.0937ZM10.5062 23.75C8.05872 23.75 5.98258 22.901 4.27773 21.2031C2.57288 19.5052 1.72046 17.4375 1.72046 15C1.72046 12.5625 2.57288 10.4948 4.27773 8.79687C5.98258 7.09896 8.05872 6.25 10.5062 6.25H20.547C22.9944 6.25 25.0706 7.09896 26.7754 8.79687C28.4803 10.4948 29.3327 12.5625 29.3327 15C29.3327 17.4375 28.4803 19.5052 26.7754 21.2031C25.0706 22.901 22.9944 23.75 20.547 23.75H10.5062Z" fill="#00B543"/>
</svg>
