<svg width="9" height="5" viewBox="0 0 9 5" fill="none" xmlns="http://www.w3.org/2000/svg">
<path fill-rule="evenodd" clip-rule="evenodd" d="M0.634614 0.0263661C0.606078 0.0412271 0.45725 0.171633 0.303909 0.316182C0.00633162 0.596659 -0.0367835 0.672822 0.0234272 0.8116C0.0530526 0.879911 4.22987 4.87858 4.35655 4.95989C4.45393 5.02243 4.56989 5.01148 4.67791 4.9295C4.876 4.77921 8.94667 0.880208 8.97596 0.812739C9.03759 0.670618 8.99461 0.595768 8.68227 0.301543C8.38625 0.0227004 8.30962 -0.0216847 8.17716 0.00902814C8.12888 0.0202235 7.52691 0.577736 6.31558 1.73311C5.33097 2.67228 4.51378 3.44067 4.49961 3.44067C4.48542 3.44067 3.68006 2.68204 2.70987 1.75483C1.7397 0.8276 0.914395 0.0529674 0.875871 0.0334251C0.793195 -0.00855744 0.70655 -0.0110838 0.634614 0.0263661Z" fill="#00B543"/>
</svg>
