<svg width="78" height="78" viewBox="0 0 78 78" fill="none" xmlns="http://www.w3.org/2000/svg">
<mask id="mask0_751_2483" style="mask-type:alpha" maskUnits="userSpaceOnUse" x="0" y="0" width="78" height="78">
<rect width="77.381" height="77.381" fill="#D9D9D9"/>
</mask>
<g mask="url(#mask0_751_2483)">
<path fill-rule="evenodd" clip-rule="evenodd" d="M25.1919 20.4976C24.5991 21.2736 22.2077 24.4474 19.8773 27.5508L15.6405 33.1934L12.0182 33.3277L8.39584 33.4621L8.32487 42.1197L8.25391 50.7773L11.8012 50.8523L15.3488 50.9273L15.7287 52.6389C16.0534 54.1014 16.3104 54.5573 17.4943 55.7702C19.0268 57.3405 20.1056 57.775 22.4776 57.7774C24.6822 57.7798 25.9827 57.2765 27.3886 55.8772C28.5757 54.6957 28.8255 54.1734 29.6599 51.125C29.733 50.8585 31.6429 50.8007 38.5561 50.8563L47.3597 50.9273L47.5502 52.044C47.9699 54.502 49.8925 56.8238 52.0406 57.467C53.4922 57.9018 55.825 57.8561 57.2159 57.3655C59.2473 56.6491 60.803 54.743 61.3538 52.2957L61.6616 50.9273L65.1363 50.8528L68.6111 50.7784L68.5366 42.0611L68.4624 33.3436L65.0825 33.2686L61.703 33.1934L60.7729 31.4469C60.2613 30.4863 58.6143 27.3125 57.1124 24.3936L54.382 19.0869H40.3258H26.2695L25.1919 20.4976ZM40.1895 22.5364C40.4513 22.7025 40.5145 23.9769 40.4583 27.9735L40.3852 33.1934L30.3717 33.2638C19.3448 33.3415 19.7529 33.4102 21.0499 31.6917C21.4303 31.1876 22.9499 29.1428 24.4268 27.1478C25.9037 25.1527 27.3456 23.2482 27.6311 22.9158C28.1402 22.3231 28.2644 22.3113 33.9989 22.3153C37.2158 22.3177 40.0013 22.4171 40.1895 22.5364ZM52.2411 22.5168C52.5306 22.7095 57.7239 32.7818 57.7239 33.1509C57.7239 33.2531 54.6091 33.3046 50.8019 33.2651L43.8798 33.1934L43.8067 27.9735C43.7505 23.9769 43.8137 22.7025 44.0755 22.5364C44.5029 22.2653 51.8365 22.2478 52.2411 22.5168ZM65.1164 42.0348V47.3829L62.8495 47.323C60.6172 47.2642 60.5675 47.2478 59.6121 46.2638C58.089 44.6952 56.8613 44.2161 54.3575 44.2126C52.3734 44.2102 52.09 44.2808 50.8175 45.0974C50.0564 45.5853 49.24 46.2805 49.0029 46.6424L48.5718 47.2999L38.5645 47.2994L28.5572 47.2991L27.5954 46.2772C24.9214 43.4366 20.2569 43.3565 17.508 46.1042L16.3117 47.2999H14.034H11.7561V42.1052C11.7561 39.2479 11.8372 36.8291 11.9367 36.73C12.0359 36.6305 24.0418 36.5803 38.6169 36.6179L65.1164 36.6864V42.0348ZM23.9558 47.6726C25.8123 48.4478 26.6983 50.7357 25.7889 52.4051C24.4902 54.7892 21.737 55.2522 19.8822 53.3979C19.0451 52.5612 18.9171 52.2619 18.8996 51.0974C18.8762 49.5244 19.5026 48.4905 20.915 47.7706C22.0281 47.2032 22.7744 47.179 23.9558 47.6726ZM56.6253 48.0364C57.0078 48.3156 57.5449 48.9945 57.8188 49.5456C58.4745 50.8644 58.2293 52.1549 57.0863 53.4017C55.3457 55.3 52.3712 54.757 51.1774 52.3226C49.6145 49.1359 53.7126 45.9115 56.6253 48.0364Z" fill="white"/>
</g>
</svg>
