<svg width="119" height="26" viewBox="0 0 119 26" fill="#DADADA" xmlns="http://www.w3.org/2000/svg">
    <g id="Group">
        <path id="Vector"
            d="M56.6939 0.777527C55.2993 1.06913 52.0537 2.01999 47.8445 3.36388L46.0062 3.94707L42.5831 3.9344C38.9951 3.90904 33.8097 3.70619 15.3883 2.86943C-0.674926 2.13409 0.364686 2.15945 0.491468 2.37498C1.15073 3.49066 2.45659 4.39081 3.80048 4.6317C5.16972 4.89794 9.9494 5.35435 25.4675 6.73628C29.7908 7.1293 34.3549 7.54768 35.6101 7.68714C42.1774 8.4098 43.5339 9.04371 45.3976 12.2386C47.274 15.4716 48.1615 16.7774 49.6955 18.5143C51.5846 20.6569 55.0204 23.256 58.0251 24.8027L59.3817 25.5L60.7382 24.8027C63.7049 23.2813 67.1787 20.6569 69.0678 18.5143C70.6019 16.7774 71.4893 15.4716 73.3657 12.2386C75.2294 9.04371 76.586 8.4098 83.1533 7.68714C84.4084 7.54768 88.9726 7.1293 93.2958 6.73628C108.814 5.35435 113.594 4.89794 114.963 4.6317C116.307 4.39081 117.613 3.49066 118.272 2.37498C118.399 2.15945 119.438 2.13409 103.375 2.86943C88.4781 3.54137 80.643 3.87101 76.7508 3.95975C72.9473 4.0485 73.5178 4.14993 67.9648 2.43837C63.0203 0.90431 61.5243 0.561998 59.6352 0.511286C58.4435 0.473251 57.8983 0.523964 56.6939 0.777527ZM62.7033 3.13567C65.3784 3.80762 68.7001 4.91062 70.1201 5.59524C71.54 6.29254 71.8824 6.68556 71.8443 7.62375C71.8063 9.14513 69.8538 13.5952 68.2818 15.7885C67.3182 17.1451 65.3784 19.1482 63.8824 20.3527C62.678 21.3289 59.9522 23.1292 59.5338 23.2433C59.014 23.3701 56.1107 21.443 53.9047 19.5159C51.6606 17.5508 49.9618 15.3321 48.6559 12.6697C47.9459 11.2117 47.0204 8.65068 46.8936 7.75053C46.7288 6.66021 47.5149 5.97559 49.9998 5.01204C52.1171 4.18796 56.453 2.95818 58.621 2.56515C59.2929 2.45105 60.7889 2.6539 62.7033 3.13567Z" />
        <path id="Vector_2"
            d="M50.241 8.3593C49.6452 8.75232 49.4043 9.51302 49.6452 10.2484C49.9368 11.1992 51.0144 11.6176 52.1428 11.2246C52.5231 11.0851 52.5358 11.0598 52.5358 10.3371V9.58908H51.9653C51.4074 9.58908 51.2046 9.77926 51.5849 9.91872C51.699 9.96943 51.7751 10.1596 51.7751 10.4258C51.7751 10.8189 51.7497 10.8569 51.3947 10.8569C50.4946 10.8569 50.0509 9.66515 50.6467 8.89178C50.8876 8.60019 51.0017 8.56215 51.4455 8.60019C51.7371 8.63822 52.0667 8.70161 52.1935 8.75232C52.371 8.84107 52.409 8.79036 52.409 8.53679C52.409 8.18181 52.1554 8.0677 51.2553 8.0677C50.8623 8.0677 50.5326 8.15645 50.241 8.3593Z" />
        <path id="Vector_3"
            d="M53.005 8.15622C52.9543 8.19425 52.967 8.29568 53.0431 8.38442C53.1065 8.46049 53.1825 9.14511 53.1952 9.91848L53.2332 11.3004L54.3489 11.3384C55.3885 11.3765 55.4519 11.3638 55.4519 11.1102C55.4519 10.882 55.3759 10.8567 54.6786 10.8567H53.9179L53.9559 10.3749C53.9939 9.90581 53.9939 9.90581 54.6025 9.86777C55.0209 9.84242 55.1984 9.77902 55.1984 9.63956C55.1984 9.51278 55.0335 9.46207 54.5645 9.46207H53.9305V9.01833V8.5746H54.7039C55.3632 8.5746 55.4646 8.54924 55.4012 8.37174C55.3632 8.25764 55.3251 8.14354 55.3251 8.11818C55.3251 8.02943 53.0938 8.06747 53.005 8.15622Z" />
        <path id="Vector_4"
            d="M55.8819 8.21956C55.8311 8.29563 55.8565 8.39705 55.9326 8.42241C56.034 8.44777 56.0847 8.91686 56.0847 9.93111C56.0847 11.3637 56.0847 11.3764 56.3763 11.3384C56.6299 11.3004 56.6552 11.2116 56.7186 10.4256L56.782 9.53809L57.5173 10.4636C58.0879 11.1609 58.3287 11.3637 58.5316 11.3384C58.7978 11.3004 58.8105 11.237 58.8105 9.71558C58.8105 8.18152 58.7978 8.13081 58.5316 8.09278C58.2654 8.05474 58.2527 8.10545 58.2146 9.069L58.1766 10.0959L57.3779 9.08167C56.782 8.30831 56.5158 8.06742 56.2876 8.06742C56.1101 8.06742 55.9326 8.13081 55.8819 8.21956Z" />
        <path id="Vector_5"
            d="M59.3809 8.24493C59.3809 8.34636 59.4443 8.47314 59.5076 8.51118C59.5837 8.56189 59.6344 9.18312 59.6344 9.98185V11.3638H60.7121C61.701 11.3638 61.7897 11.3384 61.7897 11.1102C61.7897 10.882 61.701 10.8566 61.0924 10.8566H60.3951V10.3495V9.84239H61.029C61.5108 9.84239 61.6629 9.79167 61.6629 9.65221C61.6629 9.51275 61.5108 9.46204 61.029 9.46204H60.3951V9.0183V8.57457H61.1051C61.701 8.57457 61.8024 8.53653 61.7644 8.34636C61.7263 8.16887 61.5488 8.13083 60.5473 8.0928C59.5837 8.06744 59.3809 8.0928 59.3809 8.24493Z" />
        <path id="Vector_6"
            d="M62.7039 8.19415C62.5517 8.25754 62.3616 8.46039 62.2982 8.65056C62.108 9.14501 62.3869 9.58875 63.1222 9.99445C63.8576 10.3875 63.9717 10.7678 63.4012 10.8312C63.1983 10.8566 62.8687 10.8185 62.6658 10.7425C62.2982 10.6157 62.2855 10.6284 62.3235 10.958C62.3616 11.2876 62.3996 11.3003 63.1349 11.3383C63.7562 11.3637 63.959 11.3257 64.2379 11.1101C64.8845 10.603 64.6563 9.88035 63.6928 9.39857C63.2363 9.17037 63.0589 9.00555 63.0589 8.8027C63.0589 8.56181 63.1096 8.54914 63.7562 8.61253C64.3774 8.67592 64.4535 8.65056 64.4535 8.44771C64.4535 8.32093 64.3647 8.18147 64.2506 8.14343C63.959 8.02933 63.0462 8.06736 62.7039 8.19415Z" />
        <path id="Vector_7"
            d="M65.0108 8.21958C64.96 8.29565 64.9854 8.39707 65.0615 8.42243C65.1629 8.44779 65.2136 8.91688 65.2136 9.91846V11.3638H65.594H65.9743V9.7156V8.06744H65.5432C65.3024 8.06744 65.0615 8.13083 65.0108 8.21958Z" />
        <path id="Vector_8"
            d="M67.1022 8.25769C66.3669 8.66339 66.5824 9.44944 67.5587 9.95657C67.9897 10.1848 68.1926 10.3749 68.1926 10.5398C68.1926 10.844 67.6728 10.9455 67.1022 10.7426C66.7346 10.6158 66.7219 10.6285 66.7599 10.9581C66.798 11.2878 66.836 11.3005 67.5713 11.3385C68.5349 11.3892 69.0166 11.0722 69.0166 10.4257C69.0166 9.96925 68.8518 9.77907 68.0404 9.33534C67.6854 9.14516 67.4953 8.94231 67.4953 8.79018C67.4953 8.56197 67.5587 8.54929 68.1926 8.61268C68.8138 8.67607 68.8899 8.65072 68.8899 8.44786C68.8899 8.32108 68.8011 8.18162 68.687 8.14359C68.332 8.00413 67.4446 8.06752 67.1022 8.25769Z" />
        <path id="Vector_9"
            d="M4.12989 6.26737C4.15524 6.33076 4.59898 6.76182 5.11878 7.24359C8.87153 10.6667 11.61 11.7063 18.5577 12.3022C21.7272 12.5811 26.0505 12.8473 31.2992 13.0756C33.8095 13.1897 36.1677 13.3418 36.548 13.4179C37.0171 13.5066 37.3594 13.6714 37.6891 13.963C37.9426 14.1912 38.1074 14.4194 38.0694 14.4575C37.9933 14.5335 28.8524 14.3814 23.6923 14.2166C22.0695 14.1659 21.3215 14.1786 21.4103 14.2673C21.7019 14.5589 28.041 16.3338 31.5401 17.1072L33.3278 17.5002L38.2723 17.5129C43.6351 17.5256 43.5971 17.5256 44.2817 18.2483L44.5733 18.5652L44.0281 18.6413C43.4069 18.7173 39.9204 18.9709 39.464 18.9709C39.2865 18.9709 39.2231 19.0216 39.2992 19.085C39.4386 19.2372 43.9394 20.4669 45.9426 20.9234C47.8062 21.3291 51.0138 21.9249 51.0772 21.8615C51.1026 21.8362 50.811 21.5573 50.418 21.253C48.7825 19.9471 46.9315 17.7031 44.5353 14.1532C43.2928 12.3022 42.025 10.9203 41.1502 10.4385C39.9711 9.80458 37.296 9.33549 31.6162 8.76497C16.8841 7.31966 4.83986 6.16594 4.2947 6.16594C4.1806 6.16594 4.10453 6.21665 4.12989 6.26737Z" />
        <path id="Vector_10"
            d="M109.206 6.62235C106.734 6.85056 101.764 7.33233 98.1762 7.68732C94.5882 8.04231 89.91 8.49873 87.7801 8.71426C81.479 9.32281 78.8293 9.77922 77.6122 10.4385C76.7374 10.9203 75.4695 12.3022 74.2271 14.1532C71.8309 17.7031 69.9799 19.9471 68.3444 21.253C67.9514 21.5573 67.6598 21.8362 67.6851 21.8615C67.7485 21.9249 70.9561 21.3291 72.8198 20.9234C74.823 20.4669 79.3237 19.2372 79.4632 19.085C79.5392 19.0216 79.4758 18.9709 79.2984 18.9709C78.8419 18.9709 75.3554 18.7173 74.7342 18.6413L74.189 18.5652L74.4806 18.2483C75.1653 17.5256 75.1272 17.5256 80.4901 17.5129L85.4346 17.5002L87.2222 17.1072C90.7087 16.3338 97.0605 14.5589 97.3521 14.2673C97.4408 14.1786 96.7055 14.1659 95.1334 14.2166C90.1636 14.3687 80.769 14.5335 80.693 14.4575C80.6549 14.4194 80.8197 14.1912 81.0733 13.963C81.4029 13.6714 81.7452 13.5066 82.2143 13.4179C82.5947 13.3418 84.9528 13.1897 87.4631 13.0756C92.7119 12.8473 97.0225 12.5811 100.205 12.3022C107.14 11.7063 109.891 10.6667 113.644 7.24358C114.163 6.76181 114.62 6.33076 114.632 6.26736C114.696 6.11523 114.151 6.15326 109.206 6.62235Z" />
    </g>
</svg>