<svg width="86" height="119" viewBox="0 0 86 119" fill="none" xmlns="http://www.w3.org/2000/svg">
<rect x="0.5" y="0.5" width="85" height="85" rx="9.5" stroke="#00B543"/>
<path d="M3.40909 115V103.364H4.81818V108.545H11.0227V103.364H12.4318V115H11.0227V109.795H4.81818V115H3.40909ZM17.6392 115.205C17.0862 115.205 16.5843 115.1 16.1335 114.892C15.6828 114.68 15.3248 114.375 15.0597 113.977C14.7945 113.576 14.6619 113.091 14.6619 112.523C14.6619 112.023 14.7604 111.617 14.9574 111.307C15.1544 110.992 15.4176 110.746 15.7472 110.568C16.0767 110.39 16.4403 110.258 16.8381 110.17C17.2396 110.08 17.643 110.008 18.0483 109.955C18.5786 109.886 19.0085 109.835 19.3381 109.801C19.6714 109.763 19.9138 109.701 20.0653 109.614C20.2206 109.527 20.2983 109.375 20.2983 109.159V109.114C20.2983 108.553 20.1449 108.117 19.8381 107.807C19.535 107.496 19.0748 107.341 18.4574 107.341C17.8172 107.341 17.3153 107.481 16.9517 107.761C16.5881 108.042 16.3324 108.341 16.1847 108.659L14.9119 108.205C15.1392 107.674 15.4422 107.261 15.821 106.966C16.2036 106.667 16.6203 106.458 17.071 106.341C17.5256 106.22 17.9725 106.159 18.4119 106.159C18.6922 106.159 19.0142 106.193 19.3778 106.261C19.7453 106.326 20.0994 106.46 20.4403 106.665C20.785 106.869 21.071 107.178 21.2983 107.591C21.5256 108.004 21.6392 108.557 21.6392 109.25V115H20.2983V113.818H20.2301C20.1392 114.008 19.9877 114.21 19.7756 114.426C19.5634 114.642 19.2813 114.826 18.929 114.977C18.5767 115.129 18.1468 115.205 17.6392 115.205ZM17.8438 114C18.3741 114 18.821 113.896 19.1847 113.688C19.5521 113.479 19.8286 113.21 20.0142 112.881C20.2036 112.551 20.2983 112.205 20.2983 111.841V110.614C20.2415 110.682 20.1165 110.744 19.9233 110.801C19.7339 110.854 19.5142 110.902 19.2642 110.943C19.018 110.981 18.7775 111.015 18.5426 111.045C18.3116 111.072 18.1241 111.095 17.9801 111.114C17.6316 111.159 17.3059 111.233 17.0028 111.335C16.7036 111.434 16.4612 111.583 16.2756 111.784C16.0938 111.981 16.0028 112.25 16.0028 112.591C16.0028 113.057 16.1752 113.409 16.5199 113.648C16.8684 113.883 17.3097 114 17.8438 114ZM27.8821 106.273V107.409H23.3594V106.273H27.8821ZM24.6776 104.182H26.0185V112.5C26.0185 112.879 26.0734 113.163 26.1832 113.352C26.2969 113.538 26.4408 113.663 26.6151 113.727C26.7931 113.788 26.9806 113.818 27.1776 113.818C27.3253 113.818 27.4465 113.811 27.5412 113.795C27.6359 113.777 27.7116 113.761 27.7685 113.75L28.0412 114.955C27.9503 114.989 27.8234 115.023 27.6605 115.057C27.4976 115.095 27.2912 115.114 27.0412 115.114C26.6624 115.114 26.2912 115.032 25.9276 114.869C25.5677 114.706 25.2685 114.458 25.0298 114.125C24.795 113.792 24.6776 113.371 24.6776 112.864V104.182ZM33.3509 115.182C32.5327 115.182 31.8281 114.989 31.2372 114.602C30.6463 114.216 30.1918 113.684 29.8736 113.006C29.5554 112.328 29.3963 111.553 29.3963 110.682C29.3963 109.795 29.5592 109.013 29.8849 108.335C30.2145 107.653 30.6728 107.121 31.2599 106.739C31.8509 106.352 32.5402 106.159 33.3281 106.159C33.9418 106.159 34.4948 106.273 34.9872 106.5C35.4796 106.727 35.883 107.045 36.1974 107.455C36.5118 107.864 36.7069 108.341 36.7827 108.886H35.4418C35.3395 108.489 35.1122 108.136 34.7599 107.83C34.4115 107.519 33.9418 107.364 33.3509 107.364C32.8281 107.364 32.3698 107.5 31.9759 107.773C31.5857 108.042 31.2808 108.422 31.0611 108.915C30.8452 109.403 30.7372 109.977 30.7372 110.636C30.7372 111.311 30.8433 111.898 31.0554 112.398C31.2713 112.898 31.5743 113.286 31.9645 113.562C32.3584 113.839 32.8205 113.977 33.3509 113.977C33.6993 113.977 34.0156 113.917 34.2997 113.795C34.5838 113.674 34.8243 113.5 35.0213 113.273C35.2183 113.045 35.3584 112.773 35.4418 112.455H36.7827C36.7069 112.97 36.5194 113.434 36.2202 113.847C35.9247 114.256 35.5327 114.581 35.044 114.824C34.5592 115.062 33.9948 115.182 33.3509 115.182ZM40.0838 109.75V115H38.7429V103.364H40.0838V107.636H40.1974C40.402 107.186 40.7088 106.828 41.1179 106.562C41.5308 106.294 42.08 106.159 42.7656 106.159C43.3603 106.159 43.8812 106.278 44.3281 106.517C44.7751 106.752 45.1217 107.114 45.3679 107.602C45.6179 108.087 45.7429 108.705 45.7429 109.455V115H44.402V109.545C44.402 108.852 44.2221 108.316 43.8622 107.938C43.5062 107.555 43.0118 107.364 42.3793 107.364C41.9399 107.364 41.5459 107.456 41.1974 107.642C40.8527 107.828 40.58 108.098 40.3793 108.455C40.1823 108.811 40.0838 109.242 40.0838 109.75ZM48.3778 115V103.364H49.7188V107.659H49.8324C49.9309 107.508 50.0672 107.314 50.2415 107.08C50.4195 106.841 50.6733 106.629 51.0028 106.443C51.3362 106.254 51.7869 106.159 52.3551 106.159C53.09 106.159 53.7377 106.343 54.2983 106.71C54.8589 107.078 55.2964 107.598 55.6108 108.273C55.9252 108.947 56.0824 109.742 56.0824 110.659C56.0824 111.583 55.9252 112.384 55.6108 113.062C55.2964 113.737 54.8608 114.259 54.304 114.631C53.7472 114.998 53.1051 115.182 52.3778 115.182C51.8172 115.182 51.3684 115.089 51.0312 114.903C50.6941 114.714 50.4347 114.5 50.2528 114.261C50.071 114.019 49.9309 113.818 49.8324 113.659H49.6733V115H48.3778ZM49.696 110.636C49.696 111.295 49.7926 111.877 49.9858 112.381C50.179 112.881 50.4612 113.273 50.8324 113.557C51.2036 113.837 51.6581 113.977 52.196 113.977C52.7566 113.977 53.2244 113.83 53.5994 113.534C53.9782 113.235 54.2623 112.833 54.4517 112.33C54.6449 111.822 54.7415 111.258 54.7415 110.636C54.7415 110.023 54.6468 109.47 54.4574 108.977C54.2718 108.481 53.9896 108.089 53.6108 107.801C53.2358 107.509 52.7642 107.364 52.196 107.364C51.6506 107.364 51.1922 107.502 50.821 107.778C50.4498 108.051 50.1695 108.434 49.9801 108.926C49.7907 109.415 49.696 109.985 49.696 110.636ZM60.7017 115.205C60.1487 115.205 59.6468 115.1 59.196 114.892C58.7453 114.68 58.3873 114.375 58.1222 113.977C57.857 113.576 57.7244 113.091 57.7244 112.523C57.7244 112.023 57.8229 111.617 58.0199 111.307C58.2169 110.992 58.4801 110.746 58.8097 110.568C59.1392 110.39 59.5028 110.258 59.9006 110.17C60.3021 110.08 60.7055 110.008 61.1108 109.955C61.6411 109.886 62.071 109.835 62.4006 109.801C62.7339 109.763 62.9763 109.701 63.1278 109.614C63.2831 109.527 63.3608 109.375 63.3608 109.159V109.114C63.3608 108.553 63.2074 108.117 62.9006 107.807C62.5975 107.496 62.1373 107.341 61.5199 107.341C60.8797 107.341 60.3778 107.481 60.0142 107.761C59.6506 108.042 59.3949 108.341 59.2472 108.659L57.9744 108.205C58.2017 107.674 58.5047 107.261 58.8835 106.966C59.2661 106.667 59.6828 106.458 60.1335 106.341C60.5881 106.22 61.035 106.159 61.4744 106.159C61.7547 106.159 62.0767 106.193 62.4403 106.261C62.8078 106.326 63.1619 106.46 63.5028 106.665C63.8475 106.869 64.1335 107.178 64.3608 107.591C64.5881 108.004 64.7017 108.557 64.7017 109.25V115H63.3608V113.818H63.2926C63.2017 114.008 63.0502 114.21 62.8381 114.426C62.6259 114.642 62.3438 114.826 61.9915 114.977C61.6392 115.129 61.2093 115.205 60.7017 115.205ZM60.9062 114C61.4366 114 61.8835 113.896 62.2472 113.688C62.6146 113.479 62.8911 113.21 63.0767 112.881C63.2661 112.551 63.3608 112.205 63.3608 111.841V110.614C63.304 110.682 63.179 110.744 62.9858 110.801C62.7964 110.854 62.5767 110.902 62.3267 110.943C62.0805 110.981 61.84 111.015 61.6051 111.045C61.3741 111.072 61.1866 111.095 61.0426 111.114C60.6941 111.159 60.3684 111.233 60.0653 111.335C59.7661 111.434 59.5237 111.583 59.3381 111.784C59.1563 111.981 59.0653 112.25 59.0653 112.591C59.0653 113.057 59.2377 113.409 59.5824 113.648C59.9309 113.883 60.3722 114 60.9062 114ZM70.6946 115.182C69.8764 115.182 69.1719 114.989 68.581 114.602C67.9901 114.216 67.5355 113.684 67.2173 113.006C66.8991 112.328 66.7401 111.553 66.7401 110.682C66.7401 109.795 66.9029 109.013 67.2287 108.335C67.5582 107.653 68.0166 107.121 68.6037 106.739C69.1946 106.352 69.884 106.159 70.6719 106.159C71.2855 106.159 71.8385 106.273 72.331 106.5C72.8234 106.727 73.2268 107.045 73.5412 107.455C73.8556 107.864 74.0507 108.341 74.1264 108.886H72.7855C72.6832 108.489 72.456 108.136 72.1037 107.83C71.7552 107.519 71.2855 107.364 70.6946 107.364C70.1719 107.364 69.7135 107.5 69.3196 107.773C68.9295 108.042 68.6245 108.422 68.4048 108.915C68.1889 109.403 68.081 109.977 68.081 110.636C68.081 111.311 68.187 111.898 68.3991 112.398C68.6151 112.898 68.9181 113.286 69.3082 113.562C69.7022 113.839 70.1643 113.977 70.6946 113.977C71.0431 113.977 71.3594 113.917 71.6435 113.795C71.9276 113.674 72.1681 113.5 72.3651 113.273C72.562 113.045 72.7022 112.773 72.7855 112.455H74.1264C74.0507 112.97 73.8632 113.434 73.5639 113.847C73.2685 114.256 72.8764 114.581 72.3878 114.824C71.9029 115.062 71.3385 115.182 70.6946 115.182ZM77.3366 111.818L77.3139 110.159H77.5866L81.4048 106.273H83.0639L78.9957 110.386H78.8821L77.3366 111.818ZM76.0866 115V103.364H77.4276V115H76.0866ZM81.6321 115L78.223 110.682L79.1776 109.75L83.3366 115H81.6321Z" fill="#00B543"/>
<g clip-path="url(#clip0_1310_5634)">
<path d="M19.5233 34.2403C19.5959 34.3284 19.6763 34.4082 19.7354 34.5011C19.8766 34.7242 19.8358 34.973 19.6252 35.1706C19.2227 35.5479 18.8092 35.9134 18.4129 36.2969C18.1314 36.5695 17.8704 36.8636 17.5899 37.1592C17.6355 37.2079 17.6678 37.2448 17.7027 37.2795C18.2028 37.778 18.7032 38.2762 19.2035 38.7744C19.4637 39.0333 19.464 39.1156 19.2064 39.3683C18.749 39.8167 18.2996 40.274 17.8301 40.7098C17.6178 40.9068 17.5379 41.1464 17.4957 41.4103C17.476 41.5335 17.478 41.6608 17.4797 41.7859C17.4825 41.9964 17.4074 42.1 17.1981 42.1321C16.8885 42.1797 16.5774 42.2206 16.2663 42.2592C16.1985 42.2676 16.171 42.2861 16.1659 42.3591C16.1116 43.135 15.8981 43.8635 15.4661 44.5151C15.1851 44.9385 15.1143 45.4115 15.0768 45.8963C15.0507 46.2355 15.0377 46.5759 15.0296 46.9159C15.0276 46.9934 15.0524 47.0824 15.0937 47.1482C15.2802 47.4443 15.4737 47.7363 15.6734 48.0237C15.7108 48.0777 15.7828 48.1267 15.8469 48.1407C17.2729 48.448 18.7001 48.75 20.1272 49.0528C20.1674 49.0612 20.2082 49.066 20.2465 49.0719C20.2836 48.6845 20.3199 48.3072 20.3573 47.9157C20.0234 47.8418 19.6867 47.7668 19.3501 47.6926C18.9664 47.6081 18.5825 47.5252 18.1991 47.4393C18.047 47.4052 17.9677 47.3072 17.968 47.1656C17.968 47.0329 18.0419 46.9506 18.1634 46.9293C18.2371 46.9165 18.3192 46.9405 18.3958 46.9571C19.0809 47.104 19.7658 47.2529 20.4509 47.401C20.4639 47.4038 20.4779 47.4012 20.4948 47.4012C20.602 47.1544 20.6982 46.9022 20.818 46.6618C21.3321 45.6287 22.1135 44.8588 23.1471 44.3396C23.8666 43.9783 24.6319 43.7986 25.4335 43.7933C26.3296 43.7874 27.1771 44.0023 27.9635 44.4339C28.843 44.9164 29.5298 45.5977 30.0133 46.4723C30.4915 47.3371 30.7081 48.2666 30.647 49.2555C30.5663 50.5664 30.0566 51.6935 29.1344 52.6241C28.456 53.3085 27.6344 53.7689 26.6888 53.9849C25.0985 54.3482 23.6377 54.0538 22.3295 53.0789C21.3867 52.3764 20.7671 51.4467 20.4546 50.3165C20.4301 50.2278 20.3863 50.1989 20.3047 50.1816C18.6587 49.8298 17.0133 49.4749 15.3677 49.1231C15.1784 49.0828 15.0344 48.9899 14.93 48.8261C14.664 48.4091 14.3863 47.9991 14.1284 47.5773C14.059 47.4639 14.0123 47.3189 14.008 47.1868C13.9833 46.4166 14.0207 45.6458 14.1656 44.8898C14.2207 44.6021 14.3816 44.3242 14.5374 44.0678C14.8299 43.5867 15.0377 43.0826 15.1176 42.5237C15.1621 42.2128 15.1216 41.9088 15.0698 41.6071C14.8411 40.2687 15.132 39.0364 15.816 37.8799C16.3456 36.9845 17.0237 36.209 17.7618 35.4818C17.9547 35.2918 18.1567 35.111 18.3634 34.9176C18.166 34.8009 17.9764 34.6856 17.7837 34.5756C17.4288 34.3732 17.4288 33.9232 17.6768 33.7273C17.7483 33.671 17.8358 33.6229 17.9235 33.6007C18.5848 33.4348 19.2418 33.24 19.912 33.1238C21.045 32.9273 22.1838 32.7577 23.3257 32.6223C24.4131 32.4935 25.5069 32.4154 26.5988 32.3287C28.6827 32.1627 30.7708 32.0793 32.8606 32.0449C34.1963 32.023 35.532 31.9937 36.8677 32.0012C37.5548 32.0051 38.2425 32.0717 38.9285 32.1288C39.5954 32.1843 40.2643 32.2374 40.9249 32.3385C42.0244 32.5064 43.1227 32.6883 44.2132 32.9069C46.0673 33.2786 47.8862 33.7877 49.6649 34.4264C50.496 34.7248 51.3041 35.0872 52.1229 35.42C54.956 36.572 57.787 37.7296 60.6255 38.8681C60.9543 39 61.3233 39.0392 61.6771 39.1013C62.2663 39.2048 62.8654 39.2628 63.4477 39.3955C64.0023 39.522 64.5432 39.7109 65.0852 39.8872C67.1617 40.5631 69.1368 41.4643 71.0212 42.5623C71.1233 42.6219 71.2131 42.7473 71.2521 42.861C71.3973 43.2861 71.4774 43.7261 71.4578 44.1781C71.4538 44.2691 71.4862 44.3211 71.5542 44.3757C72.0695 44.7882 72.3609 45.327 72.4124 45.9805C72.4292 46.1955 72.3789 46.416 72.3572 46.6338C72.2959 47.2501 72.2315 47.8664 72.1741 48.4833C72.1688 48.5418 72.1899 48.6131 72.2225 48.6632C72.3522 48.8628 72.4931 49.0551 72.6264 49.2521C72.8579 49.5938 72.7367 49.9524 72.3508 50.0934C71.386 50.4461 70.3932 50.6952 69.3784 50.8435C68.4086 50.9851 67.4309 51.0448 66.4501 50.9723C66.3191 50.9625 66.2541 50.9991 66.1967 51.1212C65.6283 52.3275 64.7316 53.2094 63.4988 53.7283C62.5732 54.1179 61.6054 54.2276 60.6075 54.0577C59.7043 53.9038 58.8993 53.5388 58.1934 52.9648C57.6022 52.4836 57.1308 51.9015 56.8135 51.2057C56.7572 51.082 56.6914 51.0386 56.5522 51.0389C48.7848 51.0428 41.0175 51.0422 33.2501 51.0417C33.166 51.0417 33.0814 51.0375 32.9984 51.0254C32.7371 50.9874 32.534 50.7489 32.5467 50.5007C32.5607 50.2219 32.7888 49.9977 33.0648 49.9918C33.1258 49.9904 33.1865 49.9913 33.2476 49.9913C40.8884 49.9913 48.5292 49.9913 56.17 49.9913H56.366C56.3328 49.5751 56.301 49.1735 56.2673 48.7475H56.0772C48.0378 48.7475 39.9987 48.7475 31.9594 48.7475C31.9079 48.7475 31.8562 48.7489 31.8047 48.7469C31.5757 48.7385 31.4762 48.6305 31.508 48.408C31.5631 48.0217 31.5561 47.6372 31.5071 47.2512C31.3915 46.341 31.0368 45.5355 30.4074 44.8663C30.1472 44.5895 29.8361 44.3592 29.5414 44.116C29.4168 44.013 29.374 43.8769 29.4578 43.7558C29.5473 43.6262 29.6865 43.6007 29.8235 43.6936C30.9738 44.4751 31.688 45.5501 31.9636 46.9036C32.0365 47.2613 32.0291 47.6352 32.0567 48.0016C32.0618 48.0702 32.0576 48.1396 32.0576 48.2274C32.1163 48.2274 32.1664 48.2274 32.2162 48.2274C40.2086 48.2274 48.2009 48.2274 56.1933 48.23C56.3114 48.23 56.3497 48.1975 56.3699 48.0802C56.4684 47.5118 56.6554 46.9722 56.9375 46.467C57.5074 45.446 58.3329 44.699 59.4042 44.2279C59.9732 43.9777 60.5723 43.8369 61.1964 43.8045C62.1041 43.7574 62.9639 43.9338 63.779 44.3323C64.555 44.7118 65.1974 45.2484 65.7003 45.9489C66.2023 46.6481 66.5112 47.4236 66.6273 48.275C66.6957 48.7766 66.6985 49.2776 66.6068 49.7774C66.6003 49.8133 66.6026 49.8508 66.5998 49.9053C68.2289 49.9216 69.8231 49.7285 71.3967 49.3056C71.3796 49.2739 71.3694 49.2415 71.3486 49.2182C71.0991 48.9428 71.0941 48.6215 71.1371 48.2747C71.2156 47.6417 71.2679 47.0052 71.3309 46.3701C71.3424 46.2543 71.3419 46.1356 71.3677 46.0231C71.4068 45.8524 71.3675 45.7023 71.2578 45.5792C71.078 45.3774 70.8983 45.1722 70.693 44.9982C70.4641 44.8039 70.3296 44.594 70.3898 44.2839C70.4095 44.1829 70.3929 44.0748 70.3929 43.9575C70.2874 44.0382 70.1909 44.1087 70.0976 44.1837C69.9831 44.2755 69.8523 44.294 69.7136 44.2699C68.8108 44.114 67.9076 43.9587 67.0059 43.7972C66.9339 43.7843 66.8498 43.7432 66.8048 43.688C66.161 42.9004 65.3999 42.255 64.4976 41.7784C64.3201 41.6846 64.1359 41.6029 63.9553 41.5144C63.7838 41.4302 63.7292 41.337 63.7607 41.1878C63.79 41.0484 63.8777 40.9894 64.0695 40.9883C64.3876 40.9863 64.7057 40.9877 65.03 40.9634C65.0005 40.9488 64.9721 40.9303 64.9412 40.9205C64.416 40.752 63.8966 40.5626 63.3636 40.424C62.9397 40.3137 62.4995 40.267 62.0667 40.1909C61.5739 40.1044 61.0752 40.0406 60.59 39.9219C60.2106 39.829 59.8419 39.6821 59.4788 39.5343C58.2058 39.0156 56.9387 38.4828 55.6665 37.9619C53.5849 37.1094 51.512 36.2344 49.4135 35.4245C48.4088 35.0368 47.3597 34.7592 46.3218 34.4619C44.8694 34.046 43.3868 33.7597 41.8975 33.5092C41.654 33.4684 41.4079 33.4409 41.139 33.404C41.166 33.6671 41.1882 33.9156 41.2211 34.1625C41.2248 34.1896 41.2866 34.2238 41.3255 34.2294C44.4517 34.6954 47.4756 35.5499 50.439 36.6254C53.3098 37.6675 56.098 38.897 58.7908 40.3373C59.265 40.5908 59.733 40.8556 60.2036 41.1156C60.4989 41.2791 60.6046 41.5794 60.4615 41.845C60.3194 42.1081 60.0011 42.1971 59.7069 42.044C59.3873 41.8777 59.0661 41.7126 58.7607 41.5231C58.5779 41.4098 58.3855 41.3893 58.1858 41.3753C57.5738 41.3328 56.9614 41.2908 56.3489 41.2558C56.2822 41.2519 56.2029 41.2802 56.1463 41.3185C55.9371 41.4599 55.7174 41.5651 55.4584 41.5654C54.924 41.5662 54.3896 41.5707 53.8552 41.5657C53.5736 41.5631 53.3894 41.4073 53.3332 41.1318C53.3174 41.0543 53.2856 41.0347 53.2145 41.03C52.2283 40.965 51.2422 40.8993 50.2564 40.8307C49.121 40.7515 47.9861 40.6678 46.8506 40.5886C45.9722 40.5276 45.0933 40.4722 44.2149 40.4114C43.4813 40.3608 42.7481 40.3054 42.0146 40.2536C41.9406 40.2483 41.8658 40.2527 41.7819 40.2527C41.7791 40.2788 41.7727 40.3048 41.7738 40.3305C41.8464 41.6664 41.9251 43.002 41.9904 44.3382C42.0165 44.8736 42.0129 45.4104 42.0227 45.9467C42.025 46.0642 41.9856 46.1711 41.8686 46.2014C41.7881 46.2221 41.6751 46.2184 41.6115 46.1751C41.5533 46.1353 41.5173 46.0287 41.5139 45.9498C41.4982 45.5817 41.5032 45.2128 41.4894 44.8448C41.4529 43.8615 41.4157 42.8783 41.3688 41.8956C41.3435 41.365 41.2959 40.8355 41.2625 40.3051C41.2571 40.2189 41.2186 40.1962 41.1404 40.1912C40.2803 40.1352 39.4205 40.0786 38.5606 40.019C37.556 39.9491 36.5519 39.8743 35.5475 39.8044C34.6691 39.7433 33.7901 39.6882 32.9117 39.6272C31.9071 39.5575 30.903 39.4825 29.8986 39.4125C29.0202 39.3515 28.1418 39.2885 27.2629 39.2376C26.1828 39.1749 25.1019 39.1242 24.0216 39.068C23.726 39.0526 23.5052 38.8169 23.5119 38.525C23.5187 38.2351 23.7552 38.0128 24.0694 38.0142C24.2801 38.0151 24.4907 38.0321 24.7014 38.0417C24.7377 38.0433 24.7742 38.0417 24.8339 38.0417C24.7981 37.9776 24.7731 37.9294 24.7456 37.883C24.3034 37.1415 23.8582 36.4021 23.4216 35.6573C23.3603 35.5529 23.3142 35.4247 23.3091 35.3058C23.2979 35.0377 23.488 34.8308 23.7665 34.7928C24.3507 34.7133 24.9351 34.6372 25.5207 34.5697C26.353 34.4737 27.1855 34.3822 28.0192 34.2979C28.5083 34.2484 28.9988 34.212 29.4893 34.1784C30.3351 34.1208 31.1811 34.067 32.0275 34.0178C32.4859 33.9912 32.9447 33.9691 33.4037 33.9604C34.6829 33.9355 35.9623 33.9083 37.2418 33.9019C38.3719 33.896 39.497 33.9943 40.6184 34.13C40.6366 34.1322 40.6552 34.1325 40.6932 34.1348C40.6741 33.9461 40.6589 33.7628 40.6361 33.5803C40.6049 33.3298 40.6029 33.3237 40.3419 33.301C39.2554 33.2075 38.1697 33.0866 37.0809 33.0362C35.9815 32.9853 34.8783 32.99 33.7772 32.9998C32.5635 33.0105 31.3493 33.0334 30.1371 33.0897C28.9819 33.1434 27.8268 33.2243 26.6759 33.334C25.2648 33.4686 23.8562 33.6335 22.4493 33.8084C21.4753 33.9296 20.5064 34.09 19.5354 34.2333C19.5231 34.235 19.5121 34.2448 19.5236 34.2389L19.5233 34.2403ZM25.4496 44.8042C23.1986 44.7877 21.315 46.6528 21.3234 48.9213C21.3319 51.1923 23.1331 53.0135 25.4375 53.0392C27.7106 53.0647 29.6075 51.2121 29.6013 48.9448C29.5948 46.5879 27.7078 44.8115 25.4496 44.8042V44.8042ZM41.1542 39.117C41.1542 39.0652 41.1561 39.0378 41.1539 39.0109C41.1049 38.4164 41.0597 37.8214 41.0048 37.2275C40.9466 36.5963 40.8771 35.9663 40.8189 35.3355C40.8099 35.2395 40.7745 35.2118 40.6831 35.205C40.5151 35.1927 40.3489 35.16 40.181 35.1471C39.3409 35.0827 38.501 34.9884 37.6595 34.968C36.5825 34.9419 35.503 34.9526 34.4261 34.9901C32.8389 35.0455 31.2531 35.139 29.6668 35.2148C29.5709 35.2193 29.5054 35.2532 29.4466 35.3349C28.8067 36.2266 28.1623 37.115 27.5197 38.0044C27.482 38.0565 27.4465 38.1099 27.3939 38.1864C31.9917 38.4973 36.5654 38.8069 41.1539 39.1172L41.1542 39.117ZM61.4892 44.8045C59.2132 44.7936 57.362 46.624 57.3459 48.9014C57.3302 51.1581 59.1837 53.0274 61.4513 53.0417C63.7354 53.056 65.6033 51.2228 65.619 48.9509C65.6348 46.6847 63.7731 44.8154 61.4892 44.8042V44.8045ZM53.3123 39.9373C53.3123 39.3661 53.6662 39.2508 54.1395 39.2748C50.0173 37.478 45.8037 36.0173 41.3491 35.2977C41.3491 35.3635 41.3457 35.4052 41.3496 35.4463C41.4039 36.0259 41.4607 36.6056 41.5139 37.1855C41.571 37.8071 41.6258 38.429 41.6782 39.0512C41.6843 39.1259 41.7063 39.1556 41.785 39.1606C42.3133 39.1939 42.8412 39.2331 43.3691 39.2684C44.2663 39.3288 45.1639 39.3871 46.0611 39.4478C47.0987 39.518 48.136 39.59 49.1733 39.6605C50.2342 39.7327 51.2948 39.8046 52.3558 39.876C52.6682 39.897 52.9807 39.9163 53.3121 39.9376L53.3123 39.9373ZM28.8188 35.3092C28.8123 35.2957 28.8056 35.282 28.7991 35.2686C27.435 35.4141 26.0709 35.5596 24.6868 35.7074C24.729 35.7838 24.752 35.8289 24.7779 35.8723C25.132 36.4698 25.5069 37.0562 25.8324 37.6686C26.0073 37.9974 26.2104 38.1894 26.596 38.1298C26.6095 38.1279 26.6244 38.1298 26.6379 38.1335C26.7332 38.16 26.7909 38.1217 26.8477 38.0422C27.2513 37.4757 27.66 36.9132 28.067 36.3492C28.3176 36.0024 28.5682 35.6556 28.8188 35.3089V35.3092ZM16.1617 41.7375C16.3813 41.7034 16.5931 41.6726 16.8044 41.6368C17.0046 41.6029 16.9996 41.6004 17.0142 41.3955C17.044 40.9737 17.1762 40.5967 17.503 40.3037C17.6875 40.1383 17.8622 39.9625 18.043 39.7932C18.0923 39.747 18.1474 39.7072 18.1997 39.6647C18.1904 39.6507 18.1809 39.6367 18.1716 39.6227C18.1263 39.6227 18.081 39.6227 18.0357 39.6227C17.4687 39.6227 16.9017 39.6266 16.3349 39.6196C16.2126 39.618 16.1667 39.6588 16.1386 39.7725C15.9789 40.4221 16.068 41.0675 16.1617 41.7375V41.7375ZM70.3077 43.2559C69.3308 42.7403 68.3821 42.2682 67.3837 41.8528C67.3949 41.8898 67.3946 41.9012 67.4005 41.9066C67.8556 42.3471 68.212 42.8548 68.4592 43.4384C68.4752 43.4761 68.5304 43.5145 68.5728 43.5221C68.9641 43.5909 69.3562 43.6533 69.7482 43.7157C69.7786 43.7205 69.8225 43.7219 69.8411 43.7045C69.9929 43.5638 70.14 43.4182 70.3077 43.2559V43.2559Z" fill="#00B543"/>
<path d="M69.1516 49.1891C69.0233 49.1793 68.9212 49.0279 68.9409 48.8594C68.9671 48.6377 69.0025 48.4171 69.034 48.196C69.1333 47.5008 69.2326 46.8056 69.3322 46.1104C69.3406 46.0505 69.3473 45.99 69.3611 45.9312C69.3952 45.7846 69.5136 45.7003 69.6474 45.7236C69.7675 45.7443 69.8744 45.887 69.8556 46.0185C69.7706 46.6172 69.6815 47.2151 69.5943 47.8134C69.542 48.1725 69.4897 48.5313 69.4399 48.8907C69.4137 49.0788 69.2995 49.2003 69.1513 49.1891H69.1516Z" fill="#00B543"/>
<path d="M28.8613 40.7698C28.5244 40.7698 28.1871 40.7704 27.8502 40.7698C27.6713 40.7695 27.5504 40.6649 27.5518 40.5092C27.5535 40.3556 27.6651 40.2439 27.8451 40.2467C28.4768 40.2562 29.1091 40.2506 29.7411 40.2501C29.7971 40.2501 29.8533 40.2476 29.909 40.2434C30.0882 40.2296 30.2212 40.338 30.226 40.5028C30.2305 40.6495 30.0955 40.7749 29.9282 40.7751C29.5724 40.7763 29.2168 40.7754 28.8611 40.7754C28.8611 40.7735 28.8611 40.7715 28.8611 40.7698H28.8613Z" fill="#00B543"/>
<path d="M44.1423 41.7365C43.8095 41.7365 43.4768 41.7374 43.1441 41.7362C42.9688 41.7357 42.8617 41.6338 42.8653 41.4762C42.8687 41.327 42.9773 41.2257 43.1418 41.2254C43.8121 41.2243 44.4823 41.2243 45.1523 41.2254C45.3174 41.2257 45.422 41.3282 45.4231 41.4807C45.424 41.6349 45.3219 41.7348 45.1548 41.7357C44.8173 41.7374 44.4801 41.7362 44.1425 41.7362L44.1423 41.7365Z" fill="#00B543"/>
<path d="M22.6109 49.0507C22.6233 47.7476 23.4263 46.656 24.6838 46.2614C25.7518 45.9264 27.0262 46.2642 27.7384 47.1209C28.2413 47.7263 28.4348 48.4406 28.3569 49.2239C28.3439 49.3535 28.3223 49.4826 28.3026 49.6116C28.282 49.7476 28.158 49.8531 28.032 49.8447C27.8888 49.8349 27.7822 49.7227 27.789 49.573C27.7929 49.4856 27.818 49.3994 27.832 49.3127C28.0058 48.2522 27.4144 47.1408 26.4176 46.7366C25.2295 46.2549 23.9503 46.6664 23.3144 47.7884C22.6247 49.0054 23.158 50.5895 24.4473 51.1423C25.0472 51.3995 25.6624 51.4146 26.2814 51.1932C26.3661 51.163 26.464 51.1423 26.5514 51.1532C26.6656 51.1672 26.7475 51.2447 26.7492 51.3715C26.7509 51.493 26.7036 51.5867 26.5804 51.6335C25.3659 52.0933 24.0322 51.8162 23.1636 50.7599C22.7623 50.2718 22.6081 49.6804 22.6104 49.051L22.6109 49.0507Z" fill="#00B543"/>
<path d="M27.6158 50.2344C27.689 50.2856 27.7919 50.3214 27.8257 50.3908C27.8591 50.4594 27.8546 50.5834 27.8113 50.6447C27.6996 50.8034 27.5646 50.9484 27.4249 51.0844C27.3163 51.1899 27.1546 51.1826 27.0702 51.0925C26.9757 50.9915 26.9695 50.8135 27.0637 50.7096C27.1796 50.582 27.2977 50.4555 27.4226 50.3365C27.4668 50.2945 27.5337 50.2766 27.6158 50.2344V50.2344Z" fill="#00B543"/>
<path d="M61.5075 51.8527C60.3625 51.8585 59.2768 51.1703 58.8152 50.1389C58.7663 50.0298 58.7331 49.9077 58.8304 49.8299C58.9044 49.7709 59.0315 49.7314 59.1204 49.7502C59.1964 49.7661 59.2726 49.8677 59.3128 49.9489C59.5358 50.3964 59.8627 50.7424 60.2908 51.0015C61.1213 51.5042 62.3308 51.3962 63.0609 50.7536C63.7497 50.1476 64.0121 49.3894 63.876 48.4932C63.7258 47.503 62.8396 46.6572 61.8428 46.5433C60.8181 46.4263 60.0193 46.8036 59.4515 47.6536C59.225 47.9928 59.1184 48.379 59.0884 48.7863C59.083 48.8579 59.0653 48.9374 59.0265 48.9953C58.9657 49.0863 58.8659 49.1258 58.7556 49.0899C58.6226 49.0468 58.5613 48.9444 58.5714 48.8098C58.5838 48.6474 58.5978 48.484 58.6307 48.325C58.9137 46.96 60.1172 45.9936 61.5247 45.9961C62.9695 45.9986 64.2214 47.0935 64.409 48.519C64.6149 50.0849 63.5936 51.4983 62.0371 51.7942C61.8633 51.8272 61.6841 51.8333 61.5075 51.8518V51.8527Z" fill="#00B543"/>
</g>
<defs>
<clipPath id="clip0_1310_5634">
<rect width="58.7432" height="22.1351" fill="white" transform="translate(14 32)"/>
</clipPath>
</defs>
</svg>
