<svg width="86" height="119" viewBox="0 0 86 119" fill="none" xmlns="http://www.w3.org/2000/svg">
<rect x="0.5" y="0.5" width="85" height="85" rx="9.5" stroke="#00B543"/>
<path d="M36.7727 106.273C36.7045 105.697 36.428 105.25 35.9432 104.932C35.4583 104.614 34.8636 104.455 34.1591 104.455C33.6439 104.455 33.1932 104.538 32.8068 104.705C32.4242 104.871 32.125 105.1 31.9091 105.392C31.697 105.684 31.5909 106.015 31.5909 106.386C31.5909 106.697 31.6648 106.964 31.8125 107.188C31.964 107.407 32.1572 107.591 32.392 107.739C32.6269 107.883 32.8731 108.002 33.1307 108.097C33.3883 108.187 33.625 108.261 33.8409 108.318L35.0227 108.636C35.3258 108.716 35.6629 108.826 36.0341 108.966C36.4091 109.106 36.767 109.297 37.108 109.54C37.4527 109.778 37.7367 110.085 37.9602 110.46C38.1837 110.835 38.2955 111.295 38.2955 111.841C38.2955 112.47 38.1307 113.038 37.8011 113.545C37.4754 114.053 36.9981 114.456 36.3693 114.756C35.7443 115.055 34.9848 115.205 34.0909 115.205C33.2576 115.205 32.536 115.07 31.9261 114.801C31.3201 114.532 30.8428 114.157 30.4943 113.676C30.1496 113.195 29.9545 112.636 29.9091 112H31.3636C31.4015 112.439 31.5492 112.803 31.8068 113.091C32.0682 113.375 32.3977 113.587 32.7955 113.727C33.197 113.864 33.6288 113.932 34.0909 113.932C34.6288 113.932 35.1117 113.845 35.5398 113.67C35.9678 113.492 36.3068 113.246 36.5568 112.932C36.8068 112.614 36.9318 112.242 36.9318 111.818C36.9318 111.432 36.8239 111.117 36.608 110.875C36.392 110.633 36.108 110.436 35.7557 110.284C35.4034 110.133 35.0227 110 34.6136 109.886L33.1818 109.477C32.2727 109.216 31.553 108.843 31.0227 108.358C30.4924 107.873 30.2273 107.239 30.2273 106.455C30.2273 105.803 30.4034 105.235 30.7557 104.75C31.1117 104.261 31.589 103.883 32.1875 103.614C32.7898 103.341 33.4621 103.205 34.2045 103.205C34.9545 103.205 35.6212 103.339 36.2045 103.608C36.7879 103.873 37.25 104.237 37.5909 104.699C37.9356 105.161 38.1174 105.686 38.1364 106.273H36.7727ZM45.9304 111.432V106.273H47.2713V115H45.9304V113.523H45.8395C45.6349 113.966 45.3168 114.343 44.8849 114.653C44.4531 114.96 43.9077 115.114 43.2486 115.114C42.7031 115.114 42.2183 114.994 41.794 114.756C41.3698 114.513 41.0365 114.15 40.794 113.665C40.5516 113.176 40.4304 112.561 40.4304 111.818V106.273H41.7713V111.727C41.7713 112.364 41.9493 112.871 42.3054 113.25C42.6652 113.629 43.1236 113.818 43.6804 113.818C44.0137 113.818 44.3527 113.733 44.6974 113.562C45.0459 113.392 45.3376 113.131 45.5724 112.778C45.8111 112.426 45.9304 111.977 45.9304 111.432ZM56.8636 106.273L53.6364 115H52.2727L49.0455 106.273H50.5L52.9091 113.227H53L55.4091 106.273H56.8636Z" fill="#00B543"/>
<g clip-path="url(#clip0_1311_3158)">
<path d="M71.4705 43.5701C71.2832 43.5822 71.1024 43.5876 70.9231 43.6069C70.3015 43.6741 69.6971 43.6135 69.0998 43.4194C68.1583 43.1134 67.2125 42.8189 66.3351 42.3516C66.0351 42.1919 65.7484 41.9965 65.4845 41.7814C64.9554 41.3504 65.1754 40.6449 65.6675 40.4176C65.9517 40.2867 66.2539 40.2451 66.5604 40.2429C67.323 40.237 68.0855 40.241 68.848 40.241H69.0142C69.018 40.227 69.022 40.2129 69.0258 40.1991C68.8484 40.1257 68.6762 40.0304 68.4923 39.9828C67.4907 39.724 66.4913 39.4543 65.4817 39.2301C62.4922 38.5668 59.4984 37.9242 56.5071 37.269C56.396 37.2446 56.2771 37.1958 56.1918 37.123C54.9817 36.0902 53.7277 35.1156 52.3941 34.2485C50.8973 33.2754 49.324 32.4524 47.6387 31.8582C46.2039 31.3524 44.7289 31.158 43.2066 31.2283C41.6632 31.2996 40.1166 31.3108 38.5717 31.3483C38.5309 31.3493 38.4901 31.3521 38.4244 31.3552C38.4861 31.6844 38.5446 32.0035 38.6087 32.3214C38.6134 32.3445 38.6591 32.3683 38.6893 32.3745C38.7341 32.3839 38.7821 32.378 38.8287 32.378C40.4316 32.378 42.0348 32.3983 43.6371 32.3714C44.8244 32.3514 45.9648 32.5637 47.085 32.93C48.6026 33.4261 50.0066 34.1575 51.3502 35.0128C52.6742 35.8555 53.8964 36.8404 55.1557 37.7735C55.4284 37.9754 55.4685 38.3418 55.2681 38.6059C55.077 38.8579 54.7131 38.9016 54.4336 38.6947C54.0748 38.4293 53.72 38.1577 53.3683 37.8826C53.2565 37.7951 53.1457 37.7501 53.0004 37.7544C52.6686 37.7647 52.3365 37.7597 52.0044 37.7563C51.9201 37.7554 51.8687 37.7779 51.8164 37.8548C51.5581 38.2355 51.2042 38.4481 50.7342 38.4459C50.226 38.4434 49.7174 38.4452 49.2092 38.4452C48.6474 38.4452 48.5042 38.3268 48.4059 37.7697H39.4839C39.5384 38.2214 39.595 38.6641 39.6442 39.1079C39.7351 39.9247 39.8241 40.7415 39.9087 41.5589C39.9719 42.1694 40.0314 42.7805 40.084 43.3922C40.125 43.8692 40.154 44.3474 40.1864 44.8251C40.2119 45.2042 40.2337 45.5837 40.2592 45.9629C40.2751 46.1967 40.196 46.3139 40.0052 46.3311C39.8126 46.3483 39.7089 46.2439 39.6924 46.0145C39.6302 45.137 39.5804 44.2584 39.5032 43.3822C39.4045 42.2631 39.2884 41.1453 39.1702 40.0279C39.0952 39.3195 39.0002 38.6134 38.9202 37.9054C38.9078 37.796 38.8764 37.7401 38.7603 37.7566C38.7298 37.761 38.698 37.7572 38.6669 37.7572C31.2803 37.7572 23.8939 37.7579 16.5073 37.7535C16.352 37.7535 16.2564 37.7894 16.1964 37.9379C16.1478 38.0576 16.0878 38.177 16.0106 38.2799C15.7921 38.5703 15.8493 38.8979 15.8553 39.2401C15.9247 39.2401 15.9854 39.2401 16.0457 39.2401C17.052 39.2401 18.0585 39.2433 19.0648 39.2376C19.2972 39.2364 19.4675 39.3042 19.5939 39.5143C19.7433 39.7631 19.9216 39.9944 20.0862 40.2342C20.254 40.4783 20.1563 40.7121 19.8612 40.7852C19.4043 40.8984 18.9434 40.9987 18.4927 41.1332C17.6063 41.3976 16.7591 41.7605 15.9517 42.2156C15.8649 42.2647 15.8459 42.3238 15.8462 42.4157C15.8493 43.1346 15.8705 43.8545 15.8366 44.5719C15.8235 44.8448 15.9166 45.017 16.0809 45.1989C16.8873 46.0901 17.8814 46.6352 19.0576 46.8531C19.1659 46.8731 19.2288 46.8547 19.2867 46.7397C19.8562 45.6068 20.7062 44.7541 21.8357 44.1805C22.6412 43.7714 23.4977 43.5654 24.3947 43.5616C25.3798 43.5575 26.3116 43.7992 27.1791 44.2759C28.1501 44.8098 28.9002 45.5672 29.4418 46.5352C29.4595 46.5671 29.4863 46.5968 29.4937 46.6309C29.5594 46.9225 29.7511 46.9569 30.021 46.9566C37.8069 46.9488 45.5929 46.9503 53.3788 46.9503C53.6095 46.9503 53.6076 46.9497 53.658 46.7328C54.039 45.0983 54.9584 43.8654 56.4038 43.0258C56.5245 42.9558 56.6792 42.9786 56.7409 43.0727C56.8075 43.1743 56.7791 43.3453 56.6612 43.4381C56.4943 43.5694 56.311 43.6801 56.1451 43.8126C55.1053 44.6441 54.485 45.7228 54.2861 47.0419C54.2151 47.5127 54.2058 47.5305 53.7206 47.5305H29.9055C29.9755 47.8975 30.0496 48.2469 30.1081 48.5992C30.1984 49.1434 30.1775 49.6873 30.0876 50.2306C29.9276 51.1987 29.5551 52.0742 28.9587 52.8516C28.3278 53.6737 27.5314 54.2807 26.5765 54.6771C25.6867 55.0466 24.7607 55.1847 23.8049 55.0753C22.5926 54.9362 21.5214 54.4695 20.6041 53.6509C19.6188 52.7713 19.019 51.6772 18.766 50.3847C18.7361 50.2318 18.7071 50.0777 18.6947 49.9227C18.6869 49.8252 18.6377 49.8067 18.5593 49.7911C17.4588 49.5729 16.4086 49.215 15.4485 48.6236C14.962 48.3241 14.5306 47.9569 14.2561 47.4405C13.8699 46.7143 13.9598 45.9798 14.2654 45.2593C14.3654 45.0236 14.5362 44.8188 14.6679 44.596C14.7052 44.5331 14.7404 44.4562 14.7407 44.3859C14.7444 42.4272 14.7491 40.4683 14.7373 38.5096C14.7357 38.2474 14.7849 38.0195 14.911 37.7976C15.7563 36.3053 16.5985 34.8111 17.4479 33.3211C17.5126 33.2076 17.5114 33.1423 17.4239 33.0444C17.1463 32.7334 17.0202 32.3561 17.0106 31.9435C17 31.4915 17.2779 31.1086 17.7364 30.9138C18.1625 30.7329 18.6131 30.6553 19.0685 30.6397C20.3383 30.5959 21.6085 30.5734 22.8787 30.5403C24.7193 30.4922 26.5597 30.4418 28.4004 30.3937C29.7381 30.3587 31.0758 30.3262 32.4135 30.2915C34.3008 30.2427 36.1879 30.1924 38.0752 30.144C39.0345 30.1193 39.9937 30.0961 40.9529 30.0736C41.8966 30.0514 42.8409 30.0436 43.784 30.007C45.1061 29.9558 46.3828 30.188 47.6349 30.5884C49.4448 31.1674 51.1133 32.0385 52.7112 33.0582C54.132 33.9647 55.4617 34.9931 56.7471 36.0815C56.8106 36.1352 56.8971 36.1756 56.979 36.1918C60.645 36.9333 64.3027 37.7119 67.9361 38.604C68.7671 38.8082 69.5633 39.0842 70.2614 39.6027C71.5219 40.5389 72.3177 41.7627 72.5898 43.3237C72.7264 44.1074 72.7843 44.892 72.713 45.6856C72.5845 47.1179 72.121 48.4323 71.3479 49.6404C71.1991 49.873 70.9819 49.9461 70.7242 49.9461C69.3289 49.9461 67.9336 49.9461 66.538 49.9461H66.3566C66.2862 50.2653 66.2333 50.5772 66.148 50.8798C65.8418 51.9676 65.2756 52.8929 64.43 53.6481C63.6681 54.3283 62.7913 54.7731 61.7985 54.9866C61.092 55.1382 60.378 55.1591 59.6659 55.0313C58.0428 54.7399 56.762 53.9035 55.8355 52.5375C55.3359 51.8007 55.034 50.9774 54.9223 50.0912C54.9021 49.9302 54.851 49.8886 54.6935 49.8889C47.2711 49.8927 39.8487 49.8927 32.4259 49.8896C32.2849 49.8896 32.1327 49.8724 32.0051 49.818C31.7652 49.7158 31.6531 49.4548 31.7026 49.1944C31.7487 48.9524 31.9588 48.7589 32.2081 48.7349C32.2955 48.7264 32.3842 48.7277 32.4723 48.7277C39.8639 48.7277 47.2555 48.7277 54.6475 48.7277C54.9042 48.7277 54.9077 48.728 54.9413 48.4789C55.0838 47.4186 55.5143 46.483 56.1859 45.6637C56.9877 44.6857 58.0054 44.0258 59.2373 43.7392C61.1881 43.285 62.9367 43.7188 64.4481 45.0401C65.4148 45.885 65.9909 46.9694 66.2607 48.2216C66.2912 48.3635 66.3161 48.5083 66.3255 48.653C66.3323 48.7618 66.383 48.7777 66.4742 48.7771C66.8944 48.7739 67.3146 48.7758 67.7347 48.7758C68.6115 48.7758 69.488 48.7743 70.3647 48.778C70.4699 48.7783 70.5306 48.7489 70.5851 48.6527C71.2819 47.4201 71.6283 46.0985 71.5894 44.6807C71.5807 44.359 71.5347 44.0386 71.5035 43.7176C71.4992 43.6723 71.4836 43.6279 71.4709 43.5716L71.4705 43.5701ZM65.1919 49.3382C65.2013 46.8256 63.1969 44.7522 60.6167 44.7332C58.1143 44.7147 56.035 46.7953 56.0378 49.325C56.0406 51.8992 58.081 53.941 60.626 53.9353C63.2047 53.9297 65.1981 51.8341 65.1919 49.3385V49.3382ZM28.9939 49.3504C29.0228 46.8328 26.9705 44.7397 24.4311 44.736C21.8712 44.7322 19.8724 46.7678 19.8348 49.2878C19.7968 51.8276 21.8656 53.9478 24.4153 53.9353C27.0194 53.9228 28.9833 51.8373 28.9939 49.3504ZM38.0397 32.3783C37.9794 32.0632 37.9196 31.7744 37.8704 31.484C37.8549 31.3915 37.8181 31.3668 37.7285 31.369C36.9299 31.389 36.1312 31.4021 35.3329 31.4221C33.4664 31.4687 31.5999 31.5184 29.7334 31.5659C28.3232 31.6018 26.9126 31.6337 25.5024 31.6715C23.4909 31.7256 21.4797 31.786 19.4681 31.8375C19.0221 31.8488 18.5839 31.885 18.1653 32.0557C18.2764 32.3392 18.3701 32.4299 18.6464 32.4236C19.3256 32.4077 20.0053 32.4158 20.6848 32.4196C21.0623 32.4218 21.3346 32.7315 21.2892 33.0954C21.2506 33.4048 21.0277 33.5905 20.6776 33.5921C19.9929 33.5952 19.3081 33.5952 18.6234 33.5908C18.5173 33.5902 18.456 33.623 18.4012 33.7158C17.8656 34.6252 17.3249 35.5316 16.7862 36.4394C16.7613 36.4813 16.742 36.526 16.713 36.5838C16.77 36.5888 16.8052 36.5944 16.84 36.5944C19.7759 36.5947 22.7119 36.5944 25.6478 36.5966C25.7489 36.5966 25.7928 36.5654 25.8143 36.4631C25.8986 36.0615 25.9929 35.6617 26.0823 35.2609C26.2089 34.693 26.3347 34.125 26.4654 33.5358C26.391 33.5358 26.3306 33.5358 26.2699 33.5358C25.2793 33.537 24.2883 33.5399 23.2976 33.5386C23.0337 33.5386 22.8114 33.3639 22.7436 33.1179C22.6767 32.8766 22.79 32.5812 23.0253 32.4677C23.1498 32.4077 23.3023 32.3821 23.4423 32.3821C28.2301 32.378 33.0179 32.3786 37.8057 32.3786H38.0391L38.0397 32.3783ZM38.7182 36.5863C38.7207 36.5504 38.7248 36.5347 38.7223 36.52C38.5723 35.5698 38.417 34.6205 38.2757 33.669C38.2529 33.5158 38.1947 33.4873 38.0575 33.4914C37.6999 33.502 37.3416 33.4986 36.984 33.4999C33.7319 33.5111 30.4798 33.5227 27.2276 33.5308C27.1016 33.5311 27.0403 33.5527 27.0091 33.6958C26.809 34.6155 26.5955 35.532 26.3876 36.4497C26.3779 36.4919 26.377 36.536 26.3711 36.5866H38.7186L38.7182 36.5863ZM50.6692 35.9071C50.672 35.8942 50.6745 35.8811 50.6773 35.8683C50.6359 35.8386 50.5954 35.8077 50.5531 35.7792C49.1441 34.8286 47.6147 34.1516 45.9561 33.7896C45.3106 33.6486 44.6514 33.5039 43.9956 33.4886C42.3317 33.4495 40.666 33.4823 39.0012 33.487C38.9461 33.487 38.8913 33.4927 38.8275 33.4958C38.8312 33.537 38.8322 33.5624 38.8362 33.5868C38.9844 34.5107 39.1384 35.4341 39.2772 36.3597C39.3205 36.6476 39.3227 36.5935 39.5505 36.5935C42.4291 36.5951 45.3078 36.5944 48.1865 36.5944H48.4C48.4081 36.555 48.414 36.5354 48.4161 36.5153C48.4628 36.0852 48.6567 35.9089 49.0878 35.9074C49.4146 35.9061 49.7414 35.9074 50.0682 35.9074C50.2683 35.9074 50.4688 35.9074 50.6689 35.9074L50.6692 35.9071ZM15.4696 45.3712C15.2508 45.6606 15.1565 45.9701 15.1126 46.2989C15.0737 46.5927 15.1494 46.8487 15.3364 47.0826C15.5755 47.3814 15.8798 47.593 16.207 47.7756C16.7986 48.106 17.4385 48.3151 18.084 48.5058C18.2848 48.5651 18.4915 48.6045 18.6888 48.6514C18.78 48.2435 18.8668 47.8559 18.9552 47.4611C17.5403 47.2063 16.3766 46.518 15.4696 45.3708V45.3712ZM71.3336 42.969C71.3345 42.9618 71.337 42.9561 71.3358 42.9514C71.1182 42.1065 70.6364 41.4317 69.994 40.8628C69.9573 40.8303 69.8888 40.8234 69.8353 40.8231C69.1565 40.8206 68.4774 40.8212 67.7985 40.8221C67.7612 40.8221 67.7239 40.8309 67.6818 40.8362C67.693 40.8609 67.6952 40.8721 67.7018 40.8796C68.2542 41.5142 68.8063 42.1494 69.3616 42.7814C69.3961 42.8208 69.4537 42.8524 69.5054 42.8617C69.7335 42.9027 69.9623 42.9546 70.1926 42.9649C70.5689 42.9818 70.9467 42.9696 71.3333 42.9696L71.3336 42.969ZM15.8599 39.9497V41.5998C16.3685 41.3907 16.8696 41.1857 17.3691 40.9765C17.3925 40.9669 17.4177 40.9203 17.4146 40.8943C17.3744 40.5783 17.3293 40.2629 17.2857 39.9497H15.8599Z" fill="#00B543"/>
<path d="M43.3685 39.7936C42.9751 39.7936 42.582 39.7951 42.1886 39.7926C42.055 39.7917 41.9632 39.7254 41.9256 39.5935C41.8888 39.4638 41.9281 39.3528 42.0342 39.2784C42.0849 39.2428 42.159 39.2268 42.2228 39.2265C42.9835 39.2231 43.7441 39.2228 44.5051 39.2253C44.7168 39.2259 44.8406 39.3387 44.8381 39.5119C44.8356 39.6907 44.7199 39.7923 44.502 39.7942C44.1242 39.7973 43.7463 39.7951 43.3688 39.7951V39.7936H43.3685Z" fill="#00B543"/>
<path d="M35.6925 39.7926C35.2991 39.7926 34.9057 39.7957 34.5123 39.7907C34.3747 39.7888 34.276 39.7151 34.2508 39.5728C34.2259 39.4315 34.2689 39.3128 34.4074 39.2521C34.4572 39.2302 34.5179 39.2252 34.5733 39.2252C35.324 39.2237 36.0747 39.2227 36.8254 39.2249C37.0442 39.2255 37.1472 39.3253 37.1429 39.5169C37.1385 39.6954 37.0392 39.7923 36.8419 39.7941C36.4588 39.7976 36.0756 39.7951 35.6925 39.7951C35.6925 39.7944 35.6925 39.7935 35.6925 39.7929V39.7926Z" fill="#00B543"/>
<path d="M60.5887 52.5674C59.02 52.5852 57.5678 51.3912 57.3699 49.7042C57.1703 48.0028 58.2784 46.4539 59.95 46.1148C60.6111 45.9807 61.2585 46.0304 61.8781 46.3211C62.0095 46.3826 62.1069 46.4783 62.0727 46.6196C62.0509 46.7099 61.965 46.8106 61.8813 46.8521C61.8134 46.8862 61.6979 46.8581 61.6164 46.8256C60.8719 46.5296 60.1302 46.5364 59.4215 46.9043C58.4523 47.4076 57.9397 48.2191 57.9251 49.3272C57.9071 50.6775 58.9569 51.7978 60.2177 51.9707C61.6749 52.1704 62.8548 51.198 63.1617 50.0399C63.2159 49.8361 63.2205 49.6194 63.2613 49.4113C63.2825 49.3034 63.3083 49.179 63.3761 49.1012C63.5134 48.9433 63.7923 49.0127 63.8085 49.2178C63.8296 49.4819 63.8181 49.7604 63.7577 50.018C63.43 51.4156 62.3584 52.3783 60.946 52.5656C60.829 52.5812 60.7079 52.5677 60.5887 52.5677V52.5674Z" fill="#00B543"/>
<path d="M63.722 48.2646C63.7142 48.41 63.6342 48.5003 63.502 48.5338C63.3772 48.565 63.2623 48.5341 63.197 48.41C63.0886 48.204 62.9816 47.9974 62.8811 47.7873C62.8163 47.6517 62.8583 47.5085 62.9732 47.4288C63.0858 47.3506 63.2601 47.3559 63.3351 47.4785C63.4774 47.711 63.5913 47.9611 63.7155 48.2046C63.7242 48.2218 63.7205 48.2456 63.722 48.2646Z" fill="#00B543"/>
<path d="M24.4481 46.6865C23.1458 46.6618 22.0565 47.6583 21.838 48.8611C21.7493 49.3491 21.7842 49.8236 21.9575 50.2878C22.0425 50.515 22.0285 50.6132 21.8981 50.7276C21.7406 50.8657 21.5794 50.8304 21.4854 50.6335C21.2603 50.1627 21.1704 49.6651 21.2205 49.1465C21.3459 47.844 21.9914 46.8891 23.1866 46.3683C24.285 45.8897 25.3662 46.0101 26.3429 46.7074C27.3432 47.4217 27.7992 48.4348 27.6961 49.656C27.5763 51.0742 26.566 52.2161 25.2084 52.5356C24.998 52.585 24.7755 52.6343 24.5638 52.6168C23.8116 52.554 23.0764 52.4184 22.4633 51.9213C22.3108 51.7976 22.266 51.6325 22.3559 51.5028C22.4499 51.3678 22.6121 51.3484 22.786 51.45C23.0132 51.5828 23.2292 51.745 23.4711 51.8413C24.3099 52.1752 25.1278 52.1045 25.8944 51.6238C26.5797 51.194 26.9809 50.5569 27.1045 49.762C27.271 48.6908 26.7752 47.6067 25.8222 47.0579C25.3033 46.759 25.0055 46.6853 24.4484 46.6865H24.4481Z" fill="#00B543"/>
</g>
<defs>
<clipPath id="clip0_1311_3158">
<rect width="58.7432" height="25.1149" fill="white" transform="translate(14 30)"/>
</clipPath>
</defs>
</svg>
