<svg width="59" height="23" viewBox="0 0 59 23" fill="none" xmlns="http://www.w3.org/2000/svg">
<path d="M5.52334 2.24028C5.5959 2.32844 5.67634 2.40821 5.73541 2.50113C5.8766 2.7242 5.83582 2.97301 5.62515 3.17061C5.22267 3.54789 4.80921 3.91342 4.41291 4.29686C4.13136 4.56947 3.87035 4.86363 3.58993 5.15918C3.6355 5.20788 3.66784 5.24483 3.70272 5.27953C4.20281 5.778 4.70317 6.2762 5.20354 6.77439C5.46371 7.03328 5.46399 7.11557 5.20635 7.3683C4.74902 7.81667 4.29956 8.274 3.83013 8.70978C3.61778 8.90682 3.5379 9.1464 3.49571 9.41033C3.47602 9.53348 3.47799 9.66083 3.47968 9.78593C3.48249 9.99641 3.40739 10.1 3.19813 10.1321C2.88846 10.1797 2.57738 10.2206 2.26631 10.2592C2.19852 10.2676 2.17096 10.2861 2.1659 10.3591C2.11161 11.135 1.89813 11.8635 1.46611 12.5151C1.18513 12.9385 1.11425 13.4115 1.07685 13.8963C1.05069 14.2355 1.03775 14.5759 1.02959 14.9159C1.02762 14.9934 1.05238 15.0824 1.09372 15.1482C1.2802 15.4443 1.47371 15.7363 1.6734 16.0237C1.71081 16.0777 1.78282 16.1267 1.84694 16.1407C3.27295 16.448 4.70008 16.75 6.12721 17.0528C6.16743 17.0612 6.20821 17.066 6.24646 17.0719C6.28359 16.6845 6.31987 16.3072 6.35728 15.9157C6.02342 15.8418 5.68675 15.7668 5.35008 15.6926C4.96643 15.6081 4.58251 15.5252 4.19915 15.4393C4.04699 15.4052 3.96767 15.3072 3.96795 15.1656C3.96795 15.0329 4.04192 14.9506 4.16343 14.9293C4.23712 14.9165 4.31925 14.9405 4.39575 14.9571C5.08091 15.104 5.76578 15.2529 6.45094 15.401C6.46388 15.4038 6.47794 15.4012 6.49482 15.4012C6.60198 15.1544 6.69817 14.9022 6.81799 14.6618C7.33214 13.6287 8.11349 12.8588 9.14713 12.3396C9.8666 11.9783 10.6319 11.7986 11.4335 11.7933C12.3296 11.7874 13.1771 12.0023 13.9635 12.4339C14.843 12.9164 15.5298 13.5977 16.0133 14.4723C16.4915 15.3371 16.708 16.2666 16.647 17.2555C16.5663 18.5664 16.0566 19.6935 15.1344 20.6241C14.456 21.3085 13.6344 21.7689 12.6888 21.9849C11.0985 22.3482 9.63766 22.0538 8.3295 21.0789C7.38671 20.3764 6.76708 19.4467 6.4546 18.3165C6.43013 18.2278 6.38625 18.1989 6.30469 18.1816C4.65873 17.8298 3.01334 17.4749 1.36767 17.1231C1.17838 17.0828 1.03437 16.9899 0.930026 16.8261C0.663951 16.4091 0.386344 15.9991 0.128426 15.5773C0.0589536 15.4639 0.0122639 15.3189 0.00804499 15.1868C-0.0167062 14.4166 0.0207018 13.6458 0.165552 12.8898C0.22068 12.6021 0.381563 12.3242 0.537382 12.0678C0.829896 11.5867 1.03775 11.0826 1.11763 10.5237C1.16207 10.2128 1.12157 9.9088 1.06981 9.60709C0.841147 8.26869 1.13197 7.03636 1.81601 5.87988C2.34562 4.98453 3.02375 4.20898 3.76178 3.48184C3.95473 3.2918 4.15668 3.111 4.36341 2.9176C4.16596 2.80089 3.97639 2.68557 3.78372 2.57558C3.42877 2.37322 3.42877 1.92317 3.67684 1.72725C3.74828 1.671 3.83576 1.62286 3.92351 1.60075C4.58476 1.43477 5.24179 1.23998 5.91204 1.12382C7.04497 0.927346 8.18381 0.757737 9.32573 0.622273C10.4131 0.493527 11.5069 0.415439 12.5988 0.328675C14.6827 0.162705 16.7708 0.0792994 18.8606 0.0448737C20.1963 0.0230428 21.532 -0.00634492 22.8677 0.00121193C23.5548 0.00513029 24.2425 0.0717425 24.9285 0.128839C25.5954 0.184256 26.2643 0.237433 26.9249 0.338471C28.0244 0.506401 29.1227 0.688326 30.2132 0.906914C32.0673 1.2786 33.8862 1.78771 35.6649 2.4264C36.496 2.72476 37.3041 3.08721 38.1229 3.41999C40.956 4.57199 43.7869 5.72958 46.6255 6.86815C46.9543 6.99997 47.3233 7.03916 47.6771 7.10129C48.2663 7.20485 48.8654 7.26279 49.4477 7.39545C50.0023 7.52196 50.5432 7.71088 51.0852 7.8872C53.1617 8.56312 55.1368 9.46435 57.0212 10.5623C57.1233 10.6219 57.2131 10.7473 57.2522 10.861C57.3973 11.2861 57.4774 11.7261 57.4578 12.1781C57.4538 12.2691 57.4862 12.3211 57.5542 12.3757C58.0695 12.7882 58.3609 13.327 58.4124 13.9805C58.4292 14.1955 58.3789 14.416 58.3572 14.6338C58.2959 15.2501 58.2315 15.8664 58.1741 16.4833C58.1688 16.5418 58.1899 16.6131 58.2225 16.6632C58.3522 16.8628 58.4931 17.0551 58.6264 17.2521C58.8579 17.5938 58.7367 17.9524 58.3508 18.0934C57.386 18.4461 56.3932 18.6952 55.3784 18.8435C54.4086 18.9851 53.4309 19.0448 52.4501 18.9723C52.3191 18.9625 52.2541 18.9991 52.1967 19.1212C51.6283 20.3275 50.7316 21.2094 49.4988 21.7283C48.5732 22.1179 47.6054 22.2276 46.6075 22.0577C45.7043 21.9038 44.8993 21.5388 44.1934 20.9648C43.6022 20.4836 43.1308 19.9015 42.8135 19.2057C42.7572 19.082 42.6914 19.0386 42.5522 19.0389C34.7848 19.0428 27.0175 19.0422 19.2501 19.0417C19.166 19.0417 19.0814 19.0375 18.9984 19.0254C18.7371 18.9874 18.534 18.7489 18.5467 18.5007C18.5607 18.2219 18.7888 17.9977 19.0648 17.9918C19.1258 17.9904 19.1865 17.9913 19.2476 17.9913C26.8884 17.9913 34.5292 17.9913 42.17 17.9913H42.366C42.3328 17.5751 42.301 17.1735 42.2673 16.7475H42.0772C34.0378 16.7475 25.9987 16.7475 17.9594 16.7475C17.9079 16.7475 17.8562 16.7489 17.8047 16.7469C17.5757 16.7385 17.4762 16.6305 17.508 16.408C17.5631 16.0217 17.5561 15.6372 17.5071 15.2512C17.3915 14.341 17.0368 13.5355 16.4074 12.8663C16.1472 12.5895 15.8361 12.3592 15.5414 12.116C15.4168 12.013 15.374 11.8769 15.4578 11.7558C15.5473 11.6262 15.6865 11.6007 15.8235 11.6936C16.9738 12.4751 17.688 13.5501 17.9636 14.9036C18.0365 15.2613 18.0291 15.6352 18.0567 16.0016C18.0618 16.0702 18.0576 16.1396 18.0576 16.2274C18.1163 16.2274 18.1664 16.2274 18.2162 16.2274C26.2086 16.2274 34.2009 16.2274 42.1933 16.23C42.3114 16.23 42.3497 16.1975 42.3699 16.0802C42.4684 15.5118 42.6554 14.9722 42.9375 14.467C43.5074 13.446 44.3329 12.699 45.4042 12.2279C45.9732 11.9777 46.5723 11.8369 47.1964 11.8045C48.1041 11.7574 48.9639 11.9338 49.779 12.3323C50.555 12.7118 51.1974 13.2484 51.7003 13.9489C52.2024 14.6481 52.5112 15.4236 52.6273 16.275C52.6957 16.7766 52.6985 17.2776 52.6068 17.7774C52.6003 17.8133 52.6026 17.8508 52.5998 17.9053C54.2289 17.9216 55.8231 17.7285 57.3967 17.3056C57.3796 17.2739 57.3694 17.2415 57.3486 17.2182C57.0991 16.9428 57.0941 16.6215 57.1371 16.2747C57.2156 15.6417 57.2679 15.0052 57.3309 14.3701C57.3424 14.2543 57.3419 14.1356 57.3677 14.0231C57.4068 13.8524 57.3675 13.7023 57.2578 13.5792C57.078 13.3774 56.8983 13.1722 56.693 12.9982C56.4641 12.8039 56.3296 12.594 56.3898 12.2839C56.4095 12.1829 56.3929 12.0748 56.3929 11.9575C56.2874 12.0382 56.1909 12.1087 56.0976 12.1837C55.9831 12.2755 55.8523 12.294 55.7136 12.2699C54.8108 12.114 53.9076 11.9587 53.0059 11.7972C52.9339 11.7843 52.8498 11.7432 52.8048 11.688C52.161 10.9004 51.3999 10.255 50.4976 9.77838C50.3201 9.68462 50.1359 9.60289 49.9553 9.51445C49.7838 9.4302 49.7292 9.337 49.7607 9.18782C49.79 9.04844 49.8777 8.98939 50.0695 8.98827C50.3876 8.98631 50.7057 8.98771 51.03 8.96336C51.0005 8.9488 50.9721 8.93033 50.9412 8.92053C50.416 8.75204 49.8966 8.56256 49.3636 8.42402C48.9397 8.31375 48.4995 8.26701 48.0667 8.19088C47.5739 8.10439 47.0752 8.04058 46.59 7.92191C46.2106 7.82899 45.8419 7.68205 45.4788 7.53427C44.2058 7.01565 42.9387 6.48275 41.6665 5.96189C39.5849 5.10936 37.512 4.23445 35.4135 3.42447C34.4088 3.03683 33.3597 2.75918 32.3218 2.46195C30.8694 2.04604 29.3868 1.75972 27.8975 1.50922C27.654 1.46836 27.4079 1.44093 27.139 1.40399C27.166 1.66708 27.1882 1.91561 27.2211 2.16247C27.2248 2.18962 27.2866 2.22377 27.3255 2.22936C30.4517 2.69537 33.4756 3.54985 36.4389 4.62544C39.3098 5.66745 42.098 6.89698 44.7908 8.33726C45.265 8.59083 45.733 8.8556 46.2036 9.11561C46.4989 9.27907 46.6046 9.57938 46.4615 9.84499C46.3194 10.1081 46.0011 10.1971 45.7069 10.044C45.3873 9.87774 45.0661 9.7126 44.7607 9.52312C44.5779 9.40977 44.3855 9.38934 44.1858 9.37535C43.5738 9.3328 42.9614 9.29082 42.3489 9.25583C42.2822 9.25192 42.2029 9.28018 42.1463 9.31853C41.9371 9.45987 41.7174 9.56511 41.4584 9.56539C40.924 9.56623 40.3896 9.5707 39.8552 9.56567C39.5736 9.56315 39.3894 9.40725 39.3331 9.13185C39.3174 9.05432 39.2856 9.03473 39.2145 9.02997C38.2283 8.96504 37.2422 8.89926 36.2564 8.83069C35.121 8.75148 33.986 8.6678 32.8506 8.58859C31.9722 8.52758 31.0933 8.47216 30.2149 8.41143C29.4813 8.36077 28.7481 8.30535 28.0146 8.25357C27.9406 8.24825 27.8658 8.25273 27.7819 8.25273C27.7791 8.27876 27.7727 8.30479 27.7738 8.33054C27.8464 9.66642 27.9251 11.002 27.9904 12.3382C28.0165 12.8736 28.0129 13.4104 28.0227 13.9467C28.025 14.0642 27.9856 14.1711 27.8686 14.2014C27.7881 14.2221 27.6751 14.2184 27.6115 14.1751C27.5533 14.1353 27.5173 14.0287 27.5139 13.9498C27.4982 13.5817 27.5032 13.2128 27.4894 12.8448C27.4529 11.8615 27.4157 10.8783 27.3688 9.89565C27.3435 9.36499 27.2959 8.83545 27.2625 8.30507C27.2571 8.21887 27.2186 8.1962 27.1404 8.19116C26.2803 8.13518 25.4205 8.07865 24.5606 8.01903C23.556 7.94906 22.5519 7.87433 21.5475 7.80436C20.6691 7.74334 19.7901 7.68821 18.9117 7.62719C17.9071 7.5575 16.903 7.48249 15.8986 7.41252C15.0202 7.35151 14.1418 7.28853 13.2629 7.2376C12.1828 7.1749 11.1019 7.12424 10.0216 7.06799C9.72597 7.05259 9.50518 6.81693 9.51193 6.52501C9.51868 6.23505 9.75522 6.01283 10.0694 6.01423C10.2801 6.01507 10.4907 6.03214 10.7014 6.04165C10.7377 6.04333 10.7742 6.04165 10.8339 6.04165C10.7981 5.97756 10.7731 5.92942 10.7456 5.88296C10.3034 5.14155 9.85817 4.4021 9.42165 3.65733C9.36033 3.55293 9.3142 3.42475 9.30914 3.30579C9.29789 3.03767 9.48802 2.83083 9.76647 2.79277C10.3507 2.71328 10.9351 2.63715 11.5207 2.5697C12.353 2.4737 13.1855 2.38218 14.0192 2.29793C14.5083 2.2484 14.9988 2.21201 15.4893 2.17842C16.3351 2.12077 17.1811 2.06703 18.0275 2.01777C18.4859 1.99118 18.9447 1.96907 19.4037 1.9604C20.6829 1.93549 21.9623 1.90834 23.2418 1.9019C24.3719 1.89602 25.497 1.99426 26.6184 2.13C26.6366 2.13224 26.6552 2.13252 26.6932 2.13476C26.6741 1.94612 26.6589 1.7628 26.6361 1.58031C26.6049 1.32982 26.6029 1.32366 26.3419 1.30099C25.2554 1.20751 24.1697 1.0866 23.0809 1.03622C21.9815 0.985282 20.8783 0.99004 19.7772 0.999836C18.5635 1.01047 17.3493 1.03342 16.1371 1.08968C14.9819 1.14342 13.8268 1.2243 12.6759 1.33402C11.2648 1.46864 9.8562 1.63349 8.44932 1.80842C7.4753 1.92961 6.50635 2.08998 5.53543 2.23328C5.52305 2.23496 5.51209 2.24476 5.52362 2.23888L5.52334 2.24028ZM11.4496 12.8042C9.1986 12.7877 7.31498 14.6528 7.32342 16.9213C7.33186 19.1923 9.13307 21.0135 11.4375 21.0392C13.7106 21.0647 15.6075 19.2121 15.6013 16.9448C15.5948 14.5879 13.7078 12.8115 11.4496 12.8042ZM27.1542 7.11697C27.1542 7.06519 27.1561 7.03776 27.1539 7.01089C27.1049 6.41642 27.0597 5.82139 27.0048 5.22747C26.9466 4.59634 26.8771 3.96632 26.8189 3.33546C26.8099 3.23946 26.7745 3.21175 26.6831 3.20504C26.5151 3.19272 26.3489 3.15998 26.181 3.1471C25.3409 3.08273 24.501 2.98841 23.6595 2.96798C22.5825 2.94195 21.503 2.95258 20.4261 2.99009C18.8389 3.0455 17.2531 3.13898 15.6668 3.21483C15.5709 3.21931 15.5054 3.25318 15.4466 3.3349C14.8067 4.22661 14.1623 5.11496 13.5197 6.00443C13.482 6.05649 13.4465 6.10995 13.3939 6.18635C17.9917 6.4973 22.5654 6.80686 27.1539 7.11725L27.1542 7.11697ZM47.4892 12.8045C45.2132 12.7936 43.362 14.624 43.3459 16.9014C43.3302 19.1581 45.1837 21.0274 47.4513 21.0417C49.7354 21.056 51.6033 19.2228 51.619 16.9509C51.6348 14.6847 49.7731 12.8154 47.4892 12.8042V12.8045ZM39.3123 7.9373C39.3123 7.36606 39.6662 7.25075 40.1395 7.27482C36.0173 5.47797 31.8037 4.01726 27.3491 3.29768C27.3491 3.36345 27.3457 3.40515 27.3496 3.4463C27.4039 4.02593 27.4607 4.60557 27.5139 5.18549C27.571 5.80711 27.6258 6.42901 27.6782 7.05119C27.6843 7.12592 27.7063 7.15559 27.785 7.16063C28.3133 7.19393 28.8412 7.23312 29.3691 7.26838C30.2663 7.32884 31.1639 7.38705 32.0611 7.44779C33.0987 7.51804 34.136 7.58997 35.1733 7.6605C36.2342 7.73271 37.2948 7.80464 38.3558 7.87601C38.6682 7.897 38.9807 7.91631 39.3121 7.93758L39.3123 7.9373ZM14.8188 3.30915C14.8123 3.29572 14.8056 3.282 14.7991 3.26857C13.435 3.41411 12.0709 3.55965 10.6868 3.70743C10.729 3.78384 10.752 3.8289 10.7779 3.87228C11.132 4.46983 11.5069 5.05618 11.8324 5.66857C12.0073 5.99743 12.2104 6.18943 12.596 6.12982C12.6095 6.12786 12.6244 6.12982 12.6379 6.13346C12.7332 6.16004 12.7909 6.1217 12.8477 6.04221C13.2513 5.47573 13.66 4.91316 14.067 4.3492C14.3176 4.00242 14.5682 3.65565 14.8188 3.30887V3.30915ZM2.16168 9.73751C2.38134 9.70337 2.59314 9.67258 2.80436 9.63676C3.00462 9.60289 2.99956 9.60037 3.01419 9.3955C3.044 8.97371 3.17619 8.59671 3.50302 8.30367C3.68753 8.13826 3.8622 7.96249 4.04305 7.79316C4.09227 7.74698 4.1474 7.70724 4.19971 7.6647C4.19043 7.6507 4.18087 7.63671 4.17159 7.62272C4.1263 7.62272 4.08102 7.62272 4.03573 7.62272C3.46871 7.62272 2.90168 7.62663 2.33494 7.61964C2.21259 7.61796 2.16674 7.65882 2.13861 7.77245C1.97886 8.42206 2.06802 9.06747 2.16168 9.73751ZM56.3077 11.2559C55.3308 10.7403 54.3821 10.2682 53.3837 9.85283C53.3949 9.88977 53.3946 9.90125 53.4005 9.90656C53.8556 10.3471 54.212 10.8548 54.4592 11.4384C54.4752 11.4761 54.5304 11.5145 54.5728 11.5221C54.9641 11.5909 55.3562 11.6533 55.7482 11.7157C55.7786 11.7205 55.8225 11.7219 55.841 11.7045C55.9929 11.5638 56.14 11.4182 56.3077 11.2559Z" fill="#00B543"/>
</svg>
