<svg width="42" height="42" viewBox="0 0 42 42" fill="none" xmlns="http://www.w3.org/2000/svg">
<path d="M21 41C32.0457 41 41 32.0457 41 21C41 9.9543 32.0457 1 21 1C9.9543 1 1 9.9543 1 21C1 32.0457 9.9543 41 21 41Z" stroke="black" stroke-width="2" stroke-miterlimit="10" stroke-linecap="round" stroke-linejoin="round"/>
<path d="M26.34 14.96C26.1027 14.96 25.8707 15.0304 25.6733 15.1622C25.476 15.2941 25.3222 15.4815 25.2313 15.7008C25.1405 15.9201 25.1168 16.1613 25.1631 16.3941C25.2094 16.6269 25.3236 16.8407 25.4915 17.0085C25.6593 17.1764 25.8731 17.2906 26.1059 17.3369C26.3387 17.3832 26.5799 17.3595 26.7992 17.2687C27.0185 17.1778 27.2059 17.024 27.3378 16.8267C27.4696 16.6293 27.54 16.3973 27.54 16.16C27.54 15.8417 27.4136 15.5365 27.1885 15.3115C26.9635 15.0864 26.6583 14.96 26.34 14.96ZM30.94 17.38C30.9206 16.5503 30.7652 15.7294 30.48 14.95C30.2257 14.2831 29.83 13.6793 29.32 13.18C28.8248 12.6674 28.2196 12.2742 27.55 12.03C26.7727 11.7362 25.9508 11.5772 25.12 11.56C24.06 11.5 23.72 11.5 21 11.5C18.28 11.5 17.94 11.5 16.88 11.56C16.0492 11.5772 15.2273 11.7362 14.45 12.03C13.7817 12.2766 13.1769 12.6696 12.68 13.18C12.1674 13.6752 11.7742 14.2804 11.53 14.95C11.2362 15.7273 11.0772 16.5492 11.06 17.38C11 18.44 11 18.78 11 21.5C11 24.22 11 24.56 11.06 25.62C11.0772 26.4508 11.2362 27.2727 11.53 28.05C11.7742 28.7196 12.1674 29.3248 12.68 29.82C13.1769 30.3304 13.7817 30.7234 14.45 30.97C15.2273 31.2638 16.0492 31.4228 16.88 31.44C17.94 31.5 18.28 31.5 21 31.5C23.72 31.5 24.06 31.5 25.12 31.44C25.9508 31.4228 26.7727 31.2638 27.55 30.97C28.2196 30.7258 28.8248 30.3326 29.32 29.82C29.8322 29.3226 30.2283 28.7182 30.48 28.05C30.7652 27.2706 30.9206 26.4497 30.94 25.62C30.94 24.56 31 24.22 31 21.5C31 18.78 31 18.44 30.94 17.38ZM29.14 25.5C29.1327 26.1348 29.0178 26.7637 28.8 27.36C28.6403 27.7952 28.3839 28.1884 28.05 28.51C27.7256 28.8405 27.3332 29.0964 26.9 29.26C26.3037 29.4778 25.6748 29.5927 25.04 29.6C24.04 29.65 23.67 29.66 21.04 29.66C18.41 29.66 18.04 29.66 17.04 29.6C16.3809 29.6123 15.7246 29.5109 15.1 29.3C14.6858 29.1281 14.3114 28.8728 14 28.55C13.6681 28.2287 13.4148 27.8352 13.26 27.4C13.0159 26.7952 12.8804 26.1519 12.86 25.5C12.86 24.5 12.8 24.13 12.8 21.5C12.8 18.87 12.8 18.5 12.86 17.5C12.8645 16.8511 12.983 16.2079 13.21 15.6C13.386 15.1779 13.6563 14.8017 14 14.5C14.3038 14.1562 14.6793 13.8831 15.1 13.7C15.7096 13.48 16.352 13.3651 17 13.36C18 13.36 18.37 13.3 21 13.3C23.63 13.3 24 13.3 25 13.36C25.6348 13.3673 26.2637 13.4822 26.86 13.7C27.3144 13.8687 27.7223 14.1428 28.05 14.5C28.3777 14.8072 28.6338 15.1827 28.8 15.6C29.0223 16.2089 29.1373 16.8518 29.14 17.5C29.19 18.5 29.2 18.87 29.2 21.5C29.2 24.13 29.19 24.5 29.14 25.5ZM21 16.37C19.8162 16.3737 18.6703 16.7876 17.7572 17.5411C16.8442 18.2946 16.2205 19.3413 15.9923 20.5029C15.764 21.6645 15.9454 22.8693 16.5054 23.9123C17.0655 24.9552 17.9697 25.7719 19.0641 26.2232C20.1585 26.6746 21.3755 26.7328 22.5079 26.3878C23.6404 26.0429 24.6183 25.3163 25.2753 24.3315C25.9323 23.3467 26.2278 22.1647 26.1114 20.9866C25.995 19.8085 25.474 18.7072 24.637 17.87C24.1593 17.393 23.5921 17.0149 22.968 16.7575C22.3439 16.5001 21.6751 16.3684 21 16.37ZM21 24.83C20.3414 24.83 19.6976 24.6347 19.15 24.2688C18.6023 23.9029 18.1755 23.3828 17.9235 22.7743C17.6714 22.1659 17.6055 21.4963 17.734 20.8503C17.8625 20.2044 18.1796 19.611 18.6453 19.1453C19.111 18.6796 19.7044 18.3625 20.3503 18.234C20.9963 18.1055 21.6659 18.1714 22.2743 18.4235C22.8828 18.6755 23.4029 19.1023 23.7688 19.65C24.1347 20.1976 24.33 20.8414 24.33 21.5C24.33 21.9373 24.2439 22.3703 24.0765 22.7743C23.9092 23.1784 23.6639 23.5454 23.3547 23.8547C23.0454 24.1639 22.6784 24.4092 22.2743 24.5765C21.8703 24.7439 21.4373 24.83 21 24.83Z" fill="black"/>
</svg>
