<svg width="187" height="29" viewBox="0 0 187 29" fill="none" xmlns="http://www.w3.org/2000/svg">
    <path
        d="M80.9478 18.2297C80.9478 19.9843 80.9322 21.7421 80.9478 23.4999C80.9624 23.7044 80.9248 23.9093 80.8388 24.0949C80.7527 24.2805 80.6211 24.4405 80.4565 24.5596C77.9998 26.5794 75.0434 27.8767 71.9094 28.31C68.3698 28.7764 64.9491 28.3893 61.8007 26.549C60.1812 25.6339 58.7781 24.3717 57.6889 22.8505C56.5998 21.3294 55.8509 19.5857 55.4945 17.7411C53.8076 9.74861 58.1296 2.44147 65.5563 0.572647C70.3916 -0.642566 74.9608 0.0300777 79.0794 3.0348C80.0621 3.75187 80.0559 3.76139 79.2891 4.70056C78.4034 5.78886 77.499 6.85812 76.6414 7.96863C76.3566 8.33669 76.1782 8.35255 75.8371 8.06699C74.5638 6.97079 73.0528 6.19558 71.4275 5.80472C70.3223 5.52787 69.172 5.49087 68.0517 5.69615C66.9315 5.90143 65.8667 6.34434 64.9271 6.99588C63.9875 7.64742 63.1943 8.49289 62.5994 9.47688C62.0045 10.4609 61.6214 11.5612 61.4752 12.7057C61.0433 15.7358 61.688 18.455 63.8506 20.6728C65.6439 22.5099 67.8691 23.1699 70.3978 22.9605C71.903 22.8701 73.3687 22.4362 74.6854 21.6913C74.8508 21.621 74.9904 21.5 75.0847 21.3452C75.179 21.1905 75.2232 21.0098 75.2112 20.8283C75.1799 19.8765 75.1736 18.9246 75.2112 17.9727C75.23 17.4714 75.0516 17.3381 74.5853 17.3572C73.0361 17.3826 71.4838 17.3572 69.9315 17.3762C69.4464 17.3762 69.243 17.2779 69.2586 16.7416C69.2993 15.4471 69.2868 14.1526 69.2586 12.858C69.2586 12.398 69.3556 12.2076 69.8595 12.2235C73.371 12.2425 76.8835 12.2425 80.397 12.2235C80.8602 12.2235 80.9728 12.3885 80.9666 12.8295C80.9353 14.6095 80.9478 16.4244 80.9478 18.2297Z"
        fill="black" />
    <path
        d="M0 0.553989C2.29715 0.553989 4.46286 0.553989 6.62857 0.553989C6.98535 0.553989 7.07924 0.804646 7.21694 1.03944C9.21156 4.43442 11.2031 7.8294 13.1914 11.2244C13.2384 11.3037 13.2884 11.3798 13.3917 11.5417C13.8549 10.7738 14.2899 10.0568 14.7218 9.33652C16.3909 6.574 18.0465 3.80936 19.6885 1.04261C19.845 0.782429 19.9671 0.54764 20.3458 0.550813C22.3769 0.566677 24.4143 0.550813 26.4392 0.550813C26.5283 0.567636 26.6154 0.594233 26.6989 0.630135C26.1481 1.51537 25.6254 2.37205 25.0872 3.21921C22.2851 7.66124 19.4799 12.0959 16.6716 16.5231C16.4336 16.89 16.3113 17.3215 16.321 17.7605C16.321 20.9493 16.321 24.1412 16.3398 27.3299C16.3398 27.9201 16.1677 28.0692 15.6075 28.0533C14.1491 28.0153 12.6875 28.0089 11.226 28.0533C10.6001 28.0755 10.3716 27.9296 10.381 27.2316C10.4217 24.1824 10.381 21.1301 10.4123 18.0778C10.4238 17.5041 10.2646 16.9402 9.95537 16.4596C6.77775 11.4148 3.60951 6.36564 0.450668 1.3123C0.319223 1.11558 0.200297 0.89666 0 0.553989Z"
        fill="black" />
    <path
        d="M179.666 7.6296C181.979 7.66725 184.239 8.33819 186.207 9.5714C186.466 9.72687 186.554 9.82206 186.363 10.1394C185.634 11.3546 185.656 11.3546 184.413 10.7232C182.329 9.66024 180.154 9.06691 177.813 9.63169C176.038 10.06 174.996 11.3324 174.968 12.9759C174.943 13.9754 175.469 14.6226 176.204 15.1557C177.569 16.1488 179.206 16.4597 180.761 16.9706C182.075 17.3483 183.35 17.8519 184.57 18.4745C188.047 20.4068 187.321 24.7378 185.324 26.5622C183.327 28.3866 181.021 28.6499 178.539 28.32C176.338 28.0171 174.246 27.1657 172.449 25.8419C172.095 25.5881 172.095 25.4263 172.352 25.0931C173.137 24.0651 173.115 24.0619 174.208 24.7314C176.38 26.064 178.677 26.9239 181.277 26.5495C182.351 26.4273 183.353 25.9448 184.125 25.1788C185.377 23.9097 185.349 21.3713 183.787 20.3782C182.995 19.8808 182.147 19.4804 181.262 19.1852C179.343 18.5285 177.362 18.0747 175.535 17.1419C171.926 15.3016 172.59 10.8374 175.093 8.98759C176.424 8.02843 178.035 7.5502 179.666 7.6296Z"
        fill="#00B543" />
    <path
        d="M136.271 11.2938C135.839 11.6904 135.448 12.3281 134.95 12.4329C134.452 12.5376 134.083 11.7983 133.661 11.4429C131.097 9.22189 128.218 8.63808 125.139 10.0183C122.122 11.3668 120.569 13.9146 120.341 17.2049C120.084 20.8791 121.452 23.8267 124.647 25.6987C127.627 27.4469 131.492 26.8599 134.014 24.4295C134.146 24.3026 134.274 24.1693 134.402 24.0392C135.056 23.3698 135.056 23.3698 135.736 23.9631C136.415 24.5564 136.421 24.5596 135.779 25.2323C133.454 27.6405 130.641 28.824 127.329 28.4559C123.887 28.0688 121.261 26.2952 119.562 23.2238C116.651 17.9632 118.739 11.1478 124.028 8.52386C128.121 6.48053 133.01 7.5593 136.271 11.2938Z"
        fill="#00B543" />
    <path
        d="M162.084 13.3595C162.879 11.8528 163.976 10.531 165.304 9.47911C166.748 8.36475 168.498 7.7308 170.311 7.66422C170.725 7.64518 170.859 7.74989 170.865 8.18775C170.884 9.73929 170.9 9.73928 169.363 9.88524C166.45 10.1644 163.57 12.7123 162.672 15.7836C162.266 17.1521 162.066 18.5746 162.077 20.0036C162.102 22.4498 162.077 24.8993 162.096 27.3488C162.096 27.8723 161.993 28.069 161.43 28.0532C160.178 28.0151 160.178 28.0532 160.178 26.784C160.178 20.7555 160.178 14.7271 160.178 8.69858C160.178 8.09891 160.309 7.90537 160.926 7.93075C162.102 7.98152 162.102 7.93075 162.102 9.13644L162.084 13.3595Z"
        fill="#00B543" />
    <path
        d="M114.154 26.2699C114.164 25.8174 114.352 25.3877 114.674 25.0748C114.997 24.762 115.429 24.5916 115.875 24.601C116.321 24.6216 116.742 24.8202 117.044 25.1537C117.347 25.4871 117.507 25.9282 117.49 26.3809C117.485 26.6051 117.437 26.8261 117.347 27.0312C117.258 27.2363 117.129 27.4214 116.969 27.5759C116.809 27.7304 116.62 27.8513 116.413 27.9315C116.207 28.0118 115.987 28.0499 115.765 28.0435C115.544 28.0371 115.326 27.9858 115.124 27.8926C114.922 27.7994 114.741 27.6663 114.591 27.501C114.441 27.3357 114.325 27.1417 114.25 26.9302C114.175 26.7188 114.142 26.4943 114.154 26.2699Z"
        fill="#00B543" />
    <path
        d="M111.048 27.4974C110.579 26.4472 110.141 25.3811 109.696 24.3245C106.414 16.4875 103.134 8.64942 99.8537 0.810294C99.8104 0.647562 99.7105 0.506193 99.5725 0.412299C99.4344 0.318406 99.2675 0.278324 99.1026 0.299455C97.6411 0.324838 96.1826 0.331184 94.7211 0.299455C94.2485 0.299455 94.0639 0.467616 93.8886 0.892782C91.7646 5.98843 89.6281 11.082 87.4791 16.1734C85.9143 19.911 84.3495 23.6519 82.7628 27.3832C82.5312 27.9353 82.6188 28.0749 83.2134 28.0622C84.8346 28.0273 86.4526 28.04 88.0738 28.0622C88.2281 28.0857 88.3856 28.05 88.5153 27.9619C88.645 27.8739 88.7375 27.7399 88.7748 27.5862C89.4352 25.8665 90.1424 24.1659 90.8028 22.4462C90.8537 22.2486 90.974 22.0767 91.1412 21.9628C91.3083 21.8488 91.5107 21.8007 91.7104 21.8275C95.0841 21.8528 98.46 21.8528 101.838 21.8275C102.059 21.7994 102.283 21.8552 102.466 21.984C102.649 22.1128 102.778 22.3057 102.83 22.5255C103.478 24.2008 104.182 25.8538 104.827 27.5291C104.869 27.7049 104.974 27.8581 105.123 27.9581C105.272 28.0581 105.452 28.0976 105.628 28.0685C106.448 28.0368 107.271 28.0685 108.091 28.0685C108.911 28.0685 109.825 28.0526 110.692 28.0685C111.167 28.0717 111.236 27.9352 111.048 27.4974ZM99.7974 16.5319C97.7913 16.5129 95.7821 16.5319 93.776 16.5319C93.5506 16.5319 93.15 16.6779 93.3535 16.1448C94.4739 13.3696 95.5901 10.5944 96.7022 7.81919H96.8868C97.2624 8.7298 97.6442 9.63725 98.0135 10.5479C98.7458 12.3405 99.4562 14.1396 100.204 15.9227C100.417 16.4114 100.333 16.5383 99.7974 16.5319Z"
        fill="black" />
    <path
        d="M38.25 0.22724C36.4299 0.209013 34.6246 0.558959 32.9395 1.25661C31.2544 1.95425 29.7235 2.98559 28.4363 4.29028C27.1491 5.59496 26.1315 7.1468 25.443 8.855C24.7544 10.5632 24.4089 12.3934 24.4264 14.2387C24.4193 16.0801 24.7726 17.9047 25.4659 19.6068C26.1591 21.3088 27.1785 22.8546 28.4651 24.1545C29.7516 25.4544 31.2798 26.4826 32.961 27.1796C34.6422 27.8767 36.4431 28.2287 38.2594 28.2152C45.8456 28.3167 52.0861 21.8694 52.0799 14.2292C52.0736 6.85855 46.2963 0.214548 38.25 0.22724ZM38.25 23.4718C37.0525 23.4693 35.8673 23.2271 34.7623 22.759C33.6574 22.2909 32.6545 21.6063 31.8112 20.7443C30.968 19.8823 30.3009 18.8599 29.8484 17.7359C29.3958 16.6119 29.1667 15.4083 29.1741 14.1943C29.1719 12.9786 29.4084 11.7746 29.87 10.6526C30.3316 9.5306 31.0089 8.513 31.8624 7.65917C32.716 6.80533 33.7287 6.13234 34.8415 5.67948C35.9543 5.22661 37.1449 5.00292 38.3439 5.02146C40.752 5.04408 43.0534 6.03174 44.7457 7.76879C46.438 9.50583 47.3836 11.8512 47.376 14.2926C47.3497 16.7314 46.3775 19.0617 44.6697 20.7795C42.9619 22.4972 40.6557 23.4644 38.25 23.4718Z"
        fill="black" />
    <path
        d="M155.233 14.9272C155.174 11.1737 153.008 8.64804 149.362 7.90559C146.545 7.32812 143.835 7.80088 141.206 8.87649C139.91 9.40953 139.929 9.40637 140.499 10.6977C140.662 11.0594 140.812 11.0436 141.097 10.8944C142.541 10.1444 144.113 9.68025 145.728 9.52694C147.525 9.36512 149.302 9.473 150.889 10.4471C153.118 11.8146 153.487 14.0261 153.412 16.4755C151.551 15.9906 149.645 15.7077 147.725 15.6316C145.787 15.5047 143.845 15.8056 142.032 16.5136C137.604 18.338 137.053 23.77 140.042 26.4479C142.129 28.3199 144.677 28.7419 147.353 28.3897C149.816 28.0724 151.803 26.8382 153.434 24.6901V26.7462C153.434 28.1137 153.434 28.0946 154.776 28.0724C155.174 28.0724 155.271 27.936 155.268 27.5521C155.252 23.3353 155.299 19.1281 155.233 14.9272ZM146.936 26.651C145.296 26.8736 143.629 26.5233 142.211 25.6579C141.577 25.2733 141.057 24.7243 140.703 24.0676C140.349 23.4109 140.174 22.6703 140.197 21.9223C140.219 21.1743 140.439 20.4459 140.832 19.8125C141.225 19.179 141.778 18.6634 142.433 18.319C143.463 17.7689 144.6 17.4528 145.763 17.3925C148.217 17.2085 150.617 17.5987 153.005 18.1191C153.352 18.1952 153.506 18.3444 153.471 18.7188C153.454 19.0655 153.454 19.4128 153.471 19.7595C153.722 23.9413 150.495 26.2861 146.936 26.6478V26.651Z"
        fill="#00B543" />
    <path
        d="M38.2815 7.24219C36.4512 7.24132 34.6949 7.97505 33.3965 9.28304C32.0982 10.591 31.3633 12.3669 31.3525 14.2225C31.3615 16.0792 32.092 17.8575 33.3855 19.1719C34.679 20.4862 36.4314 21.2308 38.2628 21.2441C40.0937 21.2334 41.847 20.4929 43.144 19.1827C44.441 17.8726 45.1777 16.0977 45.1949 14.2416C45.1867 12.3861 44.4553 10.6092 43.1604 9.29814C41.8654 7.98704 40.1117 7.24803 38.2815 7.24219ZM38.2596 18.8708C37.0611 18.8456 35.9187 18.3513 35.0717 17.4913C34.2246 16.6314 33.7386 15.4725 33.7154 14.2574C33.7187 13.0298 34.2005 11.8533 35.0559 10.9844C35.9112 10.1154 37.0707 9.62453 38.2815 9.61867C39.4804 9.6372 40.6256 10.1257 41.4769 10.9817C42.3282 11.8377 42.8195 12.9946 42.8477 14.2098C42.8821 16.6307 40.6538 18.8962 38.2503 18.8708H38.2596Z"
        fill="#00B543" />
</svg>