<svg width="44" height="36" viewBox="0 0 44 36" fill="#DADADA" xmlns="http://www.w3.org/2000/svg">
    <g id="Frame 158">
        <path id="Vector"
            d="M22.0444 19.5965C21.9788 19.5965 21.853 19.5127 21.6398 19.1227C20.7474 17.4611 19.522 16.0012 18.0403 14.8343C16.8775 13.9223 15.5866 13.1866 14.2093 12.6509C14.0006 12.5661 13.791 12.4834 13.5805 12.403C11.7361 11.674 9.82429 10.9213 8.04914 9.89336C7.85237 9.78197 7.65792 9.66652 7.46593 9.54707C7.8195 8.92741 8.2314 8.33509 8.68703 7.79379C9.34827 7.00344 10.1169 6.30961 10.9707 5.7325C11.8873 5.11966 12.8782 4.62603 13.9195 4.26354C16.1394 3.47256 18.7985 3.08436 22.0444 3.08071C25.294 3.08436 27.9513 3.47256 30.1711 4.26536C31.2132 4.62661 32.2048 5.11965 33.1218 5.7325C33.975 6.30952 34.7436 7.00268 35.4054 7.79197C35.8611 8.33509 36.2711 8.92741 36.6265 9.54707C36.4388 9.66372 36.2402 9.78218 36.0433 9.897C34.2645 10.9249 32.3563 11.6776 30.5083 12.4048L29.8795 12.6527C28.5035 13.1888 27.2139 13.9245 26.0522 14.8361C24.5698 16.0031 23.3444 17.4637 22.4527 19.1263C22.2394 19.5145 22.1118 19.5965 22.0444 19.5965ZM22.0444 32.4873C19.2304 32.4837 16.9449 32.2522 15.0641 31.782C13.2179 31.3227 11.6833 30.6156 10.3692 29.6169C9.36195 28.8433 8.50252 27.8944 7.83226 26.8156C7.20434 25.8091 6.7082 24.7262 6.35601 23.5934C5.80673 21.8328 5.51994 20.0009 5.50488 18.1567C5.50488 16.9284 5.59054 15.7637 5.75092 14.6921C7.76665 15.7783 9.67485 16.3233 11.3643 16.8062L11.7562 16.9156C14.1073 17.5918 15.9735 18.4775 17.4698 19.6275C18.3355 20.2982 19.0919 21.0728 19.7116 21.9312C20.3841 22.8571 20.9199 23.9141 21.3099 25.0751C21.4849 25.6018 21.6744 25.928 22.0444 25.928C22.4217 25.928 22.6057 25.6 22.7825 25.0751C23.4782 22.9112 24.8179 21.0112 26.6226 19.6293C28.1171 18.4775 29.9852 17.5918 32.3363 16.9156L32.7299 16.8062C34.4176 16.3233 36.3258 15.7783 38.3397 14.6921C38.5037 15.7656 38.5876 16.9284 38.5876 18.1549C38.5876 18.9896 38.5037 21.1876 37.7401 23.5934C37.3881 24.726 36.8926 25.8088 36.2657 26.8156C35.5933 27.8951 34.7314 28.8441 33.7214 29.6169C32.4037 30.6156 30.8691 31.3227 29.0302 31.782C27.1439 32.2522 24.8602 32.4837 22.0444 32.4873ZM39.7084 5.9585C36.2292 2.2223 30.614 0.509113 22.0444 0.5C13.4785 0.509113 7.86324 2.22048 4.38402 5.95668C1.79784 8.72875 0.175781 12.5652 0.175781 17.7704C0.175781 20.6481 0.886571 27.9766 6.6713 31.7602C10.1341 34.0237 14.6066 35.4891 22.0444 35.5C29.4858 35.4891 33.9565 34.0237 37.4212 31.7602C43.2041 27.9766 43.9167 20.6463 43.9167 17.7704C43.9167 12.5798 42.2819 8.716 39.7066 5.95485L39.7084 5.9585Z" />
    </g>
</svg>