<svg width="49" height="40" viewBox="0 0 49 40" fill="#DADADA" xmlns="http://www.w3.org/2000/svg">
    <g id="Nissan_2020_logo" clip-path="url(#clip0_4299_1784)">
        <g id="Group">
            <g id="Layer_1_1_">
                <g id="Nissan_Badge_1_">
                    <path id="Vector"
                        d="M28.1871 21.5979C28.1492 21.6074 27.9974 21.6074 27.931 21.6074H23.0365V22.7457H28.0164C28.0543 22.7457 28.3484 22.7457 28.4053 22.7362C29.4202 22.6413 29.885 21.7971 29.885 21.0573C29.885 20.2984 29.4012 19.4827 28.4812 19.3973C28.3009 19.3784 28.1492 19.3784 28.0828 19.3784H24.8293C24.687 19.3784 24.5257 19.3689 24.4688 19.3499C24.2127 19.2835 24.1179 19.0559 24.1179 18.8661C24.1179 18.6954 24.2127 18.4678 24.4783 18.3919C24.5542 18.3729 24.6396 18.3634 24.8198 18.3634H29.5151V17.2441H24.7439C24.5447 17.2441 24.3929 17.2536 24.2696 17.2726C23.4539 17.3864 22.8848 18.0409 22.8848 18.8756C22.8848 19.5586 23.3116 20.3554 24.2507 20.4882C24.4214 20.5071 24.6585 20.5071 24.7629 20.5071H27.931C27.9879 20.5071 28.1302 20.5071 28.1587 20.5166C28.5191 20.564 28.6424 20.8296 28.6424 21.0668C28.6424 21.2944 28.5001 21.541 28.1871 21.5979Z" />
                    <path id="Vector_2"
                        d="M18.9098 21.5979C18.8718 21.6074 18.7201 21.6074 18.6631 21.6074H13.7592V22.7457H18.739C18.777 22.7457 19.071 22.7457 19.1279 22.7362C20.1429 22.6413 20.6077 21.7971 20.6077 21.0573C20.6077 20.2984 20.1239 19.4827 19.2038 19.3973C19.0236 19.3784 18.8718 19.3784 18.8054 19.3784H15.5519C15.4096 19.3784 15.2484 19.3689 15.1915 19.3499C14.9354 19.2835 14.8405 19.0559 14.8405 18.8661C14.8405 18.6954 14.9354 18.4678 15.201 18.3919C15.2769 18.3729 15.3622 18.3634 15.5424 18.3634H20.2377V17.2441H15.4666C15.2674 17.2441 15.1156 17.2536 14.9923 17.2726C14.1765 17.3864 13.6074 18.0409 13.6074 18.8756C13.6074 19.5586 14.0343 20.3554 14.9733 20.4882C15.1441 20.5071 15.3812 20.5071 15.4855 20.5071H18.6537C18.7106 20.5071 18.8529 20.5071 18.8813 20.5166C19.2418 20.564 19.3651 20.8296 19.3651 21.0668C19.3651 21.2944 19.2323 21.541 18.9098 21.5979V21.5979Z" />
                    <path id="Vector_3" d="M11.2077 17.2061H9.97461V22.774H11.2077V17.2061Z" />
                    <path id="Vector_4"
                        d="M7.25443 22.774V17.2061H6.02132V21.3607L1.91414 17.2061H0.330078V22.774H1.56318V18.6004L5.69882 22.774H7.25443Z" />
                    <path id="Vector_5"
                        d="M46.9119 17.2061V21.3607L42.8048 17.2061H41.2207V22.774H42.4538V18.6004L46.58 22.774H48.1356V17.2061H46.9119Z" />
                    <path id="Vector_6"
                        d="M34.8017 17.2061L31.3301 22.774H32.8288L33.4453 21.778H37.4956L38.1121 22.774H39.6014L36.1297 17.2061H34.8017ZM36.8601 20.7251H34.0808L35.4752 18.4866L36.8601 20.7251Z" />
                    <path id="Vector_7"
                        d="M7.18653 14.0479C9.67171 6.79155 16.5202 1.91605 24.2413 1.91605C31.9624 1.91605 38.8204 6.79155 41.2961 14.0479L41.315 14.1048H46.7502V13.4503L44.4926 13.1847C43.0983 13.0235 42.8042 12.4069 42.4248 11.6291L42.33 11.4394C39.067 4.49608 31.9624 0 24.2413 0C16.5107 0 9.4156 4.49608 6.15262 11.4584L6.05777 11.6481C5.67835 12.4259 5.3843 13.0424 3.98995 13.2037L1.73242 13.4693V14.1238H7.15808L7.18653 14.0479Z" />
                    <path id="Vector_8"
                        d="M41.3173 25.8864L41.2983 25.9434C38.8131 33.1997 31.9647 38.0657 24.2435 38.0657C16.5224 38.0657 9.66446 33.1902 7.18877 25.9339L7.16979 25.877H1.74414V26.5314L4.00167 26.797C5.39602 26.9583 5.69007 27.5748 6.06949 28.3526L6.16434 28.5424C9.42732 35.5046 16.5319 40.0007 24.253 40.0007C31.9741 40.0007 39.0787 35.5046 42.3417 28.5518L42.4365 28.3621C42.816 27.5843 43.11 26.9678 44.5044 26.8065L46.7619 26.5409V25.8864H41.3173Z" />
                </g>
            </g>
        </g>
    </g>
    <defs>
        <clipPath id="clip0_4299_1784">
            <rect width="47.8063" height="40" fill="white" transform="translate(0.324219)" />
        </clipPath>
    </defs>
</svg>