<svg width="13" height="13" viewBox="0 0 13 13" fill="none" xmlns="http://www.w3.org/2000/svg">
<mask id="mask0_1331_2776" style="mask-type:alpha" maskUnits="userSpaceOnUse" x="0" y="0" width="13" height="13">
<rect width="13" height="13" fill="#D9D9D9"/>
</mask>
<g mask="url(#mask0_1331_2776)">
<path d="M6.49984 6.49984C5.904 6.49984 5.39393 6.28768 4.96963 5.86338C4.54532 5.43907 4.33317 4.929 4.33317 4.33317C4.33317 3.73734 4.54532 3.22727 4.96963 2.80296C5.39393 2.37866 5.904 2.1665 6.49984 2.1665C7.09567 2.1665 7.60574 2.37866 8.03005 2.80296C8.45435 3.22727 8.6665 3.73734 8.6665 4.33317C8.6665 4.929 8.45435 5.43907 8.03005 5.86338C7.60574 6.28768 7.09567 6.49984 6.49984 6.49984ZM2.1665 10.8332V9.3165C2.1665 9.00956 2.24559 8.72735 2.40375 8.46988C2.56156 8.21277 2.77136 8.0165 3.03317 7.88109C3.59289 7.60123 4.16164 7.39124 4.73942 7.25113C5.3172 7.11138 5.904 7.0415 6.49984 7.0415C7.09567 7.0415 7.68248 7.11138 8.26025 7.25113C8.83803 7.39124 9.40678 7.60123 9.9665 7.88109C10.2283 8.0165 10.4381 8.21277 10.5959 8.46988C10.7541 8.72735 10.8332 9.00956 10.8332 9.3165V10.8332H2.1665ZM3.24984 9.74984H9.74984V9.3165C9.74984 9.2172 9.7251 9.12692 9.67563 9.04567C9.6258 8.96442 9.56025 8.90123 9.479 8.85609C8.9915 8.61234 8.49949 8.42943 8.00296 8.30738C7.50643 8.18568 7.00539 8.12484 6.49984 8.12484C5.99428 8.12484 5.49324 8.18568 4.99671 8.30738C4.50018 8.42943 4.00817 8.61234 3.52067 8.85609C3.43942 8.90123 3.37406 8.96442 3.32459 9.04567C3.27475 9.12692 3.24984 9.2172 3.24984 9.3165V9.74984ZM6.49984 5.4165C6.79775 5.4165 7.05288 5.31034 7.26521 5.098C7.47718 4.88603 7.58317 4.63109 7.58317 4.33317C7.58317 4.03525 7.47718 3.78031 7.26521 3.56834C7.05288 3.356 6.79775 3.24984 6.49984 3.24984C6.20192 3.24984 5.94698 3.356 5.735 3.56834C5.52267 3.78031 5.4165 4.03525 5.4165 4.33317C5.4165 4.63109 5.52267 4.88603 5.735 5.098C5.94698 5.31034 6.20192 5.4165 6.49984 5.4165Z" fill="#00B543"/>
</g>
</svg>
