<svg width="59" height="22" viewBox="0 0 59 22" fill="none" xmlns="http://www.w3.org/2000/svg">
<g clip-path="url(#clip0_818_3151)">
<path d="M41.0445 16.7133C41.0652 16.3108 41.0847 15.9259 41.1048 15.5335H18.2299C18.2453 15.7011 18.2603 15.8652 18.2755 16.0293C18.334 16.6583 18.2522 17.2744 18.0701 17.8738C17.7876 18.8034 17.3055 19.6115 16.5847 20.274C16.0226 20.7907 15.3859 21.1719 14.6672 21.4215C14.2768 21.5571 13.8744 21.6268 13.4652 21.6751C12.5144 21.7871 11.613 21.623 10.75 21.2162C9.76541 20.7519 9.00251 20.0436 8.44009 19.1123C8.20835 18.7286 8.03742 18.3189 7.91524 17.8888C7.88856 17.7952 7.85415 17.7526 7.74631 17.7379C6.83972 17.6138 5.93457 17.4788 5.02856 17.349C4.12684 17.2197 3.22571 17.085 2.32227 16.9675C1.47305 16.8572 0.883378 16.3926 0.490457 15.6539C0.141703 14.9966 0.00891276 14.2841 0.00346349 13.5462C-0.00227259 12.7545 0.00547111 11.9628 2.18387e-05 11.1711C-0.00141218 10.9583 0.0677076 10.7931 0.227744 10.6537C0.443994 10.4651 0.648199 10.2622 0.864449 10.0733C0.958807 9.99099 0.996092 9.90405 0.995518 9.7768C0.990643 8.65891 0.99265 7.54102 0.99265 6.42284C0.99265 5.97373 1.1567 5.7961 1.60555 5.73881C2.76051 5.59112 3.91404 5.43364 5.06957 5.29315C5.33658 5.26061 5.5775 5.17713 5.81468 5.06082C7.8596 4.05578 9.89935 3.03981 11.9537 2.05463C12.8669 1.61675 13.8354 1.31302 14.8066 1.02599C15.8967 0.703551 17.0041 0.456539 18.1263 0.2815C19.7459 0.0293052 21.3758 -0.0323039 23.0123 0.0143348C23.9003 0.0396694 24.7888 0.0365026 25.677 0.0419726C26.7671 0.048882 27.8527 0.124022 28.9368 0.236876C30.7807 0.428613 32.5996 0.758251 34.3924 1.22867C34.6904 1.30698 34.9846 1.41983 35.2614 1.55629C37.4038 2.61286 39.542 3.67864 41.6807 4.74298C42.1381 4.97071 42.5976 5.19497 43.0458 5.44026C43.3037 5.58133 43.5713 5.65273 43.8592 5.68295C45.498 5.85598 47.1147 6.15567 48.7102 6.5665C50.8125 7.10774 52.8583 7.81394 54.8312 8.7257C55.3383 8.96004 55.8505 9.18834 56.3361 9.46271C56.538 9.57671 56.6894 9.79321 56.8411 9.9812C57.4388 10.7222 57.8515 11.5603 58.0767 12.485C58.1613 12.8325 58.1957 13.1921 58.2528 13.5462C58.2625 13.6075 58.2625 13.6714 58.28 13.7301C58.3735 14.0463 58.2711 14.3488 58.2063 14.6488C57.9906 15.6475 57.5825 16.5642 57.0261 17.4207C56.852 17.6887 56.6249 17.79 56.3335 17.7906C54.7658 17.7935 53.1978 17.7932 51.6302 17.7894C51.5089 17.7892 51.4526 17.8133 51.4116 17.9438C51.1555 18.7619 50.7336 19.488 50.1293 20.0943C49.2913 20.9353 48.2918 21.4673 47.1081 21.6374C46.3713 21.7434 45.6443 21.7344 44.9253 21.5243C44.167 21.3029 43.4867 20.941 42.8881 20.4199C42.1393 19.7687 41.6288 18.9635 41.311 18.0278C41.2304 17.7906 41.2269 17.7917 40.9705 17.7917C34.2215 17.7917 27.4721 17.7917 20.723 17.7917C20.5601 17.7917 20.3981 17.7923 20.2601 17.6806C20.0829 17.537 20.0115 17.319 20.0763 17.1025C20.1417 16.8846 20.3324 16.7297 20.5564 16.7147C20.6135 16.711 20.6711 16.7127 20.7285 16.7127C27.4394 16.7127 34.1503 16.7127 40.8613 16.7127H41.0448L41.0445 16.7133ZM25.5588 2.10329C26.0212 2.12747 26.4603 2.14417 26.8985 2.17497C27.5272 2.21931 28.1567 2.25846 28.7828 2.32871C29.4413 2.40241 30.0967 2.5072 30.7523 2.60393C31.9001 2.7735 33.0338 3.01879 34.1458 3.34324C34.6967 3.50389 35.2193 3.76674 35.7478 3.99907C37.8232 4.91082 39.8098 5.99849 41.798 7.08327C42.0736 7.23355 42.1642 7.54476 42.0225 7.81077C41.9113 8.01978 41.6939 8.19281 41.3348 8.00942C40.9568 7.81624 40.5727 7.63487 40.189 7.45292C40.1311 7.42557 40.0622 7.40945 39.9983 7.40916C39.3386 7.40599 38.679 7.4083 38.0193 7.406C37.9407 7.406 37.8954 7.42672 37.849 7.49841C37.6565 7.79465 37.3832 7.99387 37.0293 8.01028C36.4382 8.03792 35.8453 8.04253 35.2537 8.03418C34.9431 8.02986 34.7678 7.83553 34.7317 7.52806C34.7274 7.49064 34.7196 7.45379 34.7133 7.41636H26.4293C26.4789 7.76269 26.5288 8.09867 26.5747 8.4355C26.6771 9.18978 26.7818 9.94378 26.8764 10.6989C26.9564 11.3357 27.0264 11.9737 27.0958 12.612C27.1325 12.9502 27.1647 13.2891 27.187 13.6285C27.2022 13.8585 26.9969 13.9878 26.8076 13.8617C26.7327 13.8119 26.6719 13.7002 26.6567 13.6081C26.6103 13.3248 26.591 13.0372 26.5581 12.7519C26.4571 11.8813 26.3596 11.0101 26.2509 10.1404C26.1448 9.28997 26.0206 8.44184 25.9182 7.59111C25.899 7.43075 25.8433 7.40456 25.6979 7.40456C20.0912 7.4083 14.4845 7.40772 8.87775 7.40772C8.82039 7.40772 8.76274 7.41003 8.70567 7.40513C8.46705 7.38527 8.26571 7.22347 8.2115 7.01014C8.14984 6.76774 8.23875 6.54059 8.45586 6.40269C8.58492 6.32064 8.71886 6.24665 8.8505 6.16863C10.2822 5.32194 11.7114 4.46891 13.2263 3.7771C13.7422 3.5416 14.2728 3.3323 14.8109 3.15324C15.9779 2.76487 17.1802 2.52361 18.4028 2.40126C19.3194 2.30971 20.2381 2.22276 21.1581 2.1839C22.3564 2.13352 23.5567 2.13265 24.7561 2.11106C24.8407 2.10962 24.9253 2.11106 25.0303 2.11106C24.9669 1.76386 24.9069 1.43682 24.8461 1.10257C24.7845 1.10257 24.7374 1.10315 24.6901 1.10257C24.1885 1.09509 23.6866 1.10027 23.1858 1.07695C21.5244 1.00037 19.8712 1.08645 18.2287 1.34124C17.0448 1.52491 15.8812 1.80215 14.7349 2.1554C13.1594 2.64079 11.6649 3.31964 10.1933 4.05233C8.93999 4.67619 7.69813 5.32309 6.44594 5.94983C6.15713 6.09435 5.85771 6.25874 5.54624 6.30912C4.43487 6.48906 3.31634 6.62293 2.20096 6.77839C2.14704 6.78587 2.05526 6.83136 2.05497 6.85986C2.05354 6.95775 1.99876 7.06571 2.13671 7.14718C2.46051 7.33863 2.79665 7.52288 3.07944 7.76673C3.71155 8.31171 4.04281 8.9943 3.8865 9.85798C3.84922 10.065 3.74109 10.2204 3.55381 10.2936C3.3605 10.369 3.15544 10.4358 2.95066 10.4545C2.65726 10.4813 2.35984 10.4597 2.06386 10.4617C2.01883 10.462 1.9609 10.4651 1.93136 10.4919C1.75182 10.6554 1.57859 10.8262 1.38557 11.0116C1.54389 11.0533 1.68327 11.0962 1.82553 11.127C3.0823 11.4002 4.3494 11.469 5.62683 11.3133C5.73639 11.3 5.83017 11.3228 5.87004 11.4146C5.90445 11.4938 5.91392 11.6003 5.89183 11.6835C5.86229 11.7949 5.75991 11.8361 5.6426 11.8347C5.00217 11.826 4.36116 11.8381 3.72188 11.8064C3.07886 11.7748 2.43757 11.7051 1.79656 11.6415C1.55651 11.6176 1.31932 11.5643 1.07554 11.5234C1.07152 11.5603 1.06579 11.5885 1.06579 11.6164C1.06579 12.2642 1.05718 12.912 1.06951 13.5594C1.07984 14.1096 1.16559 14.6482 1.42945 15.1423C1.62706 15.5122 1.89522 15.8036 2.33116 15.8709C2.94406 15.9656 3.55869 16.048 4.17245 16.1355C5.08391 16.2653 5.99537 16.3955 6.90712 16.5253C7.16496 16.5619 7.42308 16.5973 7.67461 16.6324C7.70071 16.3054 7.71476 15.9944 7.75233 15.6867C7.85816 14.8181 8.17824 14.0313 8.68129 13.3193C9.16513 12.6347 9.77717 12.0897 10.5177 11.7034C11.4911 11.1955 12.527 10.9957 13.6221 11.1273C14.4673 11.2286 15.2448 11.5183 15.9483 11.9933C16.9802 12.6897 17.6743 13.6472 18.0526 14.8334C18.0928 14.9592 18.1435 14.9897 18.2683 14.9897C21.5903 14.9859 24.9124 14.9868 28.2341 14.9868C32.5216 14.9868 36.8093 14.9865 41.0967 14.9891C41.208 14.9891 41.2585 14.9649 41.2952 14.8477C41.6537 13.6993 42.3068 12.7582 43.2957 12.0693C44.7056 11.087 46.252 10.8213 47.8877 11.3257C49.6796 11.8784 50.8541 13.0939 51.426 14.8886C51.4489 14.9603 51.4762 14.9882 51.5527 14.9882C53.3404 14.9862 55.128 14.9862 56.9157 14.9888C57.0006 14.9888 57.0336 14.9534 57.0559 14.8817C57.1236 14.6623 57.195 14.4441 57.2627 14.2245C57.2719 14.1945 57.2736 14.1585 57.267 14.128C57.1916 13.7725 57.1099 13.4181 57.0396 13.0617C57.0184 12.9543 56.9722 12.9246 56.8675 12.9258C56.318 12.9307 55.7682 12.9223 55.2184 12.9304C54.9537 12.9344 54.7214 12.861 54.5068 12.7119C54.0967 12.4269 53.7669 12.0624 53.4786 11.659C53.2868 11.3904 53.0914 11.1213 53.0206 10.7882C52.967 10.536 53.1141 10.3333 53.3711 10.3206C54.0385 10.2878 54.7064 10.263 55.3741 10.2348C55.4088 10.2334 55.4432 10.2299 55.5141 10.2248C55.4435 10.1859 55.408 10.1643 55.3707 10.1462C53.0355 9.00985 50.6077 8.13293 48.0864 7.51539C46.6117 7.15409 45.1223 6.87714 43.6123 6.71217C43.3252 6.68079 43.0433 6.64567 42.7714 6.5095C40.0591 5.15093 37.3422 3.80215 34.6241 2.45567C34.4291 2.35923 34.2192 2.28524 34.0084 2.23025C32.7014 1.88996 31.3798 1.61819 30.041 1.44229C29.2841 1.34296 28.5244 1.26437 27.7644 1.19268C27.3081 1.14979 26.8492 1.13107 26.3909 1.11466C26.0579 1.10257 25.7243 1.11236 25.3779 1.11236C25.4395 1.45006 25.4992 1.77826 25.5586 2.10444L25.5588 2.10329ZM50.5719 16.3523C50.5552 14.09 48.7839 12.145 46.269 12.1318C44.0066 12.1197 42.1287 14.0618 42.1358 16.3753C42.1433 18.6969 44.0419 20.6022 46.3441 20.5984C48.6856 20.5944 50.5808 18.6911 50.5719 16.3526V16.3523ZM8.75844 16.3382C8.78856 16.614 8.79831 16.8941 8.85251 17.165C9.03865 18.096 9.47602 18.8918 10.1919 19.518C11.3689 20.5475 12.7321 20.8492 14.2146 20.4073C15.5646 20.0051 16.5033 19.1014 16.9725 17.7572C17.4311 16.4444 17.2579 15.1857 16.4933 14.0356C15.6432 12.7568 14.3841 12.2026 12.8899 12.1335C12.6541 12.1226 12.4115 12.1545 12.1789 12.2017C10.1988 12.6022 8.7831 14.3264 8.75787 16.3382H8.75844ZM16.1084 6.31143H25.7209C25.7183 6.28062 25.7177 6.25759 25.714 6.23485C25.5611 5.2799 25.4028 4.32582 25.26 3.36916C25.2359 3.20707 25.1805 3.17166 25.028 3.17281C23.2937 3.18634 21.5594 3.18548 19.8285 3.3182C18.8232 3.39535 17.826 3.52663 16.8366 3.7201C16.7454 3.73795 16.7115 3.77768 16.6917 3.86491C16.6151 4.20577 16.5291 4.54462 16.4479 4.88434C16.3355 5.35447 16.2242 5.8246 16.1087 6.31143H16.1084ZM25.7636 3.18807C25.7636 3.23816 25.7602 3.26235 25.7642 3.28538C25.9219 4.24435 26.0846 5.20246 26.234 6.16258C26.2563 6.30624 26.3137 6.3215 26.4356 6.3215C29.1399 6.31833 31.8441 6.3192 34.5487 6.3192H34.707C34.7139 6.2858 34.7225 6.26306 34.7228 6.24003C34.7285 5.8934 35.0047 5.6677 35.3672 5.68209C35.7679 5.69821 36.1697 5.68612 36.5713 5.68526C36.6094 5.68526 36.6475 5.67921 36.7284 5.6723C36.2532 5.44199 35.8233 5.2229 35.3847 5.0231C34.691 4.707 34.0078 4.36584 33.2463 4.22247C32.1361 4.01317 31.0362 3.74198 29.9211 3.56694C28.9185 3.40946 27.9015 3.34065 26.8896 3.24421C26.5202 3.20909 26.1476 3.2065 25.7639 3.18836L25.7636 3.18807ZM15.5454 6.31027C15.737 5.50792 15.9283 4.70757 16.123 3.89283C14.1624 4.33533 12.4823 5.33316 10.7486 6.31027H15.5454ZM56.7992 15.5367H51.5989C51.6199 15.9314 51.6402 16.3157 51.6614 16.7133H51.8218C53.1069 16.7133 54.3924 16.7133 55.6776 16.7133C55.8445 16.7133 56.0455 16.7663 56.1694 16.6917C56.2985 16.614 56.3599 16.415 56.4393 16.2633C56.5626 16.0275 56.6762 15.7866 56.7992 15.537V15.5367ZM56.8474 12.4159C56.8491 12.3814 56.856 12.3606 56.85 12.3451C56.6725 11.877 56.4929 11.4097 56.3157 10.9416C56.2704 10.8216 56.1841 10.7807 56.0613 10.779C55.7415 10.7746 55.422 10.7628 55.1025 10.7559C55.0477 10.7548 54.993 10.7625 54.9235 10.7674C55.1028 11.3061 55.2743 11.8263 55.4527 12.3439C55.4645 12.3776 55.5301 12.4107 55.5723 12.4127C55.7438 12.4205 55.9156 12.4162 56.0874 12.4162C56.3392 12.4162 56.591 12.4162 56.8471 12.4162L56.8474 12.4159ZM2.09054 7.69043C2.07591 7.70022 2.06128 7.71001 2.04665 7.7198C2.04665 7.81423 2.04665 7.90866 2.04665 8.00337C2.04665 8.60306 2.04665 9.20274 2.04665 9.80242C2.04665 9.86863 2.03346 9.94493 2.13786 9.94464C2.33202 9.94464 2.52648 9.94464 2.70573 9.94464C2.72437 9.9003 2.73097 9.89167 2.73126 9.88303C2.73269 9.32164 2.73412 8.76053 2.7324 8.19914C2.7324 8.16603 2.71491 8.11968 2.68996 8.10183C2.49235 7.96163 2.29072 7.8269 2.09054 7.69072V7.69043Z" fill="black"/>
<path d="M29.0598 9.11093C29.4229 9.11093 29.7857 9.11035 30.1488 9.11093C30.3206 9.11122 30.4364 9.22004 30.4385 9.37953C30.4405 9.54766 30.3243 9.65649 30.1425 9.6562C29.426 9.65476 28.7096 9.64727 27.9932 9.6562C27.8128 9.6585 27.6765 9.54795 27.6711 9.3873C27.6653 9.21918 27.7947 9.11237 27.9995 9.11208C28.3528 9.11208 28.7064 9.11208 29.0598 9.11208V9.11035V9.11093Z" fill="black"/>
<path d="M16.8025 9.65239C16.4635 9.65239 16.1245 9.65326 15.7855 9.6521C15.6091 9.65153 15.4964 9.54645 15.4961 9.38638C15.4955 9.22631 15.6102 9.11346 15.7812 9.11317C16.4592 9.11202 17.1372 9.11202 17.8152 9.11317C17.9881 9.11317 18.1031 9.22257 18.1054 9.38177C18.1077 9.54098 17.9933 9.65124 17.8198 9.6521C17.4808 9.65354 17.1418 9.65239 16.8028 9.65239H16.8025Z" fill="black"/>
<path d="M46.3743 13.9079C45.2615 13.9183 44.3566 14.5802 43.999 15.6463C43.9224 15.8743 43.8352 15.9494 43.6789 15.9223C43.5019 15.8918 43.3978 15.7631 43.4572 15.5918C43.5507 15.3221 43.6473 15.046 43.7942 14.8039C44.8166 13.1168 47.1968 12.8718 48.5204 14.3297C49.3304 15.2219 49.5598 16.2747 49.1396 17.4148C48.7295 18.5272 47.9087 19.1902 46.7342 19.3532C45.6885 19.4983 44.8106 19.1341 44.1031 18.3527C43.9729 18.2091 43.968 18.0611 44.0787 17.9589C44.1994 17.8475 44.3681 17.8584 44.4963 18.0018C44.9119 18.4659 45.4238 18.7529 46.0404 18.8283C46.7526 18.9153 47.3936 18.7302 47.9445 18.2615C48.3222 17.9405 48.5789 17.54 48.7192 17.0612C49.0545 15.9189 48.4986 14.6663 47.4237 14.1529C47.0916 13.9943 46.7434 13.9068 46.3743 13.9077V13.9079Z" fill="black"/>
<path d="M43.3411 16.6725C43.3351 16.4387 43.4214 16.3219 43.5536 16.306C43.7013 16.2885 43.8224 16.3717 43.8559 16.5251C43.8958 16.7065 43.9305 16.889 43.9612 17.0721C43.9807 17.1878 43.8849 17.3197 43.7667 17.3542C43.6534 17.3874 43.4997 17.3162 43.4662 17.1962C43.4108 16.9996 43.3707 16.7986 43.3411 16.6725Z" fill="black"/>
<path d="M13.058 19.3799C11.6532 19.4239 10.3991 18.4828 10.0632 17.1332C9.82545 16.1774 10.0104 15.2973 10.617 14.5182C11.4169 13.491 12.8056 13.1084 14.0202 13.5688C14.149 13.6177 14.2471 13.7035 14.2342 13.8397C14.2267 13.9194 14.1579 14.0173 14.0882 14.0596C14.0271 14.0968 13.9164 14.0933 13.8441 14.0654C12.3599 13.4922 10.7478 14.4831 10.5396 16.0444C10.3821 17.2256 11.0398 18.2577 12.0628 18.6728C13.4742 19.2457 15.1058 18.4132 15.4009 16.8263C15.54 16.0792 15.3613 15.3897 14.8677 14.7969C14.7269 14.6276 14.7172 14.5191 14.8342 14.3924C14.9552 14.2614 15.0983 14.2583 15.2171 14.3927C15.645 14.8778 15.8934 15.4447 15.9447 16.0904C16.0373 17.259 15.5959 18.1895 14.6492 18.8637C14.1697 19.2051 13.6236 19.3911 13.0577 19.3796L13.058 19.3799Z" fill="black"/>
</g>
<defs>
<clipPath id="clip0_818_3151">
<rect width="58.3176" height="21.7095" fill="white"/>
</clipPath>
</defs>
</svg>
