<svg width="61" height="36" viewBox="0 0 61 36" fill="#DADADA" xmlns="http://www.w3.org/2000/svg">
    <path id="Vector"
        d="M30.1422 0.5C37.634 0.5 45.6645 2.02629 52.0539 6.08394C56.2064 8.7375 60.0695 12.7627 60.0695 18.005C60.0695 24.1301 54.8397 28.5843 49.8293 31.1905C43.8663 34.278 36.8209 35.5 30.1422 35.5C22.6528 35.5 14.6373 33.9912 8.24534 29.9186C4.09542 27.2625 0.214844 23.2398 0.214844 18.0075C0.214844 11.8549 5.43217 7.4182 10.455 4.80704C16.4354 1.72453 23.4659 0.5 30.1422 0.5ZM30.0798 2.36048C23.1142 2.36048 15.61 3.66481 9.56713 7.30597C5.76636 9.58045 2.01048 13.1593 2.01048 17.9127C2.01048 23.4967 7.09813 27.4047 11.6471 29.6492C17.2784 32.3975 23.8599 33.4649 30.0798 33.4649C37.0579 33.4649 44.5671 32.1606 50.61 28.5195C54.3933 26.23 58.1641 22.6687 58.1641 17.9127C58.1641 12.3188 53.0889 8.40331 48.5275 6.17871C42.8962 3.4254 36.3122 2.36048 30.0798 2.36048ZM3.79365 14.0471L15.2583 12.0918L18.7099 4.60254L22.1466 12.0894L33.6087 14.0446L22.1466 16.0198L18.7099 23.5266L15.2583 16.0198L3.79365 14.0471ZM28.9974 19.7557L34.0552 18.8679L35.564 15.4786L37.0753 18.8679L42.133 19.7557L37.0753 20.6286L35.564 24.0204L34.0552 20.6286L28.9974 19.7557ZM39.462 10.7252L44.5197 9.85229L46.0286 6.44806L47.5399 9.8498L52.5976 10.7227L47.5399 11.613L46.0286 15.0048L44.5172 11.613L39.462 10.7252ZM34.0577 26.7537L39.0954 25.8809L40.6092 22.4766L42.1355 25.8809L47.1908 26.7537L42.1355 27.6441L40.6092 31.0358L39.0979 27.6441L34.0577 26.7537ZM18.5204 27.9783L23.5781 27.1054L25.1044 23.6987L26.6132 27.1054L31.6709 27.9783L26.6132 28.8686L25.1044 32.2579L23.5781 28.8686L18.5204 27.9783ZM43.9486 19.6161L48.9914 18.7257L50.5002 15.3365L52.0265 18.7257L57.0842 19.6161L52.0265 20.489L50.5002 23.8732L48.9889 20.489L43.9486 19.6161Z" />
</svg>