<svg width="59" height="26" viewBox="0 0 59 26" fill="none" xmlns="http://www.w3.org/2000/svg">
<path d="M57.4705 13.5701C57.2832 13.5822 57.1024 13.5876 56.9231 13.6069C56.3015 13.6741 55.6971 13.6135 55.0998 13.4194C54.1583 13.1134 53.2125 12.8189 52.3351 12.3516C52.0351 12.1919 51.7484 11.9965 51.4845 11.7814C50.9554 11.3504 51.1754 10.6449 51.6675 10.4176C51.9517 10.2867 52.2539 10.2451 52.5604 10.2429C53.323 10.237 54.0855 10.241 54.848 10.241H55.0142C55.018 10.227 55.022 10.2129 55.0258 10.1991C54.8484 10.1257 54.6762 10.0304 54.4923 9.98284C53.4907 9.72402 52.4913 9.45426 51.4817 9.23014C48.4922 8.56684 45.4984 7.92416 42.5071 7.26899C42.396 7.24461 42.2771 7.19584 42.1918 7.12301C40.9817 6.09023 39.7277 5.1156 38.3941 4.24849C36.8973 3.27542 35.324 2.45238 33.6387 1.85816C32.2039 1.3524 30.7289 1.15797 29.2066 1.2283C27.6632 1.29957 26.1166 1.31083 24.5717 1.34834C24.5309 1.34927 24.4901 1.35209 24.4244 1.35521C24.4861 1.68436 24.5446 2.00351 24.6087 2.32141C24.6134 2.34454 24.6591 2.3683 24.6893 2.37455C24.7341 2.38393 24.7821 2.37799 24.8287 2.37799C26.4316 2.37799 28.0348 2.39831 29.6371 2.37142C30.8244 2.35142 31.9648 2.56366 33.085 2.93001C34.6026 3.42608 36.0066 4.15753 37.3502 5.01276C38.6742 5.85548 39.8964 6.84044 41.1557 7.7735C41.4284 7.97543 41.4685 8.34178 41.2681 8.60591C41.077 8.85785 40.7131 8.90161 40.4336 8.69468C40.0748 8.4293 39.72 8.15766 39.3683 7.88259C39.2565 7.79507 39.1457 7.75005 39.0004 7.75443C38.6686 7.76475 38.3365 7.75974 38.0044 7.75631C37.9201 7.75537 37.8687 7.77787 37.8164 7.85477C37.5581 8.2355 37.2042 8.44805 36.7342 8.44587C36.226 8.44337 35.7174 8.44524 35.2092 8.44524C34.6474 8.44524 34.5042 8.32677 34.4059 7.76975H25.4839C25.5384 8.22143 25.595 8.66405 25.6442 9.10792C25.7351 9.9247 25.8241 10.7415 25.9087 11.5589C25.9719 12.1694 26.0314 12.7805 26.084 13.3922C26.125 13.8692 26.154 14.3474 26.1864 14.8251C26.2119 15.2042 26.2337 15.5837 26.2592 15.9629C26.2751 16.1967 26.196 16.3139 26.0052 16.3311C25.8126 16.3483 25.7089 16.2439 25.6924 16.0145C25.6302 15.137 25.5804 14.2584 25.5032 13.3822C25.4045 12.2631 25.2884 11.1453 25.1702 10.0279C25.0952 9.31954 25.0002 8.61341 24.9202 7.90541C24.9078 7.796 24.8764 7.74005 24.7603 7.75662C24.7298 7.76099 24.698 7.75724 24.6669 7.75724C17.2803 7.75724 9.89394 7.75787 2.5073 7.75349C2.35199 7.75349 2.25644 7.78944 2.19638 7.93792C2.14782 8.05764 2.08775 8.17704 2.01057 8.27988C1.79208 8.57028 1.84934 8.89786 1.85526 9.24014C1.92466 9.24014 1.98536 9.24014 2.04574 9.24014C3.05197 9.24014 4.05852 9.24327 5.06475 9.23764C5.29725 9.23639 5.4675 9.30422 5.59386 9.51428C5.74325 9.76309 5.92159 9.99441 6.08624 10.2342C6.254 10.4783 6.15627 10.7121 5.86121 10.7852C5.40432 10.8984 4.94337 10.9987 4.4927 11.1332C3.60629 11.3976 2.7591 11.7605 1.95174 12.2156C1.86491 12.2647 1.84592 12.3238 1.84623 12.4157C1.84934 13.1346 1.87051 13.8545 1.83658 14.5719C1.82351 14.8448 1.91657 15.017 2.08091 15.1989C2.88733 16.0901 3.88142 16.6352 5.05759 16.8531C5.16591 16.8731 5.22878 16.8547 5.28667 16.7397C5.85623 15.6068 6.70623 14.7541 7.83571 14.1805C8.6412 13.7714 9.49773 13.5654 10.3947 13.5616C11.3798 13.5575 12.3116 13.7992 13.1791 14.2759C14.1501 14.8098 14.9002 15.5672 15.4418 16.5352C15.4595 16.5671 15.4863 16.5968 15.4937 16.6309C15.5594 16.9225 15.7511 16.9569 16.021 16.9566C23.8069 16.9488 31.5929 16.9503 39.3788 16.9503C39.6095 16.9503 39.6076 16.9497 39.658 16.7328C40.039 15.0983 40.9584 13.8654 42.4038 13.0258C42.5245 12.9558 42.6792 12.9786 42.7409 13.0727C42.8075 13.1743 42.7791 13.3453 42.6612 13.4381C42.4943 13.5694 42.311 13.6801 42.1451 13.8126C41.1053 14.6441 40.485 15.7228 40.2861 17.0419C40.2151 17.5127 40.2058 17.5305 39.7206 17.5305H15.9055C15.9755 17.8975 16.0496 18.2469 16.1081 18.5992C16.1984 19.1434 16.1775 19.6873 16.0876 20.2306C15.9276 21.1987 15.5551 22.0742 14.9587 22.8516C14.3278 23.6737 13.5314 24.2807 12.5765 24.6771C11.6867 25.0466 10.7607 25.1847 9.80492 25.0753C8.59265 24.9362 7.52136 24.4695 6.60414 23.6509C5.61876 22.7713 5.019 21.6772 4.76596 20.3847C4.73609 20.2318 4.70714 20.0777 4.69469 19.9227C4.68691 19.8252 4.63773 19.8067 4.5593 19.7911C3.45876 19.5729 2.40864 19.215 1.44847 18.6236C0.962002 18.3241 0.530625 17.9569 0.256112 17.4405C-0.130136 16.7143 -0.0401876 15.9798 0.265449 15.2593C0.365357 15.0236 0.536227 14.8188 0.667881 14.596C0.70523 14.5331 0.7404 14.4562 0.740711 14.3859C0.744446 12.4272 0.749114 10.4683 0.737287 8.50963C0.735731 8.24737 0.784907 8.0195 0.910959 7.79757C1.75628 6.30529 2.5985 4.81114 3.44787 3.32105C3.5126 3.20759 3.51136 3.14226 3.4239 3.04442C3.14628 2.7334 3.02023 2.35611 3.01058 1.9435C2.99999 1.4915 3.27793 1.10859 3.73639 0.913845C4.16247 0.732859 4.61315 0.655339 5.06849 0.639709C6.33834 0.595948 7.60851 0.573442 8.87868 0.540308C10.7193 0.49217 12.5597 0.441844 14.4004 0.393706C15.7381 0.358697 17.0758 0.326188 18.4135 0.291491C20.3008 0.242728 22.1879 0.192402 24.0752 0.143951C25.0345 0.119257 25.9937 0.096126 26.9529 0.07362C27.8966 0.0514266 28.8409 0.043612 29.784 0.00703965C31.1061 -0.0442241 32.3828 0.188026 33.6349 0.588446C35.4448 1.16735 37.1133 2.03852 38.7112 3.05817C40.132 3.96466 41.4617 4.99306 42.7471 6.08148C42.8106 6.13525 42.8971 6.17557 42.979 6.19182C46.645 6.93327 50.3027 7.71192 53.9361 8.60403C54.7671 8.80815 55.5633 9.08416 56.2614 9.60274C57.5219 10.5389 58.3177 11.7627 58.5898 13.3237C58.7264 14.1074 58.7843 14.892 58.713 15.6856C58.5845 17.1179 58.121 18.4323 57.3479 19.6404C57.1991 19.873 56.9819 19.9461 56.7242 19.9461C55.3289 19.9461 53.9336 19.9461 52.538 19.9461H52.3566C52.2862 20.2653 52.2333 20.5772 52.148 20.8798C51.8418 21.9676 51.2756 22.8929 50.43 23.6481C49.6681 24.3283 48.7913 24.7731 47.7985 24.9866C47.092 25.1382 46.378 25.1591 45.6659 25.0313C44.0428 24.7399 42.762 23.9035 41.8355 22.5375C41.3359 21.8007 41.034 20.9774 40.9223 20.0912C40.9021 19.9302 40.851 19.8886 40.6935 19.8889C33.2711 19.8927 25.8487 19.8927 18.4259 19.8896C18.2849 19.8896 18.1327 19.8724 18.0051 19.818C17.7652 19.7158 17.6531 19.4548 17.7026 19.1944C17.7487 18.9524 17.9588 18.7589 18.2081 18.7349C18.2955 18.7264 18.3842 18.7277 18.4723 18.7277C25.8639 18.7277 33.2555 18.7277 40.6475 18.7277C40.9042 18.7277 40.9077 18.728 40.9413 18.4789C41.0838 17.4186 41.5143 16.483 42.1859 15.6637C42.9877 14.6857 44.0054 14.0258 45.2373 13.7392C47.1881 13.285 48.9367 13.7188 50.4481 15.0401C51.4148 15.885 51.9909 16.9694 52.2607 18.2216C52.2912 18.3635 52.3161 18.5083 52.3255 18.653C52.3323 18.7618 52.383 18.7777 52.4742 18.7771C52.8944 18.7739 53.3146 18.7758 53.7347 18.7758C54.6115 18.7758 55.488 18.7743 56.3647 18.778C56.4699 18.7783 56.5306 18.7489 56.5851 18.6527C57.2819 17.4201 57.6283 16.0985 57.5894 14.6807C57.5807 14.359 57.5347 14.0386 57.5035 13.7176C57.4992 13.6723 57.4836 13.6279 57.4709 13.5716L57.4705 13.5701ZM51.1919 19.3382C51.2013 16.8256 49.1969 14.7522 46.6167 14.7332C44.1143 14.7147 42.035 16.7953 42.0378 19.325C42.0406 21.8992 44.081 23.941 46.626 23.9353C49.2047 23.9297 51.1981 21.8341 51.1919 19.3385V19.3382ZM14.9939 19.3504C15.0228 16.8328 12.9705 14.7397 10.4311 14.736C7.87119 14.7322 5.87242 16.7678 5.83476 19.2878C5.79679 21.8276 7.86559 23.9478 10.4153 23.9353C13.0194 23.9228 14.9833 21.8373 14.9939 19.3504ZM24.0397 2.3783C23.9794 2.06322 23.9196 1.77439 23.8704 1.484C23.8549 1.39147 23.8181 1.36678 23.7285 1.36897C22.9299 1.38897 22.1312 1.4021 21.3329 1.42211C19.4664 1.46868 17.5999 1.51838 15.7334 1.5659C14.3232 1.60184 12.9126 1.63373 11.5024 1.67155C9.49088 1.72563 7.47966 1.78595 5.46812 1.83753C5.02211 1.84878 4.58389 1.88504 4.16527 2.05571C4.27639 2.33923 4.37007 2.42988 4.64645 2.42363C5.32557 2.40768 6.00532 2.41581 6.68475 2.41956C7.06228 2.42175 7.33462 2.73152 7.28918 3.09537C7.25058 3.40483 7.02774 3.5905 6.67759 3.59206C5.99287 3.59519 5.30814 3.59519 4.62342 3.59081C4.51728 3.59019 4.45597 3.62301 4.40119 3.71585C3.86555 4.62515 3.32493 5.53165 2.78617 6.43939C2.76127 6.48128 2.74198 6.52598 2.71303 6.5838C2.76999 6.58881 2.80516 6.59443 2.84002 6.59443C5.77593 6.59474 8.71185 6.59443 11.6478 6.59662C11.7489 6.59662 11.7928 6.56536 11.8143 6.46315C11.8986 6.06148 11.9929 5.66168 12.0823 5.26095C12.2089 4.69298 12.3347 4.12502 12.4654 3.5358C12.391 3.5358 12.3306 3.5358 12.2699 3.5358C11.2793 3.53705 10.2883 3.53986 9.2976 3.53861C9.03367 3.53861 8.81145 3.36388 8.7436 3.11787C8.67668 2.87656 8.78997 2.58117 9.02527 2.4677C9.14977 2.40768 9.30227 2.38205 9.44233 2.38205C14.2301 2.37799 19.0179 2.37861 23.8057 2.37861H24.0391L24.0397 2.3783ZM24.7182 6.5863C24.7207 6.55036 24.7248 6.53473 24.7223 6.52004C24.5723 5.56978 24.417 4.62046 24.2757 3.66896C24.2529 3.51579 24.1947 3.48735 24.0575 3.49141C23.6999 3.50204 23.3416 3.4986 22.984 3.49985C19.7319 3.5111 16.4798 3.52267 13.2276 3.5308C13.1016 3.53111 13.0403 3.55268 13.0091 3.69584C12.809 4.61546 12.5955 5.53196 12.3876 6.44971C12.3779 6.4919 12.377 6.53598 12.3711 6.58662H24.7186L24.7182 6.5863ZM36.6692 5.90706C36.672 5.89424 36.6745 5.88112 36.6773 5.8683C36.6359 5.8386 36.5954 5.80766 36.5531 5.77921C35.1441 4.82865 33.6147 4.15159 31.9561 3.78962C31.3106 3.64864 30.6514 3.50392 29.9956 3.4886C28.3317 3.44953 26.666 3.48235 25.0012 3.48704C24.9461 3.48704 24.8913 3.49266 24.8275 3.49579C24.8312 3.53705 24.8322 3.56237 24.8362 3.58675C24.9844 4.51075 25.1384 5.43412 25.2772 6.35968C25.3205 6.64757 25.3227 6.59349 25.5505 6.59349C28.4291 6.59506 31.3078 6.59443 34.1865 6.59443H34.4C34.4081 6.55505 34.414 6.53535 34.4161 6.51535C34.4628 6.08523 34.6567 5.90894 35.0878 5.90737C35.4146 5.90612 35.7414 5.90737 36.0682 5.90737C36.2683 5.90737 36.4688 5.90737 36.6689 5.90737L36.6692 5.90706ZM1.46963 15.3712C1.25083 15.6606 1.15653 15.9701 1.11264 16.2989C1.07374 16.5927 1.14937 16.8487 1.33642 17.0826C1.57545 17.3814 1.87985 17.593 2.20696 17.7756C2.79862 18.106 3.43853 18.3151 4.08404 18.5058C4.28479 18.5651 4.49145 18.6045 4.68878 18.6514C4.77997 18.2435 4.86681 17.8559 4.9552 17.4611C3.54031 17.2063 2.37658 16.518 1.46963 15.3708V15.3712ZM57.3336 12.969C57.3345 12.9618 57.337 12.9561 57.3358 12.9514C57.1182 12.1065 56.6364 11.4317 55.994 10.8628C55.9573 10.8303 55.8888 10.8234 55.8353 10.8231C55.1565 10.8206 54.4774 10.8212 53.7985 10.8221C53.7612 10.8221 53.7239 10.8309 53.6818 10.8362C53.693 10.8609 53.6952 10.8721 53.7018 10.8796C54.2542 11.5142 54.8063 12.1494 55.3616 12.7814C55.3961 12.8208 55.4537 12.8524 55.5054 12.8617C55.7335 12.9027 55.9623 12.9546 56.1926 12.9649C56.5689 12.9818 56.9467 12.9696 57.3333 12.9696L57.3336 12.969ZM1.85993 9.94971V11.5998C2.36849 11.3907 2.86959 11.1857 3.36912 10.9765C3.39247 10.9669 3.41768 10.9203 3.41456 10.8943C3.37441 10.5783 3.32929 10.2629 3.28571 9.94971H1.85993Z" fill="#00B543"/>
</svg>
