<svg width="32" height="20" viewBox="0 0 32 20" fill="#DADADA" xmlns="http://www.w3.org/2000/svg">
    <g id="Toyota_EU 1" clip-path="url(#clip0_3079_24360)">
        <path id="Vector"
            d="M16.0217 0.138184C7.60422 0.138184 0.779297 4.55325 0.779297 9.99796C0.779297 15.4447 7.60422 19.8617 16.0217 19.8617C24.4392 19.8617 31.2641 15.4467 31.2641 9.99796C31.2641 4.54924 24.4392 0.138184 16.0217 0.138184ZM16.0217 15.629C14.7697 15.629 13.748 13.163 13.6839 10.0601C14.4372 10.1262 15.2204 10.1622 16.0217 10.1622C16.823 10.1622 17.6062 10.1262 18.3594 10.0601C18.2953 13.161 17.2737 15.629 16.0217 15.629ZM13.8382 7.59612C14.1787 5.40261 15.0281 3.84612 16.0217 3.84612C17.0153 3.84612 17.8646 5.40261 18.2052 7.59612C17.5061 7.65822 16.7769 7.69227 16.0217 7.69227C15.2665 7.69227 14.5373 7.65822 13.8382 7.59612ZM16.0217 1.56447C14.3871 1.56447 12.9928 4.01238 12.478 7.42985C9.37906 6.94708 7.2156 5.84531 7.2156 4.56527C7.2156 2.8385 11.1579 1.43826 16.0217 1.43826C20.8855 1.43826 24.8278 2.8385 24.8278 4.56527C24.8278 5.84531 22.6643 6.94708 19.5654 7.42985C19.0505 4.01238 17.6563 1.56447 16.0217 1.56447ZM2.96479 9.62937C2.96479 7.9587 3.60782 6.39019 4.72761 5.04403C4.7156 5.13818 4.70758 5.23434 4.70758 5.33049C4.70758 7.43586 7.86463 9.23073 12.2697 9.89179C12.2657 10.044 12.2657 10.1983 12.2657 10.3525C12.2657 14.2768 13.3654 17.6001 14.8859 18.7279C8.20518 18.3253 2.96479 14.405 2.96479 9.62937ZM17.1575 18.7279C18.6779 17.6001 19.7777 14.2768 19.7777 10.3525C19.7777 10.1963 19.7757 10.044 19.7737 9.89179C24.1767 9.23073 27.3358 7.43786 27.3358 5.33049C27.3358 5.23434 27.3278 5.13818 27.3158 5.04403C28.4355 6.39419 29.0786 7.9587 29.0786 9.62937C29.0786 14.405 23.8382 18.3253 17.1575 18.7279Z" />
    </g>
    <defs>
        <clipPath id="clip0_3079_24360">
            <rect width="30.7692" height="20" transform="translate(0.634766)" />
        </clipPath>
    </defs>
</svg>