<svg width="24" height="19" viewBox="0 0 24 19" fill="none" xmlns="http://www.w3.org/2000/svg">
<path d="M5.33275 14.0068C3.90693 13.4222 2.99681 12.508 2.41372 11.2573C2.25021 10.9067 2.21785 10.593 2.49367 10.2669C1.49371 9.42376 0.940285 8.36148 0.774075 7.09148C0.675246 6.3386 0.71028 6.22901 1.3859 5.88193C0.5836 4.36477 0.552156 2.84062 1.35356 1.31382C1.68329 0.685391 2.16216 0.612649 2.66079 1.14379C4.61669 3.22014 6.99216 4.54974 9.85458 5.02391C9.92825 5.03618 10.0019 5.05192 10.0756 5.05806C10.2086 5.06858 10.3451 5.07298 10.5248 5.08262C10.5688 4.70399 10.5805 4.32709 10.6596 3.96423C11.434 0.375099 15.7609 -1.19203 18.8021 1.02105C19.0887 1.22965 19.3106 1.27523 19.6395 1.14113C20.229 0.894546 20.834 0.684657 21.4507 0.512715C21.6708 0.453992 22.0338 0.496057 22.1695 0.638921C22.324 0.80282 22.3662 1.1394 22.3294 1.38306C22.2889 1.6574 22.1075 1.90894 21.97 2.21571C22.0612 2.22714 22.153 2.23356 22.2449 2.23496C22.5818 2.21831 22.8262 2.35244 22.9538 2.6592C23.0814 2.96597 22.9682 3.21926 22.7274 3.43925C22.1802 3.93708 21.6304 4.43317 21.1048 4.95291C20.9636 5.09552 20.877 5.28122 20.8595 5.47879C20.6322 11.8183 16.0241 16.8159 9.93364 17.7984C6.60313 18.3357 3.44962 17.8273 0.516223 16.1682C0.290786 16.0371 0.119224 15.8335 0.031065 15.5923C-0.0911225 15.1883 0.283528 14.8526 0.796535 14.8719C2.05367 14.9325 3.31088 14.7538 4.49809 14.346C4.73708 14.2584 4.97607 14.1505 5.33275 14.0068Z" fill="white"/>
</svg>
