<svg width="36" height="36" viewBox="0 0 36 36" fill="none" xmlns="http://www.w3.org/2000/svg">
<circle cx="18" cy="18" r="18" transform="rotate(180 18 18)" fill="#828079" fill-opacity="0.5"/>
<path d="M23 18.75C23.4142 18.75 23.75 18.4142 23.75 18C23.75 17.5858 23.4142 17.25 23 17.25L23 18.75ZM13.4697 17.4697C13.1768 17.7626 13.1768 18.2374 13.4697 18.5303L18.2426 23.3033C18.5355 23.5962 19.0104 23.5962 19.3033 23.3033C19.5962 23.0104 19.5962 22.5355 19.3033 22.2426L15.0607 18L19.3033 13.7574C19.5962 13.4645 19.5962 12.9896 19.3033 12.6967C19.0104 12.4038 18.5355 12.4038 18.2426 12.6967L13.4697 17.4697ZM23 17.25L14 17.25L14 18.75L23 18.75L23 17.25Z" fill="white"/>
</svg>
