<svg width="9" height="5" viewBox="0 0 9 5" fill="none" xmlns="http://www.w3.org/2000/svg">
<path fill-rule="evenodd" clip-rule="evenodd" d="M8.36539 4.49473C8.39392 4.4813 8.54275 4.36345 8.69609 4.23283C8.99367 3.97937 9.03678 3.91054 8.97657 3.78513C8.94695 3.7234 4.77013 0.109894 4.64345 0.0364117C4.54607 -0.0201045 4.43011 -0.0102115 4.32209 0.0638751C4.124 0.199693 0.0533313 3.72313 0.024043 3.7841C-0.0375948 3.91253 0.00539012 3.98017 0.317728 4.24606C0.613749 4.49804 0.690381 4.53815 0.82284 4.5104C0.871117 4.50028 1.47309 3.99647 2.68442 2.95238C3.66903 2.10368 4.48622 1.4093 4.50039 1.4093C4.51458 1.4093 5.31994 2.09486 6.29013 2.93275C7.2603 3.77067 8.08561 4.47069 8.12413 4.48835C8.2068 4.52629 8.29345 4.52857 8.36539 4.49473Z" fill="#00B543"/>
</svg>
