<svg width="59" height="21" viewBox="0 0 59 21" fill="none" xmlns="http://www.w3.org/2000/svg">
<path d="M16.7629 5.07785C16.8493 4.66202 16.9231 4.2607 17.0174 3.8644C17.1785 3.18931 17.3481 2.51629 17.5227 1.84475C17.6339 1.41708 18.1751 1.11727 18.6305 1.25223C18.8438 1.31527 19.0558 1.34634 19.2726 1.37831C19.7098 1.44312 20.0156 1.69529 20.1961 2.09454C20.3893 2.52221 20.417 2.98154 20.4058 3.44117C20.3955 3.8644 20.3619 4.28733 20.3383 4.71027C20.3377 4.72003 20.3306 4.73276 20.3345 4.73897C20.4619 4.93845 20.5843 5.14208 20.7232 5.33327C20.7536 5.375 20.8438 5.38684 20.9073 5.38832C21.8163 5.40756 22.7256 5.42265 23.635 5.43893C25.2174 5.46764 26.8001 5.49634 28.3825 5.52505C28.4456 5.52624 28.5087 5.52505 28.5751 5.52505C28.581 5.47918 28.5857 5.44544 28.5895 5.4117C28.6311 5.06809 28.845 4.87689 29.1942 4.87482C29.4877 4.87305 29.7811 4.87453 30.1203 4.87453C30.0372 4.80497 29.9879 4.76176 29.9363 4.72122C28.9603 3.94846 27.9828 3.17747 27.0083 2.40323C26.509 2.00664 26.2981 1.50173 26.4541 0.865108C26.552 0.465261 26.9682 0.0941231 27.374 0.0230918C27.7082 -0.035213 28.0173 0.0165806 28.3102 0.182024C30.0428 1.16018 31.7765 2.13568 33.5067 3.11798C34.4679 3.66374 35.4283 4.21157 36.3777 4.77775C36.6036 4.91241 36.8358 4.91093 37.0705 4.92691C38.3645 5.01511 39.659 5.09295 40.9533 5.17611C42.3162 5.26372 43.6789 5.35251 45.0416 5.44248C45.6787 5.48451 46.3178 5.50966 46.952 5.57951C47.8554 5.67895 48.7344 5.9104 49.6089 6.1525C51.55 6.68937 53.4288 7.38903 55.2112 8.33463C56.3718 8.95024 57.4466 9.686 58.3899 10.6124C58.8131 11.0282 58.817 11.4414 58.604 11.9294C58.6019 11.9338 58.6007 11.9392 58.5975 11.9427C58.3486 12.2192 58.4014 12.5483 58.427 12.8768C58.4869 13.6401 58.4674 14.4028 58.4052 15.1658C58.3654 15.6538 58.2126 16.1081 58.0339 16.5571C57.9466 16.7761 57.7764 16.8909 57.5504 16.9134C57.1009 16.9584 56.6508 16.9981 56.2004 17.0312C55.9164 17.0522 55.6312 17.0706 55.3466 17.0673C54.6065 17.059 53.8665 17.0366 53.1262 17.0274C53.0843 17.0268 53.0194 17.0836 53.0023 17.128C52.702 17.9061 52.2387 18.5702 51.6202 19.1246C50.8559 19.8094 49.9643 20.2333 48.9506 20.3759C47.4693 20.5843 46.1326 20.2199 44.9599 19.2877C44.3588 18.8097 43.8877 18.2186 43.5648 17.5172C43.5087 17.3953 43.4412 17.3586 43.3093 17.3586C35.2622 17.3621 27.2151 17.3612 19.1679 17.3633C18.9028 17.3633 18.6819 17.3 18.558 17.0416C18.4028 16.7178 18.5993 16.3304 18.9523 16.2709C19.0438 16.2555 19.1378 16.2511 19.2308 16.2511C27.1157 16.2502 35.0006 16.2502 42.8855 16.2502H43.1164C43.0825 15.8669 43.0501 15.4981 43.0167 15.1208H16.9416C16.9166 15.4073 16.9009 15.6867 16.8658 15.9637C16.7352 16.996 16.3116 17.8987 15.63 18.6765C14.7891 19.6363 13.732 20.2099 12.4699 20.3809C11.1441 20.5609 9.92418 20.2711 8.82136 19.5031C7.88548 18.8511 7.24662 17.9753 6.87852 16.8989C6.83516 16.7717 6.77175 16.7264 6.64403 16.7054C5.29316 16.484 3.9588 16.1821 2.63978 15.8172C2.41887 15.7562 2.21476 15.615 2.01832 15.4872C1.50894 15.1554 1.05826 14.7529 0.648574 14.3033C0.49107 14.1305 0.445943 13.9168 0.448007 13.6999C0.455676 12.9005 0.259239 12.128 0.16633 11.3419C0.0858082 10.6574 0.0309474 9.96835 0.00115737 9.27994C-0.0141801 8.92242 0.124742 8.5794 0.309676 8.27515C0.458921 8.0292 0.624978 7.77793 0.837342 7.59058C1.11165 7.34848 1.2196 7.05637 1.26738 6.71719C1.30631 6.44017 1.32165 6.15457 1.40365 5.89027C1.53549 5.46675 1.84666 5.21518 2.28702 5.13823C3.51372 4.92366 4.73806 4.6931 5.9686 4.50339C6.72456 4.38678 7.48936 4.32581 8.25181 4.25507C8.73051 4.21068 9.21364 4.15297 9.69117 4.17546C10.7058 4.22341 11.7192 4.30953 12.7315 4.39891C13.9553 4.50694 15.1483 4.80586 16.3571 5.00771C16.4871 5.02931 16.6169 5.0524 16.7632 5.07785H16.7629ZM6.7629 13.9248C6.77883 13.8987 6.78974 13.8875 6.79357 13.8739C7.03248 13.0742 7.41386 12.3559 7.98429 11.7412C8.51579 11.1682 9.14403 10.737 9.86519 10.449C10.707 10.1128 11.5794 10.0113 12.4808 10.14C13.2784 10.2543 14.0137 10.5295 14.672 10.9874C15.8633 11.8163 16.5845 12.9594 16.8408 14.3906C16.8711 14.5611 16.9293 14.596 17.0903 14.596C23.2934 14.5916 29.4965 14.5925 35.6996 14.5925C35.7241 14.5925 35.7492 14.5898 35.7733 14.5928C35.8769 14.6061 35.9208 14.5712 35.9267 14.4572C35.9376 14.2462 35.9686 14.0361 35.9907 13.8253C36.0757 13.0123 36.1692 12.1999 36.2426 11.3857C36.3102 10.6352 36.3576 9.88252 36.411 9.13048C36.4721 8.271 36.273 7.4796 35.7908 6.76218C35.738 6.68345 35.6825 6.6506 35.5878 6.65149C34.4331 6.66096 33.2784 6.67132 32.1236 6.66925C31.9254 6.66895 31.7729 6.7024 31.678 6.88974C31.6591 6.92703 31.6193 6.95574 31.5851 6.98327C31.3314 7.18689 31.0521 7.28604 30.7173 7.27242C30.202 7.25141 29.6853 7.26857 29.1691 7.26591C28.8945 7.26473 28.6521 7.09396 28.6155 6.84919C28.5934 6.70062 28.5255 6.68523 28.4017 6.68434C27.3941 6.67606 26.3863 6.67398 25.3793 6.64735C23.0902 6.58667 20.8011 6.51476 18.5123 6.44402C18.0005 6.42833 17.9846 6.43129 17.7239 6.88175C17.5958 7.10283 17.492 7.3328 17.5451 7.59621C17.6354 8.04429 17.7073 8.4986 17.8348 8.93603C18.2276 10.2833 18.8464 11.5177 19.7275 12.6146C19.7797 12.6797 19.8502 12.7445 19.867 12.82C19.8876 12.9114 19.8938 13.0393 19.8443 13.1041C19.7956 13.1677 19.6564 13.2151 19.5812 13.1914C19.4753 13.1582 19.3741 13.0674 19.301 12.9768C18.3258 11.7699 17.6348 10.415 17.2404 8.91236C17.1272 8.48025 17.0378 8.04015 16.9673 7.59887C16.9095 7.23661 17.0564 6.91253 17.2416 6.60858C17.2968 6.51801 17.3558 6.42952 17.4218 6.32652C17.3038 6.30847 17.2071 6.29604 17.1109 6.27858C15.6831 6.02198 14.2582 5.74584 12.8259 5.51588C12.1295 5.404 11.4205 5.36671 10.7155 5.3164C9.9755 5.26372 9.23488 5.25247 8.49455 5.34096C7.71972 5.4336 6.94016 5.48835 6.16739 5.59401C5.25423 5.71891 4.34578 5.87873 3.43615 6.0276C3.10817 6.08117 2.78225 6.14717 2.45485 6.20784C2.4404 6.41235 2.42713 6.60236 2.41356 6.7971C2.45161 6.80835 2.48346 6.82108 2.5165 6.8267C3.3164 6.96492 4.07413 7.2224 4.77906 7.63054C5.00824 7.76313 5.01325 7.99398 4.7882 8.14167C4.60327 8.26301 4.41421 8.37873 4.23429 8.50718C4.07501 8.62053 3.90276 8.66049 3.71075 8.65931C2.9834 8.65546 2.25576 8.65694 1.52841 8.65931C1.47385 8.65931 1.39568 8.66552 1.36884 8.70015C1.21075 8.90496 1.07714 9.13758 1.07537 9.39566C1.07271 9.73425 1.11253 10.0746 1.15648 10.4114C1.24319 11.0747 1.34643 11.7358 1.44081 12.3982C1.45379 12.4891 1.48741 12.5421 1.58209 12.5764C3.26449 13.1905 4.99025 13.635 6.76349 13.9242L6.7629 13.9248ZM43.0787 14.5845C43.1008 14.456 43.1161 14.3442 43.1394 14.2338C43.2689 13.6158 43.5019 13.0405 43.8344 12.5036C44.4257 11.5494 45.2542 10.8778 46.2821 10.4564C47.126 10.1104 48.0044 10.0107 48.911 10.14C49.8794 10.2785 50.7442 10.6571 51.491 11.2801C52.4761 12.102 53.0728 13.1609 53.2775 14.4327C53.2999 14.5724 53.3492 14.5957 53.4713 14.5946C54.1544 14.5875 54.8372 14.5866 55.5203 14.5842C55.6415 14.5839 55.7418 14.6259 55.7978 14.7414C55.8503 14.8491 55.8406 14.9542 55.7633 15.045C55.6825 15.14 55.5811 15.1687 55.4586 15.1252C55.4141 15.1095 55.3622 15.1128 55.3135 15.1128C54.7139 15.1122 54.1143 15.1122 53.5146 15.1122C53.4627 15.1122 53.4108 15.1122 53.3409 15.1122V15.895C53.5503 15.9101 53.7656 15.937 53.9806 15.9391C54.6192 15.945 55.2581 15.9513 55.8964 15.9376C56.2739 15.9297 56.6508 15.8864 57.0275 15.8536C57.0608 15.8506 57.1104 15.8145 57.1189 15.784C57.1773 15.5757 57.2528 15.3676 57.2744 15.1548C57.3664 14.2397 57.354 13.3237 57.2534 12.4098C57.2222 12.125 57.2351 11.8596 57.4599 11.6438C57.5183 11.5879 57.551 11.505 57.6156 11.4029C57.254 11.0983 56.8951 10.7935 56.5314 10.4949C56.5066 10.4747 56.4411 10.4892 56.4013 10.5052C56.1373 10.6103 55.8816 10.7429 55.6108 10.8234C55.1879 10.9492 54.7776 11.0726 54.3393 10.7722C53.7954 10.3996 53.2442 10.0418 52.7475 9.6055C52.6599 9.52855 52.6153 9.43443 52.6422 9.31694C52.6681 9.20269 52.7486 9.14676 52.8592 9.12367C53.1132 9.0701 53.3666 9.01357 53.6205 8.95941C53.6922 8.94402 53.7645 8.93278 53.8765 8.91206C53.7916 8.86944 53.7485 8.84695 53.7049 8.82623C52.1419 8.0878 50.5156 7.52932 48.8464 7.08892C47.7569 6.80125 46.6556 6.60058 45.5274 6.55086C44.9289 6.52452 44.3319 6.47066 43.7341 6.4307C42.8814 6.37358 42.0287 6.31616 41.176 6.26141C40.5778 6.22294 39.9796 6.18831 39.3815 6.15338C39.1762 6.14125 38.9706 6.13355 38.765 6.12379C38.9243 6.24691 39.0898 6.34162 39.2541 6.4384C39.4142 6.53281 39.5263 6.66274 39.5481 6.85571C39.5723 7.06821 39.5107 7.24845 39.3343 7.37423C39.1461 7.5086 38.9405 7.52369 38.7367 7.41478C38.4813 7.27805 38.2179 7.14989 37.9819 6.98386C37.5985 6.71453 37.1876 6.59615 36.7234 6.65149C36.6207 6.66362 36.5152 6.65327 36.3925 6.65327C36.4181 6.70595 36.4278 6.72785 36.4393 6.74916C36.8269 7.46302 37.0098 8.22572 36.9599 9.03725C36.9074 9.89288 36.8496 10.7482 36.7756 11.6021C36.7107 12.3526 36.6204 13.1008 36.5417 13.8502C36.516 14.0926 36.4913 14.335 36.4653 14.5845H43.0793H43.0787ZM48.1943 19.3238C50.4061 19.306 52.2475 17.569 52.2428 15.2584C52.2384 13.0523 50.5129 11.2265 48.1276 11.2073C45.9444 11.1895 44.1364 13.0505 44.1485 15.2717C44.1609 17.5332 45.9707 19.3128 48.1943 19.3241V19.3238ZM11.7573 19.3238C13.9936 19.3226 15.8146 17.503 15.8108 15.2628C15.807 13.1186 14.1328 11.2244 11.7013 11.2087C9.53809 11.1948 7.71529 13.0067 7.71677 15.2504C7.71824 17.5015 9.53101 19.3246 11.7576 19.3235L11.7573 19.3238ZM35.4241 5.54636C35.4271 5.53689 35.4303 5.52772 35.4333 5.51825C35.3881 5.49072 35.3436 5.46172 35.2976 5.43538C33.6462 4.49125 31.9944 3.54743 30.3427 2.6036C29.5189 2.13302 28.6954 1.66214 27.8713 1.19185C27.7495 1.1223 27.6256 1.06577 27.464 1.18712C27.5354 1.28745 27.5879 1.40347 27.6758 1.47746C27.9996 1.74915 28.3353 2.00694 28.6662 2.27005C30.0251 3.35031 31.3836 4.43088 32.743 5.51025C32.7666 5.5292 32.8011 5.54459 32.8303 5.54459C33.6948 5.54636 34.5596 5.54607 35.4241 5.54607V5.54636ZM1.53431 13.1408C1.53431 13.3195 1.53166 13.4752 1.53667 13.6306C1.53755 13.6593 1.56558 13.6933 1.59006 13.7141C1.92777 13.9985 2.25959 14.2906 2.60941 14.559C2.75777 14.673 2.93621 14.7721 3.11584 14.8159C3.97267 15.0237 4.83392 15.2134 5.69518 15.4017C5.99455 15.4671 6.29894 15.5097 6.59861 15.5624C6.61631 15.1933 6.63342 14.8426 6.65052 14.4848C4.90913 14.1968 3.21287 13.7443 1.53372 13.1408H1.53431ZM18.6568 5.33238C18.642 4.42022 18.5801 3.54772 18.4686 2.67936C18.4533 2.67848 18.4379 2.67759 18.4226 2.677C18.2382 3.53026 18.0539 4.38323 17.8642 5.26194C18.1318 5.28562 18.3831 5.30811 18.6568 5.33238ZM56.0002 10.0947C55.6719 9.89495 55.3684 9.72359 55.0793 9.53062C54.8142 9.35364 54.5352 9.44746 54.2668 9.43088C54.2668 9.54424 54.2626 9.63776 54.2673 9.73099C54.2865 10.1054 54.2898 10.1021 54.6059 10.3019C54.7452 10.3898 54.8717 10.4591 55.0522 10.4105C55.3631 10.3268 55.6796 10.2664 56.0002 10.0947ZM3.41226 8.09638C3.41226 7.9561 3.40725 7.83357 3.41403 7.71163C3.41875 7.62403 3.37775 7.58733 3.30136 7.56927C3.0828 7.51748 2.86483 7.46213 2.64598 7.41212C2.53183 7.38607 2.39055 7.318 2.30767 7.36003C2.22154 7.40353 2.19028 7.55714 2.1363 7.66339C2.06463 7.80456 1.99384 7.94603 1.91834 8.09668H3.41256L3.41226 8.09638Z" fill="#00B543"/>
</svg>
