<svg width="40" height="40" viewBox="0 0 40 40" fill="none" xmlns="http://www.w3.org/2000/svg">
<path d="M39 20C39 30.4934 30.4934 39 20 39C9.50659 39 1 30.4934 1 20C1 9.50659 9.50659 1 20 1C30.4934 1 39 9.50659 39 20Z" stroke="black" stroke-width="2"/>
<g clip-path="url(#clip0_648_2790)">
<path d="M24.009 14.515H25.999V11.148C25.0356 11.0479 24.0676 10.9985 23.099 11C20.219 11 18.25 12.757 18.25 15.976V18.749H15V22.518H18.25V32.173H22.15V22.518H25.39L25.877 18.749H22.146V16.349C22.146 15.235 22.442 14.515 24.009 14.515Z" fill="black"/>
</g>
<defs>
<clipPath id="clip0_648_2790">
<rect width="10.999" height="21.173" fill="white" transform="translate(15 11)"/>
</clipPath>
</defs>
</svg>
