<svg width="59" height="30" viewBox="0 0 59 30" fill="#DADADA" xmlns="http://www.w3.org/2000/svg">
    <g id="Frame 156">
        <path id="path830" fill-rule="evenodd" clip-rule="evenodd"
            d="M35.6691 18.4668C36.1173 20.7832 34.9032 22.7073 33.8944 24.5749C32.7738 26.3126 30.9244 27.806 28.7015 27.5826C23.7133 27.5079 18.8381 26.742 14.3169 25.3779C14.1117 25.322 13.9064 25.1908 13.794 25.0043C13.7005 24.7426 13.8317 24.4996 14.0181 24.332C18.1469 20.9879 23.0598 19.438 27.9168 17.812C29.7286 17.2891 31.6533 16.7285 33.6891 16.9903C34.5291 17.1027 35.3696 17.6821 35.6691 18.4668V18.4668ZM52.6871 8.56633C55.0036 10.4716 57.0959 13.0687 56.3859 16.2068C55.2277 20.8397 50.1842 23.3056 46.1678 24.8744C43.9819 25.6032 41.7779 26.3509 39.3867 26.575C39.2373 26.5562 38.9944 26.5932 38.9567 26.3691L39.0126 26.1079C42.4125 22.278 44.9901 17.9822 47.2513 13.6292C48.2972 11.6675 49.269 9.65048 50.1654 7.66988C50.296 7.52048 50.4272 7.44577 50.5766 7.3899C51.4165 7.46398 52.0148 8.11811 52.6871 8.56633V8.56633ZM20.0886 3.63462L20.0139 3.9146C15.101 9.49982 11.8693 15.9821 8.8058 22.4267C8.20817 22.9873 7.62874 22.2397 7.08698 21.9967C4.35934 20.2038 1.89349 17.3079 2.60349 13.8709C3.74288 9.38808 8.35695 6.99692 12.2058 5.37227C14.4846 4.51286 16.8575 3.82169 19.3604 3.42934C19.6222 3.42871 19.958 3.39167 20.0886 3.63462ZM44.4678 4.53106C44.7478 4.68047 45.0843 4.73634 45.2525 5.01633C45.4019 5.33397 45.1031 5.53925 44.9349 5.74516C41.0679 8.77098 36.6409 10.4528 32.1197 11.9286C29.8215 12.4892 27.505 13.498 24.9462 12.9375C24.348 12.788 23.8069 12.3957 23.4704 11.8163C22.8351 10.0604 23.6945 8.22985 24.4415 6.69811C25.4315 4.77401 27.188 2.51343 29.6162 2.47639C34.8467 2.43873 39.7784 3.22343 44.4678 4.53106V4.53106ZM50.9313 4.68047C54.8918 6.84751 59.3753 10.658 58.9083 15.7392C58.3665 20.4468 53.9766 23.7344 50.0537 25.715C38.602 31.1884 22.5181 31.3561 10.6929 26.5744C6.69463 24.9121 2.21113 22.0538 0.529354 17.7568C-0.759446 14.2263 0.809337 10.5463 3.44406 8.09928C8.95458 3.09286 15.9786 1.37467 23.2086 0.384054C31.055 -0.568892 39.3114 0.271685 46.3354 2.68167C47.9048 3.2611 49.4554 3.89639 50.9313 4.68047Z" />
    </g>
</svg>