<svg width="63" height="26" viewBox="0 0 63 26" fill="#DADADA" xmlns="http://www.w3.org/2000/svg">
    <g id="Jeep_logo" clip-path="url(#clip0_4299_1753)">
        <g id="g2993">
            <g id="g3045">
                <path id="path3047"
                    d="M52.1386 13.8458C52.0882 16.6272 52.6889 18.1004 54.9817 18.1004C57.2708 18.1004 57.5993 15.5908 57.5993 13.6811C57.5993 11.7702 57.1649 9.91506 54.7599 9.91506C53.2846 9.91506 52.1953 11.0615 52.1386 13.8458ZM47.5 25.4688V6.64132H52.1953C52.1953 6.64132 52.1953 6.91396 52.1953 7.40504C52.1953 8.42375 52.6061 8.00366 52.9372 7.60668C52.9926 7.54031 54.0391 6.25947 56.3957 6.25947C58.7453 6.25947 62.4005 7.89612 62.4005 13.6811C62.4005 18.1559 60.2198 21.4296 56.4537 21.4296C54.3785 21.4296 53.1787 20.6126 52.9044 20.2828C52.6297 19.9576 52.2482 19.9009 52.2482 20.2828C52.2482 20.6655 52.2482 25.4688 52.2482 25.4688H47.5Z" />
            </g>
            <g id="g3049">
                <path id="path3051"
                    d="M11.2105 0.530893H16.286C16.286 0.530893 16.286 11.5531 16.286 13.8459C16.286 16.1363 15.3026 20.9399 8.26404 20.9399C1.22465 20.9399 0.460938 16.4627 0.460938 13.9543V11.4989H5.37259C5.37259 11.4989 5.37259 12.4265 5.37259 13.8989C5.37259 15.3721 6.35517 16.7357 8.20943 16.7357C10.0645 16.7357 11.2105 15.6994 11.2105 13.9543C11.2105 12.208 11.2105 0.530893 11.2105 0.530893Z" />
            </g>
            <g id="g3053">
                <path id="path3055"
                    d="M26.9004 11.827C26.9004 10.4613 26.138 9.15191 24.3917 9.15191C22.7 9.15191 22.0993 10.3513 22.0993 11.827H26.9004ZM23.9023 6.09662C27.8881 6.09662 31.379 7.62406 31.379 14.6639H21.9392C21.9392 16.9012 22.8659 17.8292 24.503 17.8292C26.1405 17.8292 26.6858 16.5185 26.6858 16.5185H31.3256C31.3256 18.5383 28.5421 21.2668 24.3392 21.2126C19.5384 21.2126 17.1914 17.6654 17.1914 14.0089C17.1914 10.3513 19.2637 6.09662 23.9023 6.09662Z" />
            </g>
            <g id="g3057">
                <path id="path3059"
                    d="M41.9896 11.8265C41.9896 10.4608 41.2263 9.15142 39.48 9.15142C37.7891 9.15142 37.1872 10.3508 37.1872 11.8265H41.9896ZM38.9914 6.09614C42.9768 6.09614 46.4669 7.62357 46.4669 14.6634H37.0275C37.0275 16.9008 37.9551 17.8287 39.5934 17.8287C41.2292 17.8287 41.7753 16.5181 41.7753 16.5181H46.4152C46.4152 18.5378 43.6313 21.2663 39.4296 21.2121C34.6263 21.2121 32.2793 17.6649 32.2793 14.0085C32.2793 10.3508 34.3541 6.09614 38.9914 6.09614Z" />
            </g>
            <g id="g3061">
                <path id="path3063"
                    d="M59.293 23.2122C59.293 22.4665 59.9 21.8607 60.6482 21.8607C61.3938 21.8607 61.9996 22.4665 61.9996 23.2122C61.9996 23.9566 61.3938 24.5661 60.6482 24.5661C59.9 24.5661 59.293 23.9566 59.293 23.2122ZM59.1367 23.2122C59.1367 24.0465 59.8122 24.7236 60.6482 24.7236C61.4787 24.7236 62.158 24.0465 62.158 23.2122C62.158 22.3779 61.4787 21.7007 60.6482 21.7007C59.8122 21.7007 59.1367 22.3779 59.1367 23.2122Z" />
            </g>
            <g id="g3065">
                <path id="path3067"
                    d="M61.2548 23.9849L60.941 23.2438C61.0406 23.2094 61.0738 23.185 61.1267 23.1283C61.1956 23.0544 61.2389 22.9376 61.2389 22.8317C61.2389 22.5646 61.0334 22.3827 60.7356 22.3827H60.1055V23.9849H60.2924V23.2909H60.7478L61.0469 23.9849H61.2548ZM60.2874 23.1283V22.557H60.7318C60.9175 22.557 61.0355 22.6629 61.0355 22.8267C61.0355 23.0128 60.9104 23.1283 60.7058 23.1283H60.2874Z" />
            </g>
        </g>
    </g>
    <defs>
        <clipPath id="clip0_4299_1753">
            <rect width="62.0025" height="25" fill="white" transform="translate(0.429688 0.5)" />
        </clipPath>
    </defs>
</svg>