<svg width="60" height="60" viewBox="0 0 60 60" fill="none" xmlns="http://www.w3.org/2000/svg">
<g clip-path="url(#clip0_753_3743)">
<path d="M30.1878 -0.000287521C13.8142 -0.173183 0.284188 13.1361 0.0032503 29.698C-0.274086 46.0889 13.1317 59.7512 29.7358 59.9961C46.1382 60.2392 59.7889 46.8111 59.9978 30.2257C60.2031 13.8061 46.7632 0.179812 30.1878 -0.000287521ZM30.946 58.6904C15.6871 59.1713 1.91759 47.4792 1.3251 30.9047C0.77763 15.6413 12.5536 1.89616 29.1307 1.32344C44.3968 0.79575 58.0439 12.5742 58.6742 29.0173C59.2577 44.2645 47.5123 57.9988 30.946 58.694V58.6904Z" fill="#00B543"/>
<path d="M27.1953 26.5088C23.9861 26.4512 21.4252 28.9456 21.4198 32.1351C21.4162 35.2941 24.0221 37.9145 27.1322 37.8803C30.2154 37.8443 32.7456 35.2887 32.7618 32.1964C32.7744 29.0518 30.3432 26.5665 27.1971 26.5088H27.1953ZM27.0602 36.2756C24.8325 36.2576 22.9848 34.4062 22.9632 32.1747C22.9452 29.9433 24.7713 28.1135 27.035 28.0955C29.3239 28.0775 31.168 29.8389 31.2094 32.0739C31.2527 34.3593 29.3401 36.2972 27.0602 36.2756ZM27.1953 26.5088C23.9861 26.4512 21.4252 28.9456 21.4198 32.1351C21.4162 35.2941 24.0221 37.9145 27.1322 37.8803C30.2154 37.8443 32.7456 35.2887 32.7618 32.1964C32.7744 29.0518 30.3432 26.5665 27.1971 26.5088H27.1953ZM27.0602 36.2756C24.8325 36.2576 22.9848 34.4062 22.9632 32.1747C22.9452 29.9433 24.7713 28.1135 27.035 28.0955C29.3239 28.0775 31.168 29.8389 31.2094 32.0739C31.2527 34.3593 29.3401 36.2972 27.0602 36.2756ZM33.6046 23.2238C32.6447 21.6299 31.8235 20.2828 32.6123 18.4278C32.7384 18.136 32.6249 17.7254 32.5691 17.376C32.0577 14.136 28.9439 11.9586 25.8824 12.688C22.585 13.4697 20.7445 16.5944 21.6936 19.8163C21.8935 20.4899 22.1402 21.0338 21.5459 21.7596C19.1525 24.67 18.3259 28.1621 18.1008 31.3571C18.0702 36.8645 21.1245 40.5475 25.8932 41.2301C30.4441 41.8821 34.6545 39.1518 35.7206 34.6475C36.6823 30.5755 35.7026 26.7051 33.6028 23.2238H33.6046ZM23.0208 18.1396C23.064 15.973 24.9298 14.172 27.0998 14.1955C29.3239 14.2225 31.0005 15.9874 30.9609 18.4152C31.105 19.6507 30.5935 19.8181 29.3797 19.2833C27.8256 18.6025 26.1904 18.7105 24.6056 19.3175C23.3738 19.7857 22.9938 19.5102 23.0208 18.1414V18.1396ZM34.4222 33.1185C33.7361 37.5831 30.4729 40.1873 26.1832 39.6489C21.9907 39.1212 19.2696 35.512 19.7198 31.132C20.0079 28.3008 20.7679 25.6371 22.3581 23.2418C22.8029 22.5701 23.1919 22.154 24.0095 22.8708C24.683 23.4652 25.6303 23.6579 26.3543 24.2594C26.9215 24.7276 27.6383 24.5439 28.1497 24.0054C28.627 23.503 28.6378 22.8708 28.3154 22.3053C27.957 21.6732 27.3375 21.2661 26.6478 21.6191C25.8212 22.0424 25.2269 21.9289 24.6524 21.2571C26.3921 19.9856 28.7458 20.1747 30.5053 21.7686C32.8644 23.9082 33.7649 26.7646 34.2655 29.7722C34.4456 30.869 34.5969 31.982 34.4222 33.1185ZM27.1935 26.5088C23.9843 26.4512 21.4234 28.9456 21.418 32.1351C21.4144 35.2941 24.0203 37.9145 27.1304 37.8803C30.2135 37.8443 32.7438 35.2887 32.76 32.1964C32.7726 29.0518 30.3414 26.5665 27.1953 26.5088H27.1935ZM27.0584 36.2756C24.8307 36.2576 22.983 34.4062 22.9614 32.1747C22.9434 29.9433 24.7695 28.1135 27.0332 28.0955C29.3221 28.0775 31.1662 29.8389 31.2076 32.0739C31.2509 34.3593 29.3383 36.2972 27.0584 36.2756Z" fill="#00B543"/>
<path d="M42.9422 37.6299C42.6649 42.1126 39.1099 46.2692 34.786 47.2598C34.289 47.3732 33.9018 47.5137 33.7379 46.8546C33.5884 46.2584 33.7541 45.9325 34.3808 45.7289C38.5048 44.3926 40.9522 41.6479 41.3772 37.2517C41.4331 36.6664 41.6095 36.2701 42.2903 36.3116C43.3456 36.3764 42.8792 37.1526 42.944 37.6281L42.9422 37.6299Z" fill="#00B543"/>
<path d="M39.3148 37.264C39.3544 39.8646 36.3866 43.4143 33.905 43.7331C33.552 43.7781 33.154 43.8754 33.0838 43.3549C33.0262 42.9389 32.7614 42.458 33.4368 42.2293C35.9148 41.3882 37.4455 39.7403 37.7373 37.0695C37.8057 36.4373 38.2613 36.4265 38.7422 36.4229C39.3689 36.4175 39.3148 36.8569 39.3166 37.2658L39.3148 37.264Z" fill="#00B543"/>
<path d="M27.1954 26.5088C23.9862 26.4512 21.4253 28.9455 21.4199 32.1351C21.4163 35.294 24.0222 37.9145 27.1323 37.8802C30.2154 37.8442 32.7457 35.2886 32.7619 32.1963C32.7745 29.0518 30.3433 26.5664 27.1972 26.5088H27.1954ZM27.0603 36.2756C24.8326 36.2576 22.9849 34.4061 22.9633 32.1747C22.9453 29.9433 24.7714 28.1135 27.0351 28.0955C29.324 28.0775 31.1681 29.8388 31.2095 32.0739C31.2527 34.3593 29.3402 36.2972 27.0603 36.2756Z" fill="#00B543"/>
<path d="M27.1954 26.5088C23.9862 26.4512 21.4253 28.9455 21.4199 32.1351C21.4163 35.294 24.0222 37.9145 27.1323 37.8802C30.2154 37.8442 32.7457 35.2886 32.7619 32.1963C32.7745 29.0518 30.3433 26.5664 27.1972 26.5088H27.1954ZM27.0603 36.2756C24.8326 36.2576 22.9849 34.4061 22.9633 32.1747C22.9453 29.9433 24.7714 28.1135 27.0351 28.0955C29.324 28.0775 31.1681 29.8388 31.2095 32.0739C31.2527 34.3593 29.3402 36.2972 27.0603 36.2756Z" fill="#00B543"/>
</g>
<defs>
<clipPath id="clip0_753_3743">
<rect width="60" height="60" fill="white"/>
</clipPath>
</defs>
</svg>
