<svg width="72" height="18" viewBox="0 0 72 18" fill="#DADADA" xmlns="http://www.w3.org/2000/svg">
    <g id="KIA_logo3" clip-path="url(#clip0_3079_24245)">
        <path id="Vector"
            d="M42.0417 15.421C42.0417 15.5555 42.0842 15.6335 42.1622 15.6335C42.2281 15.6335 42.2827 15.5982 42.3323 15.5626L64.4106 1.23342C64.7836 0.972672 65.2305 0.838569 65.6855 0.850852H70.5374C71.2812 0.850852 71.784 1.34658 71.784 2.09039V11.3551C71.784 12.4742 71.5361 13.126 70.5445 13.7209L64.6584 17.2625C64.5997 17.3033 64.5302 17.3334 64.4601 17.3334C64.3901 17.3334 64.3185 17.2767 64.3185 17.0713V6.26249C64.3185 6.1349 64.2832 6.04998 64.198 6.04998C64.1359 6.04998 64.0769 6.08177 64.028 6.12089L47.8924 16.6041C47.5241 16.8519 47.0919 16.9866 46.6529 16.9795H35.9572C35.2063 16.9795 34.7105 16.4838 34.7105 15.7329V2.38114C34.7105 2.28199 34.6681 2.18996 34.583 2.18996C34.521 2.18996 34.4623 2.22238 34.4129 2.26086L23.7672 8.64954C23.6609 8.72045 23.6327 8.77002 23.6327 8.81959C23.6327 8.86205 23.654 8.90452 23.7247 8.98254L31.332 16.5827C31.4312 16.6819 31.5021 16.7599 31.5021 16.8448C31.5021 16.9157 31.3887 16.9724 31.2542 16.9724H24.3834C23.845 16.9724 23.4271 16.8944 23.1368 16.6041L18.5256 12C18.4903 11.9578 18.4394 11.9291 18.384 11.9291C18.334 11.9291 18.2853 11.9461 18.2424 11.9716L10.536 16.6041C10.0685 16.8875 9.74969 16.9653 9.2893 16.9653H2.19908C1.44125 16.9724 0.945312 16.4696 0.945312 15.7258V6.63795C0.945312 5.51178 1.19318 4.86712 2.19196 4.27224L8.11356 0.716565C8.15959 0.685256 8.21374 0.66803 8.26939 0.666992C8.36143 0.666992 8.411 0.759026 8.411 0.964431V13.1333C8.411 13.2609 8.43924 13.3174 8.53148 13.3174C8.59423 13.3174 8.65197 13.282 8.70865 13.2465L28.7116 1.21209C29.0941 0.949999 29.5616 0.822615 30.0291 0.843741H40.7955C41.5393 0.843741 42.0422 1.33947 42.0422 2.08328L42.035 15.421H42.0417Z" />
    </g>
    <defs>
        <clipPath id="clip0_3079_24245">
            <rect width="70.8389" height="16.6667" transform="translate(0.945312 0.666504)" />
        </clipPath>
    </defs>
</svg>