<svg width="21" height="20" viewBox="0 0 21 20" fill="#DADADA" xmlns="http://www.w3.org/2000/svg">
    <g id="Mercedes-Benz_free_logo" clip-path="url(#clip0_3079_24355)">
        <g id="layer1">
            <path id="path3524" fill-rule="evenodd" clip-rule="evenodd"
                d="M15.0457 1.57749C18.0705 3.16824 20.1367 6.33974 20.1367 9.99549C20.1367 13.6512 18.0705 16.8327 15.0457 18.4137V17.3267C16.2025 16.6347 17.181 15.6665 17.893 14.5205L15.0457 13.3647V11.606L18.1695 14.0465C18.822 12.841 19.1877 11.4675 19.1877 9.99524C19.1877 6.89274 17.5267 4.16599 15.0457 2.66399V1.57749ZM10.6467 0.500488C12.2285 0.500488 13.721 0.885988 15.0457 1.57749V2.66449C13.8297 1.93299 12.4062 1.49849 10.9037 1.44899L11.991 9.22499L15.0457 11.6062V13.365L10.6267 11.5765L6.23747 13.3747V11.6257L9.31197 9.22474L10.3895 1.44874C8.86697 1.49824 7.45347 1.93299 6.23747 2.66399V1.57749C7.55247 0.885988 9.05497 0.500488 10.6467 0.500488ZM15.0457 18.4137C13.721 19.1052 12.2282 19.5002 10.6467 19.5002C9.05522 19.5002 7.55272 19.1052 6.23772 18.4235V17.3267C7.52297 18.107 9.03522 18.5517 10.6467 18.5517C12.2482 18.5517 13.751 18.107 15.0457 17.3267V18.4137ZM6.23772 18.4235C3.20272 16.8327 1.13672 13.6512 1.13672 9.99549C1.13672 6.33974 3.20272 3.16824 6.23772 1.57749V2.66449C3.74647 4.16624 2.08572 6.88324 2.08572 9.99549C2.08572 11.4675 2.46147 12.861 3.11397 14.0662L6.23772 11.6257V13.3747L3.40047 14.5402C4.11222 15.677 5.08097 16.635 6.23772 17.3267V18.4235Z" />
        </g>
    </g>
    <defs>
        <clipPath id="clip0_3079_24355">
            <rect width="20" height="20" transform="translate(0.634766)" />
        </clipPath>
    </defs>
</svg>