<svg xmlns="http://www.w3.org/2000/svg" width="157" height="29" viewBox="0 0 576.7 78.45">
    <defs>
        <style>
            .cls-1 {
                fill: #226b4a;
            }

            .cls-2 {
                fill: #13bf69;
            }
        </style>
    </defs>
    <g id="Layer_2" data-name="Layer 2">
        <g id="Layer_1-2" data-name="Layer 1">
            <path class="cls-1"
                d="M86.87,51.28v-49A1.27,1.27,0,0,1,88.13,1h14.46a1.26,1.26,0,0,1,1.26,1.27V49.8c0,5.62,2.66,10.4,11.68,10.4s11.67-4.78,11.67-10.4V2.25A1.26,1.26,0,0,1,128.46,1h14.46a1.27,1.27,0,0,1,1.26,1.27v49c0,15.92-12.31,25.47-28.65,25.47S86.87,67.2,86.87,51.28Z" />
            <path class="cls-1"
                d="M169.58,2.25V74a1.26,1.26,0,0,1-1.26,1.27H153.87A1.26,1.26,0,0,1,152.61,74V2.25A1.26,1.26,0,0,1,153.87,1h14.45A1.26,1.26,0,0,1,169.58,2.25Z" />
            <path class="cls-1"
                d="M202.33,50.86h-6.08A1.26,1.26,0,0,0,195,52.12V74a1.26,1.26,0,0,1-1.26,1.27H179.27A1.27,1.27,0,0,1,178,74V2.25A1.27,1.27,0,0,1,179.27,1h28.46a25.41,25.41,0,0,1,25.46,25.47,24.41,24.41,0,0,1-12.57,21,1.25,1.25,0,0,0-.46,1.72l14.06,24.25a1.27,1.27,0,0,1-1.09,1.9H217.79a1.27,1.27,0,0,1-1.09-.64L203.42,51.49A1.25,1.25,0,0,0,202.33,50.86ZM195,34.74A1.26,1.26,0,0,0,196.25,36h11.48c4.67,0,8.49-4.14,8.49-9.55s-3.82-9.55-8.49-9.55H196.25A1.27,1.27,0,0,0,195,18.16Z" />
            <path class="cls-1"
                d="M244.08,1h13.68A1.27,1.27,0,0,1,259,2.25V31.09a1.26,1.26,0,0,0,2.22.81L286.83,1.43a1.26,1.26,0,0,1,1-.45h14.83a1.26,1.26,0,0,1,1,2.08L280.86,29.68a1.26,1.26,0,0,0-.1,1.5l26.93,42.15a1.26,1.26,0,0,1-1.06,1.94H291.07a1.26,1.26,0,0,1-1.06-.58L270.5,44.35a1.25,1.25,0,0,0-2-.14L259.32,55a1.22,1.22,0,0,0-.3.82V74a1.27,1.27,0,0,1-1.26,1.27H244.08A1.26,1.26,0,0,1,242.82,74V2.25A1.26,1.26,0,0,1,244.08,1Z" />
            <path class="cls-2"
                d="M316.3,38.18C316.3,17,332.27,0,354.8,0c13,0,24.5,6.36,30.85,16.31a1.62,1.62,0,0,1-.55,2.28L383,19.82a1.61,1.61,0,0,1-2.18-.55c-5.12-8.34-14.93-13.88-26-13.88-19.46,0-32.9,14.6-32.9,32.79S335.34,71,354.8,71C366,71,375.87,65.34,381,56.8a1.6,1.6,0,0,1,2.18-.56l2.15,1.23a1.63,1.63,0,0,1,.56,2.27C379.62,69.81,368,76.37,354.8,76.37,332.27,76.37,316.3,59.34,316.3,38.18Z" />
            <path class="cls-2"
                d="M443.11,56.38h-35a1.61,1.61,0,0,0-1.51,1l-6.42,16.8a1.61,1.61,0,0,1-1.51,1h-2.46a1.61,1.61,0,0,1-1.51-2.2l27.6-71a1.61,1.61,0,0,1,1.51-1h3.73A1.65,1.65,0,0,1,429,2l27.5,71a1.62,1.62,0,0,1-1.51,2.2h-2.46a1.62,1.62,0,0,1-1.52-1l-6.42-16.8A1.61,1.61,0,0,0,443.11,56.38Zm-1.74-7.51-14.2-37a1.62,1.62,0,0,0-3,0l-14.2,37a1.63,1.63,0,0,0,1.52,2.2h28.39A1.63,1.63,0,0,0,441.37,48.87Z" />
            <path class="cls-2"
                d="M493.22,44.81H472.31a1.62,1.62,0,0,0-1.62,1.62V73.64a1.61,1.61,0,0,1-1.62,1.62h-2.38a1.61,1.61,0,0,1-1.62-1.62V2.6A1.62,1.62,0,0,1,466.69,1H493.9C505.37,1,515.25,9.6,516.24,21a21.86,21.86,0,0,1-14.36,22.43,1.63,1.63,0,0,0-.86,2.36l16,27a1.62,1.62,0,0,1-1.4,2.44h-2.7a1.61,1.61,0,0,1-1.4-.8L494.61,45.61A1.6,1.6,0,0,0,493.22,44.81Zm-22.53-6.93a1.62,1.62,0,0,0,1.62,1.62h22.05A16.46,16.46,0,0,0,510.7,23,16.49,16.49,0,0,0,494.36,6.29H472.31a1.63,1.63,0,0,0-1.62,1.62Z" />
            <path class="cls-2"
                d="M526.45,58.24l2-1.17a1.61,1.61,0,0,1,2.33.83c3,7.87,10.29,13.07,21.6,13.07C564.75,71,571,64.63,571,56.17c0-8.89-7.82-12.27-19.14-15.87-12.38-4-23.48-7.51-23.48-20.41C528.37,7.72,538.2,0,550.79,0c11.49,0,19.3,6.23,23.16,14.14a1.61,1.61,0,0,1-.67,2.13l-1.92,1.07a1.61,1.61,0,0,1-2.23-.7c-3-6-8.59-11.25-18.34-11.25-10.26,0-16.71,6-16.71,14.28,0,8.89,7.51,11.64,18.09,15.13,13.11,4.34,24.53,8.46,24.53,21.26,0,12.27-9.62,20.31-24.32,20.31-13.27,0-22.85-6.4-26.61-16.13A1.62,1.62,0,0,1,526.45,58.24Z" />
            <path class="cls-1"
                d="M78.08,66l-6.87-6.87A1.25,1.25,0,0,1,71,57.65,38.19,38.19,0,1,0,57.65,71a1.25,1.25,0,0,1,1.51.19L66,78.08a1.21,1.21,0,0,0,1.74,0L78.08,67.77A1.21,1.21,0,0,0,78.08,66ZM15.88,38.18a22.3,22.3,0,1,1,22.3,22.3A22.29,22.29,0,0,1,15.88,38.18Z" />
        </g>
    </g>
</svg>