<svg width="41" height="40" viewBox="0 0 41 40" fill="#DADADA" xmlns="http://www.w3.org/2000/svg">
    <g id="ram-alt-svgrepo-com">
        <g id="layer1">
            <g id="g8">
                <path id="path10"
                    d="M34.7658 0.740699C32.4012 0.512779 26.1903 0.170898 20.3214 0.170898C14.4524 0.170898 8.24161 0.512779 5.87694 0.740699C3.19887 1.0256 1.94531 2.39312 1.94531 5.04269C1.94531 10.0854 2.14474 17.9772 2.48662 22.5926C2.80001 26.7236 3.02793 29.9715 8.15614 33.0769C11.8314 35.2991 15.4781 37.2079 20.2359 39.6866L20.3214 39.7435L20.4068 39.6866C25.1647 37.2364 28.8399 35.2991 32.4866 33.0769C37.6148 29.943 37.8712 26.6951 38.1561 22.5926C38.498 17.9487 38.6974 10.0854 38.6974 5.04269C38.6974 2.39312 37.4439 1.0256 34.7658 0.740699ZM36.5892 22.4786C36.3043 26.4102 36.1049 29.0313 31.6604 31.7094C28.1846 33.8176 25.1077 35.4416 20.4923 37.8347L20.3214 37.9202L20.1504 37.8347C15.649 35.4985 12.4581 33.8176 8.98235 31.7094C4.5664 29.0313 4.36696 26.4387 4.08206 22.4786C3.74018 17.8917 3.54075 10.0569 3.54075 5.04269C3.54075 3.19084 4.16753 2.53557 6.04788 2.33614C8.38406 2.10822 14.5379 1.76634 20.3214 1.76634C26.1333 1.76634 32.2587 2.10822 34.5949 2.33614C36.4752 2.53557 37.102 3.21933 37.102 5.04269C37.102 10.0569 36.9311 17.8917 36.5892 22.4786Z" />
            </g>
            <g id="g12">
                <path id="path14"
                    d="M20.0849 11.9805L19.5436 13.8323C17.5208 9.75827 15.1276 7.59302 12.2501 7.59302C9.1162 7.59302 7.60623 9.6728 7.15039 10.3566C7.94811 8.33376 10.0564 6.56738 12.8769 6.56738C16.7515 6.56738 18.9453 9.61582 20.0849 11.9805Z" />
            </g>
            <g id="g16">
                <path id="path18"
                    d="M5.59283 16.1807C5.59283 22.9898 7.58713 26.2661 10.5501 26.2661C11.9176 26.2661 12.9148 25.4114 12.9148 23.9869C12.9148 22.7904 12.4019 21.8502 12.174 21.4513C12.2595 21.8502 12.3165 22.2775 12.3165 22.7904C12.3165 23.9584 11.5188 24.3573 10.8635 24.3573C8.92616 24.3858 6.93186 20.5396 6.39055 16.1807C6.13414 16.1807 5.56434 16.1807 5.59283 16.1807Z" />
            </g>
            <g id="g20">
                <path id="path22"
                    d="M27.7752 6.56738C30.5957 6.56738 32.704 8.33376 33.5302 10.3566C33.0743 9.70129 31.5359 7.59302 28.4305 7.59302C25.5245 7.59302 23.1313 9.75827 21.137 13.8323L20.5957 11.9805C21.7068 9.61582 23.9005 6.56738 27.7752 6.56738Z" />
            </g>
            <g id="g24">
                <path id="path26"
                    d="M34.2684 16.1812C33.727 20.5401 31.7327 24.3863 29.7669 24.3863C29.1117 24.3863 28.3424 24.0159 28.3424 22.8193C28.3424 22.3065 28.3994 21.8792 28.4849 21.4803C28.2855 21.8507 27.7441 22.8193 27.7441 24.0159C27.7441 25.4119 28.7128 26.2951 30.1088 26.2951C33.0718 26.2666 35.0661 22.9903 35.0661 16.1812C35.0946 16.1812 34.5248 16.1812 34.2684 16.1812Z" />
            </g>
            <g id="g28">
                <path id="path30"
                    d="M30.2492 10.3174C27.7136 10.3174 25.235 12.3402 23.782 16.984L24.7507 17.6393L24.2948 19.9185L22.4715 20.6878L22.1581 22.9385L23.0413 21.8558L23.9814 21.457L23.6965 22.91L22.0726 23.5652L21.5028 27.4684L21.9017 28.7219L20.3347 29.3487L18.7678 28.7219L19.1666 27.4684L18.5968 23.5652L16.9729 22.91L16.688 21.457L17.6282 21.8558L18.5113 22.9385L18.1695 20.6878L16.3746 19.947L15.9187 17.6678L16.8874 17.0125C15.4059 12.3402 12.9273 10.3174 10.4202 10.3174C7.28627 10.3174 6.00422 13.2803 6.17516 15.7305H6.9159C7.54268 19.2063 9.28057 22.1123 10.6196 22.1123C11.0185 22.1123 11.2464 21.7989 11.2464 21.286C11.2464 20.061 10.4202 18.7789 10.4202 16.4712C10.4202 15.3886 10.7621 14.7333 11.5883 14.7333C12.1296 14.7333 12.5854 15.3031 12.8418 15.9299C12.3575 17.6678 12.4145 19.1208 13.8105 19.7476C14.4942 20.061 15.3205 20.4313 15.3205 20.4313C15.3205 20.4313 16.2036 24.1635 16.2606 24.4484C16.3176 24.7048 16.4601 25.0182 16.574 25.2462C16.745 25.5311 17.8846 27.5254 17.8846 27.5254C17.8846 27.5254 18.2834 29.4912 18.3689 29.9185C18.5968 31.0581 19.3945 31.0581 20.3062 31.0581C21.2179 31.0581 22.0156 31.0581 22.2435 29.9185C22.329 29.4912 22.7279 27.5254 22.7279 27.5254C22.7279 27.5254 23.896 25.5311 24.0384 25.2462C24.1524 25.0467 24.2948 24.7048 24.3518 24.4484C24.4088 24.192 25.292 20.4313 25.292 20.4313C25.292 20.4313 26.1182 20.061 26.8019 19.7476C28.198 19.1208 28.2549 17.6678 27.7706 15.9299C28.027 15.3031 28.4829 14.7333 29.0527 14.7333C29.8504 14.7333 30.2207 15.4171 30.2207 16.4712C30.2207 18.8074 29.3945 20.0895 29.3945 21.286C29.3945 21.7989 29.594 22.1123 30.0213 22.1123C31.3319 22.1123 33.0982 19.1778 33.725 15.7305H34.4658C34.6652 13.2803 33.3831 10.3174 30.2492 10.3174ZM14.3518 19.0923C13.3546 18.665 13.2692 17.4969 13.5826 15.9584L14.6652 17.6393L15.064 19.3772C15.064 19.4057 14.6652 19.2348 14.3518 19.0923ZM26.3176 19.0923C25.9757 19.2348 25.6054 19.4057 25.6054 19.4057L26.0042 17.6678L27.0868 15.9869C27.4002 17.4969 27.3148 18.665 26.3176 19.0923Z" />
            </g>
        </g>
    </g>
</svg>