<svg width="23" height="23" viewBox="0 0 23 23" fill="none" xmlns="http://www.w3.org/2000/svg">
<path d="M21.0458 22.3447L13.101 14.3999C12.4969 14.9235 11.792 15.3314 10.9865 15.6234C10.1809 15.9154 9.325 16.0614 8.41875 16.0614C6.24375 16.0614 4.40104 15.3062 2.89062 13.7958C1.38021 12.2854 0.625 10.4628 0.625 8.32806C0.625 6.19334 1.38021 4.37077 2.89062 2.86035C4.40104 1.34993 6.23368 0.594727 8.38854 0.594727C10.5233 0.594727 12.3408 1.34993 13.8411 2.86035C15.3415 4.37077 16.0917 6.19334 16.0917 8.32806C16.0917 9.19403 15.9507 10.0298 15.6687 10.8354C15.3868 11.6409 14.9639 12.3961 14.4 13.101L22.375 21.0156L21.0458 22.3447ZM8.38854 14.2489C10.0198 14.2489 11.4094 13.6699 12.5573 12.5119C13.7052 11.3539 14.2792 9.95931 14.2792 8.32806C14.2792 6.69681 13.7052 5.30219 12.5573 4.14421C11.4094 2.98622 10.0198 2.40723 8.38854 2.40723C6.73715 2.40723 5.33247 2.98622 4.17448 4.14421C3.01649 5.30219 2.4375 6.69681 2.4375 8.32806C2.4375 9.95931 3.01649 11.3539 4.17448 12.5119C5.33247 13.6699 6.73715 14.2489 8.38854 14.2489Z" fill="black" fill-opacity="0.45"/>
</svg>
