<svg width="119" height="119" viewBox="0 0 119 119" fill="none" xmlns="http://www.w3.org/2000/svg">
<circle cx="59.5" cy="59.5" r="59.5" fill="#00B543"/>
<g clip-path="url(#clip0_1302_3150)">
<path d="M67.0045 66.4223L60.8237 60.2414V49.1224C60.8237 49.0433 60.8081 48.965 60.7778 48.892C60.7476 48.819 60.7033 48.7527 60.6474 48.6968C60.5915 48.641 60.5251 48.5966 60.4521 48.5663C60.3791 48.5361 60.3008 48.5205 60.2217 48.5205H55.9307C55.7711 48.5205 55.618 48.584 55.5051 48.6968C55.3922 48.8097 55.3289 48.9627 55.3289 49.1224V62.2025C55.3293 62.3356 55.3775 62.4643 55.4647 62.5649C55.491 62.6485 55.5377 62.7242 55.6007 62.785L63.1213 70.3055C63.1768 70.3627 63.2431 70.4082 63.3165 70.4392C63.3899 70.4702 63.4687 70.4861 63.5484 70.4861C63.6281 70.4861 63.7069 70.4702 63.7803 70.4392C63.8536 70.4082 63.9201 70.3627 63.9756 70.3055L67.0045 67.2766C67.0617 67.2211 67.1071 67.1547 67.1381 67.0813C67.1692 67.008 67.1852 66.9292 67.1852 66.8495C67.1852 66.7699 67.1692 66.6909 67.1381 66.6176C67.1071 66.5442 67.0617 66.4778 67.0045 66.4223Z" fill="white"/>
<path d="M59.4968 85.9996C54.2544 86.0009 49.1294 84.4474 44.77 81.5357C40.4105 78.6239 37.0125 74.4849 35.0057 69.6418C32.999 64.7987 32.4736 59.4691 33.496 54.3274C34.5184 49.1857 37.0428 44.4627 40.7497 40.7558C44.4566 37.0488 49.1796 34.5246 54.3214 33.5021C59.4631 32.4797 64.7925 33.005 69.6356 35.0118C74.4787 37.0185 78.6179 40.4166 81.5296 44.776C84.4413 49.1354 85.9948 54.2605 85.9936 59.5029C85.9833 66.5271 83.1884 73.2607 78.2215 78.2276C73.2546 83.1944 66.521 85.9893 59.4968 85.9996ZM59.4968 36.8829C55.024 36.8817 50.6514 38.2064 46.9314 40.6897C43.2114 43.173 40.3111 46.7033 38.5971 50.8346C36.8831 54.9659 36.4324 59.5126 37.3019 63.9C38.1713 68.2874 40.3219 72.3185 43.4819 75.4839C46.6418 78.6493 50.6693 80.8067 55.0552 81.6837C59.4411 82.5607 63.9885 82.1178 68.1227 80.4109C72.2569 78.704 75.7923 75.8098 78.2819 72.0941C80.7716 68.3784 82.1039 64.008 82.1103 59.5353C82.1103 53.5342 79.729 47.7784 75.4893 43.5314C71.2495 39.2843 65.4978 36.8932 59.4968 36.8829Z" fill="white"/>
</g>
<defs>
<clipPath id="clip0_1302_3150">
<rect width="53" height="53" fill="white" transform="translate(33 33)"/>
</clipPath>
</defs>
</svg>
