<svg width="119" height="119" viewBox="0 0 119 119" fill="none" xmlns="http://www.w3.org/2000/svg">
<circle cx="59.5" cy="59.5" r="59.5" fill="#00B543"/>
<g clip-path="url(#clip0_1302_3151)">
<path d="M59.9766 43.6262C58.7564 43.6942 57.5228 43.7146 56.3027 43.8506C53.2992 44.1768 51.1203 45.1419 52.2801 48.9548C52.803 50.62 51.9784 51.7822 50.3493 52.3531C49.7191 52.5706 49.1157 52.8763 48.4922 53.1074C41.6606 55.6357 43.3098 56.7504 38.7912 49.7091C37.4972 47.6702 37.752 46.3654 39.4616 44.7682C50.7448 34.3627 69.215 34.383 80.4782 44.7682C82.2347 46.3994 82.3889 47.7449 81.1151 49.7159C76.6635 56.594 78.3798 55.5815 71.3939 53.0736C68.7122 52.0948 66.7613 50.8919 67.7803 47.4868C68.3435 45.5838 67.5389 44.6254 65.5612 44.2244C63.722 43.8497 61.8524 43.6494 59.9766 43.6262Z" fill="white"/>
<path d="M60.3386 76.3387C63.1142 76.3387 65.8897 76.4407 68.6653 76.3387C70.7704 76.2368 71.347 77.195 71.347 79.1524C71.347 81.1098 70.7436 82.0205 68.6653 81.9933C62.8907 81.9118 57.1183 81.9118 51.3482 81.9933C49.2833 81.9933 48.6665 81.1166 48.6665 79.1456C48.6665 77.1746 49.2297 76.2436 51.3482 76.3319C54.3383 76.4339 57.3418 76.3387 60.3386 76.3387Z" fill="#FEFEFE"/>
<path d="M60.0503 59.3949C62.4906 58.9667 63.1275 60.2717 63.1141 62.4737C63.1007 64.6758 62.2224 65.4439 60.1173 65.4643C58.0122 65.4847 56.8725 64.7846 56.8792 62.3719C56.8859 59.9591 57.7239 58.9871 60.0503 59.3949Z" fill="#F4F4F4"/>
<path d="M47.6408 73.5792C45.3144 74.0209 44.5434 72.981 44.577 70.6294C44.577 68.4613 45.368 67.6526 47.4866 67.6254C49.766 67.5846 50.6175 68.4613 50.5907 70.7925C50.5638 72.9742 49.8532 73.9666 47.6408 73.5792Z" fill="#F7F7F7"/>
<path d="M72.3257 73.5787C70.1401 73.9593 69.4428 72.9534 69.416 70.7785C69.416 68.4404 70.2473 67.6181 72.5201 67.6113C74.9738 67.6113 75.3963 68.8143 75.4298 70.962C75.4633 73.3816 74.3102 73.8642 72.3257 73.5787Z" fill="#F7F7F7"/>
<path d="M46.3937 62.4127C46.6619 64.6148 45.6562 65.4168 43.531 65.4576C41.218 65.5051 40.4671 64.5604 40.4336 62.2564C40.3934 59.7281 41.5599 59.3202 43.6852 59.3066C45.9914 59.3066 46.6284 60.3737 46.3937 62.4127Z" fill="#F8F8F8"/>
<path d="M51.8175 59.4012C54.1171 59.0274 54.7137 60.2236 54.7607 62.3102C54.8143 64.7025 53.8086 65.4774 51.556 65.457C49.3034 65.4367 48.6933 64.4851 48.6531 62.3646C48.6129 59.9858 49.5381 59.007 51.8175 59.4012Z" fill="#F8F8F8"/>
<path d="M68.3771 59.4012C70.6231 59.041 71.3203 60.081 71.3471 62.2627C71.3873 64.6075 70.5091 65.4842 68.2162 65.4571C66.0642 65.4571 65.2663 64.5735 65.2462 62.419C65.2261 60.0878 66.0306 58.9866 68.3771 59.4012Z" fill="#F8F8F8"/>
<path d="M76.6635 59.4019C78.943 59.0281 79.5262 60.1767 79.5664 62.2836C79.6066 64.6284 78.7284 65.4917 76.4422 65.4577C74.2767 65.4577 73.5594 64.513 73.5393 62.3925C73.546 60.0544 74.3371 58.9941 76.6635 59.4019Z" fill="#F8F8F8"/>
<path d="M55.907 73.5788C53.6142 73.9866 52.7427 72.9874 52.7628 70.629C52.7628 68.4473 53.641 67.659 55.7394 67.625C57.9988 67.625 58.9173 68.4269 58.8838 70.7785C58.857 72.9534 58.1262 73.9458 55.907 73.5788Z" fill="#F7F7F7"/>
<path d="M64.0595 73.5795C61.827 73.9601 61.1565 72.8999 61.123 70.7454C61.0828 68.3598 62.0683 67.5985 64.3008 67.6257C66.4261 67.6257 67.2105 68.5092 67.244 70.6637C67.2708 73.0629 66.3188 73.9737 64.0595 73.5795Z" fill="#F7F7F7"/>
<path d="M43.3769 76.3721C45.4284 76.039 46.4943 76.6711 46.4876 79.0363C46.4876 81.2383 45.7166 82.0402 43.5512 81.9995C41.5399 81.9587 40.4203 81.5986 40.4605 79.1994C40.4806 77.0245 41.1175 75.9643 43.3769 76.3721Z" fill="#F9F9F9"/>
<path d="M76.4556 76.4062C78.8759 75.9644 79.5329 77.0112 79.5664 79.1929C79.5664 81.5785 78.467 81.9658 76.4825 81.9998C74.3237 82.0406 73.5058 81.259 73.5393 79.0434C73.5728 76.8277 74.4444 75.8761 76.4556 76.4062Z" fill="#F9F9F9"/>
</g>
<defs>
<clipPath id="clip0_1302_3151">
<rect width="44" height="45" fill="white" transform="translate(38 37)"/>
</clipPath>
</defs>
</svg>
