<svg width="18" height="18" viewBox="0 0 18 18" fill="none" xmlns="http://www.w3.org/2000/svg">
<path d="M0 17.9342C0.367733 16.5438 0.685444 15.2671 1.04777 14.0041C1.21023 13.4902 1.1799 12.9337 0.962599 12.4411C-1.45335 6.50685 2.83236 0.00136986 9.1352 0C13.5439 0 17.4335 3.41507 17.931 7.72329C18.4827 12.5014 15.6665 16.6945 11.1712 17.7562C8.97567 18.274 6.88553 17.9493 4.88058 16.9137C4.57042 16.7666 4.2206 16.729 3.88689 16.8068C2.62956 17.1342 1.38576 17.526 0 17.9342ZM11.1902 13.4137C12.6503 13.4986 13.6345 12.9712 14.0644 12.0027C14.1415 11.8288 14.0793 11.4548 13.9441 11.3425C13.5097 10.9832 13.0393 10.671 12.5408 10.411C11.566 9.90137 11.3876 9.93973 10.6399 10.7877C10.3506 11.1137 10.1275 11.1493 9.72736 10.9548C8.63632 10.4219 7.84272 9.58493 7.12348 8.62603C6.87472 8.29863 6.90446 8.03288 7.18026 7.80411C7.38962 7.64401 7.53496 7.41276 7.5896 7.15281C7.64424 6.89287 7.6045 6.62169 7.4777 6.38904C7.13856 5.70202 6.74331 5.04493 6.29608 4.42466C6.20685 4.29863 5.80126 4.25753 5.63632 4.35068C4.70347 4.87945 4.25462 5.98219 4.45877 7.10959C4.69942 8.43562 5.40514 9.51918 6.28932 10.4712C7.7251 12.0178 9.34746 13.2178 11.1902 13.4178V13.4137Z" fill="#F2F5FB"/>
</svg>
