<svg width="78" height="78" viewBox="0 0 78 78" fill="none" xmlns="http://www.w3.org/2000/svg">
<mask id="mask0_751_2486" style="mask-type:alpha" maskUnits="userSpaceOnUse" x="0" y="0" width="78" height="78">
<rect width="77.381" height="77.381" fill="#D9D9D9"/>
</mask>
<g mask="url(#mask0_751_2486)">
<path fill-rule="evenodd" clip-rule="evenodd" d="M37.2672 16.8396C35.7186 17.2428 34.6652 17.9823 34.1205 19.048C33.7995 19.6761 33.589 19.8434 32.9829 19.953C32.1425 20.1049 31.2272 20.5206 30.6825 20.9978C29.6556 21.897 29.0958 24.2933 29.1977 27.3514C29.2603 29.2296 29.2242 29.4967 28.821 30.1438C27.876 31.6605 28.4609 34.182 30.1288 35.7815C30.5762 36.2106 31.0754 36.9487 31.2476 37.4356C31.6372 38.5375 32.4062 39.8669 33.2629 40.919C33.8811 41.6782 33.9235 41.8262 33.9235 43.2186C33.9235 44.1721 33.8345 44.7774 33.6758 44.9036C33.5397 45.012 32.9971 45.1631 32.4702 45.2392C31.0588 45.4431 27.5147 46.6591 25.7 47.5619C22.0565 49.3749 19.0922 52.1685 17.7151 55.0875C17.0538 56.4888 16.4185 59.168 16.5182 60.1342L16.5848 60.7801L38.7288 60.8264L60.8729 60.8729V59.5795C60.8729 58.8681 60.7391 57.7737 60.5757 57.1474C60.2984 56.0852 60.1092 55.6394 59.1761 53.8522C58.6624 52.8686 55.437 49.6927 54.0862 48.8407C51.3774 47.1324 47.781 45.7215 44.9216 45.2461C44.4861 45.1735 44.0638 45.0112 43.9836 44.8852C43.9031 44.7592 43.8369 43.9442 43.8363 43.0741C43.8353 41.556 43.8639 41.456 44.5447 40.602C44.9349 40.1125 45.6009 39.0001 46.0248 38.13C46.4583 37.2398 47.1452 36.211 47.5952 35.7777C49.0245 34.4013 49.5694 31.539 48.6646 30.1592C48.4488 29.8302 48.3577 29.0885 48.3361 27.4894C48.3109 25.6097 48.3723 25.1174 48.7439 24.2297C49.3108 22.8754 49.2965 22.0276 48.6866 20.8261C47.567 18.6215 45.417 17.3267 41.9489 16.7686C39.6837 16.4041 38.8927 16.4162 37.2672 16.8396ZM42.6967 19.3563C44.7213 19.8798 46.6056 21.4167 46.6056 22.5441C46.6056 22.7688 46.4587 23.2972 46.2794 23.7184C46.0488 24.2603 45.91 25.4384 45.805 27.7473C45.7234 29.542 45.593 31.1661 45.5155 31.3565C45.399 31.6421 45.4818 31.7026 45.9899 31.7026C46.517 31.7026 46.6056 31.7748 46.6056 32.2049C46.6056 33.0692 45.8688 34.2735 45.3401 34.2735C44.9428 34.2735 44.7982 34.4846 44.345 35.7243C43.7347 37.3945 42.6704 39.1117 41.8338 39.7758L41.2553 40.2352V43.6727V47.1102L41.9984 47.2323C46.2255 47.9254 48.4361 48.6024 51.2238 50.0569C54.841 51.9444 57.5742 54.974 58.1918 57.7804L58.3284 58.4008H38.7784H19.2284L19.3605 57.7581C19.848 55.3865 22.2487 52.4718 25.2046 50.6629C28.1843 48.8393 31.0998 47.8695 35.5583 47.2188L36.3014 47.1102V43.6719V40.2334L35.7178 39.8187C34.964 39.2831 33.7989 37.3614 33.2133 35.6887C32.8592 34.6768 32.648 34.3477 32.3 34.2652C31.7537 34.1357 30.9512 33.0082 30.9512 32.3705C30.9512 31.9599 31.0183 31.9237 31.5746 32.0346C32.1817 32.1559 32.1942 32.1442 32.0493 31.5847C31.9677 31.2689 31.8575 29.3599 31.8044 27.3425L31.7079 23.6743L32.2709 23.0737C32.6634 22.6551 33.1035 22.4304 33.7254 22.3315C34.9018 22.1446 35.3806 21.8065 36.027 20.7059C36.8406 19.3202 37.4351 19.0472 39.6415 19.0464C40.6872 19.0461 42.019 19.1811 42.6967 19.3563Z" fill="#00B543"/>
</g>
</svg>
