<svg width="78" height="78" viewBox="0 0 78 78" fill="none" xmlns="http://www.w3.org/2000/svg">
<mask id="mask0_751_2489" style="mask-type:alpha" maskUnits="userSpaceOnUse" x="0" y="0" width="78" height="78">
<rect width="77.381" height="77.381" fill="#D9D9D9"/>
</mask>
<g mask="url(#mask0_751_2489)">
<path fill-rule="evenodd" clip-rule="evenodd" d="M35.5817 13.4696C35.5751 13.5008 35.0385 15.237 34.3895 17.3279L33.2094 21.1296L31.8469 21.7033C31.0976 22.0188 30.2644 22.3282 29.9956 22.3909C29.6695 22.4669 28.3445 21.898 26.0153 20.6818L22.524 18.8585L21.152 20.0758C20.3974 20.7454 19.5023 21.6558 19.1628 22.0991L18.5456 22.9052L20.0323 25.6798C20.8502 27.2059 21.6882 28.7731 21.8948 29.1626C22.2552 29.8423 22.2468 29.9285 21.6841 31.3114C21.3616 32.1037 21.0471 32.9153 20.9853 33.115C20.8773 33.4649 20.2657 33.6855 15.1288 35.2276C13.1834 35.8116 13.17 35.8207 13.0308 36.6587C12.8519 37.7376 12.8516 39.5274 13.0306 40.6058C13.1296 41.2016 13.3115 41.488 13.6525 41.585C13.9178 41.6605 15.0545 42.0075 16.1786 42.3563C17.3026 42.7051 18.8195 43.1719 19.5495 43.394C20.2962 43.6209 20.9254 43.9543 20.9874 44.1556C21.048 44.3526 21.3605 45.1594 21.6816 45.9488L22.2656 47.384L21.7867 48.3238C21.5233 48.8406 20.6876 50.4232 19.9297 51.8405C18.5938 54.3383 18.5636 54.4321 18.9471 54.894C19.8511 55.9826 20.999 57.1466 21.7903 57.777L22.6332 58.4487L26.1879 56.5382L29.7426 54.6273L31.1355 55.2557C31.9014 55.6011 32.6935 55.9381 32.8956 56.0044C33.0975 56.0709 33.3166 56.3624 33.382 56.6526C33.4476 56.9428 33.9604 58.6559 34.5212 60.4598L35.5413 63.7395L36.9868 63.9016C37.7818 63.991 39.0823 63.991 39.8771 63.9016L41.322 63.7395L42.4903 59.9165C43.6584 56.0937 43.6586 56.0935 44.4641 55.8157C44.9069 55.663 45.6764 55.3312 46.1737 55.0783L47.0782 54.6187L50.6549 56.5336L54.2316 58.4483L55.0743 57.7767C55.8686 57.1441 57.0001 55.9962 57.9371 54.8723C58.3444 54.3837 58.3372 54.3464 57.5633 52.9497C57.1293 52.1664 56.2846 50.5849 55.6863 49.4355L54.5981 47.3455L55.1783 45.9296C55.4973 45.1508 55.8098 44.3526 55.8729 44.1556C55.9367 43.9559 56.5744 43.6191 57.3149 43.394C58.0449 43.1719 59.5618 42.7051 60.6858 42.3563C61.8099 42.0075 62.9466 41.6605 63.2119 41.585C63.5529 41.488 63.7348 41.2016 63.8338 40.6058C64.0128 39.5274 64.0125 37.7376 63.8336 36.6587C63.6944 35.8204 63.6817 35.8118 61.7356 35.2303C60.6586 34.9084 58.9251 34.3719 57.8832 34.0379L55.989 33.4305L55.5752 32.2996C55.3475 31.6776 55.0357 30.8581 54.8822 30.4786C54.6172 29.8242 54.6987 29.6112 56.462 26.3482L58.3208 22.9079L57.7025 22.1004C57.3626 21.6564 56.467 20.7454 55.7124 20.0758L54.3404 18.8585L50.8915 20.6596C48.9945 21.6501 47.2955 22.4605 47.1161 22.4605C46.9365 22.4605 46.0911 22.1753 45.2373 21.8268C43.8219 21.2491 43.66 21.1145 43.4 20.3C43.2433 19.8089 42.6956 18.0583 42.1831 16.41L41.2511 13.4131H38.4224C36.8667 13.4131 35.5883 13.4384 35.5817 13.4696ZM39.7461 18.3892C40.1062 19.571 40.6221 21.1851 40.8926 21.976L41.3842 23.4139L43.0873 24.033C44.024 24.3736 45.2207 24.8714 45.7464 25.1397C46.2723 25.4077 46.8729 25.6271 47.0814 25.6271C47.4413 25.6271 52.8714 22.891 53.4804 22.4028C53.6848 22.2391 53.8992 22.2898 54.2184 22.5775C54.807 23.1081 54.7829 23.4953 54.0856 24.7102C52.8457 26.8709 51.9792 28.4963 51.654 29.2714C51.3264 30.0531 51.3409 30.1361 52.0753 31.6423C52.4938 32.5009 53.0124 33.7888 53.2275 34.5045C53.4427 35.2199 53.7441 35.8055 53.8971 35.8055C54.195 35.8055 59.6551 37.4913 60.5298 37.8532C60.9465 38.0257 61.0403 38.216 60.984 38.7753L60.9129 39.4801L57.2797 40.5482L53.6464 41.6162L53.0576 43.2911C52.7336 44.2124 52.192 45.5073 51.8536 46.1691L51.2387 47.3722L52.5374 49.7881C53.2518 51.1167 54.0452 52.5908 54.3006 53.0637C54.7982 53.9852 54.6519 54.619 53.908 54.7649C53.7039 54.8049 52.0798 54.0845 50.2991 53.1641L47.0612 51.4906L45.6987 52.23C44.9493 52.6367 43.6845 53.1535 42.8879 53.3783C41.2353 53.845 41.3915 53.6072 40.2413 57.4063C39.1162 61.122 39.1082 61.1383 38.4322 61.1383C37.7489 61.1383 37.7653 61.1727 36.4584 56.9869L35.4802 53.8535L33.7771 53.3105C32.8404 53.0117 31.5631 52.479 30.9386 52.1266L29.8032 51.4861L26.5653 53.1619C24.7846 54.0834 23.1605 54.8049 22.9564 54.7649C22.7525 54.7248 22.475 54.5172 22.3399 54.3037C22.1423 53.9911 22.4325 53.2637 23.8302 50.5716L25.566 47.2279L24.979 46.097C24.6563 45.4749 24.1251 44.2124 23.7988 43.2911L23.2057 41.6162L19.5786 40.5466L15.9515 39.4772V38.7156C15.9515 37.869 15.6429 38.0081 21.199 36.3497L23.2675 35.7324L23.6478 34.4678C23.857 33.7723 24.3718 32.4982 24.7919 31.6367C25.6756 29.824 25.7644 30.2309 23.6219 26.2718C22.8378 24.8224 22.1961 23.4894 22.1961 23.3099C22.1961 22.781 23.0461 22.1321 23.384 22.4028C23.993 22.891 29.4231 25.6271 29.783 25.6271C29.9915 25.6271 30.5921 25.4077 31.118 25.1397C31.6437 24.8714 32.8404 24.3736 33.7771 24.033L35.4802 23.4139L35.9725 21.976C36.2432 21.1851 36.7407 19.6219 37.0781 18.5023C37.8318 16.0011 37.7798 16.0864 38.4992 16.171C39.0355 16.2339 39.1527 16.4419 39.7461 18.3892ZM36.1192 31.688C34.3516 32.3173 33.1644 33.2019 32.3168 34.5219C29.8873 38.3046 31.0215 42.936 34.8939 45.0459C36.2582 45.7893 36.4827 45.84 38.4179 45.84C40.3281 45.84 40.5928 45.7823 41.9165 45.0798C43.4642 44.2581 44.4012 43.2868 45.1907 41.6863C45.9376 40.1727 45.9171 37.0231 45.1512 35.53C44.2749 33.8221 43.3998 32.9352 41.8322 32.1666C39.9489 31.2431 37.8609 31.068 36.1192 31.688ZM40.5894 34.6434C41.0266 34.8646 41.7164 35.5332 42.1222 36.1296C43.1 37.5659 43.1659 39.4306 42.2916 40.9166C39.9214 44.9452 34.0042 43.3144 34.0042 38.6328C34.0042 35.1186 37.4276 33.0447 40.5894 34.6434Z" fill="#00B543"/>
</g>
</svg>
