<svg width="60" height="60" viewBox="0 0 60 60" fill="none" xmlns="http://www.w3.org/2000/svg">
<g clip-path="url(#clip0_753_3727)">
<path d="M29.9205 0.000303774C13.4498 0.0762898 0.0344358 13.5113 6.5282e-05 29.9659C-0.0343052 46.4477 13.5077 60.0039 30.0037 60.0003C46.5015 59.9967 60.0399 46.4386 60.0001 29.9587C59.9603 13.4462 46.3857 -0.073873 29.9205 0.000303774ZM30.8503 58.6778C15.5699 59.1934 1.85969 47.3939 1.32062 30.8126C0.824957 15.5195 12.652 1.91986 29.224 1.29749C44.5315 0.935655 58.1839 12.6827 58.6795 29.264C59.1372 44.5643 47.3029 58.1242 30.8503 58.6778Z" fill="#00B543"/>
<path d="M29.9547 13.3467C20.6892 13.3938 13.3212 20.7952 13.3881 29.9877C13.4569 39.3412 20.8809 46.7408 30.1085 46.6539C39.2456 46.5689 46.6624 39.1241 46.6298 30.0709C46.5955 20.712 39.204 13.2997 29.9529 13.3449L29.9547 13.3467ZM29.8588 44.9551C21.5394 44.8484 14.9185 38.0042 15.0434 29.6403C15.1628 21.6527 22.0893 14.9515 30.1302 15.0456C38.3303 15.1415 45.0307 21.9929 44.9728 30.2247C44.9167 38.2756 37.9576 45.0564 29.8588 44.9533V44.9551Z" fill="#00B543"/>
<path d="M30.0959 18.6704C23.8713 18.6125 18.6488 23.8103 18.6705 30.0412C18.6922 36.2539 23.7899 41.3323 30.0019 41.3323C36.2338 41.3323 41.3152 36.2774 41.3315 30.0593C41.3478 23.8338 36.3116 18.7301 30.0959 18.6722V18.6704ZM30.8738 22.4914C30.8738 20.163 30.9245 20.125 32.889 20.7166C34.6835 21.2575 36.156 22.2616 37.3843 23.6891C37.9632 24.3621 37.8293 24.6914 37.1184 25.0225C36.7982 25.1708 36.4672 25.3282 36.1976 25.5489C35.2334 26.3378 34.3669 26.4626 33.5167 25.3608C33.2852 25.0623 32.8691 24.8144 32.4983 24.7348C31.0999 24.4327 30.4993 23.6728 30.8756 22.4914H30.8738ZM23.3847 22.9057C24.4158 21.8998 25.6386 21.196 27.008 20.751C29.0956 20.0707 29.2584 20.1865 29.2566 22.5692C29.4664 23.5516 29.2059 24.4254 27.7805 24.6154C27.406 24.6661 26.9538 24.8958 26.7331 25.1907C25.7309 26.5331 24.7848 26.0555 23.6705 25.3137C22.0352 24.2246 21.9863 24.2735 23.3847 22.9075V22.9057ZM20.5735 32.3045C20.1285 30.4356 20.1611 28.5757 20.8431 26.7575C20.9769 26.4011 21.0601 25.9795 21.5341 25.8529C22.2667 26.2907 22.9288 26.7882 23.6687 27.1067C24.7884 27.5879 24.3615 28.355 24.2186 29.1402C24.13 29.6323 24.0395 30.213 24.2114 30.6491C24.7975 32.1344 23.9418 32.679 22.8166 33.2633C21.0891 34.1571 21.0221 34.186 20.5753 32.3045H20.5735ZM27.0225 39.2771C25.2407 38.7 23.7573 37.6995 22.5688 36.234C22.1509 35.7202 22.0786 35.4072 22.7407 35.1033C23.1079 34.935 23.4715 34.7378 23.7917 34.4954C24.7342 33.7771 25.5898 33.4515 26.4744 34.6311C26.753 35.0038 27.2993 35.21 27.7588 35.409C29.2475 36.0531 29.2548 36.0386 29.2566 37.6579C29.2584 39.8198 29.0865 39.9465 27.0243 39.2771H27.0225ZM29.9874 34.2855C27.6611 34.2765 25.7038 32.3063 25.72 29.9905C25.7363 27.6784 27.7298 25.7027 30.0308 25.7208C32.359 25.7389 34.2982 27.7037 34.2855 30.0303C34.2711 32.3732 32.3318 34.2928 29.9874 34.2855ZM36.8796 36.8962C35.7544 37.9853 34.4863 38.7814 33.0102 39.2662C31.0077 39.9248 30.8738 39.8289 30.8738 37.495C30.5952 36.4258 31.0276 35.5863 32.4169 35.3258C32.7027 35.2715 33.0355 35.1159 33.2128 34.897C34.3289 33.5184 35.3402 34.0919 36.5793 34.8174C37.7642 35.5122 37.8311 35.9735 36.8796 36.8962ZM38.5945 33.9743C37.8854 34.1661 36.8416 33.1765 35.9679 32.6699C35.6386 32.48 35.7219 27.7145 36.024 27.4757C36.0637 27.445 36.1072 27.4142 36.1542 27.3943C37.0641 27.0216 38.0609 25.7226 38.7519 26.2491C39.774 27.0271 39.6799 28.6228 39.7902 29.9869C39.7287 30.4012 39.6509 30.8517 39.5949 31.3058C39.47 32.3099 39.4176 33.75 38.5945 33.9725V33.9743Z" fill="#00B543"/>
</g>
<defs>
<clipPath id="clip0_753_3727">
<rect width="60" height="60" fill="white"/>
</clipPath>
</defs>
</svg>
