<svg width="36" height="36" viewBox="0 0 36 36" fill="none" xmlns="http://www.w3.org/2000/svg">
<circle cx="18" cy="18" r="18" fill="#828079" fill-opacity="0.5"/>
<path d="M13 17.25C12.5858 17.25 12.25 17.5858 12.25 18C12.25 18.4142 12.5858 18.75 13 18.75L13 17.25ZM22.5303 18.5303C22.8232 18.2374 22.8232 17.7626 22.5303 17.4697L17.7574 12.6967C17.4645 12.4038 16.9896 12.4038 16.6967 12.6967C16.4038 12.9896 16.4038 13.4645 16.6967 13.7574L20.9393 18L16.6967 22.2426C16.4038 22.5355 16.4038 23.0104 16.6967 23.3033C16.9896 23.5962 17.4645 23.5962 17.7574 23.3033L22.5303 18.5303ZM13 18.75L22 18.75L22 17.25L13 17.25L13 18.75Z" fill="white"/>
</svg>
