<svg width="60" height="60" viewBox="0 0 60 60" fill="none" xmlns="http://www.w3.org/2000/svg">
<g clip-path="url(#clip0_753_3722)">
<path d="M30.294 0.00303116C13.9005 -0.266994 0.241312 13.1426 0.00355328 29.7432C-0.232507 46.1485 13.1974 59.7925 29.7828 59.9979C46.2 60.2 59.8303 46.7497 59.9985 30.1797C60.1649 13.8015 46.8521 0.278151 30.294 0.00303116ZM30.9597 58.692C15.7024 59.1811 1.926 47.4919 1.32481 30.9201C0.771173 15.6577 12.5436 1.9034 29.1171 1.32259C44.3811 0.787633 58.0353 12.5635 58.6721 29.0028C59.2631 44.2448 47.5246 57.9923 30.958 58.692H30.9597Z" fill="#00B543"/>
<path d="M39.1757 36.8593C36.8627 34.8571 34.6175 32.7767 32.2824 30.7999C31.4723 30.1138 31.5097 29.7266 32.2875 29.066C34.6209 27.0875 36.8712 25.0122 39.2097 23.0405C39.9807 22.3883 40.0214 22.0283 39.225 21.349C36.5858 19.1005 34.0164 16.7705 31.4163 14.4761C30.793 13.9258 30.1579 13.3926 29.5278 12.8525C29.3953 12.9086 29.2612 12.9646 29.1287 13.0207V27.9977C26.6764 25.8206 24.5434 23.9287 22.4154 22.0317C21.9365 21.6037 21.5595 21.2046 20.9396 21.9502C20.3147 22.7008 20.9685 22.9216 21.3353 23.2477C23.4327 25.109 25.5148 26.9907 27.6733 28.7789C28.6617 29.5992 28.9113 30.0781 27.7242 31.0241C25.4537 32.8327 23.3478 34.8469 21.1604 36.7591C20.7053 37.1565 20.5423 37.4588 21.0127 38.004C21.5103 38.578 21.8177 38.3453 22.2422 37.9632C23.8335 36.5299 25.4299 35.1016 27.0568 33.709C27.658 33.1945 28.2371 32.0872 28.9113 32.3657C29.6178 32.6578 29.1967 33.8279 29.2017 34.6057C29.2357 38.6731 29.217 42.7422 29.217 47.302C32.78 44.1755 35.9609 41.3207 39.2233 38.5627C40.0928 37.8274 39.8788 37.4656 39.1774 36.8593H39.1757ZM30.9017 16.1506C33.1893 18.1783 35.2493 20.0074 37.3127 21.8296C37.7271 22.1964 37.4537 22.4274 37.1751 22.6737C35.1746 24.4433 33.174 26.2129 30.9017 28.2253V16.1506ZM37.2651 38.1568C35.2357 39.9094 33.2148 41.6722 30.968 43.6253V31.7441C33.1995 33.7294 35.2034 35.5143 37.2125 37.2941C37.5301 37.576 37.649 37.8239 37.2651 38.1551V38.1568Z" fill="#00B543"/>
</g>
<defs>
<clipPath id="clip0_753_3722">
<rect width="60" height="60" fill="white"/>
</clipPath>
</defs>
</svg>
