<svg width="41" height="40" viewBox="0 0 41 40" fill="#DADADA" xmlns="http://www.w3.org/2000/svg">
    <g id="buick-svgrepo-com 1" clip-path="url(#clip0_4299_1737)">
        <path id="Vector"
            d="M20.1463 0.445312C9.3535 0.445312 0.619141 9.17967 0.619141 20.0281C0.619141 30.8765 9.35349 39.6108 20.2019 39.6108C31.0503 39.6108 39.729 30.8208 39.729 20.0281C39.729 9.17967 30.939 0.445312 20.1463 0.445312ZM20.1463 37.4968C10.5218 37.4968 2.67756 29.6525 2.67756 20.0281C2.67756 10.4036 10.4662 2.50373 20.1463 2.50373C29.8264 2.50373 37.615 10.348 37.615 19.9724C37.6706 29.6525 29.8264 37.4968 20.1463 37.4968Z" />
        <path id="Vector_2"
            d="M23.3723 11.0707H15.7506V13.7411H8.12891V23.5325C8.12891 29.1514 12.4683 34.826 12.6352 35.1597C12.8577 34.826 15.8619 30.876 16.8633 26.2585C17.7534 28.4282 18.866 30.5422 20.2569 32.4894C20.4794 32.1556 23.4836 28.2056 24.485 23.5881C25.3751 25.7578 26.5434 27.8718 27.8786 29.819C28.1011 29.4296 32.3848 23.8107 32.3848 18.1917V8.34473H23.3723V11.0707ZM15.7506 23.6438C15.7506 27.9275 12.8577 31.8218 12.6908 32.1556C12.5239 31.8774 9.57536 27.9275 9.57536 23.6438V15.1876H15.7506V23.6438ZM23.3723 20.9734C23.3723 25.2571 20.4794 29.1514 20.3125 29.4852C20.1456 29.207 17.1971 25.2571 17.1971 20.9734V12.4616H23.3723V20.9734ZM24.8188 9.79118H30.994V18.303C30.994 22.5867 28.1011 26.481 27.8786 26.8148C27.7117 26.5367 24.7631 22.6424 24.7631 18.303L24.8188 9.79118Z" />
        <path id="Vector_3"
            d="M30.6609 16.9122V10.0693H25.0977L30.5497 19.7494C30.6053 19.3044 30.6609 18.4143 30.6609 16.9122Z" />
        <path id="Vector_4"
            d="M29.8264 22.4201L25.0977 14.1309V18.4702C25.0977 21.1962 26.5441 24.256 27.8793 26.2588C28.7138 25.0349 29.3258 23.7553 29.8264 22.4201Z" />
        <path id="Vector_5"
            d="M23.0398 19.5826V12.7954H17.4766L22.9286 22.4755C22.9842 21.9748 23.0398 21.0847 23.0398 19.5826Z" />
        <path id="Vector_6"
            d="M22.26 25.0906L17.5312 16.8013V21.1406C17.5312 23.8666 18.9777 26.9264 20.3129 28.9292C21.0918 27.7053 21.7037 26.4257 22.26 25.0906Z" />
        <path id="Vector_7"
            d="M15.4734 22.3087V15.4658H9.91016L15.3622 25.1459C15.4178 24.7009 15.4734 23.8107 15.4734 22.3087Z" />
        <path id="Vector_8"
            d="M14.6389 27.8166L9.91016 19.4717V23.811C9.91016 26.537 11.3566 29.5969 12.6918 31.5996C13.4707 30.4313 14.1383 29.1518 14.6389 27.8166Z" />
    </g>
    <defs>
        <clipPath id="clip0_4299_1737">
            <rect width="40" height="40" transform="translate(0.173828)" />
        </clipPath>
    </defs>
</svg>