<svg width="60" height="60" viewBox="0 0 60 60" fill="none" xmlns="http://www.w3.org/2000/svg">
<g clip-path="url(#clip0_753_3718)">
<path d="M29.9725 3.83063e-05C13.4645 0.0263626 -0.0617067 13.5956 -0.000279885 30.0658C0.061147 46.5308 13.4908 59.9527 29.9497 60C46.4261 60.0474 59.9874 46.5115 59.998 30.0114C60.0103 13.5184 46.4577 -0.0262859 29.9725 3.83063e-05ZM30.9027 58.675C15.6443 59.2173 1.89342 47.4539 1.32303 30.8643C0.796514 15.5858 12.5852 1.95154 29.0213 1.32503C44.2586 0.744137 57.9937 12.4742 58.694 29.0568C59.1661 44.3336 47.4634 58.0854 30.9027 58.675Z" fill="#00B543"/>
<path d="M41.656 23.0775C40.1133 23.9497 38.5864 24.85 36.7383 25.9187C36.7383 24.3077 36.6804 23.0371 36.7576 21.7753C36.8191 20.7697 36.4716 20.4766 35.4694 20.4836C29.346 20.524 23.2209 20.538 17.0975 20.4749C15.8883 20.4626 15.6654 20.8996 15.6742 21.9789C15.718 27.3367 15.7233 32.6963 15.6707 38.0542C15.6601 39.1879 15.9778 39.5319 17.1344 39.5178C22.5434 39.4582 27.9525 39.4915 33.3634 39.4915C35.6122 39.4915 36.7372 38.3917 36.7383 36.1922C36.7383 35.9886 36.7594 35.7815 36.7348 35.5797C36.5575 34.1038 37.1315 34.2109 38.1231 34.8514C39.32 35.6253 40.5696 36.3238 41.8209 37.0065C43.5391 37.9454 44.2447 37.5382 44.2464 35.6429C44.2517 31.9171 44.2499 28.1914 44.2464 24.4674C44.2447 22.3842 43.5462 22.0052 41.6542 23.0757L41.656 23.0775ZM33.9636 37.9787C31.3661 37.9296 28.7686 37.9612 26.1694 37.9612C23.6228 37.9612 21.0745 37.9261 18.5296 37.9787C17.5854 37.998 17.3011 37.6593 17.3064 36.7485C17.338 32.2664 17.3327 27.7825 17.3099 23.3003C17.3046 22.4492 17.4713 22.0087 18.4787 22.0175C23.6737 22.0596 28.8704 22.0543 34.0654 22.021C34.9447 22.0157 35.1956 22.3281 35.1886 23.1722C35.1588 27.7053 35.1518 32.24 35.1939 36.7731C35.2026 37.7225 34.8815 37.9945 33.9636 37.977V37.9787ZM43.2531 24.878C43.2267 25.9924 43.2267 27.1068 43.2285 28.223C43.232 30.9326 43.2338 33.6405 43.2373 36.3501C41.1031 35.1006 38.969 33.8528 36.8348 32.6033C36.8348 31.5205 36.8348 30.4377 36.8348 29.3549C36.8348 28.8144 36.8348 28.2721 36.8348 27.7316C36.8348 27.6666 36.8348 27.6017 36.8348 27.5368C36.8348 27.4508 36.8278 27.4385 36.9033 27.3946C37.0191 27.3244 37.1367 27.2577 37.2543 27.1893C37.4877 27.0524 37.7211 26.9155 37.9546 26.7786C38.89 26.2311 39.8237 25.6818 40.7591 25.1343C41.6051 24.6376 42.451 24.1427 43.297 23.6461C43.2776 24.0567 43.2636 24.4691 43.2548 24.8798L43.2531 24.878Z" fill="#00B543"/>
</g>
<defs>
<clipPath id="clip0_753_3718">
<rect width="60" height="60" fill="white"/>
</clipPath>
</defs>
</svg>
