<svg width="153" height="26" viewBox="0 0 153 26" fill="#DADADA" xmlns="http://www.w3.org/2000/svg">
    <g id="chrysler-svgrepo-com" clip-path="url(#clip0_4299_1751)">
        <path id="Vector"
            d="M152.43 14.4901V14.4775C152.398 14.3702 152.026 14.326 151.338 14.3197L141.268 14.1808C125.87 14.0482 97.2151 13.7831 95.9146 13.7831H95.5989C94.0938 13.7079 92.588 13.9178 91.1608 14.4017L90.58 14.5722C88.959 15.1426 87.2729 15.5074 85.5611 15.6581C83.7744 15.7212 76.9563 15.7149 76.6722 15.7149C76.3881 15.7149 69.5636 15.7149 67.777 15.6644C66.065 15.5145 64.3788 15.1497 62.758 14.5785L62.1898 14.4081C60.7563 13.9232 59.2442 13.7133 57.7328 13.7894H57.455C56.1482 13.7894 27.4929 13.9156 12.1015 14.0608L1.99414 14.1871C1.29969 14.1871 0.901964 14.2376 0.908277 14.3512L1.48277 14.4964C3.60398 14.932 5.75676 15.1909 7.92217 15.2793C12.0446 15.3613 42.234 16.1189 42.96 16.1315C44.5888 16.0873 46.2113 16.3778 47.7265 16.9775H57.1772C57.1772 16.9775 53.3641 17.1985 53.3073 17.4384H53.0674C52.1204 17.4384 49.2416 17.4384 47.6128 17.3626C47.6128 17.3626 47.4929 17.8171 49.1532 17.8171C49.734 18.2086 50.3464 18.581 50.8956 18.8904H59.0207C59.0207 18.8904 55.8262 19.0798 55.7631 19.3197C55.3843 19.3197 53.9954 19.2818 52.6696 19.2439L50.8073 19.1871C50.8073 19.1871 50.7126 19.5911 52.2403 19.5974L52.4992 19.7616C55.5484 21.1315 58.7808 22.0533 62.0951 22.4952C63.3578 22.7414 64.6204 22.9055 65.902 23.0002C65.902 23.0002 67.4487 23.1391 67.1772 23.1265C63.5655 22.9808 59.9739 22.5139 56.4449 21.7313C53.5916 21.0364 50.8692 19.8852 48.383 18.3222C46.9996 17.4036 45.3842 16.8957 43.7239 16.8575C42.6507 16.7881 8.06737 15.4245 7.99161 15.4245C5.77089 15.3477 3.5632 15.0516 1.4007 14.5406L0.91459 14.3575C0.91459 14.4522 1.15449 14.7048 1.35651 14.8878C2.42974 15.8348 6.47015 17.7982 8.83126 18.379C12.9348 19.3702 38.1558 22.5772 42.6381 23.0823L45.1128 23.3601C51.8868 24.0924 60.4032 25.0267 64.7403 25.4687C65.5647 25.6175 66.4126 25.57 67.2151 25.3298C70.2405 24.2107 73.4468 23.6606 76.6722 23.7073C79.9067 23.6822 83.1198 24.2337 86.1608 25.3361C86.953 25.5734 87.79 25.621 88.604 25.475C92.9474 25.0394 101.483 24.0861 108.2 23.3474L110.706 23.0697C115.189 22.5709 140.41 19.4838 144.507 18.4926C146.874 17.9245 150.915 15.9548 151.982 15.0078C152.159 14.8656 152.308 14.6923 152.423 14.4964L152.43 14.4901ZM74.9992 20.7717C69.9802 20.7717 65.0181 20.7022 63.5724 20.3424C60.1318 19.4901 58.5282 17.9182 58.2568 17.4384C57.9853 16.9649 58.0547 16.9712 58.4777 16.9712H94.8414C95.2707 16.9712 95.2959 17.0154 95.056 17.4447C94.8161 17.8677 93.1999 19.4901 89.7467 20.3424C88.301 20.7022 83.3388 20.7591 78.3199 20.7717H74.9992ZM151.944 14.6416C149.781 15.1547 147.574 15.4528 145.353 15.5318C145.277 15.5318 110.656 16.7755 109.614 16.8575C107.954 16.8957 106.338 17.4036 104.955 18.3222C102.471 19.8846 99.7506 21.0357 96.8994 21.7313C93.3686 22.5164 89.7749 22.9854 86.1608 23.1328C85.8893 23.1328 87.4361 23.0002 87.4361 23.0002C88.7117 22.9062 89.9807 22.7376 91.2366 22.4952C94.5498 22.0491 97.7816 21.1284 100.833 19.7616L101.136 19.5974C102.657 19.5974 102.575 19.1871 102.575 19.1871L100.713 19.2502C99.3363 19.2818 97.9222 19.3134 97.5686 19.3134C97.5055 19.0861 94.3489 18.8904 94.3489 18.8904H102.461C103.04 18.5538 103.608 18.2001 104.166 17.8298C105.833 17.8298 105.719 17.3752 105.719 17.3752C103.821 17.4251 101.923 17.4461 100.024 17.4384C99.9676 17.2048 96.426 16.9838 96.426 16.9838H105.561C107.088 16.3843 108.72 16.0988 110.359 16.1442L145.416 15.4245C147.58 15.3355 149.734 15.0716 151.855 14.6353L152.285 14.528L151.944 14.6416ZM76.426 18.0002H76.9941L75.8893 18.7894V19.4144H75.056V18.802L73.8628 18.0002H74.8414L75.6494 18.5053L76.426 18.0002ZM81.5333 19.1555H83.4398V19.4081H80.6999V17.9939H81.5333V19.1555ZM84.9424 19.1555H86.9184V19.4081H84.128V17.9939H86.8931V18.2527H84.9424V18.5747H86.8552V18.8336H84.9424V19.1492V19.1555ZM69.0207 18.0002H69.854V19.4144H69.0017V18.8399H67.2467V19.4081H66.4133V18.0002H67.2467V18.5684H69.0017L69.0207 18.0002ZM72.7959 18.7957L73.8691 19.4144H72.9222C72.9222 19.4144 72.0636 18.802 71.8616 18.6442C72.7138 18.6757 72.8527 18.581 72.8527 18.4421C72.8527 18.3033 72.1835 18.2149 71.4259 18.2591V19.4144H70.5421V18.0065H72.4676C73.4146 18.0065 73.705 18.2022 73.705 18.4043C73.705 18.581 73.3578 18.7452 72.7959 18.7957ZM89.9297 18.4421C89.9297 18.2969 89.2606 18.2149 88.503 18.2591V19.427H87.6191V18.0192H89.5257C90.4727 18.0192 90.7631 18.2338 90.7631 18.4169C90.7631 18.5937 90.4159 18.7578 89.854 18.7957L90.9272 19.4144H89.9802C89.9802 19.4144 89.1217 18.802 88.9196 18.6442C89.7656 18.6757 89.9297 18.581 89.9297 18.4421ZM80.1002 18.9914C80.1002 19.3512 79.3237 19.4712 78.5156 19.4712C78.0764 19.4701 77.6378 19.4406 77.2025 19.3828L77.2908 19.0798C77.6867 19.1498 78.0886 19.1794 78.4903 19.1682C79.1659 19.1682 79.21 19.0861 79.21 18.9977C79.21 18.9093 79.0207 18.8525 78.7176 18.8525L78.0989 18.7831C77.4929 18.7073 77.2467 18.682 77.2467 18.3222C77.2467 17.9623 78.0295 17.8992 78.5282 17.8992C78.9678 17.9119 79.4062 17.9498 79.8414 18.0129L79.7782 18.2843C79.4355 18.232 79.0895 18.2046 78.7429 18.2022C78.2063 18.2022 78.0926 18.2275 78.0926 18.3285C78.0926 18.4295 78.2631 18.4737 78.5345 18.4737L79.2479 18.5242C79.8161 18.6063 80.0876 18.7452 80.1002 18.9914ZM63.2568 18.682C63.2568 19.0103 64.0585 19.1492 64.5888 19.1492C65.1191 19.1492 65.6242 19.0861 65.7441 19.0861L65.6558 19.3828C65.5042 19.3954 64.9866 19.4459 64.4184 19.4459C63.3578 19.4459 62.4108 19.1934 62.4108 18.682C62.4108 18.1707 63.3578 17.9118 64.4184 17.9118C65.0371 17.9118 65.5232 17.975 65.6558 17.975L65.7441 18.2717C65.3602 18.2327 64.9747 18.2116 64.5888 18.2086C64.0333 18.2086 63.2568 18.3538 63.2568 18.682ZM69.551 4.79315L66.0787 1.65553H68.3893L69.7088 2.77295L71.1482 4.01033L71.4133 4.24391L71.6659 4.01664L74.3363 1.67447H75.2328L72.0131 4.7679L71.8931 4.89417V7.61513H69.6835V4.9131L69.5573 4.79315H69.551ZM103.497 7.61513H94.1974V1.64922H96.2555V6.87649H103.497V7.61513ZM117.297 7.57724H107.846V1.66184H117.177V2.39416H109.835V4.2376H117.057V4.99518H109.835V6.84492H117.297V7.57724ZM38.926 7.58987H36.8237V1.63659H38.926V4.26917H44.6962V1.63659H46.7858V7.58987H44.7025V4.98255H38.9196L38.926 7.58987ZM54.9866 7.57093H52.8653V1.60502H58.4398C59.5005 1.54189 60.5674 1.72497 61.5396 2.14164C61.7509 2.23135 61.933 2.37806 62.0657 2.56536C62.1984 2.75266 62.2763 2.97318 62.2909 3.20224C62.2845 3.88406 61.7858 4.55326 60.0118 4.74265L59.5068 4.80578L59.8919 5.10881C60.46 5.56967 61.8616 6.97119 62.5181 7.58987L62.5813 7.60881H60.1507C59.7909 7.21108 57.7959 5.39922 56.931 4.51538C57.7635 4.48672 58.5918 4.38319 59.4058 4.20604C59.5823 4.14908 59.737 4.03914 59.8488 3.89117C59.9606 3.7432 60.0242 3.56437 60.0308 3.37901C60.0265 3.26301 59.9944 3.14973 59.9373 3.04867C59.8802 2.94761 59.7996 2.86172 59.7025 2.7982C59.1974 2.37522 58.0295 2.37523 56.6659 2.37523H54.9866V7.57093ZM85.9525 6.04315C85.9525 5.6833 85.6431 5.51285 85.3338 5.42447C84.9135 5.31264 84.4849 5.23453 84.0522 5.19088C83.3265 5.10308 82.6025 5.00205 81.8805 4.88785C81.1322 4.81966 80.4038 4.6097 79.734 4.26917C79.5445 4.15948 79.3892 3.99925 79.2855 3.80637C79.1819 3.6135 79.1339 3.39558 79.1469 3.17699C79.1406 2.55199 79.6772 2.15427 80.5484 1.89543C81.4701 1.66816 82.4234 1.56083 83.3704 1.57977C84.8477 1.59871 86.3249 1.70603 87.7896 1.92068L87.6444 2.64038C86.5193 2.43654 85.3787 2.33092 84.2353 2.32472C83.6109 2.29794 82.9856 2.34669 82.3729 2.46992C81.9878 2.57724 81.7542 2.81083 81.7542 3.08861C81.7664 3.239 81.8272 3.38134 81.9274 3.4941C82.0276 3.60687 82.1619 3.68392 82.3098 3.71361C82.6873 3.81989 83.0742 3.88966 83.4651 3.92194C84.1217 3.98507 85.0371 4.11134 85.9083 4.2376C86.6394 4.29677 87.3505 4.50519 87.9979 4.84998C88.1889 4.95564 88.3475 5.11142 88.4565 5.30054C88.5656 5.48966 88.6209 5.70495 88.6166 5.9232C88.6229 6.52926 88.0737 6.99644 87.0762 7.31841C85.8619 7.642 84.6077 7.7908 83.3515 7.76033L83.3641 7.72245C81.9397 7.71038 80.5178 7.59857 79.109 7.38785L79.2921 6.53558C80.5863 6.81967 81.9121 6.96488 83.2378 6.96488C83.9915 7.01688 84.7478 6.91375 85.46 6.66184C85.5944 6.61951 85.7131 6.538 85.8008 6.42776C85.8886 6.31753 85.9414 6.1836 85.9525 6.04315ZM21.0093 4.64795C21.0093 3.65048 21.6595 2.93709 22.7643 2.4131C24.1166 1.83988 25.5764 1.56429 27.0446 1.60502C28.2505 1.61133 29.4563 1.69972 30.6494 1.85755L30.8199 2.67194C29.7281 2.54039 28.6303 2.46454 27.5308 2.44467C26.583 2.43722 25.6418 2.60193 24.753 2.93078C23.9133 3.25906 23.2189 3.79568 23.2189 4.62901C23.2189 5.45603 23.9133 5.99896 24.753 6.32724C25.6368 6.65553 26.5838 6.81967 27.5308 6.80704C28.6281 6.78906 29.7238 6.71531 30.8136 6.58608L30.5989 7.41942C29.4061 7.5808 28.2041 7.66515 27.0005 7.67194C25.5486 7.71041 24.105 7.44148 22.7643 6.8828C21.628 6.35881 21.0093 5.62017 21.0093 4.64795ZM124.671 7.63407H122.581V1.66184H128.156C129.217 1.59863 130.279 1.78456 131.255 2.20477C131.466 2.294 131.647 2.43974 131.78 2.62583C131.913 2.81192 131.991 3.0311 132.007 3.25906C132 3.94719 131.502 4.61639 129.728 4.80578L129.223 4.85629L129.608 5.17194C130.176 5.62649 131.577 6.99644 132.234 7.64669L129.841 7.653C129.482 7.25527 127.48 5.44341 126.622 4.55957C127.457 4.5321 128.287 4.42641 129.103 4.24391C129.278 4.18706 129.431 4.07783 129.541 3.93102C129.652 3.78422 129.715 3.60693 129.721 3.4232C129.717 3.3072 129.685 3.19392 129.628 3.09286C129.571 2.9918 129.49 2.90591 129.393 2.8424C128.875 2.4131 127.72 2.4131 126.357 2.4131H124.677L124.671 7.63407Z" />
    </g>
    <defs>
        <clipPath id="clip0_4299_1751">
            <rect width="151.515" height="25" transform="translate(0.916016 0.5)" />
        </clipPath>
    </defs>
</svg>