<svg width="54" height="20" viewBox="0 0 54 20" fill="#DADADA" xmlns="http://www.w3.org/2000/svg">
    <g id="Ford_logo_flat">
        <g id="layer1">
            <path id="path741"
                d="M44.1243 14.1206C44.1359 14.1949 44.2335 14.2662 44.328 14.2999C44.3629 14.3115 44.3799 14.3347 44.3435 14.4137C44.074 14.9916 43.8261 15.3247 43.4881 15.8268C43.1772 16.2907 42.827 16.6526 42.4031 17.0007C41.7636 17.5299 40.8756 18.1059 40.1414 17.7187C39.8154 17.5494 39.6742 17.093 39.6805 16.7235C39.696 15.6845 40.1583 14.6178 41.0118 13.5695C42.0523 12.2885 43.2026 11.6241 43.9575 11.9872C44.7386 12.3598 44.4893 13.2641 44.1395 13.9739C44.1124 14.0289 44.1124 14.0753 44.124 14.1202M52.5056 6.02457C52.5617 5.92543 52.5026 5.85303 52.3774 5.85303C51.725 5.85303 50.8691 5.8545 50.1893 5.8545C50.0275 5.8545 49.9438 5.87383 49.8675 6.02486C49.6166 6.50556 46.559 11.088 45.9899 11.9779C45.8938 12.1134 45.7769 12.0944 45.7633 11.9391C45.7056 11.4106 45.2492 10.803 44.53 10.5123C43.982 10.29 43.4462 10.2497 42.8891 10.3237C41.8835 10.4589 40.9876 10.9893 40.1999 11.5877C39.0127 12.4902 37.9884 13.66 36.6661 14.5243C35.9443 14.9948 34.9558 15.4051 34.2944 14.7926C33.6958 14.2376 33.7635 13.005 34.6793 12.0517C34.7758 11.9518 34.8915 12.0362 34.8733 12.1249C34.787 12.556 34.8927 12.9848 35.2203 13.2854C35.6198 13.6436 36.1917 13.684 36.6811 13.4449C37.2587 13.1588 37.5981 12.6062 37.697 11.979C37.8499 11.0062 37.1011 10.1481 36.164 10.0793C35.4028 10.0258 34.6728 10.2907 33.9615 10.8777C33.6048 11.1736 33.4023 11.3922 33.0939 11.8308C33.0187 11.9389 32.9033 11.9497 32.9068 11.7901C32.9416 10.5445 32.427 9.84376 31.3973 9.82091C30.5979 9.80155 29.744 10.2355 29.0784 10.7661C28.3488 11.3521 27.7108 12.1286 27.0268 12.8583C26.9416 12.9481 26.8677 12.9439 26.8437 12.7696C26.8243 11.9443 26.6156 11.145 26.2337 10.5773C26.0985 10.3798 25.814 10.2822 25.575 10.4154C25.4646 10.4758 25.0807 10.6524 24.8011 10.8775C24.6625 10.9917 24.6083 11.1571 24.6698 11.3691C25.0385 12.602 24.9576 14.0039 24.4572 15.1878C23.9979 16.2722 23.1053 17.2502 22.056 17.5812C21.3648 17.8004 20.6463 17.6932 20.2017 17.0804C19.5911 16.2347 19.8376 14.7639 20.7479 13.5427C21.5512 12.4673 22.7132 11.7842 23.8722 11.3444C24.0085 11.2917 24.0368 11.2042 23.9981 11.0884C23.9354 10.8979 23.8347 10.6384 23.794 10.52C23.6875 10.2369 23.3899 10.1911 23.0265 10.2306C22.1843 10.3286 21.4246 10.6172 20.6742 11.019C18.7092 12.0712 17.724 14.1078 17.2923 15.1973C17.0843 15.7207 16.9066 16.0471 16.6769 16.3367C16.3671 16.726 15.9782 17.0805 15.2671 17.705C15.2029 17.7623 15.1548 17.8815 15.2091 17.9927C15.2815 18.1429 15.6513 18.6652 15.7557 18.7118C15.8714 18.7687 16.0058 18.6885 16.0596 18.6506C16.5572 18.3133 17.1525 17.7787 17.4438 17.4161C17.546 17.2918 17.651 17.3441 17.7052 17.5327C17.977 18.5026 18.6889 19.2945 19.6732 19.6258C21.4749 20.2334 23.3437 19.3539 24.7543 17.8229C25.6508 16.8497 25.9743 16.2237 26.318 15.7983C26.9003 15.0768 28.0491 13.4627 29.4173 12.4263C29.9191 12.0441 30.5128 11.7526 30.8114 11.9462C31.0511 12.1015 31.1285 12.4624 30.744 13.1617C29.349 15.709 27.2965 18.7019 26.9201 19.4277C26.8512 19.5536 26.9124 19.6527 27.0433 19.6527C27.7733 19.6491 28.4969 19.6509 29.1595 19.6509C29.2699 19.647 29.3191 19.5951 29.3745 19.5173C30.445 17.8415 31.4525 16.2466 32.5324 14.5976C32.5928 14.5004 32.6485 14.5743 32.6509 14.6169C32.6741 14.9995 32.767 15.5228 32.9944 15.8664C33.4026 16.5017 33.981 16.7747 34.6226 16.7788C35.1331 16.7866 35.3914 16.7072 35.9419 16.5015C36.3898 16.3354 36.7493 16.1174 37.0253 15.9201C37.1864 15.8078 37.2147 15.9956 37.2108 16.0242C36.963 17.3546 37.269 18.9309 38.5911 19.5845C40.1734 20.3646 41.9117 19.2681 42.912 18.2781C43.0099 18.1829 43.1149 18.1929 43.1249 18.3986C43.1482 18.7765 43.317 19.225 43.6297 19.5389C44.4679 20.3801 46.1593 20.0467 47.8567 18.7329C48.9465 17.8917 50.0868 16.7033 51.1169 15.4448C51.1556 15.396 51.1835 15.3178 51.1091 15.2384C50.9523 15.0742 50.7254 14.8864 50.5698 14.7417C50.4989 14.6813 50.3948 14.6987 50.3352 14.7438C49.2793 15.748 48.3289 16.8931 46.9553 17.8401C46.492 18.1635 45.7536 18.4243 45.422 17.9753C45.2927 17.801 45.3074 17.5601 45.4337 17.2438C45.8341 16.245 52.175 6.59111 52.5041 6.02173" />
            <path id="path745"
                d="M22.6734 7.18943C22.7005 7.33272 22.7563 7.36063 22.8213 7.34862C23.1443 7.28395 23.4978 7.01827 23.7071 6.71032C23.8976 6.43111 23.987 6.02819 23.7976 5.86675C23.6288 5.72152 23.3539 5.76254 23.1501 5.94262C22.7442 6.30122 22.6209 6.81002 22.6733 7.18973M6.51219 19.6164C4.14795 19.6319 2.06508 18.1719 1.82606 15.6425C1.69323 14.2409 2.08941 12.9918 2.88255 11.9627C3.58635 11.0457 4.77723 10.2839 5.78526 10.0978C6.11326 10.0378 6.554 10.0746 6.7362 10.293C7.022 10.6256 6.93986 10.9911 6.65407 11.1369C5.88502 11.5295 4.95964 12.2017 4.50175 13.1196C4.13037 13.8688 4.05534 14.7716 4.62259 15.6318C5.57203 17.0652 8.21858 17.1047 10.6793 14.8186C11.2888 14.2591 11.8341 13.7215 12.3885 13.0847C13.4723 11.8455 13.8328 11.3939 15.2734 9.39558C15.2889 9.37235 15.2967 9.34211 15.2889 9.32739C15.2773 9.30028 15.258 9.2964 15.215 9.29253C14.2533 9.31964 13.4147 9.60586 12.5997 10.2149C12.365 10.3861 12.0272 10.3621 11.8793 10.1367C11.7148 9.88188 11.8329 9.55016 12.1036 9.36285C13.4147 8.45101 14.8469 8.28564 16.3095 8.0388C16.3083 8.0388 16.411 8.04265 16.4947 7.93267C17.0951 7.16211 17.5485 6.46704 18.1885 5.68776C18.8334 4.8971 19.6664 4.17105 20.3029 3.62567C21.1913 2.86177 21.7611 2.6047 22.3401 2.28963C22.4927 2.20986 22.3207 2.11461 22.2743 2.11461C19.0415 1.507 15.6812 0.720756 12.4706 1.90932C10.2471 2.7391 9.27262 4.50238 9.74132 5.68061C10.0747 6.51639 11.1739 6.65226 12.203 6.14867C13.0578 5.72989 13.8487 5.05494 14.4094 4.18609C14.7231 3.70357 15.3841 4.05169 15.027 4.88956C14.0875 7.09778 12.2926 8.84936 10.1063 8.92333C8.24567 8.98374 7.04518 7.6149 7.04909 5.92619C7.05683 2.5954 10.7648 0.401324 14.6617 0.0733178C19.3547 -0.31452 23.7997 0.93557 28.4594 1.50077C32.0295 1.9331 35.4523 1.9421 39.0408 1.11775C39.465 1.02558 39.7626 1.29626 39.735 1.72473C39.7001 2.34406 39.2203 2.94055 38.0384 3.58514C36.6943 4.32232 35.2881 4.546 33.8195 4.55801C30.2683 4.58899 26.9603 3.20332 23.5372 2.45952C23.5411 2.60939 23.5806 2.78788 23.4551 2.88249C21.559 4.28107 19.8451 5.70134 18.6972 7.69613C18.6585 7.74222 18.6778 7.78599 18.7464 7.78134C19.743 7.72829 20.6393 7.70271 21.5697 7.62836C21.7324 7.61287 21.7385 7.57414 21.7242 7.45564C21.6417 6.76806 21.8427 5.98399 22.4475 5.44466C23.0666 4.88964 23.8416 4.82654 24.3555 5.22626C24.9396 5.68144 24.8879 6.50005 24.5684 7.11397C24.2431 7.73688 23.7059 8.07003 23.1903 8.23179C23.1903 8.23179 23.0819 8.25504 23.0981 8.3534C23.1175 8.51063 23.8209 8.89993 23.881 9.00363C23.9391 9.10238 23.9081 9.25538 23.8024 9.37271C23.7281 9.45791 23.6115 9.53769 23.4624 9.53498C23.342 9.53258 23.2688 9.49084 23.1147 9.40758C22.7994 9.2368 22.4055 8.95601 22.1427 8.62498C22.0532 8.51306 22.0075 8.51078 21.7841 8.52317C20.7772 8.58126 19.2073 8.73306 18.1436 8.86589C17.8857 8.89687 17.8477 8.94603 17.7947 9.03548C16.0988 11.8321 14.288 14.8478 12.2998 16.867C10.1674 19.0319 8.3948 19.6019 6.51308 19.6166" />
        </g>
    </g>
</svg>