<svg width="90" height="18" viewBox="0 0 90 18" fill="#DADADA" xmlns="http://www.w3.org/2000/svg">
    <g id="gmc-svgrepo-com (1) 1" clip-path="url(#clip0_4299_1709)">
        <g id="Group">
            <path id="Vector"
                d="M0.169922 4.99656C0.169922 2.04545 2.00459 0.0543381 5.47481 0.0543381H27.9957V4.23922H6.15037C5.53881 4.23922 4.99481 4.55212 4.99481 5.47656V12.4526C4.99481 13.2988 5.35037 13.8463 6.46681 13.8463H21.8517C22.6624 13.8463 23.2881 13.5583 23.2881 12.4917V10.8597H14.2819V6.87389H27.9957V13.2846C27.9957 16.353 25.7628 18.0312 22.257 18.0312H5.51037C2.12192 18.0312 0.169922 16.1966 0.169922 13.1246V4.99656ZM48.0846 18.0312L55.7788 4.39567V18.0312H60.6001V0.0543381H53.1833L45.8481 12.9646L38.513 0.0507812H31.0997V18.0277H35.921V4.39567L43.6153 18.0312H48.0846ZM89.0588 18.0312H68.8917C65.4961 18.0312 63.5513 16.1966 63.5513 13.1281V4.99656C63.5513 2.04545 65.3788 0.0543381 68.849 0.0543381H89.0588V4.57345H69.5281C68.9166 4.57345 68.369 4.88278 68.369 5.80722V12.1183C68.369 12.9681 68.7281 13.5121 69.8446 13.5121H89.0588V18.0312Z" />
        </g>
    </g>
    <defs>
        <clipPath id="clip0_4299_1709">
            <rect width="88.8889" height="18" transform="translate(0.169922)" />
        </clipPath>
    </defs>
</svg>