<svg width="86" height="119" viewBox="0 0 86 119" fill="none" xmlns="http://www.w3.org/2000/svg">
<rect x="0.5" y="0.5" width="85" height="85" rx="9.5" stroke="#00B543"/>
<path d="M28.7727 107H27.3636C27.2803 106.595 27.1345 106.239 26.9261 105.932C26.7216 105.625 26.4716 105.367 26.1761 105.159C25.8845 104.947 25.5606 104.788 25.2045 104.682C24.8485 104.576 24.4773 104.523 24.0909 104.523C23.3864 104.523 22.7481 104.701 22.1761 105.057C21.608 105.413 21.1553 105.938 20.8182 106.631C20.4848 107.324 20.3182 108.174 20.3182 109.182C20.3182 110.189 20.4848 111.04 20.8182 111.733C21.1553 112.426 21.608 112.951 22.1761 113.307C22.7481 113.663 23.3864 113.841 24.0909 113.841C24.4773 113.841 24.8485 113.788 25.2045 113.682C25.5606 113.576 25.8845 113.419 26.1761 113.21C26.4716 112.998 26.7216 112.739 26.9261 112.432C27.1345 112.121 27.2803 111.765 27.3636 111.364H28.7727C28.6667 111.958 28.4735 112.491 28.1932 112.96C27.9129 113.43 27.5644 113.83 27.1477 114.159C26.7311 114.485 26.2633 114.733 25.7443 114.903C25.2292 115.074 24.678 115.159 24.0909 115.159C23.0985 115.159 22.2159 114.917 21.4432 114.432C20.6705 113.947 20.0625 113.258 19.6193 112.364C19.1761 111.47 18.9545 110.409 18.9545 109.182C18.9545 107.955 19.1761 106.894 19.6193 106C20.0625 105.106 20.6705 104.417 21.4432 103.932C22.2159 103.447 23.0985 103.205 24.0909 103.205C24.678 103.205 25.2292 103.29 25.7443 103.46C26.2633 103.631 26.7311 103.881 27.1477 104.21C27.5644 104.536 27.9129 104.934 28.1932 105.403C28.4735 105.869 28.6667 106.402 28.7727 107ZM34.4134 115.182C33.6255 115.182 32.9342 114.994 32.3395 114.619C31.7486 114.244 31.2865 113.72 30.9531 113.045C30.6236 112.371 30.4588 111.583 30.4588 110.682C30.4588 109.773 30.6236 108.979 30.9531 108.301C31.2865 107.623 31.7486 107.097 32.3395 106.722C32.9342 106.347 33.6255 106.159 34.4134 106.159C35.2012 106.159 35.8906 106.347 36.4815 106.722C37.0762 107.097 37.5384 107.623 37.8679 108.301C38.2012 108.979 38.3679 109.773 38.3679 110.682C38.3679 111.583 38.2012 112.371 37.8679 113.045C37.5384 113.72 37.0762 114.244 36.4815 114.619C35.8906 114.994 35.2012 115.182 34.4134 115.182ZM34.4134 113.977C35.0118 113.977 35.5043 113.824 35.8906 113.517C36.277 113.21 36.563 112.807 36.7486 112.307C36.9342 111.807 37.027 111.265 37.027 110.682C37.027 110.098 36.9342 109.555 36.7486 109.051C36.563 108.547 36.277 108.14 35.8906 107.83C35.5043 107.519 35.0118 107.364 34.4134 107.364C33.8149 107.364 33.3224 107.519 32.9361 107.83C32.5497 108.14 32.2637 108.547 32.0781 109.051C31.8925 109.555 31.7997 110.098 31.7997 110.682C31.7997 111.265 31.8925 111.807 32.0781 112.307C32.2637 112.807 32.5497 113.21 32.9361 113.517C33.3224 113.824 33.8149 113.977 34.4134 113.977ZM45.9148 111.432V106.273H47.2557V115H45.9148V113.523H45.8239C45.6193 113.966 45.3011 114.343 44.8693 114.653C44.4375 114.96 43.892 115.114 43.233 115.114C42.6875 115.114 42.2027 114.994 41.7784 114.756C41.3542 114.513 41.0208 114.15 40.7784 113.665C40.536 113.176 40.4148 112.561 40.4148 111.818V106.273H41.7557V111.727C41.7557 112.364 41.9337 112.871 42.2898 113.25C42.6496 113.629 43.108 113.818 43.6648 113.818C43.9981 113.818 44.3371 113.733 44.6818 113.562C45.0303 113.392 45.322 113.131 45.5568 112.778C45.7955 112.426 45.9148 111.977 45.9148 111.432ZM49.7116 118.273V106.273H51.0071V107.659H51.1662C51.2647 107.508 51.401 107.314 51.5753 107.08C51.7533 106.841 52.0071 106.629 52.3366 106.443C52.67 106.254 53.1207 106.159 53.6889 106.159C54.4238 106.159 55.0715 106.343 55.6321 106.71C56.1927 107.078 56.6302 107.598 56.9446 108.273C57.259 108.947 57.4162 109.742 57.4162 110.659C57.4162 111.583 57.259 112.384 56.9446 113.062C56.6302 113.737 56.1946 114.259 55.6378 114.631C55.081 114.998 54.4389 115.182 53.7116 115.182C53.151 115.182 52.7022 115.089 52.3651 114.903C52.0279 114.714 51.7685 114.5 51.5866 114.261C51.4048 114.019 51.2647 113.818 51.1662 113.659H51.0526V118.273H49.7116ZM51.0298 110.636C51.0298 111.295 51.1264 111.877 51.3196 112.381C51.5128 112.881 51.795 113.273 52.1662 113.557C52.5374 113.837 52.992 113.977 53.5298 113.977C54.0904 113.977 54.5582 113.83 54.9332 113.534C55.312 113.235 55.5961 112.833 55.7855 112.33C55.9787 111.822 56.0753 111.258 56.0753 110.636C56.0753 110.023 55.9806 109.47 55.7912 108.977C55.6056 108.481 55.3234 108.089 54.9446 107.801C54.5696 107.509 54.098 107.364 53.5298 107.364C52.9844 107.364 52.526 107.502 52.1548 107.778C51.7836 108.051 51.5033 108.434 51.3139 108.926C51.1245 109.415 51.0298 109.985 51.0298 110.636ZM63.1207 115.182C62.2798 115.182 61.5545 114.996 60.9446 114.625C60.3385 114.25 59.8707 113.727 59.5412 113.057C59.2154 112.383 59.0526 111.598 59.0526 110.705C59.0526 109.811 59.2154 109.023 59.5412 108.341C59.8707 107.655 60.3291 107.121 60.9162 106.739C61.5071 106.352 62.1965 106.159 62.9844 106.159C63.4389 106.159 63.8878 106.235 64.331 106.386C64.7741 106.538 65.1776 106.784 65.5412 107.125C65.9048 107.462 66.1946 107.909 66.4105 108.466C66.6264 109.023 66.7344 109.708 66.7344 110.523V111.091H60.0071V109.932H65.3707C65.3707 109.439 65.2723 109 65.0753 108.614C64.8821 108.227 64.6056 107.922 64.2457 107.699C63.8897 107.475 63.4692 107.364 62.9844 107.364C62.4503 107.364 61.9882 107.496 61.598 107.761C61.2116 108.023 60.9143 108.364 60.706 108.784C60.4976 109.205 60.3935 109.655 60.3935 110.136V110.909C60.3935 111.568 60.5071 112.127 60.7344 112.585C60.9654 113.04 61.2855 113.386 61.6946 113.625C62.1037 113.86 62.5791 113.977 63.1207 113.977C63.473 113.977 63.7912 113.928 64.0753 113.83C64.3632 113.727 64.6113 113.576 64.8196 113.375C65.0279 113.17 65.1889 112.917 65.3026 112.614L66.598 112.977C66.4616 113.417 66.2325 113.803 65.9105 114.136C65.5885 114.466 65.1908 114.723 64.7173 114.909C64.2438 115.091 63.7116 115.182 63.1207 115.182Z" fill="#00B543"/>
<g clip-path="url(#clip0_1311_3159)">
<path d="M31.7537 33.0368C31.7233 32.935 31.6972 32.8384 31.6658 32.7436C31.5454 32.3788 31.8263 31.9801 32.2316 32.0008C32.9158 32.0355 33.5765 32.1501 34.1894 32.4636C34.3997 32.5713 34.5991 32.5873 34.8269 32.5596C35.7757 32.4438 36.7251 32.3318 37.6765 32.2391C39.2855 32.0824 40.9005 32.0614 42.5153 32.0737C43.5352 32.0816 44.5519 32.1699 45.5567 32.3522C46.3344 32.4934 47.1111 32.6471 47.8792 32.8329C48.1934 32.909 48.4888 33.0744 48.7842 33.2167C51.6951 34.6184 54.5428 36.1447 57.4029 37.6462C57.4885 37.6911 57.5926 37.7121 57.6901 37.7205C58.5995 37.7996 59.5112 37.8567 60.4185 37.9533C61.2292 38.0396 62.0391 38.1464 62.8431 38.2811C65.1235 38.6626 67.3685 39.1835 69.4878 40.1439C70.4207 40.5668 71.2979 41.0845 72.0529 41.7927C72.2449 41.9729 72.3062 42.1789 72.2635 42.4358C72.2113 42.7514 72.1739 43.0696 72.1385 43.3878C72.1332 43.4359 72.1611 43.5007 72.195 43.5383C72.3085 43.6643 72.4304 43.7827 72.5511 43.9017C72.6825 44.0312 72.7432 44.1861 72.7426 44.3718C72.7405 45.4023 72.7371 46.433 72.7434 47.4634C72.7463 47.9613 72.5232 48.3276 72.1295 48.6018C71.664 48.9258 71.1316 49.086 70.5873 49.2044C70.3586 49.2542 70.121 49.2825 69.8871 49.2849C68.9441 49.2936 68.001 49.2904 67.058 49.286C66.9454 49.2854 66.9016 49.3193 66.8767 49.4316C66.6747 50.3442 66.2769 51.1594 65.6591 51.8626C64.9143 52.7101 63.9983 53.2867 62.9049 53.5469C61.2835 53.9328 59.7895 53.6233 58.442 52.6349C57.496 51.941 56.8745 51.0109 56.5182 49.8979C56.4401 49.6544 56.3954 49.4004 56.3304 49.1291H56.1265C48.4616 49.1291 40.7966 49.1291 33.1317 49.1303C32.9277 49.1303 32.7368 49.1131 32.5897 48.946C32.4426 48.7788 32.4202 48.5872 32.4908 48.3883C32.5613 48.1897 32.7142 48.0756 32.9228 48.0476C33.0038 48.0369 33.087 48.0418 33.1692 48.0418C40.8001 48.0418 48.4311 48.0418 56.0623 48.0418H56.2567C56.3328 47.6402 56.3806 47.254 56.4808 46.8822C56.7373 45.9287 57.2262 45.106 57.9388 44.4238C58.8424 43.5587 59.9253 43.0675 61.1619 42.9555C62.4749 42.8365 63.6794 43.1749 64.7588 43.9425C65.602 44.5422 66.2061 45.3335 66.6022 46.2883C66.6318 46.3598 66.6622 46.3968 66.7464 46.3966C68.3664 46.3939 69.9863 46.3942 71.6063 46.3936C71.6205 46.3936 71.635 46.3898 71.664 46.3858C71.6669 46.3467 71.6727 46.3053 71.6727 46.2636C71.6733 45.7336 71.6762 45.204 71.6693 44.674C71.6684 44.6075 71.6289 44.5276 71.5825 44.4777C71.4371 44.3223 71.23 44.2036 71.1394 44.0236C71.0312 43.8086 70.8597 43.7696 70.6772 43.708C69.8906 43.4423 69.0993 43.1895 68.3208 42.9025C68.0483 42.8018 67.7997 42.6277 67.5533 42.4664C67.0029 42.1059 66.4612 41.732 65.9151 41.3648C65.7967 41.2852 65.6945 41.1974 65.7352 41.0344C65.7691 40.8988 65.9093 40.8022 66.0883 40.813C66.5125 40.8387 66.9376 40.8632 67.3592 40.9133C67.9047 40.9781 68.4473 41.0667 69.0247 41.1502C68.9577 41.1166 68.9165 41.0939 68.8736 41.0746C67.8034 40.5931 66.6875 40.2504 65.5524 39.9666C64.1561 39.6175 62.7439 39.3497 61.3157 39.1762C60.3141 39.0543 59.3095 38.9575 58.3059 38.8542C57.9646 38.8192 57.6214 38.8049 57.2804 38.7685C57.1786 38.7577 57.0753 38.7157 56.9827 38.6684C53.9195 37.1077 50.8568 35.5465 47.7965 33.9803C47.4492 33.8024 47.0699 33.7537 46.7006 33.6714C45.8472 33.4812 44.984 33.3424 44.1109 33.2864C43.335 33.2365 42.557 33.1697 41.7809 33.18C40.5343 33.1966 39.2881 33.2602 38.0427 33.3246C37.4694 33.3544 36.8986 33.432 36.3273 33.4938C36.2861 33.4982 36.2182 33.5512 36.2167 33.5836C36.2074 33.8304 36.2115 34.0774 36.2115 34.3317C36.3142 34.3317 36.4094 34.337 36.5034 34.3308C37.0144 34.2973 37.5248 34.2489 38.0363 34.2285C38.9155 34.1932 39.795 34.157 40.6748 34.1541C41.4962 34.1515 42.318 34.1909 43.1394 34.213C43.3277 34.2183 43.516 34.2299 43.7046 34.2366C44.3787 34.2611 45.0327 34.4151 45.6873 34.5578C47.5238 34.9576 49.2992 35.5491 51.0118 36.3243C52.5885 37.038 54.0808 37.9037 55.4925 38.9082C55.7446 39.0875 55.809 39.3002 55.7255 39.5939C55.7127 39.6388 55.7211 39.7 55.7414 39.7432C56.0603 40.4175 56.2196 41.1318 56.1932 41.8732C56.1772 42.3162 56.0925 42.759 56.0116 43.1965C55.7945 44.3701 55.4951 45.5239 55.1538 46.6672C55.0874 46.8895 55.0224 46.9367 54.7737 46.9367C46.7267 46.9367 38.6799 46.9367 30.6329 46.9367H30.4228C30.4588 47.1552 30.4944 47.3622 30.5272 47.5699C30.6511 48.3568 30.5742 49.1297 30.3465 49.8874C30.0781 50.7796 29.6028 51.5484 28.9334 52.1933C28.2045 52.895 27.3468 53.3629 26.3614 53.5825C25.441 53.7878 24.5276 53.7429 23.6278 53.4591C22.6787 53.1596 21.8706 52.6352 21.2148 51.8844C20.5227 51.0923 20.0872 50.1741 19.9349 49.1271C19.9056 48.9261 19.8908 48.7223 19.8792 48.5193C19.8742 48.435 19.8449 48.4078 19.7637 48.3883C18.5578 48.1022 17.351 47.8196 16.1494 47.5168C15.6681 47.3955 15.1945 47.2377 14.7256 47.0732C14.6058 47.0312 14.4903 46.9183 14.4186 46.8078C14.1752 46.4321 14.033 46.0107 14.0022 45.5656C13.9877 45.3582 14.0469 45.1427 14.0907 44.9348C14.1929 44.4515 14.3144 43.9726 14.4128 43.4884C14.4996 43.0611 14.5811 42.6318 14.6371 42.1996C14.6946 41.7557 14.8652 41.3803 15.2087 41.0956C15.3471 40.9807 15.3506 40.8282 15.3712 40.6768C15.5117 39.6391 15.9251 38.723 16.5873 37.9189C16.7196 37.7584 16.8763 37.6184 17.0092 37.4583C17.055 37.4029 17.0797 37.3163 17.0832 37.2425C17.0884 37.132 17.0649 37.0205 17.0556 36.9091C17.0278 36.5763 17.2753 36.2695 17.6031 36.3007C18.3613 36.3733 19.0484 36.1036 19.7498 35.9C22.656 35.0559 25.5887 34.3168 28.546 33.6787C29.583 33.455 30.6271 33.264 31.6681 33.058C31.6911 33.0534 31.7137 33.0467 31.7537 33.0368ZM19.4167 37.1305C19.4985 37.1862 19.5414 37.2165 19.5858 37.2451C20.131 37.5963 20.6768 37.946 21.2212 38.2983C21.4521 38.4479 21.4704 38.6328 21.256 38.7985C20.7085 39.2217 20.1595 39.6432 19.6003 40.0506C19.0592 40.4449 18.4614 40.7328 17.8048 40.8652C17.3638 40.9542 16.9326 41.0682 16.511 41.2222C16.4683 41.2377 16.4155 41.259 16.3946 41.294C16.3317 41.3995 16.2817 41.5133 16.2257 41.6264C16.3697 41.6445 16.524 41.6416 16.6645 41.6848C17.7485 42.0173 18.8305 42.3571 19.9117 42.6995C20.082 42.7534 20.1551 42.9197 20.098 43.0713C20.042 43.2204 19.9079 43.2755 19.7271 43.2186C19.2669 43.0734 18.8108 42.9135 18.3465 42.7823C17.5373 42.5533 16.766 42.178 15.906 42.1374C15.7893 42.1319 15.7415 42.1476 15.7223 42.2658C15.655 42.6817 15.5903 43.0987 15.5053 43.5112C15.3997 44.0233 15.2685 44.5299 15.1614 45.0418C15.1098 45.2885 15.0097 45.5385 15.1208 45.7949C15.1875 45.9486 15.2154 46.1142 15.4319 46.1699C16.4973 46.4426 17.5564 46.7398 18.6213 47.0143C19.0586 47.1269 19.5052 47.2039 19.9555 47.299C19.9732 47.2362 19.988 47.191 19.9987 47.145C20.3014 45.852 20.9652 44.7869 22.0328 44.0032C23.4749 42.9445 25.0806 42.656 26.7865 43.1711C28.385 43.6535 29.5085 44.7143 30.1767 46.2528C30.2275 46.3694 30.2841 46.3977 30.399 46.3977C38.4359 46.3954 46.4725 46.3954 54.5094 46.3992C54.6434 46.3992 54.6887 46.3511 54.7232 46.2312C55.0755 45.01 55.3706 43.776 55.5894 42.5233C55.7408 41.6559 55.641 40.822 55.2798 40.0209C55.2583 39.9733 55.1971 39.9153 55.1507 39.9118C54.6736 39.8756 54.196 39.8479 53.7181 39.8246C53.6697 39.8222 53.6035 39.8496 53.5716 39.8861C53.3093 40.1845 52.9469 40.2696 52.5877 40.2973C52.1118 40.3341 51.631 40.3084 51.1522 40.3058C50.7535 40.3038 50.5675 40.125 50.542 39.7283C50.5406 39.7047 50.5359 39.6814 50.5298 39.6376C45.8275 39.3635 41.1271 39.0893 36.4201 38.8145C36.4201 38.8994 36.4146 38.9618 36.421 39.0231C36.4648 39.4527 36.5031 39.8832 36.558 40.3116C36.6621 41.1245 36.7631 41.9382 36.8902 42.7476C37.0013 43.456 37.1493 44.1583 37.2735 44.8648C37.2883 44.9493 37.2813 45.0584 37.2381 45.1261C37.2007 45.1847 37.0945 45.2337 37.0234 45.2282C36.8835 45.2174 36.7686 45.1421 36.7387 44.9832C36.6331 44.4211 36.515 43.8609 36.4224 43.2965C36.1828 41.8361 35.9895 40.3694 35.87 38.8936C35.863 38.8081 35.8372 38.7755 35.7513 38.7708C34.9069 38.7241 34.0631 38.6614 33.2182 38.6285C32.2653 38.5914 31.3202 38.4876 30.3833 38.3202C29.003 38.0737 27.6091 37.9008 26.2488 37.5449C25.9691 37.4717 25.681 37.4315 25.398 37.3697C25.103 37.3052 24.9083 37.0156 24.9686 36.7411C25.0362 36.4343 25.3159 36.2439 25.6183 36.3025C25.8786 36.3529 26.1385 36.406 26.3979 36.4617C26.5157 36.4871 26.6164 36.4891 26.7142 36.3923C26.8201 36.2873 26.9437 36.1992 27.0656 36.112C27.1904 36.0228 27.3122 35.9055 27.4533 35.8667C28.0112 35.713 28.5721 35.5649 29.1394 35.4517C30.3595 35.2085 31.582 34.9751 32.8079 34.7643C33.5066 34.6441 34.214 34.5753 34.9177 34.4846C35.1649 34.4528 35.4121 34.4239 35.6712 34.3924V33.5614C30.1593 34.3131 24.7849 35.6016 19.4178 37.1305H19.4167ZM61.5159 43.9845C60.4655 44.0023 59.4517 44.4071 58.6248 45.2427C57.6507 46.2268 57.2685 47.4249 57.4087 48.7978C57.6008 50.6822 59.2376 52.5579 61.63 52.5643C64.0113 52.5707 65.9078 50.6746 65.9069 48.2979C65.9061 45.8401 63.9585 44.002 61.5159 43.9845ZM25.2332 43.9848C22.8908 43.9775 20.9507 45.8949 20.9557 48.2556C20.9609 50.6775 22.867 52.557 25.2103 52.5652C27.601 52.5733 29.4919 50.6673 29.4934 48.2912C29.4948 45.8278 27.52 44.0011 25.2332 43.9848ZM51.5732 37.8894C51.555 37.8582 51.5524 37.8471 51.5454 37.8427C51.5126 37.8223 51.4792 37.8025 51.445 37.7844C50.1047 37.0716 48.7137 36.4836 47.2577 36.054C45.761 35.6124 44.2467 35.2744 42.6763 35.2717C41.3857 35.2694 40.095 35.2531 38.8047 35.2773C37.9841 35.2927 37.1647 35.3715 36.3447 35.4199C36.2611 35.4249 36.226 35.4537 36.2298 35.5442C36.2486 36.0149 36.2597 36.4862 36.2785 36.957C36.2878 37.1938 36.3078 37.4303 36.3235 37.6753C41.0656 37.9664 45.7935 38.2563 50.5269 38.5468C50.5327 38.499 50.5397 38.4753 50.5379 38.452C50.5153 38.1134 50.8127 37.8684 51.1351 37.8879C51.2741 37.8964 51.4139 37.8894 51.5732 37.8894ZM35.6741 35.485C33.1367 35.7349 30.6398 36.1639 28.1775 36.7954C28.322 36.8318 28.4642 36.8552 28.6069 36.877C29.4647 37.0083 30.3224 37.1407 31.1804 37.2696C31.6336 37.3376 32.0857 37.4251 32.5415 37.4592C33.5049 37.5312 34.4705 37.5744 35.435 37.6278C35.5438 37.6339 35.6532 37.6287 35.7661 37.6287C35.7353 36.9161 35.7052 36.2144 35.6738 35.4852L35.6741 35.485ZM67.0223 48.1935H67.1868C68.0814 48.1935 68.976 48.1894 69.8703 48.1949C70.432 48.1984 70.9401 48.0091 71.4351 47.7738C71.5248 47.7312 71.6414 47.6425 71.6545 47.5606C71.6864 47.3596 71.6649 47.1499 71.6649 46.944H66.8442C66.9031 47.3567 66.9611 47.7633 67.0223 48.1935ZM16.4915 40.6654C16.5055 40.6654 16.5203 40.6686 16.533 40.6648C16.8006 40.587 17.0684 40.5106 17.3342 40.4277C17.3754 40.4149 17.4171 40.3778 17.4415 40.3405C17.7894 39.8042 18.1353 39.266 18.4783 38.7265C18.4966 38.6976 18.5047 38.6372 18.4873 38.6139C18.3422 38.4173 18.1901 38.226 18.0404 38.0335C17.1192 38.7644 16.542 39.9523 16.4915 40.6651V40.6654ZM68.9023 41.6819C69.0352 41.97 69.1524 42.2118 69.1173 42.4895C69.1034 42.6 69.1594 42.6391 69.2563 42.6685C69.74 42.817 70.2214 42.9722 70.7036 43.1247C70.8205 43.1617 70.9378 43.1973 71.0678 43.2373C71.104 42.9888 71.14 42.7601 71.1684 42.5306C71.1722 42.5014 71.1441 42.4597 71.1191 42.4367C70.9665 42.2938 70.8026 42.1721 70.5904 42.1255C70.4262 42.0893 70.2672 42.0295 70.1041 41.9869C69.7188 41.8866 69.3323 41.7907 68.9023 41.6819Z" fill="#00B543"/>
<path d="M39.1429 40.2694C38.7712 40.2694 38.3995 40.2688 38.0278 40.2694C37.8641 40.2697 37.7458 40.1504 37.7481 39.9842C37.7504 39.8307 37.8769 39.7077 38.0278 39.71C38.4764 39.717 38.9253 39.7246 39.3739 39.729C39.6687 39.7319 39.9632 39.7284 40.258 39.7301C40.4361 39.7313 40.5368 39.8281 40.5368 39.992C40.5368 40.1527 40.4303 40.2563 40.2591 40.2569C39.8872 40.2583 39.5152 40.2571 39.1432 40.2571C39.1432 40.2612 39.1432 40.2653 39.1432 40.2694H39.1429Z" fill="#00B543"/>
<path d="M61.7138 51.3209C60.7302 51.3031 59.9569 50.9651 59.3447 50.2718C59.1743 50.0787 59.2391 49.8343 59.4741 49.8142C59.562 49.8066 59.6807 49.8673 59.7457 49.9352C60.0309 50.2342 60.3518 50.4728 60.7366 50.6273C62.067 51.1617 63.5993 50.4039 64.0209 49.0238C64.4393 47.6544 63.6077 46.0372 61.9585 45.8111C61.0595 45.6881 60.297 46.0141 59.7053 46.7159C59.4831 46.9795 59.3458 47.2872 59.2402 47.6136C59.1677 47.8376 58.9654 47.9024 58.8 47.7664C58.7005 47.6848 58.6912 47.5815 58.724 47.464C58.8778 46.913 59.1508 46.4318 59.5751 46.0497C60.3135 45.385 61.1785 45.1158 62.1613 45.2751C63.4508 45.4839 64.4762 46.5563 64.6456 47.8577C64.8569 49.4805 63.7987 50.9584 62.1958 51.2716C62.0168 51.3066 61.8314 51.3098 61.7136 51.3215L61.7138 51.3209Z" fill="#00B543"/>
<path d="M59.2597 49.004C59.2658 49.1271 59.1799 49.2519 59.0615 49.2849C58.9602 49.3132 58.796 49.2438 58.7687 49.1271C58.7162 48.9031 58.6788 48.6738 58.6608 48.4446C58.6506 48.3142 58.7696 48.2224 58.8964 48.2189C59.0362 48.2151 59.161 48.3101 59.1845 48.4522C59.2144 48.6333 59.2344 48.8159 59.2597 49.0043V49.004Z" fill="#00B543"/>
<path d="M28.2377 48.0067C28.2667 48.9427 28.0413 49.6322 27.5503 50.2304C27.3936 50.4211 27.1699 50.4039 27.0675 50.2C27.006 50.0772 27.066 49.9813 27.1273 49.8769C27.2755 49.6234 27.4488 49.377 27.55 49.1045C28.0308 47.8087 27.2651 46.2921 25.9495 45.9001C24.4354 45.4489 22.9321 46.4108 22.7304 47.9919C22.5659 49.2825 23.4088 50.4969 24.7392 50.7553C25.1965 50.844 25.6532 50.7962 26.0931 50.6296C26.1517 50.6075 26.2112 50.5859 26.2721 50.5719C26.4178 50.5383 26.5321 50.5958 26.5794 50.7212C26.6299 50.8551 26.5913 51.0003 26.4535 51.052C26.1883 51.1514 25.9187 51.2605 25.6413 51.3025C24.8524 51.4221 24.1203 51.227 23.4747 50.7682C22.7595 50.2598 22.346 49.5552 22.2195 48.6746C22.039 47.4202 22.747 46.1211 23.8345 45.5746C24.3803 45.3001 24.9525 45.1934 25.5615 45.2666C26.5083 45.3803 27.2419 45.8388 27.7645 46.633C28.0691 47.0956 28.2281 47.6109 28.2374 48.007L28.2377 48.0067Z" fill="#00B543"/>
</g>
<defs>
<clipPath id="clip0_1311_3159">
<rect width="58.7432" height="21.7095" fill="white" transform="translate(14 32)"/>
</clipPath>
</defs>
</svg>
