<svg width="88" height="119" viewBox="0 0 88 119" fill="none" xmlns="http://www.w3.org/2000/svg">
<rect x="1.5" y="0.5" width="85" height="85" rx="9.5" stroke="#00B543"/>
<path d="M10.7727 107H9.36364C9.2803 106.595 9.13447 106.239 8.92614 105.932C8.72159 105.625 8.47159 105.367 8.17614 105.159C7.88447 104.947 7.56061 104.788 7.20455 104.682C6.84849 104.576 6.47727 104.523 6.09091 104.523C5.38636 104.523 4.74811 104.701 4.17614 105.057C3.60795 105.413 3.1553 105.938 2.81818 106.631C2.48485 107.324 2.31818 108.174 2.31818 109.182C2.31818 110.189 2.48485 111.04 2.81818 111.733C3.1553 112.426 3.60795 112.951 4.17614 113.307C4.74811 113.663 5.38636 113.841 6.09091 113.841C6.47727 113.841 6.84849 113.788 7.20455 113.682C7.56061 113.576 7.88447 113.419 8.17614 113.21C8.47159 112.998 8.72159 112.739 8.92614 112.432C9.13447 112.121 9.2803 111.765 9.36364 111.364H10.7727C10.6667 111.958 10.4735 112.491 10.1932 112.96C9.91288 113.43 9.56439 113.83 9.14773 114.159C8.73106 114.485 8.26326 114.733 7.74432 114.903C7.22917 115.074 6.67803 115.159 6.09091 115.159C5.09849 115.159 4.21591 114.917 3.44318 114.432C2.67045 113.947 2.0625 113.258 1.61932 112.364C1.17614 111.47 0.954545 110.409 0.954545 109.182C0.954545 107.955 1.17614 106.894 1.61932 106C2.0625 105.106 2.67045 104.417 3.44318 103.932C4.21591 103.447 5.09849 103.205 6.09091 103.205C6.67803 103.205 7.22917 103.29 7.74432 103.46C8.26326 103.631 8.73106 103.881 9.14773 104.21C9.56439 104.536 9.91288 104.934 10.1932 105.403C10.4735 105.869 10.6667 106.402 10.7727 107ZM16.4134 115.182C15.6255 115.182 14.9342 114.994 14.3395 114.619C13.7486 114.244 13.2865 113.72 12.9531 113.045C12.6236 112.371 12.4588 111.583 12.4588 110.682C12.4588 109.773 12.6236 108.979 12.9531 108.301C13.2865 107.623 13.7486 107.097 14.3395 106.722C14.9342 106.347 15.6255 106.159 16.4134 106.159C17.2012 106.159 17.8906 106.347 18.4815 106.722C19.0762 107.097 19.5384 107.623 19.8679 108.301C20.2012 108.979 20.3679 109.773 20.3679 110.682C20.3679 111.583 20.2012 112.371 19.8679 113.045C19.5384 113.72 19.0762 114.244 18.4815 114.619C17.8906 114.994 17.2012 115.182 16.4134 115.182ZM16.4134 113.977C17.0118 113.977 17.5043 113.824 17.8906 113.517C18.277 113.21 18.563 112.807 18.7486 112.307C18.9342 111.807 19.027 111.265 19.027 110.682C19.027 110.098 18.9342 109.555 18.7486 109.051C18.563 108.547 18.277 108.14 17.8906 107.83C17.5043 107.519 17.0118 107.364 16.4134 107.364C15.8149 107.364 15.3224 107.519 14.9361 107.83C14.5497 108.14 14.2637 108.547 14.0781 109.051C13.8925 109.555 13.7997 110.098 13.7997 110.682C13.7997 111.265 13.8925 111.807 14.0781 112.307C14.2637 112.807 14.5497 113.21 14.9361 113.517C15.3224 113.824 15.8149 113.977 16.4134 113.977ZM23.7557 109.75V115H22.4148V106.273H23.7102V107.636H23.8239C24.0284 107.193 24.339 106.837 24.7557 106.568C25.1723 106.295 25.7102 106.159 26.3693 106.159C26.9602 106.159 27.4773 106.28 27.9205 106.523C28.3636 106.761 28.7083 107.125 28.9545 107.614C29.2008 108.098 29.3239 108.712 29.3239 109.455V115H27.983V109.545C27.983 108.86 27.8049 108.326 27.4489 107.943C27.0928 107.557 26.6042 107.364 25.983 107.364C25.5549 107.364 25.1723 107.456 24.8352 107.642C24.5019 107.828 24.2386 108.098 24.0455 108.455C23.8523 108.811 23.7557 109.242 23.7557 109.75ZM38.598 106.273L35.3707 115H34.0071L30.7798 106.273H32.2344L34.6435 113.227H34.7344L37.1435 106.273H38.598ZM43.7145 115.182C42.8736 115.182 42.1482 114.996 41.5384 114.625C40.9323 114.25 40.4645 113.727 40.1349 113.057C39.8092 112.383 39.6463 111.598 39.6463 110.705C39.6463 109.811 39.8092 109.023 40.1349 108.341C40.4645 107.655 40.9228 107.121 41.5099 106.739C42.1009 106.352 42.7902 106.159 43.5781 106.159C44.0327 106.159 44.4815 106.235 44.9247 106.386C45.3679 106.538 45.7713 106.784 46.1349 107.125C46.4986 107.462 46.7884 107.909 47.0043 108.466C47.2202 109.023 47.3281 109.708 47.3281 110.523V111.091H40.6009V109.932H45.9645C45.9645 109.439 45.866 109 45.669 108.614C45.4759 108.227 45.1993 107.922 44.8395 107.699C44.4834 107.475 44.063 107.364 43.5781 107.364C43.044 107.364 42.5819 107.496 42.1918 107.761C41.8054 108.023 41.508 108.364 41.2997 108.784C41.0914 109.205 40.9872 109.655 40.9872 110.136V110.909C40.9872 111.568 41.1009 112.127 41.3281 112.585C41.5592 113.04 41.8793 113.386 42.2884 113.625C42.6974 113.86 43.1728 113.977 43.7145 113.977C44.0668 113.977 44.3849 113.928 44.669 113.83C44.9569 113.727 45.205 113.576 45.4134 113.375C45.6217 113.17 45.7827 112.917 45.8963 112.614L47.1918 112.977C47.0554 113.417 46.8262 113.803 46.5043 114.136C46.1823 114.466 45.7846 114.723 45.3111 114.909C44.8376 115.091 44.3054 115.182 43.7145 115.182ZM49.3679 115V106.273H50.6634V107.591H50.7543C50.9134 107.159 51.2012 106.809 51.6179 106.54C52.0346 106.271 52.5043 106.136 53.027 106.136C53.1255 106.136 53.2486 106.138 53.3963 106.142C53.544 106.146 53.6558 106.152 53.7315 106.159V107.523C53.6861 107.511 53.5819 107.494 53.419 107.472C53.2599 107.445 53.0914 107.432 52.9134 107.432C52.4891 107.432 52.1103 107.521 51.777 107.699C51.4474 107.873 51.1861 108.116 50.9929 108.426C50.8035 108.733 50.7088 109.083 50.7088 109.477V115H49.3679ZM59.6634 106.273V107.409H55.1406V106.273H59.6634ZM56.4588 104.182H57.7997V112.5C57.7997 112.879 57.8546 113.163 57.9645 113.352C58.0781 113.538 58.2221 113.663 58.3963 113.727C58.5743 113.788 58.7618 113.818 58.9588 113.818C59.1065 113.818 59.2277 113.811 59.3224 113.795C59.4171 113.777 59.4929 113.761 59.5497 113.75L59.8224 114.955C59.7315 114.989 59.6046 115.023 59.4418 115.057C59.2789 115.095 59.0724 115.114 58.8224 115.114C58.4437 115.114 58.0724 115.032 57.7088 114.869C57.349 114.706 57.0497 114.458 56.8111 114.125C56.5762 113.792 56.4588 113.371 56.4588 112.864V104.182ZM61.6804 115V106.273H63.0213V115H61.6804ZM62.3622 104.818C62.1009 104.818 61.8755 104.729 61.6861 104.551C61.5005 104.373 61.4077 104.159 61.4077 103.909C61.4077 103.659 61.5005 103.445 61.6861 103.267C61.8755 103.089 62.1009 103 62.3622 103C62.6236 103 62.8471 103.089 63.0327 103.267C63.2221 103.445 63.3168 103.659 63.3168 103.909C63.3168 104.159 63.2221 104.373 63.0327 104.551C62.8471 104.729 62.6236 104.818 62.3622 104.818ZM65.6591 115V103.364H67V107.659H67.1136C67.2121 107.508 67.3485 107.314 67.5227 107.08C67.7008 106.841 67.9545 106.629 68.2841 106.443C68.6174 106.254 69.0682 106.159 69.6364 106.159C70.3712 106.159 71.0189 106.343 71.5795 106.71C72.1402 107.078 72.5777 107.598 72.892 108.273C73.2064 108.947 73.3636 109.742 73.3636 110.659C73.3636 111.583 73.2064 112.384 72.892 113.062C72.5777 113.737 72.142 114.259 71.5852 114.631C71.0284 114.998 70.3864 115.182 69.6591 115.182C69.0985 115.182 68.6496 115.089 68.3125 114.903C67.9754 114.714 67.7159 114.5 67.5341 114.261C67.3523 114.019 67.2121 113.818 67.1136 113.659H66.9545V115H65.6591ZM66.9773 110.636C66.9773 111.295 67.0739 111.877 67.267 112.381C67.4602 112.881 67.7424 113.273 68.1136 113.557C68.4848 113.837 68.9394 113.977 69.4773 113.977C70.0379 113.977 70.5057 113.83 70.8807 113.534C71.2595 113.235 71.5436 112.833 71.733 112.33C71.9261 111.822 72.0227 111.258 72.0227 110.636C72.0227 110.023 71.928 109.47 71.7386 108.977C71.553 108.481 71.2708 108.089 70.892 107.801C70.517 107.509 70.0455 107.364 69.4773 107.364C68.9318 107.364 68.4735 107.502 68.1023 107.778C67.7311 108.051 67.4508 108.434 67.2614 108.926C67.072 109.415 66.9773 109.985 66.9773 110.636ZM76.7557 103.364V115H75.4148V103.364H76.7557ZM82.8707 115.182C82.0298 115.182 81.3045 114.996 80.6946 114.625C80.0885 114.25 79.6207 113.727 79.2912 113.057C78.9654 112.383 78.8026 111.598 78.8026 110.705C78.8026 109.811 78.9654 109.023 79.2912 108.341C79.6207 107.655 80.0791 107.121 80.6662 106.739C81.2571 106.352 81.9465 106.159 82.7344 106.159C83.1889 106.159 83.6378 106.235 84.081 106.386C84.5241 106.538 84.9276 106.784 85.2912 107.125C85.6548 107.462 85.9446 107.909 86.1605 108.466C86.3764 109.023 86.4844 109.708 86.4844 110.523V111.091H79.7571V109.932H85.1207C85.1207 109.439 85.0223 109 84.8253 108.614C84.6321 108.227 84.3556 107.922 83.9957 107.699C83.6397 107.475 83.2192 107.364 82.7344 107.364C82.2003 107.364 81.7382 107.496 81.348 107.761C80.9616 108.023 80.6643 108.364 80.456 108.784C80.2476 109.205 80.1435 109.655 80.1435 110.136V110.909C80.1435 111.568 80.2571 112.127 80.4844 112.585C80.7154 113.04 81.0355 113.386 81.4446 113.625C81.8537 113.86 82.3291 113.977 82.8707 113.977C83.223 113.977 83.5412 113.928 83.8253 113.83C84.1132 113.727 84.3613 113.576 84.5696 113.375C84.7779 113.17 84.9389 112.917 85.0526 112.614L86.348 112.977C86.2116 113.417 85.9825 113.803 85.6605 114.136C85.3385 114.466 84.9408 114.723 84.4673 114.909C83.9938 115.091 83.4616 115.182 82.8707 115.182Z" fill="#00B543"/>
<g clip-path="url(#clip0_1306_5633)">
<path d="M31.7629 40.0779C31.8493 39.662 31.9231 39.2607 32.0174 38.8644C32.1785 38.1893 32.3481 37.5163 32.5227 36.8447C32.6339 36.4171 33.1751 36.1173 33.6305 36.2522C33.8438 36.3153 34.0558 36.3463 34.2726 36.3783C34.7098 36.4431 35.0156 36.6953 35.1961 37.0945C35.3893 37.5222 35.417 37.9815 35.4058 38.4412C35.3955 38.8644 35.3619 39.2873 35.3383 39.7103C35.3377 39.72 35.3306 39.7328 35.3345 39.739C35.4619 39.9385 35.5843 40.1421 35.7232 40.3333C35.7536 40.375 35.8438 40.3868 35.9073 40.3883C36.8163 40.4076 37.7256 40.4227 38.635 40.4389C40.2174 40.4676 41.8001 40.4963 43.3825 40.5251C43.4456 40.5262 43.5087 40.5251 43.5751 40.5251C43.581 40.4792 43.5857 40.4454 43.5895 40.4117C43.6311 40.0681 43.845 39.8769 44.1942 39.8748C44.4877 39.873 44.7811 39.8745 45.1203 39.8745C45.0372 39.805 44.9879 39.7618 44.9363 39.7212C43.9603 38.9485 42.9828 38.1775 42.0083 37.4032C41.509 37.0066 41.2981 36.5017 41.4541 35.8651C41.552 35.4653 41.9682 35.0941 42.374 35.0231C42.7082 34.9648 43.0173 35.0166 43.3102 35.182C45.0428 36.1602 46.7765 37.1357 48.5067 38.118C49.4679 38.6637 50.4283 39.2116 51.3777 39.7777C51.6036 39.9124 51.8358 39.9109 52.0705 39.9269C53.3645 40.0151 54.659 40.0929 55.9533 40.1761C57.3162 40.2637 58.6789 40.3525 60.0416 40.4425C60.6787 40.4845 61.3178 40.5097 61.952 40.5795C62.8554 40.679 63.7344 40.9104 64.6089 41.1525C66.55 41.6894 68.4288 42.389 70.2112 43.3346C71.3718 43.9502 72.4466 44.686 73.3899 45.6124C73.8131 46.0282 73.817 46.4414 73.604 46.9294C73.6019 46.9338 73.6008 46.9392 73.5975 46.9427C73.3486 47.2192 73.4014 47.5483 73.427 47.8768C73.4869 48.6401 73.4674 49.4028 73.4052 50.1658C73.3654 50.6538 73.2126 51.1081 73.0339 51.5571C72.9466 51.7761 72.7764 51.8909 72.5504 51.9134C72.1009 51.9584 71.6508 51.9981 71.2004 52.0312C70.9164 52.0522 70.6312 52.0706 70.3466 52.0673C69.6065 52.059 68.8665 52.0366 68.1262 52.0274C68.0843 52.0268 68.0194 52.0836 68.0023 52.128C67.702 52.9061 67.2387 53.5702 66.6202 54.1246C65.8559 54.8094 64.9643 55.2333 63.9506 55.3759C62.4693 55.5843 61.1326 55.2199 59.9599 54.2877C59.3588 53.8097 58.8877 53.2186 58.5648 52.5172C58.5087 52.3953 58.4412 52.3586 58.3093 52.3586C50.2622 52.3621 42.2151 52.3612 34.1679 52.3633C33.9028 52.3633 33.6819 52.3 33.558 52.0416C33.4028 51.7178 33.5993 51.3304 33.9523 51.2709C34.0438 51.2555 34.1378 51.2511 34.2308 51.2511C42.1157 51.2502 50.0006 51.2502 57.8855 51.2502H58.1164C58.0825 50.8669 58.0501 50.4981 58.0167 50.1208H31.9416C31.9166 50.4073 31.9009 50.6867 31.8658 50.9637C31.7352 51.996 31.3116 52.8987 30.63 53.6765C29.7891 54.6363 28.732 55.2099 27.4699 55.3809C26.1441 55.5609 24.9242 55.2711 23.8214 54.5031C22.8855 53.8511 22.2466 52.9753 21.8785 51.8989C21.8352 51.7717 21.7717 51.7264 21.644 51.7054C20.2932 51.484 18.9588 51.1821 17.6398 50.8172C17.4189 50.7562 17.2148 50.615 17.0183 50.4872C16.5089 50.1554 16.0583 49.7529 15.6486 49.3033C15.4911 49.1305 15.4459 48.9168 15.448 48.6999C15.4557 47.9005 15.2592 47.128 15.1663 46.3419C15.0858 45.6574 15.0309 44.9684 15.0012 44.2799C14.9858 43.9224 15.1247 43.5794 15.3097 43.2751C15.4589 43.0292 15.625 42.7779 15.8373 42.5906C16.1116 42.3485 16.2196 42.0564 16.2674 41.7172C16.3063 41.4402 16.3217 41.1546 16.4036 40.8903C16.5355 40.4667 16.8467 40.2152 17.287 40.1382C18.5137 39.9237 19.7381 39.6931 20.9686 39.5034C21.7246 39.3868 22.4894 39.3258 23.2518 39.2551C23.7305 39.2107 24.2136 39.153 24.6912 39.1755C25.7058 39.2234 26.7192 39.3095 27.7315 39.3989C28.9553 39.5069 30.1483 39.8059 31.3571 40.0077C31.4871 40.0293 31.6169 40.0524 31.7632 40.0779H31.7629ZM21.7629 48.9248C21.7788 48.8987 21.7897 48.8875 21.7936 48.8739C22.0325 48.0742 22.4139 47.3559 22.9843 46.7412C23.5158 46.1682 24.144 45.737 24.8652 45.449C25.707 45.1128 26.5794 45.0113 27.4808 45.14C28.2784 45.2543 29.0137 45.5295 29.672 45.9874C30.8633 46.8163 31.5845 47.9594 31.8408 49.3906C31.8711 49.5611 31.9293 49.596 32.0903 49.596C38.2934 49.5916 44.4965 49.5925 50.6996 49.5925C50.7241 49.5925 50.7492 49.5898 50.7734 49.5928C50.8769 49.6061 50.9208 49.5712 50.9267 49.4572C50.9376 49.2462 50.9686 49.0361 50.9907 48.8253C51.0757 48.0123 51.1692 47.1999 51.2426 46.3857C51.3102 45.6352 51.3576 44.8825 51.411 44.1305C51.4721 43.271 51.273 42.4796 50.7908 41.7622C50.738 41.6835 50.6825 41.6506 50.5878 41.6515C49.4331 41.661 48.2784 41.6713 47.1236 41.6692C46.9254 41.669 46.7729 41.7024 46.678 41.8897C46.6591 41.927 46.6193 41.9557 46.5851 41.9833C46.3314 42.1869 46.0521 42.286 45.7173 42.2724C45.202 42.2514 44.6853 42.2686 44.1691 42.2659C43.8945 42.2647 43.6521 42.094 43.6155 41.8492C43.5934 41.7006 43.5255 41.6852 43.4017 41.6843C42.3941 41.6761 41.3863 41.674 40.3793 41.6473C38.0902 41.5867 35.8011 41.5148 33.5123 41.444C33.0005 41.4283 32.9846 41.4313 32.7239 41.8818C32.5958 42.1028 32.492 42.3328 32.5451 42.5962C32.6354 43.0443 32.7073 43.4986 32.8348 43.936C33.2276 45.2833 33.8464 46.5177 34.7275 47.6146C34.7797 47.6797 34.8502 47.7445 34.867 47.82C34.8876 47.9114 34.8938 48.0393 34.8443 48.1041C34.7956 48.1677 34.6564 48.2151 34.5812 48.1914C34.4753 48.1582 34.3741 48.0674 34.301 47.9768C33.3258 46.7699 32.6348 45.415 32.2404 43.9124C32.1272 43.4802 32.0378 43.0402 31.9673 42.5989C31.9095 42.2366 32.0564 41.9125 32.2416 41.6086C32.2968 41.518 32.3558 41.4295 32.4218 41.3265C32.3038 41.3085 32.2071 41.296 32.1109 41.2786C30.6831 41.022 29.2582 40.7458 27.8259 40.5159C27.1295 40.404 26.4205 40.3667 25.7155 40.3164C24.9755 40.2637 24.2349 40.2525 23.4946 40.341C22.7197 40.4336 21.9402 40.4884 21.1674 40.594C20.2542 40.7189 19.3458 40.8787 18.4362 41.0276C18.1082 41.0812 17.7822 41.1472 17.4549 41.2078C17.4404 41.4124 17.4271 41.6024 17.4136 41.7971C17.4516 41.8084 17.4835 41.8211 17.5165 41.8267C18.3164 41.9649 19.0741 42.2224 19.7791 42.6305C20.0082 42.7631 20.0133 42.994 19.7882 43.1417C19.6033 43.263 19.4142 43.3787 19.2343 43.5072C19.075 43.6205 18.9028 43.6605 18.7108 43.6593C17.9834 43.6555 17.2558 43.6569 16.5284 43.6593C16.4738 43.6593 16.3957 43.6655 16.3688 43.7001C16.2107 43.905 16.0771 44.1376 16.0754 44.3957C16.0727 44.7342 16.1125 45.0746 16.1565 45.4114C16.2432 46.0747 16.3464 46.7358 16.4408 47.3982C16.4538 47.4891 16.4874 47.5421 16.5821 47.5764C18.2645 48.1905 19.9902 48.635 21.7635 48.9242L21.7629 48.9248ZM58.0787 49.5845C58.1008 49.456 58.1161 49.3442 58.1394 49.2338C58.2689 48.6158 58.5019 48.0405 58.8344 47.5036C59.4257 46.5494 60.2542 45.8778 61.2821 45.4564C62.126 45.1104 63.0044 45.0107 63.911 45.14C64.8794 45.2785 65.7442 45.6571 66.491 46.2801C67.4761 47.102 68.0728 48.1609 68.2775 49.4327C68.2999 49.5724 68.3492 49.5957 68.4713 49.5946C69.1544 49.5875 69.8372 49.5866 70.5203 49.5842C70.6415 49.5839 70.7418 49.6259 70.7978 49.7414C70.8503 49.8491 70.8406 49.9542 70.7633 50.045C70.6825 50.14 70.5811 50.1687 70.4586 50.1252C70.4141 50.1095 70.3622 50.1128 70.3135 50.1128C69.7139 50.1122 69.1143 50.1122 68.5146 50.1122C68.4627 50.1122 68.4108 50.1122 68.3409 50.1122V50.895C68.5503 50.9101 68.7656 50.937 68.9806 50.9391C69.6192 50.945 70.2581 50.9513 70.8964 50.9376C71.2739 50.9297 71.6508 50.8864 72.0275 50.8536C72.0608 50.8506 72.1104 50.8145 72.1189 50.784C72.1773 50.5757 72.2528 50.3676 72.2744 50.1548C72.3664 49.2397 72.354 48.3237 72.2534 47.4098C72.2222 47.125 72.2351 46.8596 72.4599 46.6438C72.5183 46.5879 72.551 46.505 72.6156 46.4029C72.254 46.0983 71.8951 45.7935 71.5314 45.4949C71.5066 45.4747 71.4411 45.4892 71.4013 45.5052C71.1373 45.6103 70.8816 45.7429 70.6108 45.8234C70.1879 45.9492 69.7776 46.0726 69.3393 45.7722C68.7954 45.3996 68.2442 45.0418 67.7475 44.6055C67.6599 44.5286 67.6153 44.4344 67.6422 44.3169C67.6681 44.2027 67.7486 44.1468 67.8592 44.1237C68.1132 44.0701 68.3666 44.0136 68.6205 43.9594C68.6922 43.944 68.7644 43.9328 68.8765 43.9121C68.7916 43.8694 68.7485 43.8469 68.7049 43.8262C67.1419 43.0878 65.5156 42.5293 63.8464 42.0889C62.7569 41.8012 61.6556 41.6006 60.5274 41.5509C59.9289 41.5245 59.3319 41.4707 58.7341 41.4307C57.8814 41.3736 57.0287 41.3162 56.176 41.2614C55.5778 41.2229 54.9796 41.1883 54.3815 41.1534C54.1762 41.1412 53.9706 41.1336 53.765 41.1238C53.9243 41.2469 54.0898 41.3416 54.2541 41.4384C54.4142 41.5328 54.5263 41.6627 54.5481 41.8557C54.5723 42.0682 54.5107 42.2484 54.3343 42.3742C54.1461 42.5086 53.9405 42.5237 53.7367 42.4148C53.4813 42.278 53.2179 42.1499 52.9819 41.9839C52.5985 41.7145 52.1876 41.5961 51.7234 41.6515C51.6207 41.6636 51.5152 41.6533 51.3925 41.6533C51.4181 41.7059 51.4278 41.7278 51.4393 41.7492C51.8269 42.463 52.0098 43.2257 51.9599 44.0373C51.9074 44.8929 51.8496 45.7482 51.7756 46.6021C51.7107 47.3526 51.6204 48.1008 51.5417 48.8502C51.516 49.0926 51.4913 49.335 51.4653 49.5845H58.0793H58.0787ZM63.1943 54.3238C65.4061 54.306 67.2475 52.569 67.2428 50.2584C67.2384 48.0523 65.5129 46.2265 63.1276 46.2073C60.9444 46.1895 59.1364 48.0505 59.1485 50.2717C59.1609 52.5332 60.9707 54.3128 63.1943 54.3241V54.3238ZM26.7573 54.3238C28.9936 54.3226 30.8146 52.503 30.8108 50.2628C30.807 48.1186 29.1328 46.2244 26.7013 46.2087C24.5381 46.1948 22.7153 48.0067 22.7168 50.2504C22.7182 52.5015 24.531 54.3246 26.7576 54.3235L26.7573 54.3238ZM50.4241 40.5464C50.4271 40.5369 50.4303 40.5277 50.4333 40.5182C50.3881 40.4907 50.3436 40.4617 50.2976 40.4354C48.6462 39.4913 46.9944 38.5474 45.3427 37.6036C44.5189 37.133 43.6954 36.6621 42.8713 36.1919C42.7495 36.1223 42.6256 36.0658 42.464 36.1871C42.5354 36.2874 42.5879 36.4035 42.6758 36.4775C42.9996 36.7492 43.3353 37.0069 43.6662 37.27C45.0251 38.3503 46.3836 39.4309 47.743 40.5103C47.7666 40.5292 47.8011 40.5446 47.8303 40.5446C48.6948 40.5464 49.5596 40.5461 50.4241 40.5461V40.5464ZM16.5343 48.1408C16.5343 48.3195 16.5317 48.4752 16.5367 48.6306C16.5376 48.6593 16.5656 48.6933 16.5901 48.7141C16.9278 48.9985 17.2596 49.2906 17.6094 49.559C17.7578 49.673 17.9362 49.7721 18.1158 49.8159C18.9727 50.0237 19.8339 50.2134 20.6952 50.4017C20.9946 50.4671 21.2989 50.5097 21.5986 50.5624C21.6163 50.1933 21.6334 49.8426 21.6505 49.4848C19.9091 49.1968 18.2129 48.7443 16.5337 48.1408H16.5343ZM33.6568 40.3324C33.642 39.4202 33.5801 38.5477 33.4686 37.6794C33.4533 37.6785 33.4379 37.6776 33.4226 37.677C33.2382 38.5303 33.0539 39.3832 32.8642 40.2619C33.1318 40.2856 33.3831 40.3081 33.6568 40.3324V40.3324ZM71.0002 45.0947C70.6719 44.895 70.3684 44.7236 70.0793 44.5306C69.8142 44.3536 69.5352 44.4475 69.2667 44.4309C69.2667 44.5442 69.2626 44.6378 69.2673 44.731C69.2865 45.1054 69.2898 45.1021 69.6059 45.3019C69.7452 45.3898 69.8717 45.4591 70.0522 45.4105C70.3631 45.3268 70.6796 45.2664 71.0002 45.0947V45.0947ZM18.4123 43.0964C18.4123 42.9561 18.4072 42.8336 18.414 42.7116C18.4187 42.624 18.3778 42.5873 18.3014 42.5693C18.0828 42.5175 17.8648 42.4621 17.646 42.4121C17.5318 42.3861 17.3906 42.318 17.3077 42.36C17.2215 42.4035 17.1903 42.5571 17.1363 42.6634C17.0646 42.8046 16.9938 42.946 16.9183 43.0967H18.4126L18.4123 43.0964Z" fill="#00B543"/>
<path d="M35.4602 43.068C35.1113 43.068 34.7627 43.0686 34.4137 43.068C34.2406 43.0677 34.1309 42.965 34.127 42.8034C34.1232 42.6379 34.2394 42.5199 34.4152 42.5196C35.1128 42.5181 35.8103 42.5184 36.5079 42.5196C36.6852 42.5196 36.8034 42.6338 36.8031 42.7978C36.8031 42.9629 36.6887 43.068 36.5061 43.0683C36.1572 43.0689 35.8086 43.0683 35.4596 43.0683L35.4602 43.068Z" fill="#00B543"/>
<path d="M60.293 50.2885C60.3024 50.1757 60.3062 50.0621 60.3231 49.9502C60.3481 49.7848 60.4478 49.6945 60.5823 49.7025C60.7295 49.7111 60.8257 49.8232 60.8327 49.994C60.8398 50.166 60.8374 50.3388 60.8551 50.5096C60.9566 51.4812 61.6438 52.2901 62.5762 52.5425C63.907 52.9027 65.2381 52.0705 65.513 50.7064C65.7997 49.2828 64.6464 47.8796 63.1994 47.9042C62.9714 47.908 62.7446 47.9687 62.5175 48.0051C62.3945 48.0247 62.2668 48.0235 62.2031 47.9057C62.1618 47.829 62.1355 47.7053 62.17 47.6364C62.209 47.5588 62.3157 47.4922 62.4057 47.4671C62.9977 47.3013 63.5873 47.3392 64.1518 47.5712C65.2228 48.0116 65.8487 48.8122 65.9935 49.9712C66.1831 51.4862 65.0886 52.9758 63.4787 53.1667C62.3417 53.3017 61.1893 52.6923 60.6549 51.6765C60.4101 51.2116 60.3033 50.7943 60.2933 50.2888L60.293 50.2885Z" fill="#00B543"/>
<path d="M29.1933 50.2942C29.1806 49.1595 28.3745 48.189 27.2384 47.9718C25.7212 47.6817 24.3128 48.9769 24.4803 50.5165C24.5045 50.739 24.5765 50.9568 24.6304 51.1756C24.6611 51.2999 24.6461 51.4112 24.5564 51.5044C24.4753 51.5887 24.3668 51.6071 24.2721 51.5556C24.2022 51.5177 24.134 51.4428 24.1042 51.3688C23.5076 49.8828 24.1824 48.2497 25.6557 47.6018C27.2065 46.9196 29.0972 47.7992 29.5573 49.4362C29.8714 50.5532 29.6175 51.5476 28.8005 52.373C27.8171 53.3666 26.148 53.4574 25.0475 52.5971C24.9449 52.5169 24.8702 52.4251 24.8956 52.2845C24.9286 52.1019 25.0959 52.0123 25.2634 52.0954C25.3504 52.1386 25.4274 52.2026 25.5082 52.2582C26.7724 53.1269 28.5863 52.508 29.0479 51.0424C29.1237 50.8015 29.1461 50.5437 29.1933 50.2936V50.2942Z" fill="#00B543"/>
</g>
<defs>
<clipPath id="clip0_1306_5633">
<rect width="58.7432" height="20.4324" fill="white" transform="translate(15 35)"/>
</clipPath>
</defs>
</svg>
