<svg width="86" height="119" viewBox="0 0 86 119" fill="none" xmlns="http://www.w3.org/2000/svg">
<rect x="0.5" y="0.5" width="85" height="85" rx="9.5" stroke="#00B543"/>
<path d="M26.7727 106.273C26.7045 105.697 26.428 105.25 25.9432 104.932C25.4583 104.614 24.8636 104.455 24.1591 104.455C23.6439 104.455 23.1932 104.538 22.8068 104.705C22.4242 104.871 22.125 105.1 21.9091 105.392C21.697 105.684 21.5909 106.015 21.5909 106.386C21.5909 106.697 21.6648 106.964 21.8125 107.188C21.964 107.407 22.1572 107.591 22.392 107.739C22.6269 107.883 22.8731 108.002 23.1307 108.097C23.3883 108.187 23.625 108.261 23.8409 108.318L25.0227 108.636C25.3258 108.716 25.6629 108.826 26.0341 108.966C26.4091 109.106 26.767 109.297 27.108 109.54C27.4527 109.778 27.7367 110.085 27.9602 110.46C28.1837 110.835 28.2955 111.295 28.2955 111.841C28.2955 112.47 28.1307 113.038 27.8011 113.545C27.4754 114.053 26.9981 114.456 26.3693 114.756C25.7443 115.055 24.9848 115.205 24.0909 115.205C23.2576 115.205 22.536 115.07 21.9261 114.801C21.3201 114.532 20.8428 114.157 20.4943 113.676C20.1496 113.195 19.9545 112.636 19.9091 112H21.3636C21.4015 112.439 21.5492 112.803 21.8068 113.091C22.0682 113.375 22.3977 113.587 22.7955 113.727C23.197 113.864 23.6288 113.932 24.0909 113.932C24.6288 113.932 25.1117 113.845 25.5398 113.67C25.9678 113.492 26.3068 113.246 26.5568 112.932C26.8068 112.614 26.9318 112.242 26.9318 111.818C26.9318 111.432 26.8239 111.117 26.608 110.875C26.392 110.633 26.108 110.436 25.7557 110.284C25.4034 110.133 25.0227 110 24.6136 109.886L23.1818 109.477C22.2727 109.216 21.553 108.843 21.0227 108.358C20.4924 107.873 20.2273 107.239 20.2273 106.455C20.2273 105.803 20.4034 105.235 20.7557 104.75C21.1117 104.261 21.589 103.883 22.1875 103.614C22.7898 103.341 23.4621 103.205 24.2045 103.205C24.9545 103.205 25.6212 103.339 26.2045 103.608C26.7879 103.873 27.25 104.237 27.5909 104.699C27.9356 105.161 28.1174 105.686 28.1364 106.273H26.7727ZM34.0895 115.182C33.2486 115.182 32.5232 114.996 31.9134 114.625C31.3073 114.25 30.8395 113.727 30.5099 113.057C30.1842 112.383 30.0213 111.598 30.0213 110.705C30.0213 109.811 30.1842 109.023 30.5099 108.341C30.8395 107.655 31.2978 107.121 31.8849 106.739C32.4759 106.352 33.1652 106.159 33.9531 106.159C34.4077 106.159 34.8565 106.235 35.2997 106.386C35.7429 106.538 36.1463 106.784 36.5099 107.125C36.8736 107.462 37.1634 107.909 37.3793 108.466C37.5952 109.023 37.7031 109.708 37.7031 110.523V111.091H30.9759V109.932H36.3395C36.3395 109.439 36.241 109 36.044 108.614C35.8509 108.227 35.5743 107.922 35.2145 107.699C34.8584 107.475 34.438 107.364 33.9531 107.364C33.419 107.364 32.9569 107.496 32.5668 107.761C32.1804 108.023 31.883 108.364 31.6747 108.784C31.4664 109.205 31.3622 109.655 31.3622 110.136V110.909C31.3622 111.568 31.4759 112.127 31.7031 112.585C31.9342 113.04 32.2543 113.386 32.6634 113.625C33.0724 113.86 33.5478 113.977 34.0895 113.977C34.4418 113.977 34.7599 113.928 35.044 113.83C35.3319 113.727 35.58 113.576 35.7884 113.375C35.9967 113.17 36.1577 112.917 36.2713 112.614L37.5668 112.977C37.4304 113.417 37.2012 113.803 36.8793 114.136C36.5573 114.466 36.1596 114.723 35.6861 114.909C35.2126 115.091 34.6804 115.182 34.0895 115.182ZM43.0384 115.182C42.3111 115.182 41.669 114.998 41.1122 114.631C40.5554 114.259 40.1198 113.737 39.8054 113.062C39.491 112.384 39.3338 111.583 39.3338 110.659C39.3338 109.742 39.491 108.947 39.8054 108.273C40.1198 107.598 40.5573 107.078 41.1179 106.71C41.6785 106.343 42.3262 106.159 43.0611 106.159C43.6293 106.159 44.0781 106.254 44.4077 106.443C44.741 106.629 44.9948 106.841 45.169 107.08C45.3471 107.314 45.4853 107.508 45.5838 107.659H45.6974V103.364H47.0384V115H45.7429V113.659H45.5838C45.4853 113.818 45.3452 114.019 45.1634 114.261C44.9815 114.5 44.7221 114.714 44.3849 114.903C44.0478 115.089 43.599 115.182 43.0384 115.182ZM43.2202 113.977C43.758 113.977 44.2126 113.837 44.5838 113.557C44.955 113.273 45.2372 112.881 45.4304 112.381C45.6236 111.877 45.7202 111.295 45.7202 110.636C45.7202 109.985 45.6255 109.415 45.4361 108.926C45.2467 108.434 44.9664 108.051 44.5952 107.778C44.224 107.502 43.7656 107.364 43.2202 107.364C42.652 107.364 42.1785 107.509 41.7997 107.801C41.4247 108.089 41.1425 108.481 40.9531 108.977C40.7675 109.47 40.6747 110.023 40.6747 110.636C40.6747 111.258 40.7694 111.822 40.9588 112.33C41.152 112.833 41.4361 113.235 41.8111 113.534C42.1899 113.83 42.6596 113.977 43.2202 113.977ZM52.2486 115.205C51.6955 115.205 51.1937 115.1 50.7429 114.892C50.2921 114.68 49.9342 114.375 49.669 113.977C49.4039 113.576 49.2713 113.091 49.2713 112.523C49.2713 112.023 49.3698 111.617 49.5668 111.307C49.7637 110.992 50.027 110.746 50.3565 110.568C50.6861 110.39 51.0497 110.258 51.4474 110.17C51.849 110.08 52.2524 110.008 52.6577 109.955C53.188 109.886 53.6179 109.835 53.9474 109.801C54.2808 109.763 54.5232 109.701 54.6747 109.614C54.83 109.527 54.9077 109.375 54.9077 109.159V109.114C54.9077 108.553 54.7543 108.117 54.4474 107.807C54.1444 107.496 53.6842 107.341 53.0668 107.341C52.4266 107.341 51.9247 107.481 51.5611 107.761C51.1974 108.042 50.9418 108.341 50.794 108.659L49.5213 108.205C49.7486 107.674 50.0516 107.261 50.4304 106.966C50.813 106.667 51.2296 106.458 51.6804 106.341C52.1349 106.22 52.5819 106.159 53.0213 106.159C53.3016 106.159 53.6236 106.193 53.9872 106.261C54.3546 106.326 54.7088 106.46 55.0497 106.665C55.3944 106.869 55.6804 107.178 55.9077 107.591C56.1349 108.004 56.2486 108.557 56.2486 109.25V115H54.9077V113.818H54.8395C54.7486 114.008 54.5971 114.21 54.3849 114.426C54.1728 114.642 53.8906 114.826 53.5384 114.977C53.1861 115.129 52.7562 115.205 52.2486 115.205ZM52.4531 114C52.9834 114 53.4304 113.896 53.794 113.688C54.1615 113.479 54.438 113.21 54.6236 112.881C54.813 112.551 54.9077 112.205 54.9077 111.841V110.614C54.8509 110.682 54.7259 110.744 54.5327 110.801C54.3433 110.854 54.1236 110.902 53.8736 110.943C53.6274 110.981 53.3868 111.015 53.152 111.045C52.9209 111.072 52.7334 111.095 52.5895 111.114C52.241 111.159 51.9152 111.233 51.6122 111.335C51.313 111.434 51.0705 111.583 50.8849 111.784C50.7031 111.981 50.6122 112.25 50.6122 112.591C50.6122 113.057 50.7846 113.409 51.1293 113.648C51.4777 113.883 51.919 114 52.4531 114ZM60.0369 109.75V115H58.696V106.273H59.9915V107.636H60.1051C60.3097 107.193 60.6203 106.837 61.0369 106.568C61.4536 106.295 61.9915 106.159 62.6506 106.159C63.2415 106.159 63.7585 106.28 64.2017 106.523C64.6449 106.761 64.9896 107.125 65.2358 107.614C65.482 108.098 65.6051 108.712 65.6051 109.455V115H64.2642V109.545C64.2642 108.86 64.0862 108.326 63.7301 107.943C63.3741 107.557 62.8854 107.364 62.2642 107.364C61.8362 107.364 61.4536 107.456 61.1165 107.642C60.7831 107.828 60.5199 108.098 60.3267 108.455C60.1335 108.811 60.0369 109.242 60.0369 109.75Z" fill="#00B543"/>
<g clip-path="url(#clip0_1311_3160)">
<path d="M55.0445 48.7133C55.0652 48.3108 55.0847 47.9259 55.1048 47.5335H32.2299C32.2453 47.7011 32.2603 47.8652 32.2755 48.0293C32.334 48.6583 32.2522 49.2744 32.0701 49.8738C31.7876 50.8034 31.3055 51.6115 30.5847 52.274C30.0226 52.7907 29.3859 53.1719 28.6672 53.4215C28.2768 53.5571 27.8744 53.6268 27.4652 53.6751C26.5144 53.7871 25.613 53.623 24.75 53.2162C23.7654 52.7519 23.0025 52.0436 22.4401 51.1123C22.2084 50.7286 22.0374 50.3189 21.9152 49.8888C21.8886 49.7952 21.8541 49.7526 21.7463 49.7379C20.8397 49.6138 19.9346 49.4788 19.0286 49.349C18.1268 49.2197 17.2257 49.085 16.3223 48.9675C15.473 48.8572 14.8834 48.3926 14.4905 47.6539C14.1417 46.9966 14.0089 46.2841 14.0035 45.5462C13.9977 44.7545 14.0055 43.9628 14 43.1711C13.9986 42.9583 14.0677 42.7931 14.2277 42.6537C14.444 42.4651 14.6482 42.2622 14.8644 42.0733C14.9588 41.991 14.9961 41.904 14.9955 41.7768C14.9906 40.6589 14.9927 39.541 14.9927 38.4228C14.9927 37.9737 15.1567 37.7961 15.6056 37.7388C16.7605 37.5911 17.914 37.4336 19.0696 37.2931C19.3366 37.2606 19.5775 37.1771 19.8147 37.0608C21.8596 36.0558 23.8993 35.0398 25.9537 34.0546C26.8669 33.6167 27.8354 33.313 28.8066 33.026C29.8967 32.7036 31.0041 32.4565 32.1263 32.2815C33.7459 32.0293 35.3758 31.9677 37.0123 32.0143C37.9003 32.0397 38.7888 32.0365 39.677 32.042C40.7671 32.0489 41.8527 32.124 42.9368 32.2369C44.7807 32.4286 46.5996 32.7583 48.3924 33.2287C48.6904 33.307 48.9846 33.4198 49.2614 33.5563C51.4038 34.6129 53.542 35.6786 55.6807 36.743C56.1381 36.9707 56.5976 37.195 57.0458 37.4403C57.3037 37.5813 57.5713 37.6527 57.8592 37.683C59.498 37.856 61.1147 38.1557 62.7102 38.5665C64.8125 39.1077 66.8583 39.8139 68.8312 40.7257C69.3383 40.96 69.8505 41.1883 70.3361 41.4627C70.538 41.5767 70.6894 41.7932 70.8411 41.9812C71.4388 42.7222 71.8515 43.5603 72.0767 44.485C72.1613 44.8325 72.1957 45.1921 72.2528 45.5462C72.2625 45.6075 72.2625 45.6714 72.28 45.7301C72.3735 46.0463 72.2711 46.3488 72.2063 46.6488C71.9906 47.6475 71.5825 48.5642 71.0261 49.4207C70.852 49.6887 70.6249 49.79 70.3335 49.7906C68.7658 49.7935 67.1978 49.7932 65.6302 49.7894C65.5089 49.7892 65.4526 49.8133 65.4116 49.9438C65.1555 50.7619 64.7336 51.488 64.1293 52.0943C63.2913 52.9353 62.2918 53.4673 61.1081 53.6374C60.3713 53.7434 59.6443 53.7344 58.9253 53.5243C58.167 53.3029 57.4867 52.941 56.8881 52.4199C56.1393 51.7687 55.6288 50.9635 55.311 50.0278C55.2304 49.7906 55.2269 49.7917 54.9705 49.7917C48.2215 49.7917 41.4721 49.7917 34.723 49.7917C34.5601 49.7917 34.3981 49.7923 34.2601 49.6806C34.0829 49.537 34.0115 49.319 34.0763 49.1025C34.1417 48.8846 34.3324 48.7297 34.5564 48.7147C34.6135 48.711 34.6711 48.7127 34.7285 48.7127C41.4394 48.7127 48.1503 48.7127 54.8613 48.7127H55.0448L55.0445 48.7133ZM39.5588 34.1033C40.0212 34.1275 40.4603 34.1442 40.8985 34.175C41.5272 34.2193 42.1567 34.2585 42.7828 34.3287C43.4413 34.4024 44.0967 34.5072 44.7523 34.6039C45.9001 34.7735 47.0338 35.0188 48.1458 35.3432C48.6967 35.5039 49.2193 35.7667 49.7478 35.9991C51.8232 36.9108 53.8098 37.9985 55.798 39.0833C56.0736 39.2335 56.1642 39.5448 56.0225 39.8108C55.9113 40.0198 55.6939 40.1928 55.3348 40.0094C54.9568 39.8162 54.5727 39.6349 54.189 39.4529C54.1311 39.4256 54.0622 39.4094 53.9983 39.4092C53.3386 39.406 52.679 39.4083 52.0193 39.406C51.9407 39.406 51.8954 39.4267 51.849 39.4984C51.6565 39.7947 51.3832 39.9939 51.0293 40.0103C50.4382 40.0379 49.8453 40.0425 49.2537 40.0342C48.9431 40.0299 48.7678 39.8355 48.7317 39.5281C48.7274 39.4906 48.7196 39.4538 48.7133 39.4164H40.4293C40.4789 39.7627 40.5288 40.0987 40.5747 40.4355C40.6771 41.1898 40.7818 41.9438 40.8764 42.6989C40.9564 43.3357 41.0264 43.9737 41.0958 44.612C41.1325 44.9502 41.1647 45.2891 41.187 45.6285C41.2022 45.8585 40.9969 45.9878 40.8076 45.8617C40.7327 45.8119 40.6719 45.7002 40.6567 45.6081C40.6103 45.3248 40.591 45.0372 40.5581 44.7519C40.4571 43.8813 40.3596 43.0101 40.2509 42.1404C40.1448 41.29 40.0206 40.4418 39.9182 39.5911C39.899 39.4308 39.8433 39.4046 39.6979 39.4046C34.0912 39.4083 28.4845 39.4077 22.8778 39.4077C22.8204 39.4077 22.7627 39.41 22.7057 39.4051C22.467 39.3853 22.2657 39.2235 22.2115 39.0101C22.1498 38.7677 22.2388 38.5406 22.4559 38.4027C22.5849 38.3206 22.7189 38.2466 22.8505 38.1686C24.2822 37.3219 25.7114 36.4689 27.2263 35.7771C27.7422 35.5416 28.2728 35.3323 28.8109 35.1532C29.9779 34.7649 31.1802 34.5236 32.4028 34.4013C33.3194 34.3097 34.2381 34.2228 35.1581 34.1839C36.3564 34.1335 37.5567 34.1327 38.7561 34.1111C38.8407 34.1096 38.9253 34.1111 39.0303 34.1111C38.9669 33.7639 38.9069 33.4368 38.8461 33.1026C38.7845 33.1026 38.7374 33.1031 38.6901 33.1026C38.1885 33.0951 37.6866 33.1003 37.1858 33.0769C35.5244 33.0004 33.8712 33.0864 32.2287 33.3412C31.0448 33.5249 29.8812 33.8022 28.7349 34.1554C27.1594 34.6408 25.6649 35.3196 24.1933 36.0523C22.94 36.6762 21.6981 37.3231 20.4459 37.9498C20.1571 38.0944 19.8577 38.2587 19.5462 38.3091C18.4349 38.4891 17.3163 38.6229 16.201 38.7784C16.147 38.7859 16.0553 38.8314 16.055 38.8599C16.0535 38.9577 15.9988 39.0657 16.1367 39.1472C16.4605 39.3386 16.7966 39.5229 17.0794 39.7667C17.7116 40.3117 18.0428 40.9943 17.8865 41.858C17.8492 42.065 17.7411 42.2204 17.5538 42.2936C17.3605 42.369 17.1554 42.4358 16.9507 42.4545C16.6573 42.4813 16.3598 42.4597 16.0639 42.4617C16.0188 42.462 15.9609 42.4651 15.9314 42.4919C15.7518 42.6554 15.5786 42.8262 15.3856 43.0116C15.5439 43.0533 15.6833 43.0962 15.8255 43.127C17.0823 43.4002 18.3494 43.469 19.6268 43.3133C19.7364 43.3 19.8302 43.3228 19.87 43.4146C19.9045 43.4938 19.9139 43.6003 19.8918 43.6835C19.8623 43.7949 19.7599 43.8361 19.6426 43.8347C19.0022 43.826 18.3612 43.8381 17.7219 43.8064C17.0789 43.7748 16.4376 43.7051 15.7966 43.6415C15.5565 43.6176 15.3193 43.5643 15.0755 43.5234C15.0715 43.5603 15.0658 43.5885 15.0658 43.6164C15.0658 44.2642 15.0572 44.912 15.0695 45.5594C15.0798 46.1096 15.1656 46.6482 15.4295 47.1423C15.6271 47.5122 15.8952 47.8036 16.3312 47.8709C16.9441 47.9656 17.5587 48.048 18.1724 48.1355C19.0839 48.2653 19.9954 48.3955 20.9071 48.5253C21.165 48.5619 21.4231 48.5973 21.6746 48.6324C21.7007 48.3054 21.7148 47.9944 21.7523 47.6867C21.8582 46.8181 22.1782 46.0313 22.6813 45.3193C23.1651 44.6347 23.7772 44.0897 24.5177 43.7034C25.4911 43.1955 26.527 42.9957 27.6221 43.1273C28.4673 43.2286 29.2448 43.5183 29.9483 43.9933C30.9802 44.6897 31.6743 45.6472 32.0526 46.8334C32.0928 46.9592 32.1435 46.9897 32.2683 46.9897C35.5903 46.9859 38.9124 46.9868 42.2341 46.9868C46.5216 46.9868 50.8093 46.9865 55.0967 46.9891C55.208 46.9891 55.2585 46.9649 55.2952 46.8477C55.6537 45.6993 56.3068 44.7582 57.2957 44.0693C58.7056 43.087 60.252 42.8213 61.8877 43.3257C63.6796 43.8784 64.8541 45.0939 65.426 46.8886C65.4489 46.9603 65.4762 46.9882 65.5527 46.9882C67.3404 46.9862 69.128 46.9862 70.9157 46.9888C71.0006 46.9888 71.0336 46.9534 71.0559 46.8817C71.1236 46.6623 71.195 46.4441 71.2627 46.2245C71.2719 46.1945 71.2736 46.1585 71.267 46.128C71.1916 45.7725 71.1099 45.4181 71.0396 45.0617C71.0184 44.9543 70.9722 44.9246 70.8675 44.9258C70.318 44.9307 69.7682 44.9223 69.2184 44.9304C68.9537 44.9344 68.7214 44.861 68.5068 44.7119C68.0967 44.4269 67.7669 44.0624 67.4786 43.659C67.2868 43.3904 67.0914 43.1213 67.0206 42.7882C66.967 42.536 67.1141 42.3333 67.3711 42.3206C68.0385 42.2878 68.7064 42.263 69.3741 42.2348C69.4088 42.2334 69.4432 42.2299 69.5141 42.2248C69.4435 42.1859 69.408 42.1643 69.3707 42.1462C67.0355 41.0098 64.6077 40.1329 62.0864 39.5154C60.6117 39.1541 59.1223 38.8771 57.6123 38.7122C57.3252 38.6808 57.0433 38.6457 56.7714 38.5095C54.0591 37.1509 51.3422 35.8021 48.6241 34.4557C48.4291 34.3592 48.2192 34.2852 48.0084 34.2302C46.7014 33.89 45.3798 33.6182 44.041 33.4423C43.2841 33.343 42.5244 33.2644 41.7644 33.1927C41.3081 33.1498 40.8492 33.1311 40.3909 33.1147C40.0579 33.1026 39.7243 33.1124 39.3779 33.1124C39.4395 33.4501 39.4992 33.7783 39.5586 34.1044L39.5588 34.1033ZM64.5719 48.3523C64.5552 46.09 62.7839 44.145 60.269 44.1318C58.0066 44.1197 56.1287 46.0618 56.1358 48.3753C56.1433 50.6969 58.0419 52.6022 60.3441 52.5984C62.6856 52.5944 64.5808 50.6911 64.5719 48.3526V48.3523ZM22.7584 48.3382C22.7886 48.614 22.7983 48.8941 22.8525 49.165C23.0386 50.096 23.476 50.8918 24.1919 51.518C25.3689 52.5475 26.7321 52.8492 28.2146 52.4073C29.5646 52.0051 30.5033 51.1014 30.9725 49.7572C31.4311 48.4444 31.2579 47.1857 30.4933 46.0356C29.6432 44.7568 28.3841 44.2026 26.8899 44.1335C26.6541 44.1226 26.4115 44.1545 26.1789 44.2017C24.1988 44.6022 22.7831 46.3264 22.7579 48.3382H22.7584ZM30.1084 38.3114H39.7209C39.7183 38.2806 39.7177 38.2576 39.714 38.2348C39.5611 37.2799 39.4028 36.3258 39.26 35.3692C39.2359 35.2071 39.1805 35.1717 39.028 35.1728C37.2937 35.1863 35.5594 35.1855 33.8285 35.3182C32.8232 35.3954 31.826 35.5266 30.8366 35.7201C30.7454 35.7379 30.7115 35.7777 30.6917 35.8649C30.6151 36.2058 30.5291 36.5446 30.4479 36.8843C30.3355 37.3545 30.2242 37.8246 30.1087 38.3114H30.1084ZM39.7636 35.1881C39.7636 35.2382 39.7602 35.2623 39.7642 35.2854C39.9219 36.2444 40.0846 37.2025 40.234 38.1626C40.2563 38.3062 40.3137 38.3215 40.4356 38.3215C43.1399 38.3183 45.8441 38.3192 48.5487 38.3192H48.707C48.7139 38.2858 48.7225 38.2631 48.7228 38.24C48.7285 37.8934 49.0047 37.6677 49.3672 37.6821C49.7679 37.6982 50.1697 37.6861 50.5713 37.6853C50.6094 37.6853 50.6475 37.6792 50.7284 37.6723C50.2532 37.442 49.8233 37.2229 49.3847 37.0231C48.691 36.707 48.0078 36.3658 47.2463 36.2225C46.1361 36.0132 45.0362 35.742 43.9211 35.5669C42.9185 35.4095 41.9015 35.3407 40.8896 35.2442C40.5202 35.2091 40.1476 35.2065 39.7639 35.1884L39.7636 35.1881ZM29.5454 38.3103C29.737 37.5079 29.9283 36.7076 30.123 35.8928C28.1624 36.3353 26.4823 37.3332 24.7486 38.3103H29.5454ZM70.7992 47.5367H65.5989C65.6199 47.9314 65.6402 48.3157 65.6614 48.7133H65.8218C67.1069 48.7133 68.3924 48.7133 69.6776 48.7133C69.8445 48.7133 70.0455 48.7663 70.1694 48.6917C70.2985 48.614 70.3599 48.415 70.4393 48.2633C70.5626 48.0275 70.6762 47.7866 70.7992 47.537V47.5367ZM70.8474 44.4159C70.8491 44.3814 70.856 44.3606 70.85 44.3451C70.6725 43.877 70.4929 43.4097 70.3157 42.9416C70.2704 42.8216 70.1841 42.7807 70.0613 42.779C69.7415 42.7746 69.422 42.7628 69.1025 42.7559C69.0477 42.7548 68.993 42.7625 68.9235 42.7674C69.1028 43.3061 69.2743 43.8263 69.4527 44.3439C69.4645 44.3776 69.5301 44.4107 69.5723 44.4127C69.7438 44.4205 69.9156 44.4162 70.0874 44.4162C70.3392 44.4162 70.591 44.4162 70.8471 44.4162L70.8474 44.4159ZM16.0905 39.6904C16.0759 39.7002 16.0613 39.71 16.0467 39.7198C16.0467 39.8142 16.0467 39.9087 16.0467 40.0034C16.0467 40.6031 16.0467 41.2027 16.0467 41.8024C16.0467 41.8686 16.0335 41.9449 16.1379 41.9446C16.332 41.9446 16.5265 41.9446 16.7057 41.9446C16.7244 41.9003 16.731 41.8917 16.7313 41.883C16.7327 41.3216 16.7341 40.7605 16.7324 40.1991C16.7324 40.166 16.7149 40.1197 16.69 40.1018C16.4923 39.9616 16.2907 39.8269 16.0905 39.6907V39.6904Z" fill="#00B543"/>
<path d="M43.0608 41.1109C43.4239 41.1109 43.7867 41.1104 44.1498 41.1109C44.3216 41.1112 44.4374 41.22 44.4394 41.3795C44.4414 41.5477 44.3253 41.6565 44.1434 41.6562C43.427 41.6548 42.7106 41.6473 41.9941 41.6562C41.8137 41.6585 41.6775 41.5479 41.6721 41.3873C41.6663 41.2192 41.7957 41.1124 42.0004 41.1121C42.3538 41.1121 42.7074 41.1121 43.0608 41.1121V41.1104V41.1109Z" fill="#00B543"/>
<path d="M30.8025 41.6524C30.4635 41.6524 30.1245 41.6533 29.7855 41.6521C29.6091 41.6515 29.4964 41.5464 29.4961 41.3864C29.4955 41.2263 29.6102 41.1135 29.7812 41.1132C30.4592 41.112 31.1372 41.112 31.8152 41.1132C31.9881 41.1132 32.1031 41.2226 32.1054 41.3818C32.1077 41.541 31.9933 41.6512 31.8198 41.6521C31.4808 41.6535 31.1418 41.6524 30.8028 41.6524H30.8025Z" fill="#00B543"/>
<path d="M60.3752 45.9079C59.2624 45.9183 58.3576 46.5802 57.9999 47.6463C57.9234 47.8743 57.8362 47.9494 57.6799 47.9223C57.5029 47.8918 57.3988 47.7631 57.4582 47.5918C57.5517 47.3221 57.6483 47.046 57.7952 46.8039C58.8176 45.1168 61.1978 44.8718 62.5214 46.3297C63.3313 47.2219 63.5608 48.2747 63.1406 49.4148C62.7305 50.5272 61.9096 51.1902 60.7352 51.3532C59.6895 51.4983 58.8116 51.1341 58.104 50.3527C57.9738 50.2091 57.969 50.0611 58.0797 49.9589C58.2004 49.8475 58.3691 49.8584 58.4973 50.0018C58.9128 50.4659 59.4248 50.7529 60.0414 50.8283C60.7535 50.9153 61.3945 50.7302 61.9455 50.2615C62.3232 49.9405 62.5799 49.54 62.7202 49.0612C63.0554 47.9189 62.4996 46.6663 61.4247 46.1529C61.0925 45.9943 60.7444 45.9068 60.3752 45.9077V45.9079Z" fill="#00B543"/>
<path d="M57.3401 48.6725C57.3341 48.4387 57.4204 48.3219 57.5527 48.306C57.7004 48.2885 57.8214 48.3717 57.855 48.5251C57.8948 48.7065 57.9295 48.889 57.9602 49.0721C57.9797 49.1878 57.8839 49.3197 57.7658 49.3542C57.6525 49.3874 57.4987 49.3162 57.4652 49.1962C57.4098 48.9996 57.3697 48.7986 57.3401 48.6725Z" fill="#00B543"/>
<path d="M27.058 51.3799C25.6532 51.4239 24.3991 50.4828 24.0632 49.1332C23.8254 48.1774 24.0104 47.2973 24.617 46.5182C25.4169 45.491 26.8056 45.1084 28.0202 45.5688C28.149 45.6177 28.2471 45.7035 28.2342 45.8397C28.2267 45.9194 28.1579 46.0173 28.0882 46.0596C28.0271 46.0968 27.9164 46.0933 27.8441 46.0654C26.3599 45.4922 24.7478 46.4831 24.5396 48.0444C24.3821 49.2256 25.0398 50.2577 26.0628 50.6728C27.4742 51.2457 29.1058 50.4132 29.4009 48.8263C29.54 48.0792 29.3613 47.3897 28.8677 46.7969C28.7269 46.6276 28.7172 46.5191 28.8342 46.3924C28.9552 46.2614 29.0983 46.2583 29.2171 46.3927C29.645 46.8778 29.8934 47.4447 29.9447 48.0904C30.0373 49.259 29.5959 50.1895 28.6492 50.8637C28.1697 51.2051 27.6236 51.3911 27.0577 51.3796L27.058 51.3799Z" fill="#00B543"/>
</g>
<defs>
<clipPath id="clip0_1311_3160">
<rect width="58.3176" height="21.7095" fill="white" transform="translate(14 32)"/>
</clipPath>
</defs>
</svg>
