<svg width="119" height="20" viewBox="0 0 119 20" fill="#DADADA" xmlns="http://www.w3.org/2000/svg">
    <g id="Frame 157">
        <g id="layer1">
            <path id="path2383" fill-rule="evenodd" clip-rule="evenodd"
                d="M14.2671 1.0907C14.6953 1.10256 14.6498 1.40343 14.579 1.50715C13.3154 3.47279 10.3298 6.93387 8.15591 10.7312C7.796 11.3465 7.52796 11.7992 7.52796 12.4744C7.52796 13.3898 8.09944 14.4721 9.24749 14.9366C10.0027 15.2391 10.4781 15.2484 11.2932 15.2602C17.3446 15.4473 19.7705 15.2838 25.1855 15.1001C25.4982 15.0992 25.789 14.8885 25.8935 14.7612C26.9404 13.6696 27.5439 11.7073 27.5439 9.97593C27.5439 6.1196 24.7665 2.64593 20.4339 0.975272L19.7385 1.86706C23.5359 3.43657 25.4982 6.57138 25.4982 9.92874C25.4982 10.684 25.37 11.4156 25.1382 12.1144C24.9663 12.6017 24.7547 12.8815 24.1394 12.8908C19.7267 12.9852 17.2283 13.0543 12.8038 12.938C12.2331 12.9262 12.0485 12.718 11.9558 12.2661C11.885 11.9981 11.944 11.7756 12.1286 11.4393C14.4753 7.282 18.5634 2.53042 19.3659 1.40343C19.5185 1.19524 19.4468 0.775477 18.9234 0.636415C17.3918 0.183747 15.6731 0 13.9308 0C6.04186 0.032023 0.477702 4.46911 0.349609 9.97593C0.665719 16.5862 6.41355 20 13.9308 20C18.5306 20 22.7444 18.374 25.2099 15.7955L22.9323 15.8873C20.8292 17.7578 17.4601 18.7575 13.9754 18.7575C7.62403 18.7575 2.45269 15.5991 2.45269 9.92874C2.45269 5.05164 7.62315 1.07892 13.9754 1.07892L14.2671 1.0907ZM66.4456 13.0298L70.742 10.2086L64.2388 5.36437V6.55033H54.6194C53.3644 6.55033 52.3317 7.443 52.1446 8.60534L63.2965 8.59356V10.7076L54.7703 10.7194C53.4233 10.7194 52.32 11.7427 52.2609 13.0298H66.4456ZM107.297 6.51492H117.158V4.43628H107.241C103.532 4.43628 100.502 7.27015 100.35 10.8239L112.305 10.8113C113.081 10.8113 113.708 11.323 113.708 11.9391C113.708 12.5663 113.08 13.0661 112.305 13.0661L99.1434 13.0652V4.43628H95.2398V13.0088H87.4007C86.2501 12.8216 85.8893 11.9863 85.8893 10.3595L85.8901 4.43628H79.5952L73.9358 8.10548L69.0115 4.43628H53.8642C50.5069 4.43628 47.7083 6.74674 47.0921 9.82421H50.1351C48.987 10.6031 48.1036 11.7073 47.6156 13.0097L37.9844 13.0088C36.849 12.8216 36.4764 11.9863 36.4764 10.3595L36.4772 4.43628H32.5846V9.96415C32.4211 13.625 34.407 14.9366 36.6728 15.1448L66.9328 15.1439L72.5088 11.5429L77.3766 15.192H83.3327L75.7498 9.48873L81.9857 5.44696L81.9975 9.96415C81.8374 13.625 84.0189 14.9366 86.2855 15.1448L114.603 15.1439C116.555 15.1439 118.136 13.7168 118.136 11.9391C118.136 10.1723 116.554 8.74528 114.603 8.74528H104.823C104.915 7.50197 105.985 6.51492 107.297 6.51492Z" />
        </g>
    </g>
</svg>