<svg width="60" height="60" viewBox="0 0 60 60" fill="none" xmlns="http://www.w3.org/2000/svg">
<g clip-path="url(#clip0_753_3738)">
<path d="M29.9285 0.000257924C13.4029 0.0680516 -0.103263 13.4377 0.000101081 29.6243C0.103465 45.8413 13.5535 59.0272 29.9956 59.0307C46.4903 59.0343 60.0327 45.6986 59.9983 29.4816C59.9656 13.2379 46.3941 -0.0675358 29.9285 0.000257924ZM30.953 57.7462C15.7042 58.2226 1.92231 46.7351 1.3257 30.4147C0.774423 15.3823 12.5597 1.86815 29.1251 1.30261C44.374 0.781669 58.038 12.3458 58.6745 28.5432C59.2639 43.5577 47.5094 57.0611 30.953 57.7462Z" fill="#00B543"/>
<path d="M41.4798 36.7188C40.1687 35.1506 39.3998 33.4058 40.8016 31.3827C41.4998 30.3765 41.4073 29.1883 41.0192 28.043C40.8306 27.4899 40.292 26.9565 41.3003 26.498C41.6974 26.3178 41.7047 25.5935 40.9648 25.3972C40.4244 25.2527 39.8731 25.1439 39.3473 24.9601C38.6672 24.7229 38.3064 24.862 38.1903 25.6184C38.1069 26.1572 37.8693 26.671 37.7188 27.2027C37.5067 27.9538 38.1885 28.2678 38.5439 28.0358C39.8369 27.1884 39.6374 28.2981 39.8242 28.8779C40.0871 29.6986 39.8895 30.4657 39.4343 31.174C38.9284 31.9589 38.4387 32.9063 38.7144 33.7198C39.4089 35.7768 38.1758 35.5627 36.8756 35.5145C35.356 35.4575 34.8047 34.9115 34.8736 33.4219C34.8972 32.9009 35.0477 32.4246 35.3269 32.0035C36.3098 30.5228 36.3515 29.0063 35.6008 27.4275C35.5137 27.2437 35.0513 26.9172 35.6661 26.812C36.279 26.7067 36.4132 26.2322 36.3352 25.8183C36.2536 25.3937 35.7223 25.3758 35.3324 25.2795C34.8881 25.1689 34.4366 25.0761 34.0068 24.928C33.5244 24.7621 33.1889 24.8477 33.1001 25.3687C32.955 26.2161 32.2877 27.0011 32.7247 27.9056C32.79 28.0412 33.3032 28.1482 33.4211 28.0501C34.5254 27.1313 34.4638 28.1982 34.6487 28.7441C34.9026 29.4934 34.8228 30.257 34.4003 30.9206C33.5661 32.2319 33.2941 33.602 33.7964 35.0846C33.9016 35.3968 33.9977 35.7322 33.5698 35.7768C32.6268 35.8767 31.6965 36.5511 30.7771 36.1497C29.9593 35.7929 29.4969 33.5343 29.8867 32.5584C30.0354 32.1873 30.2512 31.843 30.4471 31.4897C31.0165 30.4639 31.0963 29.3846 30.7463 28.2892C30.5287 27.6059 30.117 26.9761 31.0237 26.4266C31.2667 26.2785 31.332 25.8397 30.944 25.5257C29.6292 24.4588 28.0534 24.8834 27.6073 26.4498C27.5384 26.6907 27.4967 26.9422 27.4096 27.1759C27.1177 27.9591 27.785 28.2339 28.1695 28.0055C29.3899 27.2794 29.2811 28.2463 29.5096 28.8618C29.8469 29.7663 29.4914 30.5406 29.0344 31.2792C28.358 32.3746 28.2873 33.5343 28.5067 34.7617C28.6355 35.486 29.7108 36.1033 29.1759 36.7455C28.7244 37.2861 27.7342 37.3914 26.9799 37.6822C26.6535 37.807 26.3198 37.9159 25.7721 38.1068C27.1884 32.1142 26.0024 26.9547 22.0837 22.4482C21.8715 22.2038 21.7011 22.0218 21.9132 21.6775C22.9469 20.0005 22.4445 18.154 22.4192 16.3824C22.3992 14.9035 21.1661 13.9151 19.6827 13.9044C18.1214 13.8919 16.8411 14.9231 16.852 16.4556C16.8647 18.22 16.2899 20.0754 17.4287 21.7292C17.6644 22.07 17.4069 22.2751 17.2056 22.4982C16.4005 23.392 16.4676 24.3732 16.7722 25.4597C18.3408 31.0598 19.9203 36.6581 21.3656 42.2903C21.7972 43.9691 22.7293 44.8005 24.3668 44.9932C27.0597 45.3125 29.7671 45.1216 32.4654 45.1234C34.8065 45.1252 37.1549 45.3107 39.4905 44.9557C40.8488 44.7488 41.9694 44.1672 42.3702 42.8184C43.0049 40.6829 43.0811 38.6277 41.4871 36.7188H41.4798ZM18.3698 16.6697C18.3753 15.9436 18.7851 15.56 19.4996 15.5083C20.2648 15.453 20.8089 15.7527 20.9068 16.5537C20.9793 17.1496 20.9811 17.7544 21.0174 18.402C20.9775 18.9568 20.963 19.5598 20.885 20.1557C20.7853 20.9104 20.2485 21.1048 19.554 21.0798C18.8232 21.0531 18.388 20.7212 18.3735 19.9862C18.3517 18.8819 18.359 17.7776 18.3662 16.6715L18.3698 16.6697ZM19.291 28.7334C18.9447 27.4792 18.6092 26.2232 18.2973 24.9601C17.98 23.6756 18.5258 23.0744 19.8441 23.2011C20.7273 23.2867 21.3511 23.7702 21.8171 24.4677C24.6533 28.7102 25.6543 33.2399 24.0367 38.1853C23.7774 38.9756 23.4292 39.6678 22.4083 39.9836C21.3656 36.221 20.3247 32.4799 19.2929 28.7352L19.291 28.7334ZM38.2556 43.5213C33.9723 43.5909 29.6873 43.5427 25.4022 43.5356C25.1501 43.5356 24.8981 43.466 24.646 43.4393C24.0258 43.3733 23.3585 43.309 23.159 42.6097C22.9469 41.8657 23.4764 41.3644 24.0041 40.9755C25.5273 39.8516 27.2773 39.1825 29.1795 38.5456C29.2249 39.7463 28.271 40.4563 27.9682 41.4269C29.6292 41.9995 30.108 40.7543 30.2766 39.7659C30.6175 37.7803 32.0665 37.6108 33.5861 37.3539C34.5653 37.188 34.7485 37.634 34.5635 38.4511C34.3151 39.5411 33.5897 40.4135 33.1128 41.4108C34.1247 41.8104 34.7031 41.4679 35.1238 40.6044C35.5246 39.782 35.8728 38.9488 35.9761 38.0479C36.0578 37.3414 36.3044 36.9578 37.1023 37.0203C38.0072 37.0916 39.1641 36.8258 39.6592 37.6322C40.156 38.4404 39.4107 39.336 39.0009 40.1334C38.7978 40.5295 38.5476 40.9024 38.2411 41.4126C40.2358 42.0548 40.1724 40.2976 40.8796 39.4894C41.7718 41.9193 40.8125 43.4785 38.252 43.5213H38.2556Z" fill="#00B543"/>
</g>
<defs>
<clipPath id="clip0_753_3738">
<rect width="60" height="59.0323" fill="white"/>
</clipPath>
</defs>
</svg>
