<svg width="119" height="119" viewBox="0 0 119 119" fill="none" xmlns="http://www.w3.org/2000/svg">
<circle cx="59.5" cy="59.5" r="59.5" fill="#00B543"/>
<path d="M57.2534 53.4204C57.2534 53.1641 57.2004 52.9079 57.1872 52.6583C56.7302 45.7924 64.3669 36.8829 71.699 39.4525C72.5932 39.7628 73.3284 40.8015 72.9906 41.685C72.8105 42.0717 72.5425 42.4092 72.209 42.6697C70.4803 44.2277 68.5993 45.7519 67.619 47.8832C66.6387 50.0144 66.9567 52.9753 68.9437 54.1691C70.7717 55.2549 73.1628 54.4185 74.8253 53.0764C76.4877 51.7342 77.7594 49.9267 79.5213 48.7262C79.8501 48.4563 80.2652 48.3195 80.687 48.3419C81.3891 48.4566 81.7003 49.2929 81.8262 50.0078C82.1091 51.6906 82.0461 53.4148 81.6411 55.0716C81.2361 56.7284 80.498 58.2816 79.4734 59.633C78.4488 60.9844 77.1599 62.1048 75.6884 62.9231C74.2168 63.7414 72.5945 64.2397 70.9241 64.3869C68.9371 64.5623 66.8904 64.2655 65.0955 65.0614C63.9691 65.6622 62.9627 66.4719 62.1282 67.4489L50.0538 79.8925C48.1198 81.9158 45.8811 84.0134 43.1324 83.9999C41.7055 83.93 40.3641 83.2864 39.4029 82.2102C38.4418 81.1341 37.9393 79.7135 38.0059 78.2604C38.2178 75.8256 39.9929 73.8832 41.7216 72.1566L55.4386 58.1955C56.1826 57.5498 56.7659 56.734 57.1408 55.8147C57.3343 55.0321 57.3726 54.2181 57.2534 53.4204Z" fill="white"/>
</svg>
