<svg width="40" height="40" viewBox="0 0 40 40" fill="none" xmlns="http://www.w3.org/2000/svg">
<path d="M20 40C31.0457 40 40 31.0457 40 20C40 8.9543 31.0457 0 20 0C8.9543 0 0 8.9543 0 20C0 31.0457 8.9543 40 20 40Z" fill="#00B543"/>
<path d="M14.3327 27.0068C12.9069 26.4222 11.9968 25.508 11.4137 24.2573C11.2502 23.9067 11.2179 23.593 11.4937 23.2669C10.4937 22.4238 9.94029 21.3615 9.77407 20.0915C9.67525 19.3386 9.71028 19.229 10.3859 18.8819C9.5836 17.3648 9.55216 15.8406 10.3536 14.3138C10.6833 13.6854 11.1622 13.6126 11.6608 14.1438C13.6167 16.2201 15.9922 17.5497 18.8546 18.0239C18.9282 18.0362 19.0019 18.0519 19.0756 18.0581C19.2086 18.0686 19.3451 18.073 19.5248 18.0826C19.5688 17.704 19.5805 17.3271 19.6596 16.9642C20.434 13.3751 24.7609 11.808 27.8021 14.021C28.0887 14.2296 28.3106 14.2752 28.6395 14.1411C29.229 13.8945 29.834 13.6847 30.4507 13.5127C30.6708 13.454 31.0338 13.4961 31.1695 13.6389C31.324 13.8028 31.3662 14.1394 31.3294 14.3831C31.2889 14.6574 31.1075 14.9089 30.97 15.2157C31.0612 15.2271 31.153 15.2336 31.2449 15.235C31.5818 15.2183 31.8262 15.3524 31.9538 15.6592C32.0814 15.966 31.9682 16.2193 31.7274 16.4392C31.1802 16.9371 30.6304 17.4332 30.1048 17.9529C29.9636 18.0955 29.877 18.2812 29.8595 18.4788C29.6322 24.8183 25.0241 29.8159 18.9336 30.7984C15.6031 31.3357 12.4496 30.8273 9.51622 29.1682C9.29079 29.0371 9.11922 28.8335 9.03106 28.5923C8.90888 28.1883 9.28353 27.8526 9.79654 27.8719C11.0537 27.9325 12.3109 27.7538 13.4981 27.346C13.7371 27.2584 13.9761 27.1505 14.3327 27.0068Z" fill="white"/>
</svg>
