<svg width="41" height="40" viewBox="0 0 41 40" fill="#DADADA" xmlns="http://www.w3.org/2000/svg">
    <g id="Volkswagen_logo_2019" clip-path="url(#clip0_4299_1724)">
        <g id="Group">
            <g id="Group_2">
                <g id="Group_3">
                    <path id="Vector"
                        d="M20.2488 38.0429C10.339 38.0429 2.22013 29.8842 2.22013 19.9744C2.22013 17.7457 2.61812 15.6364 3.37429 13.6464L13.9209 34.859C14.0403 35.1376 14.2392 35.3764 14.5576 35.3764C14.876 35.3764 15.075 35.1376 15.1944 34.859L20.0498 23.994C20.0896 23.8746 20.1692 23.7552 20.2886 23.7552C20.408 23.7552 20.4478 23.8746 20.5274 23.994L25.3828 34.859C25.5022 35.1376 25.7012 35.3764 26.0196 35.3764C26.338 35.3764 26.537 35.1376 26.6563 34.859L37.2029 13.6464C37.9591 15.6364 38.3571 17.7457 38.3571 19.9744C38.2775 29.8842 30.1586 38.0429 20.2488 38.0429ZM20.2488 15.8752C20.1294 15.8752 20.0896 15.7558 20.01 15.6364L14.3586 2.90088C16.1894 2.22431 18.1793 1.86612 20.2488 1.86612C22.3183 1.86612 24.3082 2.22431 26.139 2.90088L20.4876 15.6364C20.408 15.7956 20.3682 15.8752 20.2488 15.8752ZM14.478 28.9688C14.3586 28.9688 14.3188 28.8494 14.2392 28.73L5.08562 10.2636C6.71735 7.75628 8.90626 5.64697 11.5728 4.17443L18.1793 18.86C18.2589 19.0988 18.4579 19.1784 18.6569 19.1784H21.8407C22.0795 19.1784 22.2387 19.1386 22.3581 18.86L28.9647 4.17443C31.5913 5.64697 33.8201 7.75628 35.4518 10.2636L26.2186 28.73C26.1788 28.8494 26.0992 28.9688 25.9798 28.9688C25.8604 28.9688 25.8206 28.8494 25.741 28.73L22.2785 20.85C22.1591 20.5714 21.9999 20.5316 21.7611 20.5316H18.5773C18.3385 20.5316 18.1793 20.5714 18.0599 20.85L14.7168 28.73C14.677 28.8494 14.5974 28.9688 14.478 28.9688ZM20.2488 39.8736C31.273 39.8736 40.148 30.9985 40.148 19.9744C40.148 8.95024 31.273 0.0751953 20.2488 0.0751953C9.22465 0.0751953 0.349609 8.95024 0.349609 19.9744C0.349609 30.9985 9.22465 39.8736 20.2488 39.8736Z" />
                </g>
            </g>
        </g>
    </g>
    <defs>
        <clipPath id="clip0_4299_1724">
            <rect width="40" height="40" transform="translate(0.214844)" />
        </clipPath>
    </defs>
</svg>